<svg version="1.2" baseProfile="tiny" viewBox="0 0 18.000 18.000" xmlns:xlink="http://www.w3.org/1999/xlink" xmlns="http://www.w3.org/2000/svg">
<path style="fill:#ffffff;" d="M16.8,0H1.199C0.54,0,0,0.539,0,1.202v15.596   C0,17.46,0.54,18,1.199,18H16.8c0.662,0,1.2-0.54,1.2-1.202V1.202C18,0.539,17.462,0,16.8,0z M10.6,16.162H7.816v-2.689H10.6V16.162   z M13.257,7.864c-0.234,0.335-0.688,0.762-1.356,1.285l-0.658,0.513c-0.361,0.278-0.6,0.604-0.716,0.976   c-0.075,0.238-0.115,0.603-0.122,1.102H7.881c0.036-1.05,0.135-1.777,0.295-2.177C8.338,9.162,8.754,8.7,9.422,8.18L10.1,7.65   c0.224-0.168,0.402-0.352,0.538-0.552c0.25-0.338,0.373-0.717,0.373-1.125c0-0.471-0.14-0.903-0.414-1.291   c-0.275-0.387-0.779-0.582-1.51-0.582c-0.718,0-1.228,0.24-1.528,0.717c-0.3,0.478-0.451,0.975-0.451,1.489H4.416   C4.491,4.537,5.109,3.284,6.27,2.544c0.732-0.471,1.633-0.706,2.702-0.706c1.402,0,2.568,0.335,3.497,1.003   c0.929,0.673,1.392,1.667,1.392,2.985C13.859,6.63,13.658,7.311,13.257,7.864z"/>
</svg>