<?xml version="1.0" encoding="utf-8"?>
<!-- Generator: Adobe Illustrator 26.0.0, SVG Export Plug-In . SVG Version: 6.00 Build 0)  -->
<svg version="1.2" baseProfile="tiny" xmlns="http://www.w3.org/2000/svg" xmlns:xlink="http://www.w3.org/1999/xlink" x="0px"
	 y="0px" viewBox="0 0 16 16" overflow="visible" xml:space="preserve">
<g id="Layer_1">
	<g>
		<path fill="#E0E0E0" d="M7.53,14.924v-1.564H5.736C5.951,14.162,6.652,14.784,7.53,14.924z"/>
		<path fill="#E0E0E0" d="M12.155,6.379c-0.008-0.124-0.017-0.337-0.026-0.568l-0.005-0.124c-0.013-0.288-0.025-0.585-0.04-0.739
			c-0.022-0.398-0.082-0.757-0.193-1.166l-0.017-0.067c-0.012-0.043-0.023-0.089-0.035-0.135l-0.005-0.023
			c-0.008-0.032-0.015-0.064-0.026-0.093c-0.038-0.107-0.069-0.188-0.105-0.27c-0.041-0.101-0.08-0.187-0.124-0.273
			c-0.074-0.135-0.129-0.232-0.191-0.323c-0.138-0.206-0.307-0.4-0.534-0.612l-0.04-0.035c-0.17-0.151-0.335-0.275-0.52-0.39
			l-0.104-0.066c-0.09-0.052-0.186-0.098-0.267-0.137C9.858,1.326,9.788,1.297,9.718,1.269C9.414,1.144,9.09,1.052,8.756,0.996
			C8.655,0.979,8.553,0.966,8.45,0.955L8.296,0.937C8.184,0.928,8.062,0.923,7.916,0.92H7.899C7.752,0.923,7.631,0.928,7.517,0.937
			L7.365,0.955C7.262,0.966,7.159,0.979,7.059,0.996C6.725,1.052,6.401,1.144,6.096,1.269C6.027,1.297,5.957,1.326,5.89,1.358
			C5.815,1.393,5.717,1.441,5.621,1.496l-0.1,0.064C5.336,1.675,5.171,1.799,5,1.95L4.959,1.986c-0.225,0.21-0.394,0.404-0.532,0.61
			C4.363,2.69,4.309,2.786,4.235,2.922c-0.044,0.087-0.083,0.173-0.123,0.27c-0.036,0.081-0.065,0.16-0.105,0.272
			c-0.01,0.029-0.018,0.061-0.025,0.093l-0.01,0.039c-0.01,0.041-0.02,0.081-0.031,0.121L3.924,3.78
			C3.813,4.188,3.753,4.544,3.731,4.941C3.715,5.105,3.702,5.415,3.689,5.72L3.686,5.79C3.677,6.022,3.668,6.214,3.66,6.338
			C3.567,7.687,3.481,8.915,2.618,9.529c-1.488,1.06-1.479,2.936-1.461,2.936H7.53V8.109c0-1.041,0.847-1.887,1.888-1.887h1.81
			c0.339,0,0.691,0.4,0.967,0.564c-0.008-0.103-0.022-0.198-0.03-0.305C12.163,6.446,12.158,6.415,12.155,6.379z"/>
		<polygon fill="#E0E0E0" points="12.205,6.794 12.205,6.793 12.204,6.793 		"/>
		<path fill="#6A6A6A" d="M11.228,7.722h-1.81c-0.213,0-0.387,0.174-0.387,0.387v4.306v0.05v0.895v1.306v0.944v0.002
			C9.03,15.826,9.204,16,9.417,16h1.81c0.213,0,0.387-0.174,0.387-0.387v-2.252v-0.895V9.118V8.109
			C11.614,7.896,11.441,7.722,11.228,7.722z"/>
		<path fill="#6A6A6A" d="M15.343,7.722h-1.81c-0.136,0-0.25,0.075-0.319,0.182c-0.039,0.06-0.067,0.128-0.067,0.205v1.375v2.981
			v0.895v2.252c0,0.213,0.174,0.387,0.387,0.387h1.81c0.213,0,0.387-0.174,0.387-0.387V8.109C15.73,7.896,15.556,7.722,15.343,7.722
			z"/>
		<path fill="#6A6A6A" d="M12.743,3.533l-0.045-0.175c-0.019-0.079-0.037-0.149-0.072-0.25c-0.036-0.1-0.074-0.198-0.111-0.282
			c-0.044-0.11-0.094-0.22-0.154-0.339L12.333,2.44c-0.078-0.147-0.151-0.27-0.224-0.373c-0.172-0.26-0.383-0.503-0.666-0.767
			l-0.082-0.072c-0.19-0.17-0.397-0.322-0.652-0.482c-0.031-0.02-0.061-0.039-0.09-0.055c-0.095-0.054-0.199-0.108-0.328-0.169
			c-0.083-0.039-0.167-0.075-0.251-0.109C9.68,0.265,9.295,0.156,8.898,0.088C8.782,0.069,8.662,0.054,8.496,0.035
			C8.453,0.029,8.41,0.025,8.368,0.021C8.241,0.01,8.104,0.004,7.906,0C7.711,0.004,7.574,0.01,7.447,0.021
			C7.404,0.025,7.361,0.029,7.32,0.035C7.153,0.054,7.033,0.069,6.917,0.088C6.52,0.156,6.135,0.265,5.774,0.412
			c-0.084,0.034-0.169,0.07-0.252,0.109C5.392,0.583,5.287,0.637,5.194,0.69C5.166,0.707,5.136,0.726,5.104,0.747
			C4.849,0.906,4.641,1.059,4.452,1.228L4.37,1.301C4.089,1.563,3.878,1.807,3.705,2.066C3.633,2.169,3.56,2.291,3.482,2.438
			L3.453,2.49C3.396,2.602,3.345,2.716,3.301,2.826C3.263,2.913,3.224,3.011,3.189,3.11C3.152,3.217,3.134,3.288,3.118,3.357
			L3.072,3.533c-0.126,0.466-0.2,0.905-0.224,1.34c-0.018,0.172-0.033,0.558-0.047,0.9L2.801,5.797
			C2.792,6.008,2.785,6.201,2.777,6.313c-0.076,1.12-0.148,2.178-0.66,2.543c-2.05,1.46-1.847,3.852-1.837,3.951
			c0.042,0.442,0.396,0.554,0.824,0.554h3.749c0.233,1.28,1.331,2.27,2.695,2.423c-0.005-0.057-0.017-0.112-0.017-0.171v-0.44
			v-0.248c-0.878-0.141-1.579-0.763-1.794-1.564H7.53v-0.108v-0.787H1.157c-0.017,0-0.026-1.876,1.461-2.936
			C3.481,8.915,3.567,7.687,3.66,6.338C3.668,6.214,3.677,6.022,3.686,5.79l0.003-0.07c0.013-0.305,0.026-0.615,0.042-0.779
			C3.753,4.544,3.813,4.188,3.924,3.78l0.017-0.064c0.011-0.039,0.021-0.079,0.031-0.121l0.01-0.039
			c0.007-0.032,0.015-0.064,0.025-0.093c0.04-0.112,0.07-0.19,0.105-0.272c0.04-0.097,0.079-0.183,0.123-0.27
			C4.309,2.786,4.363,2.69,4.428,2.596c0.138-0.206,0.307-0.4,0.532-0.61L5,1.95c0.17-0.151,0.335-0.275,0.521-0.39l0.1-0.064
			C5.717,1.441,5.815,1.393,5.89,1.358c0.067-0.032,0.137-0.061,0.207-0.089c0.305-0.125,0.629-0.216,0.963-0.273
			c0.1-0.017,0.203-0.029,0.306-0.041l0.151-0.018C7.631,0.928,7.752,0.923,7.899,0.92h0.016c0.147,0.002,0.269,0.008,0.381,0.017
			L8.45,0.955c0.103,0.011,0.206,0.024,0.306,0.04C9.09,1.052,9.414,1.144,9.718,1.269c0.069,0.028,0.14,0.057,0.207,0.089
			c0.081,0.039,0.177,0.085,0.267,0.137l0.104,0.066c0.185,0.115,0.349,0.239,0.52,0.39l0.04,0.035
			c0.227,0.212,0.396,0.406,0.534,0.612c0.062,0.091,0.118,0.188,0.191,0.323c0.044,0.086,0.083,0.172,0.124,0.273
			c0.036,0.082,0.067,0.163,0.105,0.27c0.011,0.029,0.018,0.061,0.026,0.093l0.005,0.023c0.011,0.046,0.022,0.092,0.035,0.135
			l0.017,0.067c0.112,0.409,0.171,0.768,0.193,1.166c0.015,0.154,0.027,0.451,0.04,0.739l0.005,0.124
			c0.009,0.231,0.018,0.445,0.026,0.568c0.002,0.036,0.007,0.066,0.01,0.102c0.007,0.107,0.021,0.201,0.03,0.305
			c0,0.005,0.001,0.009,0.001,0.014c0.003-0.003,0.005-0.005,0.008-0.007c0,0,0,0,0.001-0.001c0.058-0.058,0.119-0.11,0.183-0.16
			c0.091-0.072,0.188-0.134,0.289-0.189c0.114-0.062,0.234-0.115,0.36-0.15c-0.007-0.107-0.054-1.248-0.07-1.417
			C12.942,4.438,12.869,3.998,12.743,3.533z"/>
	</g>
</g>
<g id="METRICS_AND_KEYLINES">
</g>
<g id="Isolation_Mode">
</g>
<g id="filled">
</g>
</svg>
