<?xml version="1.0" encoding="utf-8"?>
<!-- Generator: Adobe Illustrator 26.0.2, SVG Export Plug-In . SVG Version: 6.00 Build 0)  -->
<svg version="1.2" baseProfile="tiny" xmlns="http://www.w3.org/2000/svg" xmlns:xlink="http://www.w3.org/1999/xlink" x="0px"
	 y="0px" viewBox="0 0 16 16" overflow="visible" xml:space="preserve">
<g id="Layer_1">
	<g>
		<path fill="#FFFFFF" d="M7.886,15.13c1.062,0,1.949-0.689,2.196-1.613H5.69C5.937,14.441,6.823,15.13,7.886,15.13z"/>
		<path fill="#FFFFFF" d="M11.855,3.766l0.037-0.032c-0.01-0.036-0.019-0.073-0.029-0.111l-0.006-0.023
			c-0.008-0.033-0.015-0.065-0.026-0.095c-0.038-0.108-0.07-0.19-0.106-0.274c-0.041-0.102-0.081-0.189-0.125-0.276
			c-0.075-0.137-0.131-0.235-0.194-0.327c-0.139-0.208-0.31-0.405-0.54-0.619l-0.04-0.036c-0.172-0.153-0.339-0.278-0.526-0.395
			l-0.105-0.067c-0.091-0.052-0.187-0.099-0.27-0.138c-0.067-0.033-0.139-0.062-0.209-0.09C9.41,1.157,9.082,1.065,8.744,1.007
			c-0.102-0.017-0.205-0.03-0.31-0.041L8.279,0.948C8.166,0.939,8.043,0.933,7.894,0.931H7.878C7.729,0.933,7.606,0.939,7.49,0.948
			L7.338,0.966C7.233,0.978,7.129,0.99,7.027,1.007C6.69,1.065,6.362,1.157,6.053,1.283c-0.071,0.029-0.141,0.058-0.209,0.09
			C5.769,1.41,5.669,1.458,5.573,1.513L5.471,1.578C5.284,1.695,5.117,1.82,4.945,1.973L4.903,2.01
			C4.676,2.222,4.505,2.419,4.366,2.627C4.3,2.721,4.245,2.819,4.17,2.956C4.126,3.044,4.086,3.131,4.046,3.229
			C4.01,3.311,3.98,3.391,3.94,3.504c-0.01,0.03-0.018,0.062-0.026,0.094l-0.01,0.039C3.894,3.679,3.884,3.72,3.873,3.76
			L3.856,3.824C3.743,4.237,3.683,4.597,3.66,4.999c-0.016,0.166-0.029,0.48-0.042,0.788L3.615,5.858
			C3.606,6.092,3.597,6.287,3.588,6.412C3.495,7.777,3.407,9.02,2.534,9.641c-1.505,1.072-1.496,2.97-1.478,2.97h0.72l0.032-0.028
			L11.855,3.766z"/>
		<path fill="#FFFFFF" d="M12.157,5.879l-0.006-0.125c-0.012-0.291-0.025-0.592-0.04-0.747c-0.006-0.099-0.021-0.192-0.031-0.288
			l-8.961,7.864l-0.032,0.028h11.628c0.016,0,0.022-1.902-1.478-2.97c-0.874-0.622-0.961-1.824-1.054-3.187
			C12.175,6.329,12.166,6.113,12.157,5.879z"/>
		<path d="M15.853,1.408c0.179-0.158,0.197-0.431,0.039-0.61c-0.039-0.045-0.086-0.08-0.137-0.104
			c-0.026-0.012-0.055-0.015-0.082-0.022c-0.026-0.007-0.051-0.019-0.078-0.021c-0.011-0.001-0.022,0.004-0.033,0.004
			c-0.07,0.001-0.138,0.022-0.201,0.057c-0.027,0.015-0.055,0.024-0.079,0.045L12.636,3.08l-0.002,0.001
			c-0.029-0.077-0.058-0.156-0.087-0.221c-0.044-0.111-0.095-0.223-0.156-0.343l-0.028-0.049c-0.079-0.149-0.153-0.273-0.226-0.377
			c-0.174-0.263-0.388-0.509-0.674-0.776l-0.082-0.073c-0.193-0.172-0.402-0.326-0.66-0.488c-0.031-0.02-0.061-0.039-0.091-0.056
			c-0.096-0.055-0.201-0.109-0.331-0.171c-0.084-0.04-0.169-0.076-0.254-0.11C9.679,0.268,9.29,0.158,8.888,0.089
			C8.77,0.069,8.649,0.054,8.481,0.035C8.438,0.03,8.395,0.025,8.352,0.021C8.223,0.01,8.084,0.004,7.885,0
			C7.688,0.004,7.548,0.01,7.42,0.021C7.377,0.025,7.334,0.03,7.291,0.035c-0.169,0.019-0.29,0.034-0.408,0.054
			C6.481,0.158,6.092,0.268,5.727,0.417c-0.085,0.035-0.171,0.071-0.255,0.11C5.34,0.59,5.235,0.645,5.141,0.698
			c-0.029,0.017-0.06,0.036-0.092,0.057C4.791,0.917,4.581,1.072,4.39,1.242L4.307,1.316C4.023,1.582,3.809,1.828,3.634,2.09
			C3.562,2.195,3.488,2.318,3.409,2.467L3.379,2.519c-0.057,0.114-0.11,0.228-0.155,0.34C3.186,2.947,3.147,3.047,3.112,3.146
			C3.074,3.254,3.056,3.327,3.04,3.397L2.994,3.574C2.866,4.045,2.792,4.49,2.768,4.93C2.75,5.104,2.734,5.495,2.72,5.84
			L2.719,5.865C2.711,6.079,2.703,6.273,2.695,6.387C2.618,7.52,2.545,8.59,2.027,8.959c-2.074,1.477-1.868,3.897-1.859,3.997
			c0.034,0.361,0.278,0.5,0.597,0.542l-0.619,0.543c-0.135,0.118-0.178,0.301-0.125,0.461c0.018,0.053,0.046,0.104,0.086,0.149
			c0.005,0.006,0.013,0.008,0.019,0.014c0.037,0.038,0.078,0.07,0.124,0.092c0.019,0.009,0.041,0.01,0.061,0.016
			c0.031,0.009,0.061,0.022,0.093,0.024c0.005,0,0.009-0.002,0.014-0.002c0.005,0,0.009,0.003,0.014,0.003
			c0.032,0,0.063-0.01,0.094-0.017c0.016-0.004,0.032-0.003,0.047-0.008c0.05-0.017,0.098-0.044,0.141-0.081
			c0.001-0.001,0.002-0.001,0.003-0.002l1.338-1.174h2.739C5.051,14.925,6.338,16,7.886,16c1.548,0,2.835-1.075,3.091-2.483h3.793
			c0.433,0,0.791-0.113,0.833-0.561c0.01-0.101,0.215-2.52-1.859-3.997c-0.517-0.369-0.59-1.439-0.667-2.573
			c-0.007-0.106-0.015-0.285-0.023-0.484L13.051,5.84c-0.014-0.345-0.03-0.736-0.047-0.907c-0.016-0.3-0.065-0.604-0.128-0.913
			l0.006-0.005L15.853,1.408z M1.056,12.611c-0.017,0-0.027-1.898,1.478-2.97C3.407,9.02,3.495,7.777,3.588,6.412
			c0.008-0.125,0.018-0.32,0.027-0.554l0.003-0.071C3.631,5.479,3.644,5.165,3.66,4.999c0.023-0.402,0.083-0.763,0.196-1.175
			L3.873,3.76c0.011-0.04,0.021-0.08,0.032-0.122l0.01-0.039C3.922,3.566,3.929,3.534,3.94,3.504C3.98,3.391,4.01,3.311,4.046,3.229
			c0.04-0.098,0.079-0.185,0.124-0.273C4.245,2.819,4.3,2.721,4.366,2.627c0.139-0.208,0.31-0.405,0.538-0.617l0.041-0.036
			C5.117,1.82,5.284,1.695,5.471,1.578l0.101-0.065c0.097-0.055,0.196-0.104,0.272-0.14c0.068-0.032,0.138-0.062,0.209-0.09
			C6.362,1.157,6.69,1.065,7.027,1.007c0.102-0.017,0.205-0.03,0.31-0.041L7.49,0.948c0.116-0.01,0.238-0.015,0.387-0.017h0.016
			c0.149,0.002,0.272,0.008,0.385,0.017l0.156,0.018c0.104,0.011,0.208,0.024,0.31,0.041c0.338,0.057,0.666,0.15,0.974,0.276
			c0.07,0.029,0.142,0.058,0.209,0.09c0.082,0.039,0.179,0.086,0.27,0.138l0.105,0.067c0.187,0.116,0.353,0.242,0.526,0.395
			l0.04,0.036c0.229,0.214,0.4,0.41,0.54,0.619c0.063,0.092,0.119,0.19,0.194,0.327c0.044,0.087,0.084,0.174,0.125,0.276
			c0.036,0.083,0.068,0.165,0.106,0.274c0.011,0.03,0.018,0.062,0.026,0.095l0.006,0.023c0.009,0.038,0.019,0.075,0.029,0.111
			l-0.037,0.032L1.808,12.583l-0.032,0.028H1.056z M7.886,15.13c-1.062,0-1.949-0.689-2.196-1.613h4.392
			C9.835,14.441,8.948,15.13,7.886,15.13z M13.237,9.641c1.499,1.068,1.494,2.97,1.478,2.97H3.087l0.032-0.028l8.961-7.864l0,0
			c0.01,0.095,0.026,0.189,0.031,0.288c0.015,0.156,0.028,0.456,0.04,0.747l0.006,0.125c0.009,0.234,0.018,0.45,0.026,0.575
			C12.276,7.817,12.363,9.019,13.237,9.641z"/>
	</g>
</g>
<g id="METRICS_AND_KEYLINES">
</g>
<g id="Isolation_Mode">
</g>
<g id="filled">
</g>
</svg>
