<?xml version="1.0" encoding="utf-8"?>
<!-- Generator: Adobe Illustrator 26.0.2, SVG Export Plug-In . SVG Version: 6.00 Build 0)  -->
<svg version="1.2" baseProfile="tiny" xmlns="http://www.w3.org/2000/svg" xmlns:xlink="http://www.w3.org/1999/xlink" x="0px"
	 y="0px" viewBox="0 0 16 16" overflow="visible" xml:space="preserve">
<g id="Layer_1">
	<g>
		<path fill="#FFFFFF" d="M8.002,0.842C4.054,0.842,0.842,4.053,0.842,8c0,3.947,3.211,7.158,7.158,7.158
			c3.946,0,7.157-3.211,7.157-7.158C15.158,4.053,11.948,0.842,8.002,0.842z M12.727,8.395H3.273C3.055,8.395,2.878,8.218,2.878,8
			s0.177-0.395,0.395-0.395h9.454c0.218,0,0.395,0.177,0.395,0.395S12.945,8.395,12.727,8.395z"/>
		<path d="M12.727,7.605H3.273C3.055,7.605,2.878,7.782,2.878,8s0.177,0.395,0.395,0.395h9.454c0.218,0,0.395-0.177,0.395-0.395
			S12.945,7.605,12.727,7.605z"/>
		<path d="M8.001,0C3.589,0,0,3.589,0,8c0,4.411,3.589,8,8,8C12.411,16,16,12.411,16,8C16,3.589,12.412,0,8.001,0z M8.001,15.158
			c-3.947,0-7.158-3.211-7.158-7.158c0-3.947,3.211-7.158,7.159-7.158c3.946,0,7.156,3.211,7.156,7.158
			C15.158,11.947,11.947,15.158,8.001,15.158z"/>
	</g>
</g>
<g id="METRICS_AND_KEYLINES">
</g>
<g id="Isolation_Mode">
</g>
<g id="filled">
</g>
</svg>
