<?xml version="1.0" encoding="utf-8"?>
<!-- Generator: Adobe Illustrator 26.0.0, SVG Export Plug-In . SVG Version: 6.00 Build 0)  -->
<svg version="1.2" baseProfile="tiny" xmlns="http://www.w3.org/2000/svg" xmlns:xlink="http://www.w3.org/1999/xlink" x="0px"
	 y="0px" viewBox="0 0 16 16" overflow="visible" xml:space="preserve">
<g id="Layer_1">
	<g>
		<path fill="#6A6A6A" d="M13.109,14.323c-0.009,0.007-0.017,0.015-0.026,0.022"/>
		<path fill="#6A6A6A" d="M7.269,0.047C5.589,0.2,4.076,0.856,2.873,1.859C2.863,1.866,2.854,1.875,2.845,1.883
			c-0.082,0.069-0.162,0.139-0.241,0.21c-0.054,0.049-0.106,0.1-0.158,0.151C2.411,2.277,2.375,2.31,2.341,2.344
			C2.252,2.433,2.166,2.524,2.082,2.616C2.067,2.632,2.054,2.648,2.04,2.664C1.972,2.74,1.905,2.816,1.84,2.895
			C1.8,2.942,1.763,2.992,1.725,3.04c-0.037,0.046-0.074,0.092-0.11,0.139c-0.054,0.072-0.107,0.146-0.159,0.22
			C1.44,3.422,1.423,3.445,1.407,3.469C0.521,4.756,0,6.314,0,7.992c0,1.9,0.658,3.672,1.809,5.07
			c0.007,0.008,0.014,0.016,0.02,0.025c0.072,0.088,0.147,0.174,0.223,0.259c0.038,0.042,0.077,0.083,0.116,0.125
			c0.05,0.053,0.1,0.107,0.152,0.159c0.011,0.011,0.02,0.022,0.031,0.033l0,0c0.321,0.321,0.665,0.609,1.027,0.867L0.96,14.411
			c-0.266-0.013-0.493,0.193-0.506,0.459c-0.013,0.266,0.192,0.493,0.459,0.506l4.311,0.209c0.054,0.003,0.106-0.007,0.156-0.021
			c0.092-0.027,0.177-0.078,0.24-0.154c0.097-0.117,0.133-0.274,0.097-0.422l-0.088-0.36l-0.828-3.395
			c-0.022-0.089-0.067-0.166-0.127-0.227c-0.115-0.115-0.286-0.17-0.456-0.128c-0.259,0.063-0.418,0.324-0.355,0.583l0.642,2.634
			c-0.41-0.234-0.789-0.504-1.137-0.805c-0.003-0.003-0.006-0.005-0.009-0.008c-0.092-0.08-0.181-0.165-0.269-0.249
			c-0.057-0.055-0.112-0.113-0.167-0.17c-0.038-0.04-0.077-0.079-0.114-0.12c-0.019-0.021-0.038-0.043-0.057-0.064
			c-1.149-1.288-1.778-2.931-1.778-4.672c0-3.658,2.743-6.667,6.381-7c0.039-0.004,0.076-0.013,0.111-0.025
			c0.206-0.07,0.346-0.273,0.326-0.5C7.769,0.218,7.534,0.023,7.269,0.047z"/>
		<path fill="#6A6A6A" d="M14.192,2.939c-0.007-0.008-0.014-0.017-0.021-0.025c-0.072-0.088-0.147-0.174-0.223-0.259
			c-0.038-0.042-0.077-0.083-0.116-0.125c-0.05-0.053-0.1-0.107-0.152-0.159c-0.011-0.011-0.02-0.022-0.031-0.033l0,0
			c-0.321-0.321-0.665-0.609-1.027-0.867l2.418,0.118c0.266,0.013,0.493-0.193,0.506-0.459c0.013-0.266-0.192-0.493-0.459-0.506
			l-4.311-0.209c-0.054-0.003-0.106,0.007-0.156,0.021c-0.092,0.027-0.177,0.078-0.24,0.154c-0.097,0.117-0.133,0.274-0.097,0.422
			l0.088,0.36l0.828,3.395c0.022,0.089,0.067,0.166,0.127,0.227c0.115,0.115,0.286,0.17,0.456,0.128
			c0.259-0.063,0.418-0.324,0.355-0.583l-0.642-2.634c0.41,0.234,0.789,0.504,1.137,0.805c0.003,0.003,0.006,0.005,0.009,0.008
			c0.092,0.08,0.181,0.165,0.269,0.249c0.057,0.055,0.112,0.113,0.167,0.17c0.038,0.04,0.077,0.079,0.113,0.119
			c0.02,0.021,0.038,0.043,0.058,0.065c1.149,1.288,1.778,2.931,1.777,4.671c0,3.658-2.743,6.667-6.381,7
			c-0.039,0.004-0.076,0.013-0.111,0.025c-0.206,0.07-0.346,0.273-0.326,0.5c0.025,0.265,0.259,0.461,0.525,0.437
			c1.68-0.154,3.192-0.809,4.396-1.812c0.009-0.007,0.017-0.015,0.026-0.022c0.082-0.069,0.163-0.139,0.243-0.212
			c0.055-0.05,0.107-0.102,0.16-0.153c0.034-0.033,0.069-0.065,0.103-0.098c0.088-0.089,0.175-0.179,0.259-0.272
			c0.015-0.016,0.029-0.034,0.044-0.05c0.067-0.075,0.134-0.151,0.198-0.229c0.04-0.048,0.077-0.097,0.116-0.146
			c0.036-0.046,0.073-0.092,0.109-0.138c0.055-0.072,0.107-0.146,0.159-0.221c0.016-0.023,0.033-0.045,0.049-0.068
			C15.479,11.244,16,9.686,16,8.008C16,6.108,15.343,4.337,14.192,2.939z"/>
	</g>
</g>
<g id="METRICS_AND_KEYLINES">
</g>
<g id="Isolation_Mode">
</g>
<g id="filled">
</g>
</svg>
