<?xml version="1.0" encoding="utf-8"?>
<!-- Generator: Adobe Illustrator 26.0.0, SVG Export Plug-In . SVG Version: 6.00 Build 0)  -->
<svg version="1.2" baseProfile="tiny" xmlns="http://www.w3.org/2000/svg" xmlns:xlink="http://www.w3.org/1999/xlink" x="0px"
	 y="0px" viewBox="0 0 32 32" overflow="visible" xml:space="preserve">
<g id="Layer_1">
	<g>
		<path fill="#6A6A6A" d="M29.938,26.34h-7.125V4.215c0-0.414-0.336-0.75-0.75-0.75h-11c-0.414,0-0.75,0.336-0.75,0.75V26.34h-6.25
			c-0.414,0-0.75,0.336-0.75,0.75s0.336,0.75,0.75,0.75h7c0.414,0,0.75-0.336,0.75-0.75V4.965h9.5V27.09
			c0,0.414,0.336,0.75,0.75,0.75h7.875c0.414,0,0.75-0.336,0.75-0.75S30.352,26.34,29.938,26.34z"/>
		<polygon fill="#6A6A6A" points="5.869,4.602 5.893,4.602 5.893,11.414 6.912,11.414 6.912,3.618 6.012,3.618 4.309,4.53 
			4.514,5.333 		"/>
	</g>
</g>
<g id="METRICS_AND_KEYLINES">
</g>
<g id="Isolation_Mode">
</g>
<g id="filled">
</g>
</svg>
