<?xml version="1.0" encoding="utf-8"?>
<!-- Generator: Adobe Illustrator 26.0.0, SVG Export Plug-In . SVG Version: 6.00 Build 0)  -->
<svg version="1.2" baseProfile="tiny" xmlns="http://www.w3.org/2000/svg" xmlns:xlink="http://www.w3.org/1999/xlink" x="0px"
	 y="0px" viewBox="0 0 32 32" overflow="visible" xml:space="preserve">
<g id="Layer_1">
	<g>
		<path fill="none" d="M15.505,30.365h9.305v-7.528h-9.305V30.365z M19.292,25.065h1.732v3.496h-1.732V25.065z"/>
		<rect x="19.292" y="25.065" fill="#6A6A6A" width="1.732" height="3.496"/>
		<path fill="#6A6A6A" d="M30.105,16.636c-0.387-0.405-0.875-0.601-1.414-0.599c-0.188,0.005-0.87,0.004-1.679,0.001
			c-0.541-0.002-1.136-0.005-1.684-0.008c-0.088,0-0.152-0.001-0.232-0.001c-1.625-0.008-1.644-0.008-1.739,0.014
			c-0.863,0.208-1.45,0.78-1.7,1.658c-0.069,0.246-0.104,0.515-0.104,0.822l0,0.065l-0.008,1.643l-0.005,1.036h-6.72h-0.061
			c-0.001,0-0.003,0-0.004,0c-0.196,0-0.381,0.077-0.521,0.217c-0.146,0.145-0.226,0.339-0.226,0.546v0.313v8.758
			c0,0.421,0.336,0.763,0.749,0.763h10.804c0.413,0,0.75-0.342,0.75-0.763V22.03c0-0.421-0.337-0.763-0.75-0.763h-2.468l0.008-1.685
			l0.004-0.947c0.001-0.146,0.012-0.262,0.034-0.345c0.064-0.249,0.169-0.426,0.484-0.526c0.246,0.004,0.951,0.003,1.697,0.008
			l0.275,0.002l0.011,0c1.317,0.008,2.819,0.015,3.135,0.006c0.103-0.028,0.207,0.043,0.294,0.143
			c0.106,0.121,0.172,0.352,0.172,0.602v1.998h1.551v-2.092C30.756,17.724,30.519,17.069,30.105,16.636z M24.81,22.837v7.528h-9.305
			v-7.528H24.81z"/>
		<path fill="#6A6A6A" d="M3.962,30.09l-0.455-0.344c-0.383-0.289-0.63-0.712-0.697-1.191s0.055-0.954,0.344-1.337l8.07-10.695
			c0.206-0.273,0.208-0.649,0.005-0.925C8.93,12.481,8.955,8.143,11.29,5.049c1.705-2.26,4.364-3.503,7.074-3.503
			c0.934,0,1.875,0.148,2.783,0.453l-4.974,6.592c-0.124,0.164-0.177,0.37-0.149,0.573c0.029,0.203,0.136,0.387,0.3,0.51
			l3.373,2.545c0.342,0.258,0.827,0.19,1.083-0.151l4.937-6.542c1.789,2.713,1.93,6.163,0.396,9.008
			c0.666,0.003,1.316,0.006,1.714,0.007c1.568-3.539,1.056-7.712-1.51-10.799c-0.151-0.182-0.376-0.283-0.613-0.279
			c-0.236,0.006-0.457,0.119-0.599,0.307l-5.093,6.749l-2.138-1.613l5.118-6.783c0.141-0.186,0.19-0.427,0.133-0.653
			c-0.056-0.227-0.213-0.416-0.424-0.514c-4.401-2.047-9.719-0.717-12.645,3.162c-2.626,3.481-2.766,8.301-0.404,11.922
			L1.918,26.287c-0.538,0.712-0.766,1.594-0.641,2.483c0.124,0.889,0.585,1.674,1.298,2.212l0.455,0.344
			C3.633,31.78,4.341,32,5.045,32c1.017,0,2.022-0.459,2.68-1.331l4.782-6.337V22.03c0-0.104,0.016-0.206,0.03-0.307L6.49,29.737
			C5.89,30.531,4.756,30.69,3.962,30.09z"/>
	</g>
</g>
<g id="METRICS_AND_KEYLINES">
</g>
<g id="Isolation_Mode">
</g>
<g id="filled">
</g>
</svg>
