<?xml version="1.0" encoding="utf-8"?>
<!-- Generator: Adobe Illustrator 26.0.2, SVG Export Plug-In . SVG Version: 6.00 Build 0)  -->
<svg version="1.2" baseProfile="tiny" xmlns="http://www.w3.org/2000/svg" xmlns:xlink="http://www.w3.org/1999/xlink" x="0px"
	 y="0px" viewBox="0 0 32 32" overflow="visible" xml:space="preserve">
<g id="Layer_1">
	<g>
		<path fill="none" d="M25.224,21.067h1.693h1.06v-2.431c-0.009-0.089-0.046-0.139-0.091-0.175
			c-0.081-0.067-0.196-0.075-0.279-0.075h-1.25h-3.341c-0.128,0-0.343,0-0.371,0.298l0.001,2.383H25.224z"/>
		<rect x="9.579" y="19.821" fill="none" width="1.762" height="1.609"/>
		<rect x="9.687" y="13.851" fill="none" width="1.762" height="1.609"/>
		<rect x="15.424" y="8.231" fill="none" width="2.312" height="2.135"/>
		<path fill="none" d="M24.209,22.567h-3.003v2.709v1.753v2.056h8.225v-6.518h-3.365H24.209z M26.076,27.467h-1.5v-2.903h1.5V27.467
			z"/>
		<path fill="#6A6A6A" d="M18.486,6.731h-3.812c-0.414,0-0.75,0.336-0.75,0.75v3.635c0,0.414,0.336,0.75,0.75,0.75h1.352v2.099
			h-3.077v-0.864c0-0.414-0.336-0.75-0.75-0.75H8.937c-0.414,0-0.75,0.336-0.75,0.75v3.109c0,0.414,0.336,0.75,0.75,0.75h3.262
			c0.414,0,0.75-0.336,0.75-0.75v-0.745h3.077v4.64h-3.185v-1.033c0-0.414-0.336-0.75-0.75-0.75H8.829
			c-0.414,0-0.75,0.336-0.75,0.75v3.109c0,0.414,0.336,0.75,0.75,0.75h3.262c0.414,0,0.75-0.336,0.75-0.75v-0.576h3.935
			c0.414,0,0.75-0.336,0.75-0.75v-8.988h0.96c0.414,0,0.75-0.336,0.75-0.75V7.481C19.236,7.067,18.9,6.731,18.486,6.731z
			 M11.448,15.46H9.687v-1.609h1.762V15.46z M11.341,21.431H9.579v-1.609h1.762V21.431z M17.736,10.366h-2.312V8.231h2.312V10.366z"
			/>
		<rect x="24.576" y="24.564" fill="#737374" width="1.5" height="2.903"/>
		<path fill="#737374" d="M2.57,15.049c0-6.69,5.443-12.134,12.133-12.134s12.133,5.443,12.133,12.134
			c0,0.114-0.014,0.224-0.017,0.337h0.789c0.249,0,0.484,0.026,0.707,0.069c0.004-0.136,0.021-0.269,0.021-0.406
			c0-7.518-6.116-13.634-13.633-13.634S1.07,7.532,1.07,15.049s6.116,13.633,13.633,13.633c1.213,0,2.383-0.174,3.502-0.473v-1.547
			c-1.11,0.335-2.285,0.52-3.502,0.52C8.012,27.182,2.57,21.74,2.57,15.049z"/>
		<path fill="#737374" d="M30.18,21.067h-0.703l0-2.462c-0.024-0.578-0.4-1.384-1.292-1.634c-0.125-0.035-0.27-0.048-0.414-0.061
			v-0.024h-0.162h-0.926h-3.665h-0.162v0.016c-1.193,0.085-1.679,1.044-1.707,1.734v2.431h-0.693c-0.414,0-0.75,0.336-0.75,0.75
			v4.273v1.629v2.116c0,0.414,0.336,0.75,0.75,0.75h9.725c0.414,0,0.75-0.336,0.75-0.75v-8.018
			C30.93,21.403,30.595,21.067,30.18,21.067z M23.017,18.386h3.341h1.25c0.083,0,0.198,0.007,0.279,0.075
			c0.044,0.037,0.081,0.087,0.091,0.175v2.431h-1.06h-1.693h-2.576l-0.001-2.383C22.675,18.386,22.889,18.386,23.017,18.386z
			 M29.43,29.084h-8.225v-2.056v-1.753v-2.709h3.003h1.857h3.365V29.084z"/>
	</g>
</g>
<g id="METRICS_AND_KEYLINES">
</g>
<g id="Isolation_Mode">
</g>
<g id="filled">
</g>
</svg>
