<?xml version="1.0" encoding="utf-8"?>
<!-- Generator: Adobe Illustrator 26.0.0, SVG Export Plug-In . SVG Version: 6.00 Build 0)  -->
<svg version="1.2" baseProfile="tiny" xmlns="http://www.w3.org/2000/svg" xmlns:xlink="http://www.w3.org/1999/xlink" x="0px"
	 y="0px" viewBox="0 0 32 32" overflow="visible" xml:space="preserve">
<g id="Layer_1">
	<g>
		<path fill="none" d="M3.245,28.875h25.75V3.125H3.245V28.875z M7.593,17.753c0.339-0.287,0.847-0.245,1.134,0.094l3.456,4.083
			l9.843-13.636c0.26-0.36,0.763-0.441,1.123-0.181c0.36,0.26,0.442,0.763,0.181,1.123l-10.444,14.47
			c-0.145,0.201-0.374,0.323-0.621,0.333c-0.01,0-0.021,0.001-0.031,0.001c-0.236,0-0.461-0.104-0.614-0.285l-4.121-4.868
			C7.212,18.547,7.254,18.04,7.593,17.753z"/>
		<path fill="#6A6A6A" d="M29.745,1.625H2.495c-0.414,0-0.75,0.336-0.75,0.75v27.25c0,0.414,0.336,0.75,0.75,0.75h27.25
			c0.414,0,0.75-0.336,0.75-0.75V2.375C30.495,1.961,30.159,1.625,29.745,1.625z M28.995,28.875H3.245V3.125h25.75V28.875z"/>
		<path fill="#6A6A6A" d="M11.62,23.755c0.153,0.181,0.378,0.285,0.614,0.285c0.01,0,0.021,0,0.031-0.001
			c0.247-0.01,0.477-0.133,0.621-0.333L23.33,9.236c0.26-0.36,0.179-0.863-0.181-1.123c-0.361-0.26-0.863-0.179-1.123,0.181
			L12.183,21.93l-3.456-4.083c-0.287-0.339-0.795-0.381-1.134-0.094c-0.339,0.287-0.381,0.795-0.094,1.134L11.62,23.755z"/>
	</g>
</g>
<g id="METRICS_AND_KEYLINES">
</g>
<g id="Isolation_Mode">
</g>
<g id="filled">
</g>
</svg>
