<?xml version="1.0" encoding="utf-8"?>
<!-- Generator: Adobe Illustrator 26.0.0, SVG Export Plug-In . SVG Version: 6.00 Build 0)  -->
<svg version="1.2" baseProfile="tiny" xmlns="http://www.w3.org/2000/svg" xmlns:xlink="http://www.w3.org/1999/xlink" x="0px"
	 y="0px" viewBox="0 0 32 32" overflow="visible" xml:space="preserve">
<g id="Layer_1">
	<g>
		<rect x="10.571" y="18.995" fill="#6A6A6A" width="1.963" height="5.492"/>
		<path fill="#6A6A6A" d="M30.905,1.904c-0.627-0.657-1.413-0.985-2.262-0.966c-0.631,0.019-4.026,0-6.754-0.016
			c-3.651-0.02-3.651-0.02-3.762,0.006c-1.469,0.353-2.428,1.291-2.853,2.789c-0.12,0.424-0.18,0.896-0.183,1.446l-0.03,6.234H0.749
			C0.336,11.397,0,11.745,0,12.173v18.143c0,0.429,0.336,0.776,0.749,0.776h21.607c0.414,0,0.749-0.348,0.749-0.776V12.173
			c0-0.429-0.336-0.776-0.749-0.776h-5.689l0.027-6.016c0.002-0.357,0.032-0.642,0.092-0.874c0.153-0.589,0.472-1.302,1.581-1.616
			c0.326-0.004,1.878,0.005,3.513,0.016c2.739,0.016,6.146,0.037,6.8,0.016c0.567-0.028,0.964,0.284,1.189,0.541
			c0.337,0.384,0.529,1.002,0.529,1.697l0,3.247H32V4.975C32.001,3.754,31.602,2.634,30.905,1.904z M21.607,29.594H1.499V13.038
			h20.108V29.594z"/>
	</g>
</g>
<g id="METRICS_AND_KEYLINES">
</g>
<g id="Isolation_Mode">
</g>
<g id="filled">
</g>
</svg>
