<?xml version="1.0" encoding="utf-8"?>
<!-- Generator: Adobe Illustrator 22.1.0, SVG Export Plug-In . SVG Version: 6.00 Build 0)  -->
<svg version="1.2" baseProfile="tiny" id="Layer_1" xmlns="http://www.w3.org/2000/svg" xmlns:xlink="http://www.w3.org/1999/xlink"
	 x="0px" y="0px" viewBox="0 0 32 32" xml:space="preserve">
<path fill="#6A6A6A" d="M29.738,16.231C29.74,16.153,29.75,16.078,29.75,16c0-7.582-6.168-13.75-13.75-13.75S2.25,8.418,2.25,16
	c0,0.078,0.01,0.153,0.012,0.231c-0.002,0.02-0.012,0.037-0.012,0.058c0,0.034,0.015,0.064,0.02,0.097
	C2.476,23.788,8.548,29.75,16,29.75s13.524-5.962,13.73-13.364c0.004-0.033,0.02-0.062,0.02-0.097
	C29.75,16.268,29.74,16.251,29.738,16.231z M16,3.75c6.599,0,11.982,5.249,12.227,11.789H3.773C4.018,8.999,9.401,3.75,16,3.75z
	 M3.803,17.039H15.25v11.173C9.19,27.842,4.312,23.061,3.803,17.039z M16.75,28.212V17.039h11.447
	C27.688,23.061,22.81,27.842,16.75,28.212z"/>
</svg>
