<?xml version="1.0" encoding="utf-8"?>
<!-- Generator: Adobe Illustrator 26.0.0, SVG Export Plug-In . SVG Version: 6.00 Build 0)  -->
<svg version="1.2" baseProfile="tiny" xmlns="http://www.w3.org/2000/svg" xmlns:xlink="http://www.w3.org/1999/xlink" x="0px"
	 y="0px" viewBox="0 0 32 32" overflow="visible" xml:space="preserve">
<g id="Layer_1">
	<g>
		<path fill="#6A6A6A" d="M28.25,32H3.75c-0.456,0-0.825-0.369-0.825-0.825C2.925,23.62,8.79,17.474,16,17.474
			c7.21,0,13.075,6.146,13.075,13.701C29.075,31.631,28.706,32,28.25,32z M4.601,30.35h22.797
			C26.995,24.088,22.037,19.124,16,19.124S5.005,24.088,4.601,30.35z"/>
		<g>
			<path fill="#6A6A6A" d="M15.73,1.65c3.167,0,5.743,2.578,5.743,5.746c0,3.166-2.576,5.742-5.743,5.742
				c-3.165,0-5.739-2.576-5.739-5.742C9.991,4.228,12.566,1.65,15.73,1.65 M15.73,0c-4.08,0-7.39,3.316-7.39,7.396
				c0,4.081,3.309,7.393,7.39,7.393c4.082,0,7.394-3.311,7.394-7.393C23.124,3.316,19.813,0,15.73,0L15.73,0z"/>
		</g>
	</g>
</g>
<g id="METRICS_AND_KEYLINES">
</g>
<g id="Isolation_Mode">
</g>
<g id="filled">
</g>
</svg>
