<?xml version="1.0" encoding="utf-8"?>
<!-- Generator: Adobe Illustrator 26.0.2, SVG Export Plug-In . SVG Version: 6.00 Build 0)  -->
<svg version="1.2" baseProfile="tiny" xmlns="http://www.w3.org/2000/svg" xmlns:xlink="http://www.w3.org/1999/xlink" x="0px"
	 y="0px" viewBox="0 0 32 32" overflow="visible" xml:space="preserve">
<g id="Layer_1">
	<g>
		<path fill="#6A6A6A" d="M20.774,8.989c0-0.096-0.041-0.189-0.113-0.256l-0.502-0.465c-0.143-0.133-0.366-0.134-0.508,0
			l-4.227,3.91l-0.146-2.267c-0.005-0.142-0.097-0.267-0.236-0.319c-0.129-0.047-0.281-0.021-0.382,0.073l-0.635,0.577
			c-0.075,0.07-0.116,0.168-0.112,0.271l0.197,3.562c0.004,0.093,0.045,0.179,0.112,0.239c0.068,0.064,0.159,0.1,0.256,0.101
			l3.762,0.098c0.002,0,0.005,0,0.007,0c0.096,0,0.19-0.037,0.262-0.104l0.644-0.628c0.107-0.102,0.139-0.259,0.079-0.394
			c-0.059-0.128-0.184-0.209-0.33-0.214l-2.455-0.029l4.215-3.899C20.734,9.179,20.774,9.085,20.774,8.989z"/>
		<path fill="#6A6A6A" d="M15.447,20.409c0,0.136-0.126,0.246-0.282,0.246H8.726c-0.156,0-0.283-0.11-0.283-0.246v-5.958
			c0-0.136,0.127-0.246,0.283-0.246h3.787l0.269-1.259H8.726c-0.888,0-1.61,0.675-1.61,1.505v5.958c0,0.829,0.723,1.504,1.61,1.504
			h6.439c0.888,0,1.61-0.675,1.61-1.504v-4.211l-1.328,0.17V20.409z"/>
		<path fill="#6A6A6A" d="M1.812,15.042c0-6.69,5.443-12.134,12.133-12.134s12.133,5.443,12.133,12.134
			c0,0.169-0.018,0.334-0.025,0.501c0.138-0.016,0.27-0.042,0.417-0.042h1.085c0.005-0.154,0.023-0.304,0.023-0.459
			c0-7.518-6.116-13.634-13.633-13.634S0.312,7.524,0.312,15.042s6.116,13.633,13.633,13.633c0.861,0,1.7-0.089,2.518-0.243v-1.524
			c-0.813,0.172-1.654,0.266-2.518,0.266C7.255,27.175,1.812,21.732,1.812,15.042z"/>
		<polygon fill="#6A6A6A" points="24.261,24.218 23.998,24.218 22.761,24.218 22.761,25.423 22.761,27.121 24.261,27.121 
			24.261,27.106 24.274,27.106 24.274,24.227 24.261,24.227 		"/>
		<path fill="#6A6A6A" d="M30.485,20.584h1.5l0-1.78c-0.015-0.4-0.188-0.902-0.554-1.277c-0.297-0.304-0.72-0.526-1.31-0.526h-0.19
			h-2.509h-0.951h-0.162v0.017c-0.15,0.011-0.289,0.035-0.417,0.073c-0.888,0.265-1.261,1.112-1.285,1.741v0.494v1.5h-1.5h-4.394
			c-0.414,0-0.75,0.336-0.75,0.75v4.901v1.592v1.486c0,0.414,0.336,0.75,0.75,0.75h9.537c0.414,0,0.75-0.336,0.75-0.75v-7.979
			c0-0.414-0.336-0.75-0.75-0.75h-0.643h-1.334h-0.166l0-1.5l0-0.453c0.028-0.372,0.255-0.372,0.365-0.372h0.646h2.814h0.19
			c0.109,0,0.336,0,0.364,0.331v1.169V20.584z M27.5,22.326v1.429v5.05h-8.037v-1.307v-1.663v-3.508h3.644h0.519h1.824H27.5z"/>
	</g>
</g>
<g id="METRICS_AND_KEYLINES">
</g>
<g id="Isolation_Mode">
</g>
<g id="filled">
</g>
</svg>
