<?xml version="1.0" encoding="utf-8"?>
<!-- Generator: Adobe Illustrator 26.0.2, SVG Export Plug-In . SVG Version: 6.00 Build 0)  -->
<svg version="1.2" baseProfile="tiny" xmlns="http://www.w3.org/2000/svg" xmlns:xlink="http://www.w3.org/1999/xlink" x="0px"
	 y="0px" viewBox="0 0 32 32" overflow="visible" xml:space="preserve">
<g id="Layer_1">
	<g>
		<path fill="none" d="M24.061,22.188h-3.003v2.709v1.753v2.056h8.225v-6.518h-3.365H24.061z M25.928,27.089h-1.5v-2.903h1.5V27.089
			z"/>
		<path fill="none" d="M25.077,20.688h1.693h1.06v-2.431c-0.009-0.089-0.046-0.139-0.091-0.175
			c-0.081-0.067-0.196-0.075-0.279-0.075h-1.25H22.87c-0.128,0-0.343,0-0.371,0.298l0.001,2.383H25.077z"/>
		<path fill="#737374" d="M19.841,13.017c-0.059-0.128-0.184-0.209-0.33-0.214l-2.455-0.029l4.215-3.899
			c0.072-0.066,0.112-0.16,0.112-0.256s-0.041-0.189-0.113-0.256l-0.502-0.465c-0.143-0.133-0.366-0.134-0.508,0l-4.227,3.91
			l-0.146-2.267c-0.005-0.142-0.097-0.267-0.236-0.319c-0.129-0.047-0.281-0.021-0.382,0.073l-0.635,0.577
			c-0.075,0.07-0.116,0.168-0.112,0.271l0.197,3.562c0.004,0.093,0.045,0.179,0.112,0.239c0.068,0.064,0.159,0.1,0.256,0.101
			l3.762,0.098c0.002,0,0.005,0,0.007,0c0.096,0,0.19-0.037,0.262-0.104l0.644-0.628C19.869,13.309,19.901,13.151,19.841,13.017z"/>
		<path fill="#737374" d="M9.336,13.834h3.787l0.269-1.259H9.336c-0.888,0-1.61,0.675-1.61,1.505v5.958
			c0,0.829,0.723,1.504,1.61,1.504h6.439c0.888,0,1.61-0.675,1.61-1.504v-4.211l-1.328,0.17v4.041c0,0.136-0.126,0.246-0.282,0.246
			H9.336c-0.156,0-0.283-0.11-0.283-0.246V14.08C9.053,13.944,9.18,13.834,9.336,13.834z"/>
		<rect x="24.428" y="24.186" fill="#737374" width="1.5" height="2.903"/>
		<path fill="#737374" d="M2.422,14.671c0-6.69,5.443-12.134,12.133-12.134S26.688,7.98,26.688,14.671
			c0,0.114-0.014,0.224-0.017,0.337h0.789c0.249,0,0.484,0.026,0.707,0.069c0.004-0.136,0.021-0.269,0.021-0.406
			c0-7.518-6.116-13.634-13.633-13.634S0.922,7.153,0.922,14.671s6.116,13.633,13.633,13.633c1.213,0,2.383-0.174,3.502-0.473
			v-1.547c-1.11,0.335-2.285,0.52-3.502,0.52C7.865,26.804,2.422,21.361,2.422,14.671z"/>
		<path fill="#737374" d="M30.033,20.688h-0.703l0-2.462c-0.024-0.578-0.4-1.384-1.292-1.634c-0.125-0.035-0.27-0.048-0.414-0.061
			v-0.024H27.46h-0.926H22.87h-0.162v0.016c-1.193,0.085-1.679,1.044-1.707,1.734v2.431h-0.693c-0.414,0-0.75,0.336-0.75,0.75v4.273
			v1.629v2.116c0,0.414,0.336,0.75,0.75,0.75h9.725c0.414,0,0.75-0.336,0.75-0.75v-8.018C30.783,21.024,30.447,20.688,30.033,20.688
			z M22.87,18.008h3.341h1.25c0.083,0,0.198,0.007,0.279,0.075c0.044,0.037,0.081,0.087,0.091,0.175v2.431h-1.06h-1.693H22.5
			l-0.001-2.383C22.527,18.008,22.741,18.008,22.87,18.008z M29.283,28.706h-8.225V26.65v-1.753v-2.709h3.003h1.857h3.365V28.706z"
			/>
	</g>
</g>
<g id="METRICS_AND_KEYLINES">
</g>
<g id="Isolation_Mode">
</g>
<g id="filled">
</g>
</svg>
