<?xml version="1.0" encoding="utf-8"?>
<!-- Generator: Adobe Illustrator 26.0.2, SVG Export Plug-In . SVG Version: 6.00 Build 0)  -->
<svg version="1.2" baseProfile="tiny" xmlns="http://www.w3.org/2000/svg" xmlns:xlink="http://www.w3.org/1999/xlink" x="0px"
	 y="0px" viewBox="0 0 32 32" overflow="visible" xml:space="preserve">
<g id="Layer_1">
	<g>
		<polygon fill="#FFFFFF" points="1.375,8.422 1.375,23.578 14.5,16 		"/>
		<polygon fill="#FFFFFF" points="30.625,23.578 30.625,8.422 17.5,16 		"/>
		<path fill="#6A6A6A" d="M31.75,6.474c-0.232-0.135-0.518-0.135-0.75,0l-15,8.66L1,6.474c-0.232-0.135-0.518-0.135-0.75,0
			C0.018,6.607-0.125,6.855-0.125,7.123v17.754c0,0.268,0.143,0.516,0.375,0.649c0.116,0.067,0.246,0.101,0.375,0.101
			S0.884,25.594,1,25.526l15-8.66l15,8.66c0.116,0.067,0.246,0.101,0.375,0.101s0.259-0.033,0.375-0.101
			c0.232-0.134,0.375-0.382,0.375-0.649V7.123C32.125,6.855,31.982,6.607,31.75,6.474z M1.375,8.422L14.5,16L1.375,23.578V8.422z
			 M30.625,23.578L17.5,16l13.125-7.578V23.578z"/>
	</g>
</g>
<g id="METRICS_AND_KEYLINES">
</g>
<g id="Isolation_Mode">
</g>
<g id="filled">
</g>
</svg>
