<?xml version="1.0" encoding="utf-8"?>
<!-- Generator: Adobe Illustrator 26.0.0, SVG Export Plug-In . SVG Version: 6.00 Build 0)  -->
<svg version="1.2" baseProfile="tiny" xmlns="http://www.w3.org/2000/svg" xmlns:xlink="http://www.w3.org/1999/xlink" x="0px"
	 y="0px" viewBox="0 0 32 32" overflow="visible" xml:space="preserve">
<g id="Layer_1">
	<path fill="#6A6A6A" d="M31.909,13.038L27.568,5.1c-0.163-0.298-0.508-0.449-0.837-0.364c-0.329,0.084-0.56,0.381-0.56,0.721V7.78
		c-0.953-1.24-2.435-2.054-4.116-2.054c-1.633,0-3.075,0.771-4.031,1.951v-2.22c0-0.34-0.231-0.637-0.56-0.721
		c-0.328-0.086-0.674,0.065-0.837,0.364l-4.341,7.938c-0.06,0.109-0.091,0.232-0.091,0.357v4.961H0.744
		C0.333,18.357,0,18.69,0,19.101v7.442c0,0.411,0.333,0.744,0.744,0.744h26.171h4.341c0.411,0,0.744-0.333,0.744-0.744V13.395
		C32,13.27,31.969,13.148,31.909,13.038z M22.054,7.215c2.051,0,3.721,1.669,3.721,3.721s-1.67,3.721-3.721,3.721
		s-3.721-1.669-3.721-3.721S20.003,7.215,22.054,7.215z M22.054,16.145c1.681,0,3.163-0.814,4.116-2.054v4.266h-8.147v-4.162
		C18.979,15.374,20.421,16.145,22.054,16.145z M13.682,13.586l2.853-5.217v9.987h-2.853V13.586z M1.488,19.845h1.075v3.804
		c0,0.411,0.333,0.744,0.744,0.744s0.744-0.333,0.744-0.744v-3.804h2.44v1.86c0,0.411,0.333,0.744,0.744,0.744
		c0.411,0,0.744-0.333,0.744-0.744v-1.86h2.521v3.804c0,0.411,0.333,0.744,0.744,0.744c0.411,0,0.744-0.333,0.744-0.744v-3.804
		h2.437v1.86c0,0.411,0.333,0.744,0.744,0.744s0.744-0.333,0.744-0.744v-1.86h2.422v3.804c0,0.411,0.333,0.744,0.744,0.744
		c0.411,0,0.744-0.333,0.744-0.744v-3.804h2.437v1.86c0,0.411,0.333,0.744,0.744,0.744s0.744-0.333,0.744-0.744v-1.86h2.421v5.953
		H1.488V19.845z M30.512,25.798h-2.853v-6.698V8.369l2.853,5.217V25.798z"/>
</g>
<g id="METRICS_AND_KEYLINES">
</g>
<g id="Isolation_Mode">
</g>
<g id="filled">
</g>
</svg>
