<?xml version="1.0" encoding="utf-8"?>
<!-- Generator: Adobe Illustrator 26.0.0, SVG Export Plug-In . SVG Version: 6.00 Build 0)  -->
<svg version="1.2" baseProfile="tiny" xmlns="http://www.w3.org/2000/svg" xmlns:xlink="http://www.w3.org/1999/xlink" x="0px"
	 y="0px" viewBox="0 0 32 32" overflow="visible" xml:space="preserve">
<g id="Layer_1">
	<path fill="#6A6A6A" d="M5.332,27.193c0.283,0.115,0.605,0.05,0.818-0.167l9.1-9.202V26.5c0,0.304,0.184,0.578,0.465,0.694
		c0.284,0.115,0.604,0.05,0.818-0.167l9.1-9.202V26.5c0,0.414,0.336,0.75,0.75,0.75s0.75-0.336,0.75-0.75v-21
		c0-0.414-0.336-0.75-0.75-0.75s-0.75,0.336-0.75,0.75v8.675l-9.1-9.202C16.39,4.827,16.196,4.75,16,4.75
		c-0.096,0-0.192,0.019-0.285,0.056C15.434,4.921,15.25,5.195,15.25,5.5v8.675l-9.1-9.202C6.007,4.827,5.813,4.75,5.617,4.75
		c-0.096,0-0.192,0.019-0.285,0.056C5.051,4.921,4.867,5.195,4.867,5.5v21C4.867,26.804,5.051,27.078,5.332,27.193z"/>
</g>
<g id="METRICS_AND_KEYLINES">
</g>
<g id="Isolation_Mode">
</g>
<g id="filled">
</g>
</svg>
