<?xml version="1.0" encoding="utf-8"?>
<!-- Generator: Adobe Illustrator 26.0.0, SVG Export Plug-In . SVG Version: 6.00 Build 0)  -->
<svg version="1.2" baseProfile="tiny" xmlns="http://www.w3.org/2000/svg" xmlns:xlink="http://www.w3.org/1999/xlink" x="0px"
	 y="0px" viewBox="0 0 32 32" overflow="visible" xml:space="preserve">
<g id="Layer_1">
	<g>
		<path fill="#6A6A6A" d="M29.314,25.247l-0.2-0.004l-3.702-0.072c-0.007,0-0.013-0.004-0.02-0.004
			c-0.018-1.88-0.072-5.742-0.123-10.011c-0.006-0.482-0.012-0.965-0.017-1.446c-0.046-4.215-0.102-7.087-0.103-7.158l0-0.001
			c-0.009-0.99-0.014-1.644-0.01-1.794c0.057-2.577-0.89-4.077-2.599-4.115L5.391,0.26c-1.4-0.031-3.084,0.602-3.155,3.794
			L2.183,6.439c0,0-0.022,0.306,0.253,0.312c0.26,0.006,3.774,0.084,4.173,0.093c0.005,0.08,0.015,0.157,0.043,0.229
			c0.02,1.746,0.062,3.62,0.094,6.287c0.05,4.574,0.105,9.924,0.119,12.465c0.001,0.279,0,0.467-0.001,0.541l0.004,0
			c0.002,0.443,0.001,0.748-0.002,0.877c-0.057,2.577,0.89,4.077,2.599,4.115l17.147,0.382l0,0c0.001,0,0.002,0,0.002,0
			c1.401,0.031,3.077-0.263,3.148-3.455l0.056-2.512C29.824,25.489,29.598,25.253,29.314,25.247z M3.736,4.087
			C3.788,1.724,4.77,1.746,5.357,1.759l0.615,0.014c0.033,0.043,0.058,0.091,0.103,0.128c0.007,0.008,0.581,0.713,0.57,3.444
			L3.709,5.279L3.736,4.087z M8.366,27.276c0.003-0.134,0.004-0.453,0.002-0.916c0-0.029-0.001-0.058-0.003-0.086
			c0.001-0.105,0.001-0.26,0-0.458C8.351,23.2,8.292,17.589,8.246,13.342c-0.017-1.44-0.037-2.65-0.056-3.733
			C8.173,8.601,8.158,7.702,8.149,6.83C8.148,6.721,8.134,6.615,8.11,6.513c0.128-2.444-0.12-3.877-0.417-4.701l14.814,0.33
			c1.035,0.023,1.154,1.628,1.133,2.582c-0.003,0.154,0,0.826,0.01,1.844l0.003,0.148c0.011,0.62,0.06,3.292,0.101,7.012
			l0.007,0.624l0.01,0.823l0.066,5.344c0.025,1.955,0.045,3.577,0.056,4.617l-11.92-0.256c-0.214-0.005-0.42,0.082-0.566,0.239
			c-0.146,0.157-0.218,0.368-0.197,0.582c0.301,3.15-0.839,4.101-0.891,4.143c-0.013,0.009-0.02,0.023-0.032,0.033l-0.788-0.018
			C8.463,29.835,8.344,28.231,8.366,27.276z M28.262,28.251c-0.045,2.023-0.67,2.01-1.615,1.989c0,0-0.001,0-0.001,0l-0.001,0
			L12.1,29.916c0.374-0.727,0.705-1.843,0.656-3.521l12.563,0.27c0.014,0.001,0.027,0.005,0.04,0.005c0.002,0,0.003,0,0.005,0
			l2.932,0.057L28.262,28.251z"/>
		<path fill="#6A6A6A" d="M12.292,7.54l7.262,0.162c0.414,0.009,0.757-0.319,0.767-0.733c0.009-0.414-0.319-0.757-0.733-0.767
			l-7.262-0.162c-0.414-0.009-0.757,0.319-0.767,0.733C11.549,7.188,11.878,7.531,12.292,7.54z"/>
		<path fill="#6A6A6A" d="M12.539,12.525c-0.414-0.009-0.757,0.319-0.767,0.733c-0.009,0.414,0.319,0.757,0.733,0.767l7.262,0.162
			c0.414,0.009,0.757-0.319,0.767-0.733c0.009-0.414-0.319-0.757-0.733-0.767L12.539,12.525z"/>
		<path fill="#6A6A6A" d="M12.744,18.901c-0.414-0.009-0.757,0.319-0.767,0.733s0.319,0.757,0.733,0.767l7.262,0.162
			c0.414,0.009,0.757-0.319,0.767-0.733c0.009-0.414-0.319-0.757-0.733-0.767L12.744,18.901z"/>
	</g>
</g>
<g id="METRICS_AND_KEYLINES">
</g>
<g id="Isolation_Mode">
</g>
<g id="filled">
</g>
</svg>
