<?xml version="1.0" encoding="utf-8"?>
<!-- Generator: Adobe Illustrator 26.0.0, SVG Export Plug-In . SVG Version: 6.00 Build 0)  -->
<svg version="1.2" baseProfile="tiny" xmlns="http://www.w3.org/2000/svg" xmlns:xlink="http://www.w3.org/1999/xlink" x="0px"
	 y="0px" viewBox="0 0 32 32" overflow="visible" xml:space="preserve">
<g id="Layer_1">
	<g>
		<path fill="#6A6A6A" d="M30.917,6.603L25.07,0.757c-0.153-0.154-0.35-0.235-0.578-0.239L23.4,0.52H8.736
			c-0.007,0-0.012-0.004-0.019-0.004L3.854,0.5c-0.062,0-0.122,0.006-0.16,0.013C1.903,0.598,0.5,2.066,0.5,3.853v24.294
			c0,1.849,1.504,3.353,3.354,3.353h24.293c1.783,0,3.246-1.394,3.34-3.181c0.008-0.056,0.013-0.113,0.013-0.172V8.073
			C31.5,7.808,31.502,7.188,30.917,6.603z M9.496,2.01h7.34v6.221c0,0.448,0.365,0.811,0.816,0.811c0.45,0,0.815-0.363,0.815-0.811
			V2.01h4.031v7.732c-0.082,0.593-0.557,1.061-1.15,1.133H10.646c-0.593-0.071-1.068-0.54-1.149-1.133V2.01z M29.868,28.113
			c-0.005,0.038-0.009,0.076-0.01,0.112c-0.043,0.922-0.795,1.644-1.712,1.644H3.854c-0.95,0-1.722-0.772-1.722-1.722V3.853
			c0-0.915,0.72-1.666,1.643-1.71c0.036-0.002,4.09-0.011,4.09-0.011v7.659c0,0.029,0.001,0.058,0.004,0.087
			c0.149,1.39,1.267,2.494,2.657,2.625c0.025,0.002,0.051,0.004,0.076,0.004h10.789c0.025,0,0.051-0.001,0.077-0.004
			c1.391-0.131,2.508-1.235,2.657-2.625c0.003-0.029,0.005-0.058,0.005-0.087v-7.64h0.026l5.607,5.607
			c0.105,0.105,0.105,0.162,0.104,0.337V28.113z"/>
		<path fill="#6A6A6A" d="M23.757,23.071H8.384c-0.45,0-0.815,0.365-0.815,0.816c0,0.451,0.365,0.816,0.815,0.816h15.374
			c0.451,0,0.816-0.365,0.816-0.816C24.573,23.436,24.208,23.071,23.757,23.071z"/>
		<path fill="#6A6A6A" d="M23.757,17.45H8.384c-0.45,0-0.815,0.365-0.815,0.816c0,0.451,0.365,0.816,0.815,0.816h15.374
			c0.451,0,0.816-0.365,0.816-0.816C24.573,17.815,24.208,17.45,23.757,17.45z"/>
	</g>
</g>
<g id="METRICS_AND_KEYLINES">
</g>
<g id="Isolation_Mode">
</g>
<g id="filled">
</g>
</svg>
