<?xml version="1.0" encoding="utf-8"?>
<!-- Generator: Adobe Illustrator 26.0.0, SVG Export Plug-In . SVG Version: 6.00 Build 0)  -->
<svg version="1.2" baseProfile="tiny" xmlns="http://www.w3.org/2000/svg" xmlns:xlink="http://www.w3.org/1999/xlink" x="0px"
	 y="0px" viewBox="0 0 32 32" overflow="visible" xml:space="preserve">
<g id="Layer_1">
	<g>
		<path fill="none" d="M16,1.75C8.143,1.75,1.75,8.143,1.75,16S8.143,30.25,16,30.25S30.25,23.857,30.25,16S23.857,1.75,16,1.75z
			 M23.598,16.326l-12.962,7.128c-0.056,0.031-0.117,0.046-0.179,0.046c-0.065,0-0.131-0.017-0.189-0.052
			c-0.113-0.067-0.182-0.188-0.182-0.32V8.872c0-0.132,0.069-0.253,0.182-0.32c0.113-0.067,0.253-0.069,0.368-0.006l12.962,7.128
			c0.119,0.065,0.193,0.19,0.193,0.326C23.79,16.135,23.716,16.26,23.598,16.326z"/>
		<path fill="#6A6A6A" d="M23.598,15.674L10.636,8.546c-0.115-0.063-0.255-0.061-0.368,0.006c-0.113,0.067-0.182,0.188-0.182,0.32
			v14.257c0,0.131,0.069,0.253,0.182,0.32c0.058,0.035,0.124,0.052,0.189,0.052c0.062,0,0.123-0.015,0.179-0.046l12.962-7.128
			c0.119-0.065,0.193-0.19,0.193-0.326C23.79,15.864,23.716,15.74,23.598,15.674z"/>
		<path fill="#6A6A6A" d="M16,0.25C7.315,0.25,0.25,7.315,0.25,16S7.315,31.75,16,31.75S31.75,24.685,31.75,16S24.685,0.25,16,0.25z
			 M16,30.25C8.143,30.25,1.75,23.857,1.75,16S8.143,1.75,16,1.75S30.25,8.143,30.25,16S23.857,30.25,16,30.25z"/>
	</g>
</g>
<g id="METRICS_AND_KEYLINES">
</g>
<g id="Isolation_Mode">
</g>
<g id="filled">
</g>
</svg>
