<?xml version="1.0" encoding="utf-8"?>
<!-- Generator: Adobe Illustrator 26.0.0, SVG Export Plug-In . SVG Version: 6.00 Build 0)  -->
<svg version="1.2" baseProfile="tiny" xmlns="http://www.w3.org/2000/svg" xmlns:xlink="http://www.w3.org/1999/xlink" x="0px"
	 y="0px" viewBox="0 0 32 32" overflow="visible" xml:space="preserve">
<g id="Layer_1">
	<g>
		<path fill="#6A6A6A" d="M12.695,11.783h-0.179c-0.411,0-0.744,0.333-0.744,0.744v0.969l0.744,0.822l0.544,0.6
			c0.076,0.084,0.143,0.175,0.201,0.272v-1.919h0.294h1.719h1.432h1.719h0.294v0.54l0.744-0.001l0.744-0.001v-1.282
			c0-0.411-0.333-0.744-0.744-0.744h-0.179l6.159-10.667c0.133-0.23,0.133-0.514,0-0.744C25.308,0.142,25.062,0,24.797,0H7.181
			C6.915,0,6.669,0.142,6.536,0.372s-0.133,0.514,0,0.744L12.695,11.783z M23.508,1.488l-5.944,10.295h-3.151L8.469,1.488H23.508z"
			/>
		<path fill="#6A6A6A" d="M19.283,20.217h0.179c0.411,0,0.744-0.333,0.744-0.744v-1.207l-0.744,0.001l-0.744,0.001v0.46h-0.294
			h-1.719h-1.432h-1.719H13.26v-1.771c-0.076,0.128-0.163,0.25-0.272,0.357l-0.472,0.501l-0.744,0.79v0.868
			c0,0.411,0.333,0.744,0.744,0.744h0.179L6.536,30.884c-0.133,0.231-0.133,0.514,0,0.744S6.915,32,7.181,32h17.616
			c0.266,0,0.512-0.141,0.644-0.372c0.133-0.231,0.133-0.514,0-0.744L19.283,20.217z M8.469,30.512l5.944-10.295h3.151l5.944,10.295
			H8.469z"/>
		<path fill="#6A6A6A" d="M6.614,19.774c-0.065,0.068-0.081,0.167-0.046,0.254c0.036,0.086,0.119,0.143,0.214,0.145l1.329,0.033
			c0.067,0.001,0.132-0.026,0.177-0.075l3.484-3.695l0.174-0.185c0.049-0.047,0.074-0.109,0.074-0.172
			c0-0.058-0.021-0.115-0.064-0.162l-0.184-0.203l-3.48-3.845c-0.045-0.048-0.108-0.075-0.175-0.075L6.86,11.806
			c-0.093,0.001-0.178,0.058-0.215,0.144c-0.036,0.087-0.019,0.187,0.046,0.256l2.744,3.084l-9.085,0.013
			c-0.13,0-0.236,0.107-0.236,0.237l0.001,1.007c0,0.13,0.107,0.236,0.237,0.236l9.182-0.013L6.614,19.774z"/>
		<path fill="#6A6A6A" d="M28.912,15.917l-3.664-4.049c-0.045-0.048-0.108-0.075-0.175-0.075l-1.256,0.012
			c-0.093,0.001-0.178,0.058-0.215,0.144c-0.036,0.087-0.019,0.187,0.046,0.256l2.744,3.084l-6.185,0.009l-0.744,0.001L18.717,15.3
			l-1.412,0.002c-0.028,0-0.047,0.021-0.072,0.03c-0.091,0.033-0.164,0.105-0.164,0.207l0,0.077l0.001,0.77l0,0.16
			c0,0.126,0.102,0.225,0.226,0.232c0.004,0,0.007,0.004,0.011,0.004l1.41-0.002l0.744-0.001l0.744-0.001l6.284-0.009l-2.919,3.004
			c-0.065,0.068-0.081,0.167-0.046,0.254c0.036,0.086,0.119,0.143,0.214,0.145l1.329,0.033c0.067,0.001,0.132-0.026,0.177-0.075
			l3.658-3.88c0.049-0.047,0.074-0.109,0.074-0.172C28.976,16.021,28.955,15.963,28.912,15.917z"/>
	</g>
</g>
<g id="METRICS_AND_KEYLINES">
</g>
<g id="Isolation_Mode">
</g>
<g id="filled">
</g>
</svg>
