<?xml version="1.0" encoding="utf-8"?>
<!-- Generator: Adobe Illustrator 26.0.0, SVG Export Plug-In . SVG Version: 6.00 Build 0)  -->
<svg version="1.2" baseProfile="tiny" xmlns="http://www.w3.org/2000/svg" xmlns:xlink="http://www.w3.org/1999/xlink" x="0px"
	 y="0px" viewBox="0 0 32 32" overflow="visible" xml:space="preserve">
<g id="Layer_1">
	<path fill="#6A6A6A" d="M29,2.5H3C2.724,2.5,2.5,2.724,2.5,3v26c0,0.276,0.224,0.5,0.5,0.5h26c0.276,0,0.5-0.224,0.5-0.5V3
		C29.5,2.724,29.276,2.5,29,2.5z M25.188,25.187c-0.088,0.087-0.202,0.131-0.317,0.131s-0.229-0.044-0.317-0.131l-8.439-8.439
		l-8.37,8.371c-0.088,0.087-0.202,0.131-0.317,0.131s-0.229-0.044-0.317-0.131c-0.175-0.175-0.175-0.458,0-0.633l8.371-8.371
		L7.043,7.676c-0.175-0.175-0.175-0.458,0-0.633c0.175-0.175,0.458-0.175,0.633,0l8.439,8.439l8.406-8.406
		c0.175-0.175,0.458-0.175,0.634,0c0.175,0.175,0.175,0.458,0,0.633l-8.406,8.406l8.439,8.439
		C25.362,24.729,25.362,25.013,25.188,25.187z"/>
</g>
<g id="METRICS_AND_KEYLINES">
</g>
<g id="Isolation_Mode">
</g>
<g id="filled">
</g>
</svg>
