<?xml version="1.0" encoding="utf-8"?>
<!-- Generator: Adobe Illustrator 26.0.0, SVG Export Plug-In . SVG Version: 6.00 Build 0)  -->
<svg version="1.2" baseProfile="tiny" xmlns="http://www.w3.org/2000/svg" xmlns:xlink="http://www.w3.org/1999/xlink" x="0px"
	 y="0px" viewBox="0 0 32 32" overflow="visible" xml:space="preserve">
<g id="Layer_1">
	<g>
		<rect x="16.815" y="27.136" fill="none" width="7.174" height="1.437"/>
		<path fill="none" d="M16.537,10.22c0.082-0.15,0.152-0.298,0.223-0.445c1.305-2.733,0.677-4.945,0-6.233
			c-0.06-0.114-0.119-0.219-0.178-0.318c-0.04,0.122-0.077,0.25-0.115,0.381c-0.491,1.673-0.834,4.037,0,6.442
			C16.486,10.105,16.516,10.163,16.537,10.22z"/>
		<path fill="none" d="M27.377,17.558c-0.059-0.11-0.117-0.211-0.175-0.307c-0.041,0.125-0.079,0.256-0.119,0.39
			c-0.491,1.673-0.834,4.036,0,6.441c0.02,0.058,0.05,0.116,0.071,0.174c0.082-0.15,0.151-0.296,0.222-0.443
			c0.568-1.182,0.778-2.263,0.772-3.215c0-0.004-0.002-0.007-0.002-0.011c0-0.004,0.002-0.007,0.002-0.011
			C28.136,19.317,27.766,18.286,27.377,17.558z"/>
		<path fill="#6A6A6A" d="M2.039,11.945c-0.004,0.008-0.015,0.028-0.016,0.029c-0.135,0.232-0.135,0.519-0.001,0.751
			c0.076,0.132,0.192,0.224,0.324,0.288c0.205-0.229,0.418-0.452,0.647-0.662c0.224-0.207,0.452-0.411,0.698-0.599
			c0.074-0.057,0.155-0.104,0.236-0.151H3.868c0.006-0.013,0.012-0.03,0.017-0.043l-1.161-1.187
			c-0.018-0.027-0.035-0.05-0.053-0.079c-0.786-1.225-1.939-3.911,0-7.327c0.036-0.064,0.085-0.131,0.124-0.196l1.154-1.142h11.614
			c-0.022,0.053-0.046,0.113-0.069,0.169c-0.774,1.887-1.803,5.568-0.22,9.326c0.067,0.16,0.131,0.319,0.208,0.479h-1.359H6.22
			c0.266,0.15,0.507,0.343,0.693,0.588c0.039,0.051,0.066,0.108,0.1,0.162c0.151,0.236,0.256,0.488,0.311,0.75h6.049h0.75h0.75
			h1.887c0.274,0,0.526-0.15,0.658-0.391s0.121-0.534-0.027-0.765c-0.028-0.044-0.047-0.089-0.075-0.133
			c1.082-1.632,1.558-3.155,1.666-4.51h0.777v1.189c0,0.414,0.336,0.75,0.75,0.75s0.75-0.336,0.75-0.75V6.553V4.736
			c0-0.414-0.336-0.75-0.75-0.75s-0.75,0.336-0.75,0.75v1.067h-0.795c-0.233-2.117-1.247-3.64-1.717-4.238
			c0.094-0.19,0.156-0.302,0.161-0.31c0.135-0.232,0.135-0.519,0.001-0.751s-0.381-0.376-0.649-0.376H2.672
			c-0.274,0-0.526,0.15-0.658,0.391C1.895,0.735,1.908,0.99,2.018,1.208C-1.953,6.836,1.445,11.249,2.039,11.945z M16.466,3.605
			c0.038-0.13,0.076-0.259,0.115-0.381c0.059,0.099,0.118,0.204,0.178,0.318c0.677,1.287,1.305,3.5,0,6.233
			c-0.07,0.147-0.141,0.295-0.223,0.445c-0.021-0.058-0.051-0.115-0.071-0.173C15.633,7.643,15.976,5.279,16.466,3.605z"/>
		<path fill="#6A6A6A" d="M31.125,18.021c-0.414,0-0.75,0.336-0.75,0.75v1.067h-0.794c-0.233-2.116-1.247-3.639-1.716-4.238
			c0.094-0.19,0.157-0.303,0.161-0.31c0.135-0.232,0.135-0.519,0.001-0.751s-0.381-0.376-0.649-0.376H14.873h-0.75h-0.75h-0.085
			c-0.267,0-0.509,0.146-0.644,0.375c-0.004,0.006-0.011,0.009-0.015,0.015c-0.119,0.217-0.105,0.472,0.004,0.69
			c-0.011,0.015-0.018,0.03-0.029,0.045c-0.177,0.253-0.33,0.502-0.478,0.75c-1.347,2.256-1.548,4.287-1.283,5.925l0.747,0.048
			l0.762,0.049c-0.28-1.346-0.198-3.074,0.935-5.063c0.036-0.063,0.085-0.129,0.123-0.193l1.347-1.142h2.637h8.786
			c-0.022,0.053-0.046,0.113-0.069,0.169c-0.774,1.887-1.804,5.567-0.221,9.326c0.067,0.16,0.131,0.319,0.208,0.479h-1.359h-7.398
			l-0.401,0.75l-0.125,0.234l-0.276,0.516l-0.474,0.887l-0.294,0.55l-0.401,0.75l-0.04,0.075l-0.224,0.42
			c-0.051,0.094-0.124,0.17-0.186,0.255h1.145h8.674h2.638c0.414,0,0.75-0.336,0.75-0.75s-0.336-0.75-0.75-0.75h-1.888v-1.437h1.888
			c0.274,0,0.526-0.149,0.658-0.391c0.132-0.24,0.121-0.534-0.027-0.765c-0.028-0.044-0.047-0.089-0.075-0.133
			c1.082-1.632,1.558-3.154,1.665-4.509h0.777v1.189c0,0.414,0.336,0.75,0.75,0.75s0.75-0.336,0.75-0.75v-1.939v-1.817
			C31.875,18.356,31.539,18.021,31.125,18.021z M23.989,28.572h-7.174v-1.437h7.174V28.572z M28.149,20.598
			c0.006,0.952-0.204,2.033-0.772,3.215c-0.07,0.147-0.14,0.293-0.222,0.443c-0.022-0.058-0.051-0.116-0.071-0.174
			c-0.834-2.404-0.491-4.768,0-6.441c0.039-0.134,0.078-0.265,0.119-0.39c0.058,0.096,0.116,0.197,0.175,0.307
			c0.389,0.728,0.76,1.759,0.772,3.019c0,0.004-0.002,0.007-0.002,0.011C28.146,20.592,28.149,20.595,28.149,20.598z"/>
		<path fill="#6A6A6A" d="M15.361,26.159c0.026-0.081,0.067-0.153,0.117-0.219l0.162-0.304l0.256-0.479l0.123-0.231
			c0.129-0.24,0.126-0.526-0.007-0.762c-0.133-0.238-0.373-0.391-0.644-0.407l-0.233-0.015l-0.776-0.05l-0.775-0.05l-0.298-0.019
			l-0.417-0.027l-0.823-0.053l-0.808-0.053l-0.45-0.029c-0.418,0-0.767,0.327-0.794,0.743c-0.015,0.213,0.055,0.418,0.195,0.578
			s0.335,0.256,0.547,0.269l1.307,0.085l0.665,0.043c-0.157,0.087-0.322,0.157-0.485,0.23c-0.835,0.376-1.739,0.582-2.683,0.582
			c-3.617,0-6.561-2.943-6.561-6.561c0-1.222,0.338-2.384,0.949-3.392c0.158-0.26,0.328-0.513,0.522-0.75
			c0.077-0.094,0.163-0.18,0.245-0.27c0.153-0.167,0.315-0.328,0.487-0.481c0.086-0.076,0.172-0.153,0.263-0.225
			c0.041-0.033,0.077-0.07,0.119-0.102c0.346-0.266,0.413-0.761,0.152-1.109c-0.001-0.002-0.002-0.004-0.003-0.006
			c-0.071-0.094-0.165-0.161-0.268-0.213c-0.235-0.117-0.519-0.11-0.75,0.016c-0.032,0.017-0.068,0.024-0.098,0.046
			c-0.064,0.049-0.12,0.106-0.182,0.156c-1.923,1.557-3.03,3.845-3.03,6.329c0,4.495,3.657,8.152,8.152,8.152h0.002
			c1.133,0,2.223-0.241,3.235-0.681c0.167-0.072,0.336-0.137,0.498-0.221l-0.212,0.396l-0.687,1.284
			c-0.206,0.388-0.06,0.87,0.327,1.077c0.119,0.063,0.247,0.093,0.373,0.093c0.099,0,0.195-0.025,0.287-0.06
			c0.172-0.066,0.324-0.185,0.418-0.36l0.286-0.535l0.77-1.44l0.401-0.75L15.361,26.159z"/>
	</g>
</g>
<g id="METRICS_AND_KEYLINES">
</g>
<g id="Isolation_Mode">
</g>
<g id="filled">
</g>
</svg>
