<?xml version="1.0" encoding="utf-8"?>
<!-- Generator: Adobe Illustrator 26.0.2, SVG Export Plug-In . SVG Version: 6.00 Build 0)  -->
<svg version="1.2" baseProfile="tiny" xmlns="http://www.w3.org/2000/svg" xmlns:xlink="http://www.w3.org/1999/xlink" x="0px"
	 y="0px" viewBox="0 0 32 32" overflow="visible" xml:space="preserve">
<g id="Layer_1">
	<g>
		<path fill="#6A6A6A" d="M11.703,16.839v-0.464h0.296h1.732h1.443h1.732h0.296v0.544l0.75-0.001l0.356,0l0.394,0V16.5v-0.125v-0.75
			c0-0.168-0.066-0.315-0.159-0.44l5.435-6.786c0.134-0.232,0.134-0.518,0-0.75s-0.382-0.375-0.649-0.375h-3.147l0.009,0.942
			c0,0.194-0.039,0.38-0.098,0.558h1.938l-4.956,6.101H16.04h-3.176H11.83L6.874,8.773H8.81C8.75,8.591,8.711,8.4,8.714,8.202
			l0.023-0.928H5.576c-0.268,0-0.516,0.143-0.649,0.375s-0.134,0.518,0,0.75l5.435,6.786c-0.093,0.125-0.159,0.272-0.159,0.44v1.216
			l0.75-0.001L11.703,16.839z"/>
		<path fill="#6A6A6A" d="M10.683,8.773l3.517,3.315c0.048,0.049,0.11,0.074,0.173,0.074c0.059,0,0.116-0.022,0.163-0.064
			l3.674-3.325l0.406-0.368c0.048-0.046,0.075-0.109,0.075-0.176l-0.009-0.956l-0.003-0.31c-0.001-0.094-0.058-0.18-0.145-0.217
			c-0.088-0.036-0.188-0.019-0.258,0.046l-0.541,0.481l-1.686,1.5l-0.881,0.784l-0.001-0.784l-0.002-1.5l-0.005-3.95l-0.001-0.75
			l-0.001-0.75l-0.002-1.423c0-0.028-0.021-0.047-0.03-0.073c-0.033-0.092-0.105-0.166-0.208-0.165l-0.078,0l-0.776,0.001l-0.162,0
			c-0.127,0-0.227,0.102-0.234,0.228c0,0.004-0.004,0.007-0.004,0.011l0.002,1.421l0.001,0.75l0.001,0.75l0.005,3.95l0.002,1.5
			l0.001,0.884l-0.909-0.884l-1.544-1.5l-0.574-0.558c-0.069-0.065-0.169-0.082-0.256-0.046c-0.087,0.036-0.144,0.12-0.146,0.215
			l-0.01,0.389l-0.024,0.95c-0.001,0.068,0.026,0.133,0.076,0.179L10.683,8.773z"/>
		<path fill="#6A6A6A" d="M18.082,23.349c0.35-0.063,0.621-0.356,0.621-0.724v-0.75v-0.468h-1.509v0.468h-0.288h-1.732h-1.443
			h-1.732h-0.295v-5.034h-1.502v4.492v1.292c0,0.368,0.271,0.661,0.621,0.724l-5.897,7.363c-0.134,0.232-0.134,0.518,0,0.75
			s0.382,0.375,0.649,0.375h17.754c0.268,0,0.516-0.143,0.649-0.375s0.134-0.518,0-0.75L18.082,23.349z M6.874,30.337l5.655-6.962
			h0.335h3.176h0.335l5.655,6.962H6.874z"/>
		<path fill="#6A6A6A" d="M27.11,19.041l-3.693-4.08c-0.046-0.048-0.109-0.075-0.176-0.075l-1.266,0.012
			c-0.094,0.001-0.18,0.058-0.217,0.145c-0.036,0.088-0.019,0.188,0.046,0.258l2.765,3.108l-5.866,0.008l-0.367,0l-0.75,0.001
			l-0.383,0.001l-0.367,0l-1.423,0.002c-0.028,0-0.047,0.021-0.073,0.03c-0.092,0.033-0.166,0.105-0.165,0.208l0,0.078l0.001,0.776
			l0,0.162c0,0.127,0.102,0.227,0.228,0.234c0.004,0,0.007,0.004,0.011,0.004l1.421-0.002l0.367,0l0.383-0.001l0.75-0.001l0.367,0
			l5.966-0.008l-2.942,3.027c-0.065,0.069-0.082,0.169-0.046,0.256c0.036,0.087,0.12,0.144,0.215,0.146l1.339,0.034
			c0.068,0.001,0.133-0.026,0.179-0.076l3.686-3.91c0.049-0.048,0.074-0.11,0.074-0.173C27.174,19.146,27.153,19.088,27.11,19.041z"
			/>
	</g>
</g>
<g id="METRICS_AND_KEYLINES">
</g>
<g id="Isolation_Mode">
</g>
<g id="filled">
</g>
</svg>
