<?xml version="1.0" encoding="utf-8"?>
<!-- Generator: Adobe Illustrator 26.0.0, SVG Export Plug-In . SVG Version: 6.00 Build 0)  -->
<svg version="1.2" baseProfile="tiny" xmlns="http://www.w3.org/2000/svg" xmlns:xlink="http://www.w3.org/1999/xlink" x="0px"
	 y="0px" viewBox="0 0 32 32" overflow="visible" xml:space="preserve">
<g id="Layer_1">
	<path fill="#6A6A6A" d="M31.628,6.547c-0.231-0.134-0.514-0.134-0.744,0L16,15.141L1.116,6.547c-0.231-0.134-0.514-0.134-0.744,0
		C0.142,6.68,0,6.926,0,7.192v17.616c0,0.266,0.142,0.512,0.372,0.644c0.115,0.067,0.244,0.1,0.372,0.1s0.257-0.033,0.372-0.1
		L16,16.859l14.884,8.593c0.115,0.067,0.244,0.1,0.372,0.1s0.257-0.033,0.372-0.1C31.858,25.32,32,25.074,32,24.808V7.192
		C32,6.926,31.858,6.68,31.628,6.547z"/>
</g>
<g id="METRICS_AND_KEYLINES">
</g>
<g id="Isolation_Mode">
</g>
<g id="filled">
</g>
</svg>
