<?xml version="1.0" encoding="utf-8"?>
<!-- Generator: Adobe Illustrator 26.0.0, SVG Export Plug-In . SVG Version: 6.00 Build 0)  -->
<svg version="1.2" baseProfile="tiny" xmlns="http://www.w3.org/2000/svg" xmlns:xlink="http://www.w3.org/1999/xlink" x="0px"
	 y="0px" viewBox="0 0 32 32" overflow="visible" xml:space="preserve">
<g id="Layer_1">
	<path fill="#6A6A6A" d="M26.668,4.806c-0.283-0.115-0.605-0.05-0.818,0.167l-9.1,9.202V5.5c0-0.304-0.184-0.578-0.465-0.694
		c-0.284-0.115-0.604-0.05-0.818,0.167l-9.1,9.202V5.5c0-0.414-0.336-0.75-0.75-0.75s-0.75,0.336-0.75,0.75v21
		c0,0.414,0.336,0.75,0.75,0.75s0.75-0.336,0.75-0.75v-8.675l9.1,9.202C15.61,27.172,15.804,27.25,16,27.25
		c0.096,0,0.192-0.019,0.285-0.056c0.281-0.116,0.465-0.39,0.465-0.694v-8.675l9.1,9.202c0.144,0.146,0.337,0.223,0.533,0.223
		c0.096,0,0.192-0.019,0.285-0.056c0.281-0.116,0.465-0.39,0.465-0.694v-21C27.133,5.195,26.949,4.921,26.668,4.806z"/>
</g>
<g id="METRICS_AND_KEYLINES">
</g>
<g id="Isolation_Mode">
</g>
<g id="filled">
</g>
</svg>
