<?xml version="1.0" encoding="utf-8"?>
<!-- Generator: Adobe Illustrator 26.0.0, SVG Export Plug-In . SVG Version: 6.00 Build 0)  -->
<svg version="1.2" baseProfile="tiny" xmlns="http://www.w3.org/2000/svg" xmlns:xlink="http://www.w3.org/1999/xlink" x="0px"
	 y="0px" viewBox="0 0 32 32" overflow="visible" xml:space="preserve">
<g id="Layer_1">
	<g>
		<g>
			<path fill="#6A6A6A" d="M27.039,10.832h-2.406l0.003-5.991c0.001-1.011-0.408-1.939-1.122-2.543
				c-0.642-0.544-1.447-0.816-2.317-0.8c-0.646,0.016-4.124,0-6.918-0.013c-3.74-0.017-3.74-0.017-3.853,0.005
				C8.922,1.782,7.939,2.559,7.504,3.8C7.381,4.151,7.32,4.542,7.317,4.998l-0.035,5.834H4.961c-0.453,0-0.821,0.368-0.821,0.821
				v18.053c0,0.453,0.367,0.821,0.821,0.821h22.078c0.453,0,0.821-0.368,0.821-0.821V11.653C27.86,11.2,27.492,10.832,27.039,10.832
				z M8.958,5.008C8.96,4.737,8.991,4.52,9.052,4.344c0.157-0.448,0.484-0.99,1.62-1.228c0.334-0.003,1.923,0.004,3.598,0.012
				c2.805,0.012,6.295,0.028,6.965,0.012c0.581-0.021,0.987,0.216,1.218,0.411c0.345,0.292,0.542,0.762,0.542,1.29l-0.003,5.992
				H8.923L8.958,5.008z M26.218,28.885H5.782V12.473h20.437L26.218,28.885L26.218,28.885z"/>
		</g>
		<rect x="14.995" y="18.078" fill="#6A6A6A" width="2.011" height="5.625"/>
	</g>
</g>
<g id="METRICS_AND_KEYLINES">
</g>
<g id="Isolation_Mode">
</g>
<g id="filled">
</g>
</svg>
