<?xml version="1.0" encoding="utf-8"?>
<!-- Generator: Adobe Illustrator 26.0.0, SVG Export Plug-In . SVG Version: 6.00 Build 0)  -->
<svg version="1.2" baseProfile="tiny" xmlns="http://www.w3.org/2000/svg" xmlns:xlink="http://www.w3.org/1999/xlink" x="0px"
	 y="0px" viewBox="0 0 32 32" overflow="visible" xml:space="preserve">
<g id="Layer_1">
	<g>
		<path fill="none" d="M8.337,21.388c-0.924,0-1.596,1.127-1.596,3.25c0,2.027,0.623,3.178,1.584,3.178
			c1.078,0,1.594-1.259,1.594-3.25C9.919,22.647,9.429,21.388,8.337,21.388z"/>
		<path fill="#6A6A6A" d="M29,26.75H16.917V4.5c0-0.414-0.336-0.75-0.75-0.75H3c-0.414,0-0.75,0.336-0.75,0.75S2.586,5.25,3,5.25
			h12.417V27.5c0,0.414,0.336,0.75,0.75,0.75H29c0.414,0,0.75-0.336,0.75-0.75S29.414,26.75,29,26.75z"/>
		<path fill="#6A6A6A" d="M8.397,20.572c-1.584,0-2.711,1.439-2.711,4.054c0.023,2.579,1.055,4.006,2.578,4.006
			c1.727,0,2.711-1.463,2.711-4.114C10.976,22.036,10.04,20.572,8.397,20.572z M8.325,27.816c-0.961,0-1.584-1.151-1.584-3.178
			c0-2.123,0.672-3.25,1.596-3.25c1.092,0,1.582,1.26,1.582,3.179C9.919,26.557,9.403,27.816,8.325,27.816z"/>
	</g>
</g>
<g id="METRICS_AND_KEYLINES">
</g>
<g id="Isolation_Mode">
</g>
<g id="filled">
</g>
</svg>
