<?xml version="1.0" encoding="utf-8"?>
<!-- Generator: Adobe Illustrator 22.1.0, SVG Export Plug-In . SVG Version: 6.00 Build 0)  -->
<svg version="1.2" baseProfile="tiny" id="Layer_1" xmlns="http://www.w3.org/2000/svg" xmlns:xlink="http://www.w3.org/1999/xlink"
	 x="0px" y="0px" viewBox="0 0 32 32" xml:space="preserve">
<path fill="#C0C0C0" d="M29.144,16.231c0.001-0.078,0.012-0.153,0.012-0.231c0-7.582-6.168-13.75-13.75-13.75S1.656,8.418,1.656,16
	c0,0.078,0.01,0.153,0.012,0.231c-0.002,0.02-0.012,0.037-0.012,0.058c0,0.034,0.015,0.064,0.02,0.097
	c0.207,7.403,6.279,13.364,13.73,13.364s13.524-5.962,13.73-13.364c0.004-0.033,0.02-0.062,0.02-0.097
	C29.156,16.268,29.146,16.251,29.144,16.231z M15.406,3.75c6.599,0,11.982,5.249,12.227,11.789H3.179
	C3.424,8.999,8.806,3.75,15.406,3.75z M3.208,17.039h11.447v11.173C8.596,27.842,3.718,23.061,3.208,17.039z M16.156,28.212V17.039
	h11.447C27.094,23.061,22.215,27.842,16.156,28.212z"/>
</svg>
