<?xml version="1.0" encoding="utf-8"?>
<!-- Generator: Adobe Illustrator 26.0.0, SVG Export Plug-In . SVG Version: 6.00 Build 0)  -->
<svg version="1.2" baseProfile="tiny" xmlns="http://www.w3.org/2000/svg" xmlns:xlink="http://www.w3.org/1999/xlink" x="0px"
	 y="0px" viewBox="0 0 32 32" overflow="visible" xml:space="preserve">
<g id="Layer_1">
	<path fill="#6A6A6A" d="M31,15.48H16.23c-0.414,0-0.75,0.336-0.75,0.75v4.985H7.485V13.22h4.985c0.414,0,0.75-0.336,0.75-0.75V1
		c0-0.414-0.336-0.75-0.75-0.75H1C0.586,0.25,0.25,0.586,0.25,1v11.47c0,0.414,0.336,0.75,0.75,0.75h4.985v8.746
		c0,0.414,0.336,0.75,0.75,0.75h8.746V31c0,0.414,0.336,0.75,0.75,0.75H31c0.414,0,0.75-0.336,0.75-0.75V16.23
		C31.75,15.816,31.414,15.48,31,15.48z M1.75,1.75h9.97v9.97H1.75V1.75z M30.25,30.25H16.98V16.98h13.27V30.25z"/>
</g>
<g id="METRICS_AND_KEYLINES">
</g>
<g id="Isolation_Mode">
</g>
<g id="filled">
</g>
</svg>
