<?xml version="1.0" encoding="utf-8"?>
<!-- Generator: Adobe Illustrator 26.0.0, SVG Export Plug-In . SVG Version: 6.00 Build 0)  -->
<svg version="1.2" baseProfile="tiny" xmlns="http://www.w3.org/2000/svg" xmlns:xlink="http://www.w3.org/1999/xlink" x="0px"
	 y="0px" viewBox="0 0 32 32" overflow="visible" xml:space="preserve">
<g id="Layer_1">
	<g>
		<path fill="none" d="M21.742,11.23c-1.227,0-2.117,1.498-2.117,4.318c0,2.691,0.828,4.221,2.102,4.221
			c1.434,0,2.119-1.672,2.119-4.316C23.846,12.904,23.193,11.23,21.742,11.23z"/>
		<path fill="none" d="M12.371,15.453c0-2.549-0.652-4.223-2.104-4.223c-1.227,0-2.117,1.498-2.117,4.318
			c0,2.691,0.828,4.221,2.102,4.221C11.686,19.77,12.371,18.098,12.371,15.453z"/>
		<path fill="#6A6A6A" d="M13.773,15.389c0-3.297-1.242-5.24-3.426-5.24c-2.102,0-3.6,1.911-3.6,5.384
			c0.031,3.425,1.402,5.321,3.424,5.321C12.467,20.854,13.773,18.91,13.773,15.389z M8.15,15.549c0-2.82,0.891-4.318,2.117-4.318
			c1.451,0,2.104,1.674,2.104,4.223c0,2.645-0.686,4.316-2.119,4.316C8.979,19.77,8.15,18.24,8.15,15.549z"/>
		<path fill="#6A6A6A" d="M15.178,19.85c0,0.573,0.383,1.004,0.941,1.004c0.588,0,0.955-0.431,0.955-1.004
			c0-0.59-0.383-1.004-0.939-1.004C15.576,18.846,15.178,19.26,15.178,19.85z"/>
		<path fill="#6A6A6A" d="M21.822,10.148c-2.102,0-3.6,1.911-3.6,5.384c0.031,3.425,1.402,5.321,3.424,5.321
			c2.295,0,3.602-1.943,3.602-5.465C25.248,12.092,24.006,10.148,21.822,10.148z M21.727,19.77c-1.273,0-2.102-1.529-2.102-4.221
			c0-2.82,0.891-4.318,2.117-4.318c1.451,0,2.104,1.674,2.104,4.223C23.846,18.098,23.16,19.77,21.727,19.77z"/>
		<path fill="#6A6A6A" d="M9.333,2.312h5.731l-4.052,4.053c-0.293,0.293-0.293,0.768,0,1.061c0.146,0.146,0.338,0.22,0.53,0.22
			s0.384-0.073,0.53-0.22l3.178-3.178v3.815c0,0.414,0.336,0.75,0.75,0.75s0.75-0.336,0.75-0.75V3.832l3.178,3.178
			c0.293,0.293,0.768,0.293,1.061,0s0.293-0.768,0-1.061l-3.636-3.636h5.315c0.414,0,0.75-0.336,0.75-0.75s-0.336-0.75-0.75-0.75
			H9.333c-0.414,0-0.75,0.336-0.75,0.75S8.919,2.312,9.333,2.312z"/>
		<path fill="#6A6A6A" d="M22.667,29.688h-5.731l4.053-4.053c0.293-0.293,0.293-0.768,0-1.061s-0.768-0.293-1.061,0l-3.178,3.178
			v-3.814c0-0.414-0.336-0.75-0.75-0.75s-0.75,0.336-0.75,0.75v4.23l-3.178-3.178c-0.293-0.293-0.768-0.293-1.061,0
			s-0.293,0.768,0,1.061l3.637,3.637H9.333c-0.414,0-0.75,0.336-0.75,0.75s0.336,0.75,0.75,0.75h13.334
			c0.414,0,0.75-0.336,0.75-0.75S23.081,29.688,22.667,29.688z"/>
	</g>
</g>
<g id="METRICS_AND_KEYLINES">
</g>
<g id="Isolation_Mode">
</g>
<g id="filled">
</g>
</svg>
