<?xml version="1.0" encoding="utf-8"?>
<!-- Generator: Adobe Illustrator 26.0.0, SVG Export Plug-In . SVG Version: 6.00 Build 0)  -->
<svg version="1.2" baseProfile="tiny" xmlns="http://www.w3.org/2000/svg" xmlns:xlink="http://www.w3.org/1999/xlink" x="0px"
	 y="0px" viewBox="0 0 32 32" overflow="visible" xml:space="preserve">
<g id="Layer_1">
	<g>
		<path fill="#6A6A6A" d="M28.464,0.815C28.463,0.364,28.097-0.001,27.646,0l-7.321,0.01c-0.451,0.001-0.816,0.367-0.815,0.817
			l0.042,30.358c0.001,0.451,0.367,0.816,0.817,0.815l7.321-0.01c0.451-0.001,0.816-0.366,0.815-0.817L28.464,0.815z M21.183,30.367
			l-0.04-28.726l5.689-0.008l0.04,28.726L21.183,30.367z"/>
		<path fill="#6A6A6A" d="M11.135,0.177H4.311c-0.451,0-0.816,0.365-0.816,0.816v9.793c0,0.451,0.366,0.816,0.816,0.816h6.825
			c0.451,0,0.816-0.365,0.816-0.816V0.993C11.952,0.542,11.586,0.177,11.135,0.177z M10.319,9.97H5.127V1.809h5.192V9.97z"/>
		<path fill="#6A6A6A" d="M11.135,20.542H4.311c-0.451,0-0.816,0.365-0.816,0.816v9.793c0,0.451,0.366,0.816,0.816,0.816h6.825
			c0.451,0,0.816-0.365,0.816-0.816v-9.793C11.952,20.908,11.586,20.542,11.135,20.542z M10.319,30.335H5.127v-8.16h5.192V30.335z"
			/>
	</g>
</g>
<g id="METRICS_AND_KEYLINES">
</g>
<g id="Isolation_Mode">
</g>
<g id="filled">
</g>
</svg>
