<?xml version="1.0" encoding="utf-8"?>
<!-- Generator: Adobe Illustrator 26.0.0, SVG Export Plug-In . SVG Version: 6.00 Build 0)  -->
<svg version="1.2" baseProfile="tiny" xmlns="http://www.w3.org/2000/svg" xmlns:xlink="http://www.w3.org/1999/xlink" x="0px"
	 y="0px" viewBox="0 0 32 32" overflow="visible" xml:space="preserve">
<g id="Layer_1">
	<g>
		<path fill="none" d="M5.17,21.969c-0.924,0-1.596,1.127-1.596,3.25c0,2.027,0.623,3.179,1.584,3.179
			c1.078,0,1.594-1.26,1.594-3.25C6.752,23.229,6.262,21.969,5.17,21.969z"/>
		<path fill="#6A6A6A" d="M29.912,3.903h-7c-0.414,0-0.75,0.336-0.75,0.75v22.125h-9.5V4.653c0-0.414-0.336-0.75-0.75-0.75H4.037
			c-0.414,0-0.75,0.336-0.75,0.75s0.336,0.75,0.75,0.75h7.125v22.125c0,0.414,0.336,0.75,0.75,0.75h11c0.414,0,0.75-0.336,0.75-0.75
			V5.403h6.25c0.414,0,0.75-0.336,0.75-0.75S30.326,3.903,29.912,3.903z"/>
		<path fill="#6A6A6A" d="M5.23,21.153c-1.584,0-2.711,1.439-2.711,4.054c0.023,2.578,1.055,4.006,2.578,4.006
			c1.727,0,2.711-1.463,2.711-4.114C7.809,22.616,6.873,21.153,5.23,21.153z M5.158,28.397c-0.961,0-1.584-1.151-1.584-3.179
			c0-2.123,0.672-3.25,1.596-3.25c1.092,0,1.582,1.26,1.582,3.179C6.752,27.138,6.236,28.397,5.158,28.397z"/>
	</g>
</g>
<g id="METRICS_AND_KEYLINES">
</g>
<g id="Isolation_Mode">
</g>
<g id="filled">
</g>
</svg>
