<?xml version="1.0" encoding="utf-8"?>
<!-- Generator: Adobe Illustrator 26.0.0, SVG Export Plug-In . SVG Version: 6.00 Build 0)  -->
<svg version="1.2" baseProfile="tiny" xmlns="http://www.w3.org/2000/svg" xmlns:xlink="http://www.w3.org/1999/xlink" x="0px"
	 y="0px" viewBox="0 0 32 32" overflow="visible" xml:space="preserve">
<g id="Layer_1">
	<g>
		<path fill="none" d="M18.399,30.344h10.504l0.001-8.288H18.399V30.344z M22.722,24.392h1.857v3.848h-1.857V24.392z"/>
		<path fill="none" d="M27.126,20.402l0.002-2.925c0-0.18-0.061-0.335-0.167-0.425c-0.075-0.063-0.205-0.127-0.395-0.134
			c-0.007,0-0.011-0.003-0.019-0.003c-0.238,0.007-1.107,0.005-2.106,0.002c-0.53-0.002-1.096-0.005-1.626-0.007l-0.12,0
			c-0.921-0.004-1.792-0.007-1.976-0.006c-0.427,0.097-0.501,0.31-0.541,0.424c-0.014,0.039-0.03,0.114-0.031,0.245l-0.009,1.47
			l-0.008,1.36h1.034H27.126z"/>
		<path fill="#6A6A6A" d="M15.674,18.715c-0.315-0.108-0.667-0.001-0.868,0.266L6.69,29.737c-0.6,0.794-1.734,0.953-2.528,0.354
			l-0.455-0.344c-0.383-0.289-0.63-0.712-0.697-1.191c-0.067-0.479,0.055-0.954,0.344-1.337l8.07-10.695
			c0.206-0.273,0.208-0.649,0.005-0.925C9.13,12.481,9.155,8.143,11.49,5.049c1.705-2.26,4.364-3.503,7.074-3.503
			c0.934,0,1.875,0.148,2.783,0.453l-4.974,6.592c-0.124,0.164-0.177,0.37-0.149,0.573c0.029,0.203,0.136,0.387,0.3,0.51
			l3.373,2.545c0.342,0.258,0.827,0.19,1.083-0.151l4.937-6.542c1.634,2.479,1.87,5.566,0.734,8.251
			c0.564,0.023,1.079,0.149,1.543,0.368c1.361-3.451,0.794-7.431-1.678-10.404c-0.151-0.182-0.376-0.283-0.613-0.279
			c-0.236,0.006-0.457,0.119-0.599,0.307l-5.093,6.749l-2.138-1.613l5.118-6.783c0.141-0.186,0.19-0.427,0.133-0.653
			c-0.056-0.227-0.213-0.416-0.424-0.514c-4.401-2.047-9.719-0.717-12.645,3.162c-2.626,3.481-2.766,8.301-0.404,11.922
			L2.118,26.287c-0.538,0.712-0.766,1.594-0.641,2.483c0.124,0.889,0.585,1.674,1.298,2.212l0.455,0.344
			C3.833,31.78,4.541,32,5.245,32c1.017,0,2.022-0.459,2.68-1.331l7.345-9.734c0.115-0.899,0.741-1.635,1.58-1.91
			C16.456,18.947,16.062,18.848,15.674,18.715z"/>
		<path fill="#6A6A6A" d="M29.73,20.402h-0.95l0.002-2.924c0.001-0.668-0.272-1.284-0.751-1.688
			c-0.148-0.126-0.314-0.22-0.485-0.301c-0.317-0.149-0.666-0.23-1.041-0.228c-0.103,0.003-0.344,0.004-0.658,0.004
			c-0.777,0-2.049-0.006-3.141-0.012c-2.099-0.009-2.099-0.009-2.195,0.01c-0.955,0.186-1.609,0.709-1.893,1.517
			c-0.081,0.235-0.122,0.491-0.123,0.782l-0.01,1.63l-0.008,1.21h-0.905c-0.214,0-0.405,0.087-0.552,0.22
			c-0.167,0.151-0.276,0.365-0.276,0.607v9.941c0,0.456,0.371,0.827,0.827,0.827H29.73c0.456,0,0.827-0.371,0.827-0.827v-9.941
			C30.557,20.773,30.186,20.402,29.73,20.402z M20.138,19.042l0.009-1.47c0.001-0.131,0.018-0.206,0.031-0.245
			c0.04-0.114,0.114-0.328,0.541-0.424c0.184-0.001,1.055,0.002,1.976,0.006l0.12,0c0.53,0.003,1.095,0.005,1.626,0.007
			c0.998,0.004,1.868,0.005,2.106-0.002c0.008,0,0.011,0.003,0.019,0.003c0.191,0.007,0.32,0.07,0.395,0.134
			c0.106,0.09,0.167,0.245,0.167,0.425l-0.002,2.925h-5.962H20.13L20.138,19.042z M28.902,30.344H18.399v-8.288h10.505
			L28.902,30.344z"/>
		<rect x="22.722" y="24.392" fill="#6A6A6A" width="1.857" height="3.848"/>
	</g>
</g>
<g id="METRICS_AND_KEYLINES">
</g>
<g id="Isolation_Mode">
</g>
<g id="filled">
</g>
</svg>
