<?xml version="1.0" encoding="utf-8"?>
<!-- Generator: Adobe Illustrator 26.0.0, SVG Export Plug-In . SVG Version: 6.00 Build 0)  -->
<svg version="1.2" baseProfile="tiny" xmlns="http://www.w3.org/2000/svg" xmlns:xlink="http://www.w3.org/1999/xlink" x="0px"
	 y="0px" viewBox="0 0 32 32" overflow="visible" xml:space="preserve">
<g id="Layer_1">
	<g>
		<path fill="#6A6A6A" d="M23.43,0H9.744c-0.464,0-0.84,0.376-0.84,0.84v30.32c0,0.464,0.376,0.84,0.84,0.84H23.43
			c0.464,0,0.84-0.376,0.84-0.84V0.84C24.27,0.376,23.894,0,23.43,0z M22.59,30.32H10.583V1.68H22.59V30.32z"/>
		<path fill="#6A6A6A" d="M13.322,8.159h6.613c0.464,0,0.84-0.376,0.84-0.84V4.161c0-0.464-0.376-0.84-0.84-0.84h-6.613
			c-0.464,0-0.84,0.376-0.84,0.84v3.158C12.482,7.783,12.858,8.159,13.322,8.159z M14.162,5.001h4.934v1.479h-4.934V5.001z"/>
		<path fill="#6A6A6A" d="M13.242,12.009h6.772c0.464,0,0.84-0.376,0.84-0.84c0-0.464-0.376-0.84-0.84-0.84h-6.772
			c-0.464,0-0.84,0.376-0.84,0.84C12.403,11.633,12.779,12.009,13.242,12.009z"/>
		<path fill="#6A6A6A" d="M13.242,16.21h6.772c0.464,0,0.84-0.376,0.84-0.84c0-0.464-0.376-0.84-0.84-0.84h-6.772
			c-0.464,0-0.84,0.376-0.84,0.84C12.403,15.834,12.779,16.21,13.242,16.21z"/>
		<circle fill="#6A6A6A" cx="20.166" cy="20.307" r="0.948"/>
	</g>
</g>
<g id="METRICS_AND_KEYLINES">
</g>
<g id="Isolation_Mode">
</g>
<g id="filled">
</g>
</svg>
