<?xml version="1.0" encoding="utf-8"?>
<!-- Generator: Adobe Illustrator 26.0.0, SVG Export Plug-In . SVG Version: 6.00 Build 0)  -->
<svg version="1.2" baseProfile="tiny" xmlns="http://www.w3.org/2000/svg" xmlns:xlink="http://www.w3.org/1999/xlink" x="0px"
	 y="0px" viewBox="0 0 32 32" overflow="visible" xml:space="preserve">
<g id="Layer_1">
	<g>
		<polygon fill="none" points="12.681,8.625 15.857,8.625 16.192,8.625 21.847,1.663 6.691,1.663 12.346,8.625 		"/>
		<path fill="#6A6A6A" d="M27.294,12.792l-3.693-4.08c-0.046-0.048-0.109-0.075-0.176-0.075l-1.266,0.012
			c-0.094,0.001-0.18,0.058-0.217,0.145c-0.036,0.088-0.019,0.188,0.046,0.258l2.765,3.108l-6.234,0.009l-0.75,0.001l-0.75,0.001
			l-1.423,0.002c-0.028,0-0.047,0.021-0.073,0.03c-0.092,0.033-0.166,0.105-0.165,0.208l0,0.078l0.001,0.776l0,0.162
			c0,0.127,0.102,0.227,0.228,0.234c0.004,0,0.007,0.004,0.011,0.004l1.421-0.002l0.75-0.001l0.75-0.001l6.333-0.009l-2.942,3.027
			c-0.065,0.069-0.082,0.169-0.046,0.256c0.036,0.087,0.12,0.144,0.215,0.146l1.339,0.034c0.068,0.001,0.133-0.026,0.179-0.076
			l3.686-3.91c0.049-0.048,0.074-0.11,0.074-0.173C27.358,12.896,27.336,12.839,27.294,12.792z"/>
		<path fill="#6A6A6A" d="M18.36,16.815c0.093-0.125,0.159-0.272,0.159-0.44v-1.216l-0.75,0.001l-0.75,0.001v0.464h-0.296h-1.732
			h-1.443h-1.732h-0.296v-5.274h0v-0.226h0.296h1.732h1.443h1.732h0.296v0.544l0.75-0.001l0.75-0.001V9.375
			c0-0.368-0.271-0.661-0.621-0.724l5.897-7.363c0.134-0.232,0.134-0.518,0-0.75s-0.382-0.375-0.649-0.375H5.392
			c-0.268,0-0.516,0.143-0.649,0.375s-0.134,0.518,0,0.75l5.897,7.363c-0.35,0.063-0.621,0.356-0.621,0.724v0.976V15.5v0.125v0.75
			c0,0.168,0.066,0.315,0.159,0.44l-5.435,6.786c-0.134,0.232-0.134,0.518,0,0.75s0.382,0.375,0.649,0.375h3.147L8.53,23.785
			c0-0.194,0.039-0.38,0.098-0.558H6.691l4.956-6.101h1.035h3.176h1.035l4.956,6.101h-1.936c0.06,0.182,0.099,0.374,0.096,0.572
			l-0.023,0.928h3.161c0.268,0,0.516-0.143,0.649-0.375s0.134-0.518,0-0.75L18.36,16.815z M6.691,1.663h15.156l-5.655,6.962h-0.335
			h-3.176h-0.335L6.691,1.663z"/>
		<path fill="#6A6A6A" d="M18.038,23.227l-3.517-3.315c-0.048-0.049-0.11-0.074-0.173-0.074c-0.059,0-0.116,0.022-0.163,0.064
			l-3.674,3.325l-0.406,0.368c-0.048,0.046-0.075,0.109-0.075,0.176l0.009,0.956l0.003,0.31c0.001,0.094,0.058,0.18,0.145,0.217
			c0.088,0.036,0.188,0.019,0.258-0.046l0.541-0.481l1.686-1.5l0.881-0.784l0.001,0.784l0.002,1.5l0.005,3.95l0.001,0.75l0.001,0.75
			l0.002,1.423c0,0.028,0.021,0.047,0.03,0.073c0.033,0.092,0.105,0.166,0.208,0.165l0.078,0l0.776-0.001l0.162,0
			c0.127,0,0.227-0.102,0.234-0.228c0-0.004,0.004-0.007,0.004-0.011l-0.002-1.421l-0.001-0.75l-0.001-0.75l-0.005-3.95l-0.002-1.5
			l-0.001-0.884l0.909,0.884l1.544,1.5l0.574,0.558c0.069,0.065,0.169,0.082,0.256,0.046c0.087-0.036,0.144-0.12,0.146-0.215
			l0.01-0.389l0.024-0.95c0.001-0.068-0.026-0.133-0.076-0.179L18.038,23.227z"/>
	</g>
</g>
<g id="METRICS_AND_KEYLINES">
</g>
<g id="Isolation_Mode">
</g>
<g id="filled">
</g>
</svg>
