<?xml version="1.0" encoding="utf-8"?>
<!-- Generator: Adobe Illustrator 26.0.2, SVG Export Plug-In . SVG Version: 6.00 Build 0)  -->
<svg version="1.2" baseProfile="tiny" xmlns="http://www.w3.org/2000/svg" xmlns:xlink="http://www.w3.org/1999/xlink" x="0px"
	 y="0px" viewBox="0 0 32 32" overflow="visible" xml:space="preserve">
<g id="Layer_1">
	<g>
		<rect x="14.642" y="8.231" fill="none" width="2.312" height="2.135"/>
		<rect x="8.797" y="19.821" fill="none" width="1.762" height="1.609"/>
		<rect x="8.905" y="13.851" fill="none" width="1.762" height="1.609"/>
		<path fill="none" d="M23.477,22.47h-0.519h-3.644v3.508v1.663v1.307h8.037v-5.05V22.47h-2.05H23.477z M24.125,27.249h-0.013v0.015
			h-1.5v-1.698v-1.205h1.237h0.263v0.008h0.013V27.249z"/>
		<path fill="#6A6A6A" d="M1.664,15.185c0-6.69,5.443-12.134,12.133-12.134S25.93,8.495,25.93,15.185
			c0,0.169-0.018,0.334-0.025,0.501c0.138-0.016,0.27-0.042,0.417-0.042h1.085c0.005-0.154,0.023-0.304,0.023-0.459
			c0-7.518-6.116-13.634-13.633-13.634S0.164,7.668,0.164,15.185s6.116,13.633,13.633,13.633c0.861,0,1.7-0.089,2.518-0.243v-1.524
			c-0.813,0.172-1.654,0.266-2.518,0.266C7.106,27.318,1.664,21.876,1.664,15.185z"/>
		<polygon fill="#6A6A6A" points="24.112,24.362 23.85,24.362 22.612,24.362 22.612,25.567 22.612,27.265 24.112,27.265 
			24.112,27.249 24.125,27.249 24.125,24.37 24.112,24.37 		"/>
		<path fill="#6A6A6A" d="M30.336,20.728h1.5l0-1.78c-0.015-0.4-0.188-0.902-0.554-1.277c-0.297-0.304-0.72-0.526-1.31-0.526h-0.19
			h-2.509h-0.951h-0.162v0.017c-0.15,0.011-0.289,0.035-0.417,0.073c-0.888,0.265-1.261,1.112-1.285,1.741v0.494v1.5h-1.5h-4.394
			c-0.414,0-0.75,0.336-0.75,0.75v4.901v1.592v1.486c0,0.414,0.336,0.75,0.75,0.75h9.537c0.414,0,0.75-0.336,0.75-0.75V21.72
			c0-0.414-0.336-0.75-0.75-0.75h-0.643h-1.334h-0.166l0-1.5l0-0.453c0.028-0.372,0.255-0.372,0.365-0.372h0.646h2.814h0.19
			c0.109,0,0.336,0,0.364,0.331v1.169V20.728z M27.351,22.47v1.429v5.05h-8.037v-1.307v-1.663V22.47h3.644h0.519h1.824H27.351z"/>
		<path fill="#6A6A6A" d="M18.454,11.116V7.481c0-0.414-0.336-0.75-0.75-0.75h-3.812c-0.414,0-0.75,0.336-0.75,0.75v3.635
			c0,0.414,0.336,0.75,0.75,0.75h1.352v2.099h-3.077v-0.864c0-0.414-0.336-0.75-0.75-0.75H8.155c-0.414,0-0.75,0.336-0.75,0.75
			v3.109c0,0.414,0.336,0.75,0.75,0.75h3.262c0.414,0,0.75-0.336,0.75-0.75v-0.745h3.077v4.64h-3.185v-1.033
			c0-0.414-0.336-0.75-0.75-0.75H8.047c-0.414,0-0.75,0.336-0.75,0.75v3.109c0,0.414,0.336,0.75,0.75,0.75h3.262
			c0.414,0,0.75-0.336,0.75-0.75v-0.576h3.935c0.414,0,0.75-0.336,0.75-0.75v-8.988h0.96C18.118,11.866,18.454,11.53,18.454,11.116z
			 M10.666,15.46H8.905v-1.609h1.762V15.46z M10.559,21.431H8.797v-1.609h1.762V21.431z M16.954,10.366h-2.312V8.231h2.312V10.366z"
			/>
	</g>
</g>
<g id="METRICS_AND_KEYLINES">
</g>
<g id="Isolation_Mode">
</g>
<g id="filled">
</g>
</svg>
