<?xml version="1.0" encoding="utf-8"?>
<!-- Generator: Adobe Illustrator 26.0.0, SVG Export Plug-In . SVG Version: 6.00 Build 0)  -->
<svg version="1.2" baseProfile="tiny" xmlns="http://www.w3.org/2000/svg" xmlns:xlink="http://www.w3.org/1999/xlink" x="0px"
	 y="0px" viewBox="0 0 32 32" overflow="visible" xml:space="preserve">
<g id="Layer_1">
	<g>
		<path fill="#6A6A6A" d="M15.609,21.056c0.072,0.075,0.166,0.113,0.262,0.113c0.089,0,0.176-0.032,0.247-0.097l6.186-5.583
			c0.073-0.069,0.114-0.165,0.114-0.267l-0.016-1.917c-0.001-0.142-0.087-0.272-0.219-0.329c-0.133-0.055-0.285-0.03-0.391,0.069
			l-4.712,4.18l0-13.864C17.081,3.162,16.919,3,16.72,3l-1.537,0c-0.199,0-0.361,0.162-0.361,0.361l0,14.012l-4.578-4.461
			c-0.104-0.099-0.255-0.124-0.388-0.071c-0.131,0.055-0.219,0.182-0.221,0.326l-0.054,2.028c-0.001,0.103,0.039,0.202,0.114,0.271
			L15.609,21.056z"/>
		<path fill="#6A6A6A" d="M31.097,28.517l-30.193,0C0.405,28.517,0,28.112,0,27.613l0-12.82c0-0.499,0.405-0.903,0.903-0.903
			s0.903,0.405,0.903,0.903l0,11.916l28.386,0l0-11.986c0-0.499,0.405-0.903,0.903-0.903S32,14.225,32,14.724l0,12.89
			C32,28.112,31.595,28.517,31.097,28.517z"/>
	</g>
</g>
<g id="METRICS_AND_KEYLINES">
</g>
<g id="Isolation_Mode">
</g>
<g id="filled">
</g>
</svg>
