<?xml version="1.0" encoding="utf-8"?>
<!-- Generator: Adobe Illustrator 26.0.0, SVG Export Plug-In . SVG Version: 6.00 Build 0)  -->
<svg version="1.2" baseProfile="tiny" xmlns="http://www.w3.org/2000/svg" xmlns:xlink="http://www.w3.org/1999/xlink" x="0px"
	 y="0px" viewBox="0 0 32 32" overflow="visible" xml:space="preserve">
<g id="Layer_1">
	<g>
		<path fill="#6A6A6A" d="M5.047,5.159H1.434c-0.281,0-0.508,0.217-0.508,0.485v20.711c0,0.268,0.228,0.485,0.508,0.485h3.613
			c0.281,0,0.508-0.217,0.508-0.485V5.644C5.556,5.377,5.328,5.159,5.047,5.159z"/>
		<path fill="#6A6A6A" d="M31.799,15.698L21.644,5.795c-0.268-0.261-0.717-0.071-0.717,0.302v19.806c0,0.374,0.45,0.563,0.717,0.302
			l10.155-9.903C31.969,16.137,31.969,15.863,31.799,15.698z"/>
		<path fill="#6A6A6A" d="M10.461,5.795c-0.268-0.261-0.717-0.071-0.717,0.302v19.806c0,0.374,0.45,0.563,0.717,0.302l10.155-9.903
			c0.17-0.166,0.17-0.439,0-0.605L10.461,5.795z"/>
	</g>
</g>
<g id="METRICS_AND_KEYLINES">
</g>
<g id="Isolation_Mode">
</g>
<g id="filled">
</g>
</svg>
