<?xml version="1.0" encoding="utf-8"?>
<!-- Generator: Adobe Illustrator 26.0.0, SVG Export Plug-In . SVG Version: 6.00 Build 0)  -->
<svg version="1.2" baseProfile="tiny" xmlns="http://www.w3.org/2000/svg" xmlns:xlink="http://www.w3.org/1999/xlink" x="0px"
	 y="0px" viewBox="0 0 32 32" overflow="visible" xml:space="preserve">
<g id="Layer_1">
	<g>
		<path fill="#6A6A6A" d="M29.745,1.625H2.495c-0.414,0-0.75,0.336-0.75,0.75v27.25c0,0.414,0.336,0.75,0.75,0.75h27.25
			c0.414,0,0.75-0.336,0.75-0.75V2.375C30.495,1.961,30.159,1.625,29.745,1.625z M28.995,28.875H3.245V3.125h25.75V28.875z"/>
		<path fill="#6A6A6A" d="M7.309,16.75h17.622c0.414,0,0.75-0.336,0.75-0.75s-0.336-0.75-0.75-0.75H7.309
			c-0.414,0-0.75,0.336-0.75,0.75S6.895,16.75,7.309,16.75z"/>
	</g>
</g>
<g id="METRICS_AND_KEYLINES">
</g>
<g id="Isolation_Mode">
</g>
<g id="filled">
</g>
</svg>
