<?xml version="1.0" encoding="utf-8"?>
<!-- Generator: Adobe Illustrator 22.1.0, SVG Export Plug-In . SVG Version: 6.00 Build 0)  -->
<svg version="1.2" baseProfile="tiny" id="Layer_1" xmlns="http://www.w3.org/2000/svg" xmlns:xlink="http://www.w3.org/1999/xlink"
	 x="0px" y="0px" viewBox="0 0 32 32" xml:space="preserve">
<g>
	<path fill="#6A6A6A" d="M5.911,20.753h1.291l1.67-1.466H6.644v-6.514h4.651c0.156,0,0.308-0.05,0.434-0.143l9.668-7.111
		c0.096-0.072,0.16-0.065,0.227-0.031c0.156,0.079,0.323,0.333,0.323,0.703v1.62l1.465-1.286V6.193c0-0.889-0.432-1.659-1.127-2.011
		c-0.572-0.289-1.229-0.231-1.757,0.158l-9.474,6.968H5.911c-0.405,0-0.733,0.328-0.733,0.732v7.979
		C5.178,20.425,5.506,20.753,5.911,20.753z"/>
	<path fill="#6A6A6A" d="M24.837,11.683l-1.163,1.02c1.094,0.532,1.884,1.891,1.884,3.506c0,1.744-0.914,3.201-2.145,3.628v-6.905
		l-1.465,1.286v11.648c0,0.371-0.167,0.625-0.323,0.703c-0.066,0.034-0.13,0.041-0.227-0.031l-7.338-5.397l-1.128,0.99l7.598,5.588
		c0.306,0.225,0.656,0.34,1.006,0.34c0.255,0,0.51-0.06,0.75-0.182c0.696-0.352,1.127-1.122,1.127-2.011v-4.512
		c2.045-0.423,3.61-2.56,3.61-5.144C27.023,14.271,26.141,12.583,24.837,11.683z"/>
	<path fill="#6A6A6A" d="M30.668,3.361c-0.082-0.092-0.178-0.166-0.287-0.218c-0.046-0.022-0.09-0.031-0.129-0.039l-0.083-0.021
		c-0.036-0.012-0.077-0.025-0.127-0.029c-0.024,0.002-0.048,0.004-0.067,0.008C29.832,3.063,29.69,3.103,29.55,3.18l-0.04,0.02
		c-0.039,0.019-0.083,0.04-0.125,0.078L23.413,8.52l-1.465,1.286l-10.802,9.481l-1.67,1.466l-7.523,6.603
		c-0.275,0.241-0.378,0.622-0.263,0.968c0.038,0.115,0.098,0.221,0.179,0.313c0.017,0.02,0.035,0.031,0.039,0.031l0,0
		c0.085,0.087,0.171,0.15,0.262,0.192c0.035,0.017,0.069,0.023,0.096,0.028l0.036,0.008c0.066,0.02,0.14,0.042,0.2,0.042l0.05,0.008
		c0.06,0,0.115-0.013,0.163-0.025l0.059-0.012c0.021-0.002,0.047-0.006,0.075-0.016c0.102-0.036,0.195-0.087,0.282-0.158
		l8.563-7.515l1.128-0.99l9.126-8.009l1.465-1.286l7.172-6.294c0.182-0.16,0.291-0.381,0.307-0.624
		C30.908,3.777,30.828,3.543,30.668,3.361z"/>
</g>
</svg>
