<?xml version="1.0" encoding="utf-8"?>
<!-- Generator: Adobe Illustrator 22.1.0, SVG Export Plug-In . SVG Version: 6.00 Build 0)  -->
<svg version="1.2" baseProfile="tiny" id="Layer_1" xmlns="http://www.w3.org/2000/svg" xmlns:xlink="http://www.w3.org/1999/xlink"
	 x="0px" y="0px" viewBox="0 0 32 32" xml:space="preserve">
<g>
	<path fill="#6A6A6A" d="M16,31.75C7.315,31.75,0.25,24.685,0.25,16S7.315,0.25,16,0.25S31.75,7.315,31.75,16S24.685,31.75,16,31.75
		z M16,1.75C8.143,1.75,1.75,8.143,1.75,16S8.143,30.25,16,30.25S30.25,23.857,30.25,16S23.857,1.75,16,1.75z"/>
	<g>
		<path fill="#6A6A6A" d="M13.773,15.389c0,3.521-1.307,5.465-3.601,5.465c-2.022,0-3.393-1.896-3.425-5.321
			c0-3.473,1.498-5.384,3.601-5.384C12.531,10.148,13.773,12.091,13.773,15.389z M8.15,15.548c0,2.692,0.828,4.221,2.103,4.221
			c1.434,0,2.119-1.672,2.119-4.317c0-2.549-0.653-4.222-2.104-4.222C9.042,11.231,8.15,12.729,8.15,15.548z"/>
		<path fill="#6A6A6A" d="M15.179,19.85c0-0.59,0.398-1.004,0.956-1.004s0.939,0.414,0.939,1.004c0,0.573-0.366,1.004-0.955,1.004
			C15.562,20.854,15.179,20.423,15.179,19.85z"/>
		<path fill="#6A6A6A" d="M25.248,15.389c0,3.521-1.307,5.465-3.601,5.465c-2.022,0-3.393-1.896-3.425-5.321
			c0-3.473,1.498-5.384,3.601-5.384C24.006,10.148,25.248,12.091,25.248,15.389z M19.625,15.548c0,2.692,0.828,4.221,2.103,4.221
			c1.434,0,2.119-1.672,2.119-4.317c0-2.549-0.653-4.222-2.104-4.222C20.517,11.231,19.625,12.729,19.625,15.548z"/>
	</g>
</g>
</svg>
