<?xml version="1.0" encoding="utf-8"?>
<!-- Generator: Adobe Illustrator 26.0.0, SVG Export Plug-In . SVG Version: 6.00 Build 0)  -->
<svg version="1.2" baseProfile="tiny" xmlns="http://www.w3.org/2000/svg" xmlns:xlink="http://www.w3.org/1999/xlink" x="0px"
	 y="0px" viewBox="0 0 32 32" overflow="visible" xml:space="preserve">
<g id="Layer_1">
	<path fill="#6A6A6A" d="M10.457,23.5c-0.066,0-0.131-0.017-0.189-0.052c-0.113-0.067-0.182-0.188-0.182-0.32V8.872
		c0-0.132,0.069-0.253,0.182-0.32c0.113-0.067,0.253-0.069,0.368-0.006l12.962,7.128c0.119,0.065,0.193,0.19,0.193,0.326
		c0,0.136-0.074,0.26-0.193,0.326l-12.962,7.128C10.58,23.485,10.518,23.5,10.457,23.5z"/>
	<g>
		<circle fill="none" cx="16" cy="16" r="14.25"/>
		<path fill="#6A6A6A" d="M16,0.25C7.315,0.25,0.25,7.315,0.25,16S7.315,31.75,16,31.75S31.75,24.685,31.75,16S24.685,0.25,16,0.25z
			 M16,30.25C8.143,30.25,1.75,23.857,1.75,16S8.143,1.75,16,1.75S30.25,8.143,30.25,16S23.857,30.25,16,30.25z"/>
	</g>
	<path fill="#6A6A6A" d="M22.516,24H9.484C8.664,24,8,23.336,8,22.516V9.484C8,8.664,8.664,8,9.484,8h13.032
		C23.336,8,24,8.664,24,9.484v13.032C24,23.336,23.336,24,22.516,24z"/>
</g>
<g id="METRICS_AND_KEYLINES">
</g>
<g id="Isolation_Mode">
</g>
<g id="filled">
</g>
</svg>
