<?xml version="1.0" encoding="utf-8"?>
<!-- Generator: Adobe Illustrator 26.0.0, SVG Export Plug-In . SVG Version: 6.00 Build 0)  -->
<svg version="1.2" baseProfile="tiny" xmlns="http://www.w3.org/2000/svg" xmlns:xlink="http://www.w3.org/1999/xlink" x="0px"
	 y="0px" viewBox="0 0 32 32" overflow="visible" xml:space="preserve">
<g id="Layer_1">
	<g>
		<path fill="none" d="M16,1.609C8.065,1.609,1.609,8.065,1.609,16c0,7.935,6.456,14.391,14.391,14.391S30.391,23.935,30.391,16
			C30.391,8.065,23.935,1.609,16,1.609z M23.935,9.236L13.49,23.706c-0.145,0.201-0.374,0.323-0.621,0.333
			c-0.01,0-0.021,0.001-0.031,0.001c-0.236,0-0.461-0.104-0.614-0.285l-4.121-4.868c-0.287-0.339-0.245-0.847,0.094-1.134
			c0.339-0.287,0.847-0.245,1.134,0.094l3.456,4.083L22.63,8.294c0.26-0.36,0.763-0.441,1.123-0.181
			C24.114,8.373,24.195,8.876,23.935,9.236z"/>
		<path fill="#6A6A6A" d="M22.63,8.294L12.788,21.93l-3.456-4.083c-0.287-0.339-0.795-0.381-1.134-0.094
			c-0.339,0.287-0.381,0.795-0.094,1.134l4.121,4.868c0.153,0.181,0.378,0.285,0.614,0.285c0.01,0,0.021,0,0.031-0.001
			c0.247-0.01,0.477-0.133,0.621-0.333l10.444-14.47c0.26-0.36,0.179-0.863-0.181-1.123C23.393,7.853,22.89,7.934,22.63,8.294z"/>
		<path fill="#6A6A6A" d="M16,0C7.178,0,0,7.178,0,16c0,8.822,7.178,16,16,16c8.822,0,16-7.178,16-16C32,7.178,24.822,0,16,0z
			 M16,30.391C8.065,30.391,1.609,23.935,1.609,16C1.609,8.065,8.065,1.609,16,1.609S30.391,8.065,30.391,16
			C30.391,23.935,23.935,30.391,16,30.391z"/>
	</g>
</g>
<g id="METRICS_AND_KEYLINES">
</g>
<g id="Isolation_Mode">
</g>
<g id="filled">
</g>
</svg>
