<?xml version="1.0" encoding="utf-8"?>
<!-- Generator: Adobe Illustrator 26.0.0, SVG Export Plug-In . SVG Version: 6.00 Build 0)  -->
<svg version="1.2" baseProfile="tiny" xmlns="http://www.w3.org/2000/svg" xmlns:xlink="http://www.w3.org/1999/xlink" x="0px"
	 y="0px" viewBox="0 0 32 32" overflow="visible" xml:space="preserve">
<g id="Layer_1">
	<g>
		<path fill="#6A6A6A" d="M19.269,20.217h0.179c0.411,0,0.744-0.333,0.744-0.744v-6.946c0-0.411-0.333-0.744-0.744-0.744h-0.179
			l6.159-10.667c0.133-0.23,0.133-0.514,0-0.744S25.049,0,24.783,0H7.167C6.902,0,6.656,0.142,6.523,0.372s-0.133,0.514,0,0.744
			l6.159,10.667h-0.179c-0.411,0-0.744,0.333-0.744,0.744v1.36l1.488,1.644v-2.26h0.294h1.719h1.432h1.719h0.294v5.457H18.41h-0.496
			c0.153,0.258,0.247,0.554,0.247,0.875l0.001,0.613l0.001,1.061l1.799,3.115l1.708,2.958l1.825,3.16h-4.447L17.403,32h7.38
			c0.266,0,0.512-0.141,0.644-0.372s0.133-0.514,0-0.744L19.269,20.217z M14.4,11.783L8.456,1.488h15.039l-5.944,10.295H14.4z"/>
		<path fill="#6A6A6A" d="M8.456,30.512l1.825-3.161l1.752-3.034l1.675-2.901l-0.002-1.199l-0.001-0.609
			c-0.002-0.312,0.087-0.613,0.245-0.879h-0.41h-0.294v-1.311l-1.488,1.579v0.476c0,0.411,0.333,0.744,0.744,0.744h0.179
			L6.523,30.884c-0.133,0.231-0.133,0.514,0,0.744S6.902,32,7.167,32h7.235l-1.579-1.488H8.456z"/>
		<path fill="#6A6A6A" d="M20.181,27.371l-0.012-1.256c-0.001-0.093-0.058-0.178-0.144-0.215c-0.087-0.036-0.187-0.019-0.256,0.046
			l-3.084,2.744l-0.012-8.472l-0.001-0.613c0-0.13-0.107-0.236-0.237-0.236l-1.007,0.001c-0.13,0-0.236,0.107-0.236,0.237
			l0.001,0.611l0.012,8.571l-3.004-2.919c-0.068-0.065-0.167-0.081-0.254-0.046c-0.086,0.036-0.143,0.119-0.145,0.214l-0.033,1.329
			c-0.001,0.067,0.026,0.132,0.075,0.177l3.149,2.969l0.546,0.515h0.722l0.569-0.515l3.277-2.965
			C20.155,27.501,20.181,27.438,20.181,27.371z"/>
		<path fill="#6A6A6A" d="M6.601,20.164c-0.065,0.068-0.081,0.167-0.046,0.254c0.036,0.086,0.119,0.143,0.214,0.145l1.329,0.033
			c0.067,0.001,0.132-0.026,0.177-0.075l3.484-3.695v0l0.003-0.003v0.001l0.042-0.046l0.001-0.001l0.13-0.139
			c0.049-0.048,0.073-0.11,0.072-0.173c0-0.058-0.022-0.115-0.065-0.161l-0.183-0.199v-0.001l-3.48-3.845
			c-0.045-0.048-0.108-0.075-0.175-0.075l-1.256,0.012c-0.093,0.001-0.178,0.058-0.215,0.144c-0.036,0.087-0.019,0.187,0.046,0.256
			l2.744,3.084l-9.085,0.013c-0.13,0-0.236,0.107-0.236,0.237l0.001,1.007c0,0.13,0.107,0.236,0.237,0.236L9.52,17.16L6.601,20.164z
			"/>
	</g>
</g>
<g id="METRICS_AND_KEYLINES">
</g>
<g id="Isolation_Mode">
</g>
<g id="filled">
</g>
</svg>
