<?xml version="1.0" encoding="utf-8"?>
<!-- Generator: Adobe Illustrator 26.0.0, SVG Export Plug-In . SVG Version: 6.00 Build 0)  -->
<svg version="1.2" baseProfile="tiny" xmlns="http://www.w3.org/2000/svg" xmlns:xlink="http://www.w3.org/1999/xlink" x="0px"
	 y="0px" viewBox="0 0 32 32" overflow="visible" xml:space="preserve">
<g id="Layer_1">
	<g>
		<path fill="#6A6A6A" d="M22.456,20.217h0.179c0.411,0,0.744-0.333,0.744-0.744v-0.331v-1.029v-5.11v-0.476
			c0-0.411-0.333-0.744-0.744-0.744h-0.179l6.159-10.667c0.133-0.231,0.133-0.514,0-0.744S28.236,0,27.97,0h-7.235l1.579,1.488
			h4.368l-1.825,3.161l-1.752,3.034l-1.675,2.901l0.002,1.199l0.001,0.609c0.002,0.312-0.087,0.613-0.245,0.879h0.41h0.225v5.457
			h-0.225h-1.719h-1.432h-1.719h-0.294v-1.383c-0.075,0.126-0.16,0.246-0.266,0.351l-1.223,1.298v0.478
			c0,0.411,0.333,0.744,0.744,0.744h0.179L9.709,30.884c-0.133,0.23-0.133,0.514,0,0.744C9.842,31.858,10.088,32,10.354,32H27.97
			c0.266,0,0.512-0.142,0.644-0.372s0.133-0.514,0-0.744L22.456,20.217z M11.643,30.512l5.944-10.295h3.151l5.944,10.295H11.643z"/>
		<path fill="#6A6A6A" d="M15.868,11.783h-0.179c-0.411,0-0.744,0.333-0.744,0.744v1.358l1.281,1.414
			c0.08,0.085,0.147,0.179,0.207,0.279v-2.307h0.294h0.496c-0.153-0.258-0.247-0.554-0.247-0.875l-0.001-0.613l-0.001-1.061
			l-1.799-3.115l-1.708-2.958l-1.825-3.16h4.447L17.734,0h-7.38c-0.266,0-0.512,0.141-0.644,0.372c-0.133,0.231-0.133,0.514,0,0.744
			L15.868,11.783z"/>
		<path fill="#6A6A6A" d="M14.956,4.629l0.012,1.256c0.001,0.093,0.058,0.178,0.144,0.215c0.087,0.036,0.187,0.019,0.256-0.046
			l3.084-2.744l0.012,8.472l0.001,0.613c0,0.13,0.107,0.236,0.237,0.236l1.007-0.001c0.13,0,0.236-0.107,0.236-0.237l-0.001-0.611
			l-0.012-8.571l3.004,2.919c0.068,0.065,0.167,0.081,0.254,0.046c0.086-0.036,0.143-0.119,0.145-0.214l0.033-1.329
			c0.001-0.067-0.026-0.132-0.075-0.177l-3.149-2.969l-0.546-0.515h-0.722l-0.569,0.515l-3.277,2.965
			C14.983,4.499,14.956,4.562,14.956,4.629z"/>
		<path fill="#6A6A6A" d="M9.787,20.164c-0.065,0.068-0.081,0.167-0.046,0.254c0.036,0.086,0.119,0.143,0.214,0.145l1.329,0.033
			c0.067,0.001,0.132-0.026,0.177-0.075l3.484-3.695v0l0.003-0.003v0.001l0.042-0.046l0.001-0.001l0.13-0.139
			c0.049-0.048,0.073-0.11,0.072-0.173c0-0.058-0.022-0.115-0.065-0.161l-0.183-0.199v-0.001l-3.48-3.845
			c-0.045-0.048-0.108-0.075-0.175-0.075l-1.256,0.012c-0.093,0.001-0.178,0.058-0.215,0.144c-0.036,0.087-0.019,0.187,0.046,0.256
			l2.744,3.084l-9.085,0.013c-0.13,0-0.236,0.107-0.236,0.237l0.001,1.007c0,0.13,0.107,0.236,0.237,0.236l9.182-0.013L9.787,20.164
			z"/>
	</g>
</g>
<g id="METRICS_AND_KEYLINES">
</g>
<g id="Isolation_Mode">
</g>
<g id="filled">
</g>
</svg>
