<?xml version="1.0" encoding="utf-8"?>
<!-- Generator: Adobe Illustrator 26.0.0, SVG Export Plug-In . SVG Version: 6.00 Build 0)  -->
<svg version="1.2" baseProfile="tiny" xmlns="http://www.w3.org/2000/svg" xmlns:xlink="http://www.w3.org/1999/xlink" x="0px"
	 y="0px" viewBox="0 0 32 32" overflow="visible" xml:space="preserve">
<g id="Layer_1">
	<path fill="#6A6A6A" d="M31.305,27.403h-5.779c-0.414,0-0.75-0.336-0.75-0.75V5.403h-3.282v21.25c0,0.414-0.336,0.75-0.75,0.75
		H10.281c-0.414,0-0.75-0.336-0.75-0.75V5.403H6.308v21.25c0,0.414-0.336,0.75-0.75,0.75H0.695c-0.414,0-0.75-0.336-0.75-0.75
		s0.336-0.75,0.75-0.75h4.112V4.653c0-0.414,0.336-0.75,0.75-0.75h4.724c0.414,0,0.75,0.336,0.75,0.75v21.25h8.962V4.653
		c0-0.414,0.336-0.75,0.75-0.75h4.782c0.414,0,0.75,0.336,0.75,0.75v21.25h5.029c0.414,0,0.75,0.336,0.75,0.75
		S31.719,27.403,31.305,27.403z"/>
</g>
<g id="METRICS_AND_KEYLINES">
</g>
<g id="Isolation_Mode">
</g>
<g id="filled">
</g>
</svg>
