<?xml version="1.0" encoding="utf-8"?>
<!-- Generator: Adobe Illustrator 26.0.2, SVG Export Plug-In . SVG Version: 6.00 Build 0)  -->
<svg version="1.2" baseProfile="tiny" xmlns="http://www.w3.org/2000/svg" xmlns:xlink="http://www.w3.org/1999/xlink" x="0px"
	 y="0px" viewBox="0 0 16 16" overflow="visible" xml:space="preserve">
<g id="Layer_1">
	<g>
		<path fill="#E0E0E0" d="M13.127,3.599c0.423,0,0.767,0.343,0.767,0.767v7.269c0,0.212-0.086,0.403-0.225,0.542
			c0.139-0.139,0.225-0.33,0.225-0.542V4.366C13.894,3.942,13.55,3.599,13.127,3.599z"/>
		<rect x="3.113" y="4.599" fill="#E0E0E0" width="9.781" height="6.802"/>
		<path fill="#BBBBBB" d="M13.893,4.366c0-0.424-0.343-0.767-0.767-0.767H2.88c-0.424,0-0.767,0.343-0.767,0.767v7.269
			c0,0.424,0.343,0.767,0.767,0.767h10.247c0.212,0,0.403-0.086,0.542-0.225c0.139-0.139,0.225-0.33,0.225-0.542V4.366z
			 M3.113,4.599h9.781v6.802H3.113V4.599z"/>
	</g>
</g>
<g id="METRICS_AND_KEYLINES">
</g>
<g id="Isolation_Mode">
</g>
<g id="filled">
</g>
</svg>
