<?xml version="1.0" encoding="utf-8"?>
<!-- Generator: Adobe Illustrator 26.0.2, SVG Export Plug-In . SVG Version: 6.00 Build 0)  -->
<svg version="1.2" baseProfile="tiny" xmlns="http://www.w3.org/2000/svg" xmlns:xlink="http://www.w3.org/1999/xlink" x="0px"
	 y="0px" viewBox="0 0 20 38" overflow="visible" xml:space="preserve">
<g id="Layer_1">
	<g>
		<path fill="#EBEBEB" d="M10,10.083c-4.917,0-8.917,4-8.917,8.917s4,8.917,8.917,8.917c4.916,0,8.916-4,8.916-8.917
			S14.916,10.083,10,10.083z"/>
		<path fill="#6A6A6A" d="M7.048,15.664c-1.075,0-1.923,0.295-2.52,0.877c-0.598,0.583-0.9,1.408-0.9,2.449
			c0,1.049,0.302,1.878,0.897,2.465c0.595,0.585,1.44,0.882,2.513,0.882c1.052,0,1.89-0.302,2.49-0.896
			c0.602-0.596,0.906-1.417,0.906-2.442c0-1.028-0.305-1.849-0.904-2.442C8.932,15.964,8.097,15.664,7.048,15.664z M8.576,20.678
			c-0.336,0.363-0.854,0.547-1.538,0.547c-0.688,0-1.191-0.18-1.541-0.551c-0.349-0.371-0.525-0.935-0.525-1.676
			c0-0.731,0.177-1.29,0.525-1.66c0.35-0.371,0.857-0.551,1.551-0.551c0.69,0,1.191,0.178,1.53,0.545
			c0.34,0.368,0.513,0.928,0.513,1.666C9.091,19.743,8.918,20.309,8.576,20.678z"/>
		<path fill="#6A6A6A" d="M15.072,19.436c1.014-0.422,1.238-1.162,1.238-1.734c0-0.649-0.238-1.146-0.709-1.476
			c-0.449-0.315-1.105-0.468-2.008-0.468h-2.13v6.497h1.297v-2.494h1.047l1.66,2.494h1.553L15.072,19.436z M14.692,18.418
			c-0.217,0.162-0.584,0.244-1.089,0.244H12.76v-1.792h0.786c0.672,0,0.996,0.12,1.15,0.221c0.193,0.127,0.288,0.339,0.288,0.648
			C14.985,18.049,14.889,18.271,14.692,18.418z"/>
		<path fill="#A7A9AC" d="M10,9.083c-3.976,0-7.404,2.357-8.983,5.743V0h-1v38h1V23.173c1.58,3.386,5.008,5.743,8.983,5.743
			c5.468,0,9.916-4.449,9.916-9.917S15.468,9.083,10,9.083z M10,27.917c-4.917,0-8.917-4-8.917-8.917s4-8.917,8.917-8.917
			c4.916,0,8.916,4,8.916,8.917S14.916,27.917,10,27.917z"/>
	</g>
</g>
<g id="METRICS_AND_KEYLINES">
</g>
<g id="Isolation_Mode">
</g>
<g id="filled">
</g>
</svg>
