<?xml version="1.0" encoding="utf-8"?>
<!-- Generator: Adobe Illustrator 26.0.2, SVG Export Plug-In . SVG Version: 6.00 Build 0)  -->
<svg version="1.2" baseProfile="tiny" xmlns="http://www.w3.org/2000/svg" xmlns:xlink="http://www.w3.org/1999/xlink" x="0px"
	 y="0px" viewBox="0 0 20 38" overflow="visible" xml:space="preserve">
<g id="Layer_1">
	<g>
		<polygon fill="none" points="1.046,8.438 1.046,8.438 10,1.275 		"/>
		<polygon fill="none" points="1.046,29.562 10,36.725 1.046,29.562 		"/>
		<path fill="#EBEBEB" d="M1.046,8.438v21.124L10,36.725l8.961-7.169v-1.015V8.463V8.444L10,1.275L1.046,8.438z M12.187,31.33
			l-2.065-2.955H8.72v2.955h-1.49v-7.603h2.588c1.106,0,1.911,0.177,2.457,0.542c0.571,0.382,0.86,0.958,0.86,1.714
			c0,0.962-0.525,1.645-1.562,2.035l2.403,3.313H12.187z M13.059,21.422c-0.735,0.693-1.762,1.045-3.05,1.045
			c-1.316,0-2.351-0.346-3.078-1.027c-0.732-0.686-1.103-1.659-1.103-2.892c0-1.223,0.372-2.189,1.106-2.872
			c0.728-0.678,1.767-1.021,3.086-1.021c1.285,0,2.308,0.35,3.04,1.039c0.738,0.694,1.111,1.658,1.111,2.864
			C14.172,19.761,13.798,20.725,13.059,21.422z M12.018,5.806h1.692l-2.84,3.614l3.034,3.989h-1.754l-2.168-2.955l-2.207,2.955
			H6.095L9.12,9.448L6.282,5.806h1.731l1.994,2.65L12.018,5.806z"/>
		<path fill="#EBEBEB" d="M10.02,15.891c-0.871,0-1.537,0.226-1.979,0.672c-0.442,0.447-0.666,1.118-0.666,1.995
			c0,0.89,0.224,1.568,0.666,2.015c0.441,0.446,1.103,0.672,1.967,0.672c0.871,0,1.531-0.225,1.962-0.668
			c0.434-0.445,0.653-1.124,0.653-2.018c0-0.884-0.219-1.558-0.65-2.001C11.545,16.115,10.888,15.891,10.02,15.891z"/>
		<path fill="#EBEBEB" d="M11.231,25.222c-0.291-0.182-0.786-0.274-1.47-0.274H8.72v2.219h1.11c0.645,0,1.114-0.102,1.396-0.301
			c0.259-0.184,0.385-0.458,0.385-0.84S11.488,25.382,11.231,25.222z"/>
		<polygon fill="#6A6A6A" points="6.282,5.806 9.12,9.448 6.095,13.408 7.773,13.408 9.981,10.453 12.149,13.408 13.903,13.408 
			10.869,9.42 13.709,5.806 12.018,5.806 10.007,8.456 8.013,5.806 		"/>
		<path fill="#6A6A6A" d="M10.02,14.654c-1.319,0-2.358,0.344-3.086,1.021c-0.734,0.683-1.106,1.649-1.106,2.872
			c0,1.232,0.37,2.205,1.103,2.892c0.727,0.681,1.763,1.027,3.078,1.027c1.288,0,2.315-0.351,3.05-1.045
			c0.739-0.697,1.113-1.661,1.113-2.864c0-1.206-0.373-2.17-1.111-2.864C12.329,15.004,11.306,14.654,10.02,14.654z M11.971,20.576
			c-0.431,0.443-1.091,0.668-1.962,0.668c-0.864,0-1.526-0.226-1.967-0.672c-0.442-0.447-0.666-1.124-0.666-2.015
			c0-0.877,0.224-1.548,0.666-1.995c0.441-0.446,1.107-0.672,1.979-0.672c0.867,0,1.525,0.224,1.953,0.666
			c0.432,0.443,0.65,1.117,0.65,2.001C12.624,19.452,12.404,20.131,11.971,20.576z"/>
		<path fill="#6A6A6A" d="M13.137,25.983c0-0.755-0.29-1.332-0.86-1.714c-0.546-0.365-1.351-0.542-2.457-0.542H7.231v7.603h1.49
			v-2.955h1.401l2.065,2.955h1.79l-2.403-3.313C12.612,27.627,13.137,26.944,13.137,25.983z M9.831,27.167H8.72v-2.219h1.04
			c0.684,0,1.179,0.092,1.47,0.274c0.257,0.159,0.381,0.423,0.381,0.804s-0.126,0.656-0.385,0.84
			C10.945,27.066,10.475,27.167,9.831,27.167z"/>
		<path fill="#A7A9AC" d="M10,0L1.046,7.163V0h-1.057v38h1.057v-7.163L10,38l9.956-7.965v-1.493V8.463V7.965L10,0z M18.961,8.463
			v20.079v1.015L10,36.725l-8.954-7.163l0,0V8.438l0,0L10,1.275l8.961,7.169V8.463z"/>
	</g>
</g>
<g id="METRICS_AND_KEYLINES">
</g>
<g id="Isolation_Mode">
</g>
<g id="filled">
</g>
</svg>
