<?xml version="1.0" encoding="utf-8"?>
<!-- Generator: Adobe Illustrator 26.0.2, SVG Export Plug-In . SVG Version: 6.00 Build 0)  -->
<svg version="1.2" baseProfile="tiny" xmlns="http://www.w3.org/2000/svg" xmlns:xlink="http://www.w3.org/1999/xlink" x="0px"
	 y="0px" viewBox="0 0 20 38" overflow="visible" xml:space="preserve">
<g id="Layer_1">
	<g>
		<path fill="#EBEBEB" d="M6.373,21.237c0.568,0,0.983-0.148,1.267-0.454c0.284-0.307,0.429-0.776,0.429-1.395
			c0-0.612-0.144-1.076-0.428-1.379c-0.283-0.304-0.702-0.451-1.279-0.451c-0.561,0-0.984,0.149-1.259,0.443
			c-0.278,0.299-0.419,0.766-0.419,1.387c0,0.616,0.144,1.084,0.427,1.393C5.391,21.088,5.804,21.237,6.373,21.237z"/>
		<path fill="#EBEBEB" d="M12.351,18.001c-0.278,0.299-0.419,0.766-0.419,1.387c0,0.616,0.144,1.084,0.427,1.393
			c0.28,0.307,0.693,0.456,1.263,0.456c0.568,0,0.983-0.148,1.267-0.454c0.284-0.307,0.429-0.776,0.429-1.395
			c0-0.612-0.144-1.076-0.428-1.379c-0.283-0.304-0.702-0.451-1.279-0.451C13.049,17.559,12.625,17.708,12.351,18.001z"/>
		<path fill="#EBEBEB" d="M1,37h18V1H1V37z M16.824,19.389c0,0.94-0.293,1.689-0.871,2.225c-0.572,0.532-1.365,0.802-2.355,0.802
			c-0.611,0-1.163-0.123-1.642-0.364c-0.487-0.246-0.87-0.604-1.136-1.065c-0.263-0.457-0.396-0.994-0.396-1.599
			c0-0.94,0.291-1.688,0.865-2.221c0.569-0.529,1.359-0.797,2.35-0.797c0.96,0,1.738,0.274,2.312,0.815
			C16.53,17.73,16.824,18.471,16.824,19.389z M4.041,17.167C4.61,16.638,5.4,16.37,6.391,16.37c0.96,0,1.738,0.274,2.312,0.815
			c0.579,0.545,0.873,1.286,0.873,2.204c0,0.94-0.293,1.689-0.871,2.225c-0.572,0.532-1.365,0.802-2.355,0.802
			c-0.611,0-1.163-0.123-1.642-0.364c-0.487-0.246-0.87-0.604-1.136-1.065c-0.263-0.457-0.396-0.994-0.396-1.599
			C3.176,18.448,3.467,17.701,4.041,17.167z"/>
		<path fill="#A7A9AC" d="M0,0v38h20V0H0z M19,37H1V1h18V37z"/>
		<path fill="#6A6A6A" d="M6.931,6.93c0-0.201-0.002-0.396-0.007-0.582l2.468,5.372h1.122l2.494-5.376
			c-0.006,0.181-0.009,0.357-0.009,0.527v4.849h1.496V4.083h-1.897l-2.6,5.592L7.421,4.083h-1.91v7.637h1.42V6.93z"/>
		<path fill="#6A6A6A" d="M4.708,22.052c0.479,0.241,1.03,0.364,1.642,0.364c0.99,0,1.783-0.27,2.355-0.802
			c0.578-0.536,0.871-1.285,0.871-2.225c0-0.917-0.294-1.659-0.873-2.204c-0.574-0.541-1.353-0.815-2.312-0.815
			c-0.99,0-1.78,0.268-2.35,0.797c-0.574,0.533-0.865,1.281-0.865,2.221c0,0.604,0.134,1.142,0.396,1.599
			C3.838,21.448,4.221,21.807,4.708,22.052z M5.103,18.001c0.274-0.294,0.698-0.443,1.259-0.443c0.577,0,0.996,0.147,1.279,0.451
			c0.284,0.303,0.428,0.767,0.428,1.379c0,0.618-0.145,1.087-0.429,1.395c-0.283,0.306-0.698,0.454-1.267,0.454
			c-0.569,0-0.982-0.149-1.263-0.456c-0.283-0.308-0.427-0.777-0.427-1.393C4.684,18.767,4.824,18.301,5.103,18.001z"/>
		<path fill="#6A6A6A" d="M11.289,17.167c-0.574,0.533-0.865,1.281-0.865,2.221c0,0.604,0.134,1.142,0.396,1.599
			c0.266,0.461,0.648,0.819,1.136,1.065c0.479,0.241,1.03,0.364,1.642,0.364c0.99,0,1.783-0.27,2.355-0.802
			c0.578-0.536,0.871-1.285,0.871-2.225c0-0.917-0.294-1.659-0.873-2.204c-0.574-0.541-1.353-0.815-2.312-0.815
			C12.648,16.37,11.858,16.638,11.289,17.167z M15.316,19.389c0,0.618-0.145,1.087-0.429,1.395
			c-0.283,0.306-0.698,0.454-1.267,0.454c-0.569,0-0.982-0.149-1.263-0.456c-0.283-0.308-0.427-0.777-0.427-1.393
			c0-0.622,0.141-1.088,0.419-1.387c0.274-0.294,0.698-0.443,1.259-0.443c0.577,0,0.996,0.147,1.279,0.451
			C15.173,18.313,15.316,18.777,15.316,19.389z"/>
		<path fill="#6A6A6A" d="M12.164,30.33c-0.008,0.215,0.002,0.557,0.029,1.046c0.003,0.038,0.005,0.074,0.007,0.109l-4.299-5.491
			H6.404v7.637h1.42v-4.307c0-0.374-0.013-0.773-0.038-1.195l4.301,5.502h1.509v-7.637h-1.432V30.33z"/>
	</g>
</g>
<g id="METRICS_AND_KEYLINES">
</g>
<g id="Isolation_Mode">
</g>
<g id="filled">
</g>
</svg>
