<?xml version="1.0" encoding="utf-8"?>
<!-- Generator: Adobe Illustrator 26.0.2, SVG Export Plug-In . SVG Version: 6.00 Build 0)  -->
<svg version="1.2" baseProfile="tiny" xmlns="http://www.w3.org/2000/svg" xmlns:xlink="http://www.w3.org/1999/xlink" x="0px"
	 y="0px" viewBox="0 0 20 38" overflow="visible" xml:space="preserve">
<g id="Layer_1">
	<g>
		<path fill="#EBEBEB" d="M5.125,7.112c-0.931,0-1.706-0.639-1.929-1.5H1v8.5h2.196c0.223-0.861,0.998-1.5,1.929-1.5
			c1.104,0,2,0.895,2,2c0,1.105-0.896,2-2,2c-0.931,0-1.706-0.639-1.929-1.5H1v7.903h8.957V11.017h1v12.998H1v5.031h18V10.733
			h-5.261L6.543,6.522C6.181,6.886,5.679,7.112,5.125,7.112z"/>
		<path fill="#EBEBEB" d="M5.125,3.112c1.104,0,2,0.895,2,2c0,0.189-0.035,0.368-0.084,0.542l6.969,4.079H19V1H1v3.612h2.196
			C3.419,3.751,4.194,3.112,5.125,3.112z"/>
		<polygon fill="#A7A9AC" points="0,0 0,4.612 1,4.612 1,1 19,1 19,9.733 20,9.733 20,0 		"/>
		<polygon fill="#A7A9AC" points="19,29.046 1,29.046 1,24.015 0,24.015 0,30.046 20,30.046 20,10.733 19,10.733 		"/>
		<rect y="15.112" fill="#A7A9AC" width="1" height="7.903"/>
		<rect y="5.612" fill="#A7A9AC" width="1" height="8.5"/>
		<path fill="#662D91" d="M14.011,9.733L7.041,5.654c-0.094,0.331-0.262,0.63-0.498,0.868l7.196,4.212H19h1v-1h-1H14.011z"/>
		<path fill="#6A6A6A" d="M3.196,15.112c0.223,0.861,0.999,1.5,1.929,1.5c1.104,0,2-0.895,2-2c0-1.105-0.896-2-2-2
			c-0.931,0-1.706,0.639-1.929,1.5H1H0v1h1H3.196z"/>
		<polygon fill="#39B54A" points="10.957,24.015 10.957,11.017 9.957,11.017 9.957,23.015 1,23.015 0,23.015 0,24.015 1,24.015 		
			"/>
		<path fill="#6A6A6A" d="M3.196,5.612c0.223,0.861,0.999,1.5,1.929,1.5c0.554,0,1.056-0.226,1.418-0.59
			c0.236-0.237,0.405-0.537,0.498-0.868C7.09,5.481,7.125,5.301,7.125,5.112c0-1.105-0.896-2-2-2c-0.931,0-1.706,0.639-1.929,1.5H1
			H0v1h1H3.196z"/>
	</g>
</g>
<g id="METRICS_AND_KEYLINES">
</g>
<g id="Isolation_Mode">
</g>
<g id="filled">
</g>
</svg>
