<?xml version="1.0" encoding="utf-8"?>
<!-- Generator: Adobe Illustrator 26.0.2, SVG Export Plug-In . SVG Version: 6.00 Build 0)  -->
<svg version="1.2" baseProfile="tiny" xmlns="http://www.w3.org/2000/svg" xmlns:xlink="http://www.w3.org/1999/xlink" x="0px"
	 y="0px" viewBox="0 0 20 38" overflow="visible" xml:space="preserve">
<g id="Layer_1">
	<g>
		<path fill="#EBEBEB" d="M1,37.032h18v-36H1V37.032z M13.947,31.869h-1.798l-2.074-2.968H8.668v2.968H7.172v-7.636h2.6
			c1.111,0,1.919,0.178,2.468,0.544c0.573,0.383,0.864,0.962,0.864,1.721c0,0.966-0.527,1.652-1.569,2.043L13.947,31.869z
			 M7.031,12.237l0.333,0.117c0.338,0.119,0.71,0.213,1.107,0.282C8.869,12.705,9.27,12.74,9.66,12.74
			c0.613,0,1.073-0.093,1.368-0.276c0.263-0.165,0.386-0.376,0.386-0.665c0-0.193-0.042-0.343-0.128-0.457
			c-0.095-0.125-0.265-0.247-0.506-0.362c-0.267-0.127-0.683-0.275-1.238-0.44c-0.843-0.251-1.435-0.546-1.809-0.903
			C7.341,9.263,7.143,8.774,7.143,8.181c0-0.637,0.288-1.148,0.857-1.522c0.535-0.351,1.243-0.529,2.105-0.529
			c0.877,0,1.696,0.136,2.436,0.405l0.248,0.09l-0.507,1.18l-0.221-0.077c-0.676-0.237-1.343-0.357-1.979-0.357
			c-0.477,0-0.847,0.082-1.103,0.244C8.755,7.76,8.65,7.942,8.65,8.191c0,0.194,0.04,0.351,0.119,0.465
			C8.855,8.78,9.011,8.899,9.231,9.01c0.244,0.125,0.632,0.266,1.15,0.42c0.942,0.28,1.581,0.579,1.951,0.913
			c0.391,0.354,0.589,0.817,0.589,1.376c0,0.715-0.314,1.281-0.936,1.68c-0.585,0.376-1.38,0.567-2.361,0.567
			c-1.058,0-1.854-0.113-2.437-0.345l-0.157-0.063V12.237z"/>
		<path fill="#EBEBEB" d="M9.713,25.46H8.668v2.229h1.115c0.647,0,1.119-0.102,1.402-0.303c0.26-0.185,0.387-0.46,0.387-0.843
			s-0.125-0.647-0.383-0.808C10.897,25.552,10.4,25.46,9.713,25.46z"/>
		<path fill="#A7A9AC" d="M0,0.032v38h20v-38H0z M19,37.032H1v-36h18V37.032z"/>
		<path fill="#6A6A6A" d="M9.625,13.967c0.981,0,1.776-0.191,2.361-0.567c0.621-0.399,0.936-0.964,0.936-1.68
			c0-0.56-0.198-1.022-0.589-1.376c-0.37-0.334-1.009-0.633-1.951-0.913c-0.519-0.155-0.906-0.296-1.15-0.42
			C9.011,8.899,8.855,8.78,8.77,8.656C8.69,8.542,8.65,8.385,8.65,8.191c0-0.249,0.104-0.432,0.329-0.575
			c0.256-0.162,0.626-0.244,1.103-0.244c0.637,0,1.304,0.12,1.979,0.357l0.221,0.077l0.507-1.18l-0.248-0.09
			c-0.739-0.269-1.559-0.405-2.436-0.405c-0.862,0-1.57,0.178-2.105,0.529C7.431,7.033,7.143,7.545,7.143,8.181
			c0,0.593,0.198,1.082,0.591,1.456c0.374,0.356,0.966,0.652,1.809,0.903c0.556,0.165,0.972,0.313,1.238,0.44
			c0.241,0.115,0.411,0.237,0.506,0.362c0.086,0.114,0.128,0.263,0.128,0.457c0,0.289-0.123,0.5-0.386,0.665
			c-0.295,0.183-0.755,0.276-1.368,0.276c-0.391,0-0.791-0.035-1.188-0.104c-0.397-0.068-0.77-0.163-1.107-0.282l-0.333-0.117v1.323
			l0.157,0.063C7.771,13.854,8.567,13.967,9.625,13.967z"/>
		<path fill="#6A6A6A" d="M13.104,26.499c0-0.759-0.291-1.338-0.864-1.721c-0.549-0.366-1.356-0.544-2.468-0.544h-2.6v7.636h1.496
			v-2.968h1.407l2.074,2.968h1.798l-2.413-3.327C12.576,28.151,13.104,27.465,13.104,26.499z M11.186,27.386
			c-0.283,0.201-0.755,0.303-1.402,0.303H8.668V25.46h1.045c0.688,0,1.185,0.092,1.477,0.275c0.258,0.16,0.383,0.425,0.383,0.808
			S11.445,27.201,11.186,27.386z"/>
	</g>
</g>
<g id="METRICS_AND_KEYLINES">
</g>
<g id="Isolation_Mode">
</g>
<g id="filled">
</g>
</svg>
