<?xml version="1.0" encoding="utf-8"?>
<!-- Generator: Adobe Illustrator 26.0.2, SVG Export Plug-In . SVG Version: 6.00 Build 0)  -->
<svg version="1.2" baseProfile="tiny" xmlns="http://www.w3.org/2000/svg" xmlns:xlink="http://www.w3.org/1999/xlink" x="0px"
	 y="0px" viewBox="0 0 20 38" overflow="visible" xml:space="preserve">
<g id="Layer_1">
	<g>
		<path fill="#EBEBEB" d="M5.125,16.612c-0.931,0-1.706-0.639-1.929-1.5H1v7.903h8.957v-9.988l-2.838,1.53
			c0,0.019,0.006,0.037,0.006,0.056C7.125,15.717,6.229,16.612,5.125,16.612z"/>
		<path fill="#EBEBEB" d="M5.125,3.112c1.104,0,2,0.895,2,2s-0.896,2-2,2c-0.931,0-1.706-0.639-1.929-1.5H1v8.5h2.196
			c0.223-0.861,0.998-1.5,1.929-1.5c0.724,0,1.353,0.389,1.704,0.965l6.92-3.731H19V1H1v3.612h2.196
			C3.419,3.751,4.194,3.112,5.125,3.112z"/>
		<polygon fill="#EBEBEB" points="1,24.015 1,29.046 19,29.046 19,10.847 14.001,10.847 10.957,12.488 10.957,24.015 		"/>
		<rect y="5.612" fill="#A7A9AC" width="1" height="8.5"/>
		<polygon fill="#A7A9AC" points="19,29.046 1,29.046 1,24.015 0,24.015 0,30.046 20,30.046 20,10.847 19,10.847 		"/>
		<polygon fill="#A7A9AC" points="0,0 0,4.612 1,4.612 1,1 19,1 19,9.847 20,9.847 20,0 		"/>
		<rect y="15.112" fill="#A7A9AC" width="1" height="7.903"/>
		<polygon fill="#39B54A" points="10.957,24.015 10.957,12.488 9.957,13.027 9.957,23.015 1,23.015 0,23.015 0,24.015 1,24.015 		
			"/>
		<path fill="#662D91" d="M13.749,9.847l-6.92,3.731c0.175,0.288,0.281,0.62,0.291,0.979l2.838-1.53l1-0.539l3.044-1.641H19h1v-1h-1
			H13.749z"/>
		<path fill="#6A6A6A" d="M3.196,15.112c0.223,0.861,0.999,1.5,1.929,1.5c1.104,0,2-0.895,2-2c0-0.019-0.005-0.037-0.006-0.056
			c-0.01-0.359-0.115-0.692-0.291-0.979c-0.351-0.577-0.979-0.965-1.704-0.965c-0.931,0-1.706,0.639-1.929,1.5H1H0v1h1H3.196z"/>
		<path fill="#6A6A6A" d="M3.196,5.612c0.223,0.861,0.999,1.5,1.929,1.5c1.104,0,2-0.895,2-2s-0.896-2-2-2
			c-0.931,0-1.706,0.639-1.929,1.5H1H0v1h1H3.196z"/>
	</g>
</g>
<g id="METRICS_AND_KEYLINES">
</g>
<g id="Isolation_Mode">
</g>
<g id="filled">
</g>
</svg>
