<?xml version="1.0" encoding="utf-8"?>
<!-- Generator: Adobe Illustrator 26.0.2, SVG Export Plug-In . SVG Version: 6.00 Build 0)  -->
<svg version="1.2" baseProfile="tiny" xmlns="http://www.w3.org/2000/svg" xmlns:xlink="http://www.w3.org/1999/xlink" x="0px"
	 y="0px" viewBox="0 0 20 38" overflow="visible" xml:space="preserve">
<g id="Layer_1">
	<g>
		<path fill="#A7A9AC" d="M1.008,3.47V0h-1v3.47H0V34.53h0.008V38h1v-3.47H20V3.47H1.008z M19,33.53H1.008H1V4.47h0.008H19V33.53z"
			/>
		<path fill="#EBEBEB" d="M9.247,25.081H8.05v5.201h0.963c1.123,0,1.971-0.227,2.52-0.673c0.542-0.44,0.805-1.083,0.805-1.966
			c0-0.861-0.246-1.486-0.752-1.912C11.073,25.299,10.287,25.081,9.247,25.081z"/>
		<path fill="#EBEBEB" d="M10.165,8.125c-0.053-0.113-0.106-0.238-0.16-0.374c-0.046,0.12-0.096,0.243-0.15,0.37L9.853,8.125
			L9.006,9.983h1.996L10.165,8.125z"/>
		<path fill="#EBEBEB" d="M1,4.47V33.53h0.008H19V4.47H1.008H1z M12.193,20.246c-0.027-0.489-0.037-0.831-0.029-1.046v-4.336h1.432
			V22.5h-1.509l-4.301-5.502c0.025,0.422,0.038,0.822,0.038,1.196V22.5h-1.42v-7.636h1.497l4.299,5.491
			C12.198,20.32,12.196,20.283,12.193,20.246z M12.647,30.509c-0.81,0.658-1.978,0.991-3.471,0.991H6.554v-7.636h2.875
			c1.387,0,2.485,0.33,3.266,0.98c0.794,0.662,1.197,1.594,1.197,2.769C13.892,28.865,13.474,29.839,12.647,30.509z M9.432,5.834
			h1.155L14.19,13.5h-1.584l-1.066-2.27H8.425L7.37,13.5H5.809L9.432,5.834z"/>
		<path fill="#6A6A6A" d="M8.425,11.23h3.115l1.066,2.27h1.584l-3.604-7.666H9.432L5.809,13.5H7.37L8.425,11.23z M9.853,8.125
			l0.002-0.005c0.055-0.126,0.104-0.25,0.15-0.37c0.054,0.135,0.107,0.26,0.16,0.374l0.837,1.859H9.006L9.853,8.125z"/>
		<path fill="#6A6A6A" d="M6.404,14.864V22.5h1.42v-4.306c0-0.374-0.013-0.773-0.038-1.196l4.301,5.502h1.509v-7.636h-1.432V19.2
			c-0.008,0.215,0.002,0.557,0.029,1.046c0.003,0.038,0.005,0.074,0.007,0.109l-4.299-5.491H6.404z"/>
		<path fill="#6A6A6A" d="M9.429,23.864H6.554V31.5h2.623c1.493,0,2.661-0.333,3.471-0.991c0.826-0.67,1.244-1.645,1.244-2.896
			c0-1.175-0.403-2.107-1.197-2.769C11.914,24.193,10.815,23.864,9.429,23.864z M11.532,29.609c-0.549,0.447-1.396,0.673-2.52,0.673
			H8.05v-5.201h1.197c1.04,0,1.826,0.218,2.338,0.649c0.506,0.426,0.752,1.051,0.752,1.912
			C12.337,28.525,12.074,29.168,11.532,29.609z"/>
	</g>
</g>
<g id="METRICS_AND_KEYLINES">
</g>
<g id="Isolation_Mode">
</g>
<g id="filled">
</g>
</svg>
