<?xml version="1.0" encoding="utf-8"?>
<!-- Generator: Adobe Illustrator 26.0.2, SVG Export Plug-In . SVG Version: 6.00 Build 0)  -->
<svg version="1.2" baseProfile="tiny" xmlns="http://www.w3.org/2000/svg" xmlns:xlink="http://www.w3.org/1999/xlink" x="0px"
	 y="0px" viewBox="0 0 32 32" overflow="visible" xml:space="preserve">
<g id="Layer_1">
	<path fill="#6A6A6A" d="M27.17,17.918c-1.034-0.737-1.18-2.878-1.334-5.145c-0.015-0.213-0.029-0.571-0.045-0.968l-0.006-0.124
		c-0.028-0.69-0.06-1.473-0.094-1.815c-0.049-0.887-0.197-1.776-0.452-2.716l-0.092-0.353c-0.037-0.16-0.075-0.301-0.145-0.505
		c-0.073-0.203-0.151-0.402-0.225-0.57c-0.088-0.222-0.19-0.445-0.312-0.686l-0.056-0.099c-0.157-0.298-0.306-0.545-0.452-0.754
		c-0.348-0.525-0.776-1.018-1.348-1.552l-0.164-0.146c-0.385-0.344-0.804-0.652-1.321-0.976c-0.061-0.04-0.122-0.078-0.181-0.112
		c-0.191-0.11-0.402-0.219-0.663-0.342c-0.168-0.079-0.339-0.152-0.509-0.221c-0.731-0.298-1.509-0.519-2.313-0.656
		c-0.236-0.039-0.477-0.069-0.814-0.107c-0.086-0.011-0.173-0.021-0.259-0.028C16.128,0.021,15.85,0.008,15.451,0
		c-0.394,0.008-0.672,0.021-0.93,0.042c-0.086,0.007-0.172,0.017-0.257,0.028c-0.338,0.038-0.58,0.068-0.815,0.107
		c-0.805,0.138-1.583,0.359-2.313,0.656c-0.17,0.069-0.342,0.142-0.51,0.221c-0.264,0.125-0.475,0.234-0.663,0.342
		C9.905,1.431,9.845,1.469,9.78,1.512C9.264,1.834,8.845,2.143,8.462,2.485L8.295,2.632C7.727,3.163,7.3,3.656,6.951,4.18
		C6.805,4.39,6.657,4.637,6.499,4.934L6.441,5.038c-0.115,0.227-0.22,0.457-0.309,0.679C6.055,5.895,5.976,6.093,5.907,6.292
		C5.831,6.509,5.795,6.654,5.762,6.793L5.669,7.149C5.414,8.091,5.266,8.979,5.217,9.861c-0.035,0.348-0.067,1.13-0.095,1.82
		l-0.002,0.05c-0.018,0.427-0.033,0.816-0.049,1.043c-0.154,2.266-0.299,4.406-1.335,5.145C-0.41,20.871,0,25.712,0.02,25.913
		c0.085,0.895,0.801,1.121,1.666,1.121h7.585C9.784,29.85,12.357,32,15.453,32s5.669-2.15,6.182-4.966h7.586
		c0.865,0,1.581-0.226,1.666-1.121C30.907,25.712,31.318,20.873,27.17,17.918z M15.453,30.26c-2.124,0-3.898-1.378-4.392-3.226
		h8.784C19.351,28.882,17.578,30.26,15.453,30.26z M29.112,25.223H1.794c-0.035,0-0.054-3.796,2.957-5.941
		c1.746-1.243,1.921-3.729,2.108-6.458c0.017-0.25,0.035-0.64,0.053-1.108l0.006-0.141c0.025-0.617,0.052-1.245,0.084-1.577
		c0.046-0.805,0.167-1.525,0.391-2.35l0.034-0.129c0.023-0.08,0.043-0.161,0.063-0.244L7.51,7.197
		c0.015-0.065,0.03-0.129,0.051-0.189c0.08-0.227,0.142-0.385,0.214-0.55c0.079-0.196,0.159-0.371,0.248-0.547
		c0.148-0.274,0.259-0.469,0.39-0.658c0.278-0.416,0.62-0.809,1.076-1.235l0.083-0.073c0.344-0.306,0.679-0.557,1.053-0.79
		l0.203-0.13c0.194-0.11,0.393-0.207,0.544-0.279c0.136-0.065,0.277-0.123,0.418-0.181c0.617-0.252,1.272-0.438,1.948-0.552
		c0.203-0.034,0.411-0.059,0.62-0.082l0.306-0.036c0.231-0.019,0.477-0.03,0.774-0.035h0.033c0.297,0.005,0.543,0.015,0.77,0.034
		l0.311,0.037c0.208,0.022,0.416,0.048,0.619,0.082c0.675,0.114,1.331,0.3,1.947,0.552c0.14,0.057,0.283,0.116,0.418,0.181
		c0.164,0.078,0.358,0.172,0.539,0.276l0.21,0.133c0.374,0.232,0.707,0.483,1.051,0.789l0.08,0.071
		c0.459,0.428,0.801,0.821,1.08,1.238c0.126,0.184,0.238,0.379,0.387,0.654c0.088,0.173,0.168,0.348,0.25,0.552
		c0.073,0.167,0.136,0.33,0.212,0.547c0.022,0.059,0.036,0.124,0.052,0.189l0.011,0.047c0.023,0.093,0.045,0.187,0.07,0.274
		l0.034,0.137c0.227,0.828,0.347,1.554,0.392,2.359c0.031,0.311,0.056,0.912,0.08,1.495l0.011,0.25
		c0.018,0.468,0.035,0.899,0.052,1.15c0.186,2.725,0.36,5.13,2.108,6.374C29.155,21.419,29.145,25.223,29.112,25.223z"/>
</g>
<g id="METRICS_AND_KEYLINES">
</g>
<g id="Isolation_Mode">
</g>
<g id="filled">
</g>
</svg>
