<?xml version="1.0" encoding="utf-8"?>
<!-- Generator: Adobe Illustrator 26.0.2, SVG Export Plug-In . SVG Version: 6.00 Build 0)  -->
<svg version="1.2" baseProfile="tiny" xmlns="http://www.w3.org/2000/svg" xmlns:xlink="http://www.w3.org/1999/xlink" x="0px"
	 y="0px" viewBox="0 0 32 32" overflow="visible" xml:space="preserve">
<g id="Layer_1">
	<g>
		<path fill="#6A6A6A" d="M16.914,18.332c1.186,0,1.865-1.009,1.865-2.767c0-1.664-0.665-2.658-1.78-2.658
			c-1.15,0-1.865,1.045-1.865,2.729C15.148,17.299,15.831,18.332,16.914,18.332z M16.06,15.643c0-1.191,0.354-1.962,0.899-1.962
			c0.775,0,0.892,1.2,0.892,1.916c0,0.732-0.117,1.962-0.898,1.962C16.402,17.559,16.06,16.824,16.06,15.643z"/>
		<path fill="#6A6A6A" d="M25.004,12.907c-1.15,0-1.865,1.045-1.865,2.729c0.015,1.663,0.697,2.696,1.78,2.696
			c1.186,0,1.866-1.009,1.866-2.767C26.786,13.901,26.12,12.907,25.004,12.907z M25.857,15.597c0,0.732-0.117,1.962-0.898,1.962
			c-0.551,0-0.893-0.734-0.893-1.916c0-1.191,0.354-1.962,0.9-1.962C25.742,13.681,25.857,14.881,25.857,15.597z"/>
		<polygon fill="#6A6A6A" points="13.838,18.139 13.838,13.011 12.938,13.011 11.608,13.549 11.813,14.352 12.795,13.994 
			12.818,13.994 12.818,18.139 		"/>
		<polygon fill="#6A6A6A" points="20.807,13.994 20.83,13.994 20.83,18.139 21.85,18.139 21.85,13.011 20.949,13.011 19.625,13.544 
			19.83,14.348 		"/>
		<path fill="#6A6A6A" d="M16,0.25C7.315,0.25,0.25,7.315,0.25,16S7.315,31.75,16,31.75S31.75,24.685,31.75,16S24.685,0.25,16,0.25z
			 M16,30.25C8.143,30.25,1.75,23.857,1.75,16S8.143,1.75,16,1.75S30.25,8.143,30.25,16S23.857,30.25,16,30.25z"/>
		<path fill="#6A6A6A" d="M24.986,19.797H10.66L10.647,8.742l3.413,3.317c0.078,0.073,0.19,0.092,0.289,0.052
			c0.098-0.041,0.163-0.136,0.164-0.243l0.038-1.51c0.001-0.077-0.03-0.15-0.085-0.201L10.058,6
			c-0.054-0.056-0.124-0.084-0.195-0.084c-0.066,0-0.131,0.024-0.184,0.073l-4.6,4.164c-0.055,0.052-0.085,0.123-0.085,0.199
			l0.014,1.428c0.001,0.106,0.065,0.203,0.163,0.244c0.099,0.041,0.212,0.022,0.291-0.052l3.504-3.118l0.013,10.942H8.695
			c-0.573,0-1.038,0.465-1.038,1.038v3.448c0,0.573,0.465,1.038,1.038,1.038h16.292c0.573,0,1.038-0.465,1.038-1.038v-3.448
			C26.024,20.261,25.559,19.797,24.986,19.797z"/>
	</g>
</g>
<g id="METRICS_AND_KEYLINES">
</g>
<g id="Isolation_Mode">
</g>
<g id="filled">
</g>
</svg>
