<?xml version="1.0" encoding="utf-8"?>
<!-- Generator: Adobe Illustrator 26.0.2, SVG Export Plug-In . SVG Version: 6.00 Build 0)  -->
<svg version="1.2" baseProfile="tiny" xmlns="http://www.w3.org/2000/svg" xmlns:xlink="http://www.w3.org/1999/xlink" x="0px"
	 y="0px" viewBox="0 0 32 32" overflow="visible" xml:space="preserve">
<g id="Layer_1">
	<g>
		<path fill="#6A6A6A" d="M29.448,13.582l-8.736-2.804c-0.154-0.051-0.385-0.053-0.539-0.002l-6.125,1.975
			c-0.259,0.461-0.556,0.986-0.908,1.603l-0.236,0.411l6.777-2.218l-0.004,14.821l-7.154,2.307V15.428l-1.523,2.652v11.645
			l-7.346-2.369c-0.04-1.664-0.02-7.438,0.012-12.541c-0.24-0.419-0.466-0.814-0.666-1.164c-0.33-0.58-0.606-1.067-0.839-1.484
			c-0.123,15.924-0.074,15.99,0.225,16.291c0.086,0.086,0.192,0.152,0.308,0.189l8.734,2.816c0.151,0.048,0.359,0.048,0.51,0
			l8.501-2.741l8.544,2.741c0.076,0.025,0.155,0.037,0.233,0.037c0.159,0,0.317-0.05,0.449-0.147
			c0.197-0.143,0.313-0.372,0.313-0.615V14.307C29.977,13.976,29.763,13.683,29.448,13.582z M28.454,29.694L21.2,27.368
			l0.004-14.832l7.249,2.326V29.694z"/>
		<path fill="#6A6A6A" d="M2.517,9.148c0.099,0.24,0.333,0.702,0.882,1.693c0.278,0.501,0.638,1.141,1.102,1.956
			c0.669,1.176,1.553,2.713,2.732,4.749c0.24,0.414,0.619,0.652,1.042,0.652c0.423,0,0.802-0.237,1.042-0.652
			c0.589-1.019,1.099-1.905,1.552-2.695c0.28-0.489,0.539-0.94,0.772-1.351c1.701-2.986,2.233-4,2.396-4.414l0.01,0.004
			c0.304-0.749,0.459-1.539,0.459-2.35c0-3.441-2.8-6.24-6.241-6.24S2.023,3.299,2.023,6.74c0,0.835,0.163,1.646,0.484,2.411
			L2.517,9.148z M8.265,2.206c2.5,0,4.534,2.034,4.534,4.534c0,0.589-0.112,1.163-0.333,1.706c0,0-1.225,2.225-2.505,4.511
			c-0.255,0.455-0.511,0.912-0.762,1.354c-0.327,0.579-0.643,1.134-0.925,1.625c-0.426-0.739-0.894-1.552-1.358-2.361
			c-0.385-0.672-0.766-1.34-1.119-1.961C4.987,10.19,4.329,9.014,4.14,8.631L4.082,8.492C3.849,7.936,3.731,7.347,3.731,6.74
			C3.731,4.24,5.765,2.206,8.265,2.206z"/>
		<path fill="#6A6A6A" d="M8.265,8.658c1.224,0,2.219-0.995,2.219-2.219S9.488,4.22,8.265,4.22S6.046,5.215,6.046,6.439
			S7.041,8.658,8.265,8.658z M8.265,5.743c0.384,0,0.696,0.312,0.696,0.696c0,0.384-0.312,0.696-0.696,0.696
			c-0.384,0-0.696-0.312-0.696-0.696C7.569,6.055,7.881,5.743,8.265,5.743z"/>
	</g>
</g>
<g id="METRICS_AND_KEYLINES">
</g>
<g id="Isolation_Mode">
</g>
<g id="filled">
</g>
</svg>
