<?xml version="1.0" encoding="utf-8"?>
<!-- Generator: Adobe Illustrator 26.0.2, SVG Export Plug-In . SVG Version: 6.00 Build 0)  -->
<svg version="1.2" baseProfile="tiny" xmlns="http://www.w3.org/2000/svg" xmlns:xlink="http://www.w3.org/1999/xlink" x="0px"
	 y="0px" viewBox="0 0 32 32" overflow="visible" xml:space="preserve">
<g id="Layer_1">
	<g>
		<path d="M19.874,16c0-5.091-4.142-9.233-9.233-9.233S1.408,10.909,1.408,16s4.142,9.233,9.233,9.233S19.874,21.091,19.874,16z
			 M10.641,23.8c-4.301,0-7.8-3.499-7.8-7.8c0-4.301,3.499-7.8,7.8-7.8c4.301,0,7.8,3.499,7.8,7.8
			C18.441,20.301,14.942,23.8,10.641,23.8z"/>
		<path d="M30.382,17.452l-3.707-3.708V4.157c0-0.396-0.321-0.716-0.716-0.716h-9.861V0.716C16.098,0.321,15.777,0,15.382,0
			s-0.716,0.321-0.716,0.716v3.44c0,0.396,0.321,0.716,0.716,0.716h9.861v8.871l-3.708,3.708c-0.28,0.28-0.28,0.733,0,1.013
			c0.14,0.14,0.323,0.21,0.507,0.21c0.184,0,0.367-0.07,0.507-0.21l2.695-2.695v11.373h-9.861c-0.396,0-0.716,0.321-0.716,0.716
			v3.424c0,0.396,0.321,0.716,0.716,0.716s0.716-0.321,0.716-0.716v-2.707h9.861c0.396,0,0.716-0.321,0.716-0.716V15.771
			l2.694,2.695c0.14,0.14,0.323,0.21,0.507,0.21c0.183,0,0.367-0.07,0.507-0.21C30.662,18.186,30.662,17.732,30.382,17.452z"/>
		<path d="M13.092,11.655c0.396,0,0.716-0.321,0.716-0.716s-0.321-0.716-0.716-0.716H8.188c-0.396,0-0.716,0.321-0.716,0.716
			s0.321,0.716,0.716,0.716h1.736v8.69H8.188c-0.396,0-0.716,0.321-0.716,0.716c0,0.396,0.321,0.716,0.716,0.716h4.904
			c0.396,0,0.716-0.321,0.716-0.716c0-0.396-0.321-0.716-0.716-0.716h-1.735v-8.69H13.092z"/>
	</g>
</g>
<g id="METRICS_AND_KEYLINES">
</g>
<g id="Isolation_Mode">
</g>
<g id="filled">
</g>
</svg>
