<?xml version="1.0" encoding="utf-8"?>
<!-- Generator: Adobe Illustrator 26.0.2, SVG Export Plug-In . SVG Version: 6.00 Build 0)  -->
<svg version="1.2" baseProfile="tiny" xmlns="http://www.w3.org/2000/svg" xmlns:xlink="http://www.w3.org/1999/xlink" x="0px"
	 y="0px" viewBox="0 0 32 32" overflow="visible" xml:space="preserve">
<g id="Layer_1">
	<path fill="#6A6A6A" d="M30.328,29.516h-4.667v-8.88c0-0.251-0.141-0.482-0.364-0.597L17.466,16l7.832-4.039
		c0.223-0.115,0.364-0.346,0.364-0.597v-8.88h4.667C30.699,2.484,31,2.183,31,1.812s-0.301-0.672-0.672-0.672H24.99H7.009H1.672
		C1.301,1.141,1,1.442,1,1.812s0.301,0.672,0.672,0.672h4.666v8.88c0,0.251,0.141,0.482,0.364,0.597L14.534,16l-7.833,4.039
		c-0.223,0.115-0.364,0.346-0.364,0.597v8.88H1.672C1.301,29.516,1,29.817,1,30.188c0,0.371,0.301,0.672,0.672,0.672h5.337H24.99
		h5.338c0.371,0,0.672-0.301,0.672-0.672C31,29.817,30.699,29.516,30.328,29.516z M7.681,2.484h16.638v8.471L16,15.244l-8.319-4.29
		V2.484z M7.681,29.516v-8.471L16,16.756l8.319,4.29v8.471H7.681z"/>
</g>
<g id="METRICS_AND_KEYLINES">
</g>
<g id="Isolation_Mode">
</g>
<g id="filled">
</g>
</svg>
