<?xml version="1.0" encoding="utf-8"?>
<!-- Generator: Adobe Illustrator 26.0.2, SVG Export Plug-In . SVG Version: 6.00 Build 0)  -->
<svg version="1.2" baseProfile="tiny" xmlns="http://www.w3.org/2000/svg" xmlns:xlink="http://www.w3.org/1999/xlink" x="0px"
	 y="0px" viewBox="0 0 32 32" overflow="visible" xml:space="preserve">
<g id="Layer_1">
	<g>
		<path fill="#6A6A6A" d="M20.5,8.58c0.414,0,0.75-0.336,0.75-0.75s-0.336-0.75-0.75-0.75h-9c-0.414,0-0.75,0.336-0.75,0.75
			s0.336,0.75,0.75,0.75h3.75v14.84H11.5c-0.414,0-0.75,0.336-0.75,0.75s0.336,0.75,0.75,0.75h9c0.414,0,0.75-0.336,0.75-0.75
			s-0.336-0.75-0.75-0.75h-3.75V8.58H20.5z"/>
		<path fill="#6A6A6A" d="M16.001,0.8C7.619,0.8,0.8,7.618,0.8,15.999C0.8,24.381,7.619,31.2,16.001,31.2
			c8.381,0,15.199-6.819,15.199-15.201C31.2,7.618,24.382,0.8,16.001,0.8z M16.001,29.6C8.501,29.6,2.4,23.499,2.4,15.999
			C2.4,8.501,8.501,2.4,16.001,2.4C23.499,2.4,29.6,8.501,29.6,15.999C29.6,23.499,23.499,29.6,16.001,29.6z"/>
	</g>
</g>
<g id="METRICS_AND_KEYLINES">
</g>
<g id="Isolation_Mode">
</g>
<g id="filled">
</g>
</svg>
