<?xml version="1.0" encoding="utf-8"?>
<!-- Generator: Adobe Illustrator 26.0.0, SVG Export Plug-In . SVG Version: 6.00 Build 0)  -->
<svg version="1.2" baseProfile="tiny" xmlns="http://www.w3.org/2000/svg" xmlns:xlink="http://www.w3.org/1999/xlink" x="0px"
	 y="0px" viewBox="0 0 32 32" overflow="visible" xml:space="preserve">
<g id="Layer_1">
	<g>
		<path fill="#6A6A6A" d="M3.766,6.922c-0.406,0-0.735,0.33-0.735,0.735c0,0.406,0.329,0.736,0.735,0.736
			c0.406,0,0.736-0.33,0.736-0.736C4.502,7.252,4.171,6.922,3.766,6.922z"/>
		<path fill="#6A6A6A" d="M31.979,7.911l-0.004-2.308c0-1.2-0.985-1.827-1.963-1.827H1.821C0.943,3.776,0,4.351,0,5.616v20.646
			c0,1.247,0.707,1.962,1.94,1.962l28.691-0.018c0.792,0,1.369-0.582,1.369-1.385C32,21.937,31.986,12.331,31.979,7.911z
			 M1.71,5.502C1.734,5.49,1.788,5.479,1.843,5.479h0.002h28.169c0.092,0.001,0.226,0.038,0.259,0.124l0.004,2.31
			c0.001,0.579,0.001,1.252,0.003,1.986H1.703V5.616C1.703,5.544,1.712,5.507,1.71,5.502z M1.94,26.522
			c-0.108,0-0.174-0.01-0.203-0.01c-0.004,0-0.007,0-0.009,0c-0.011-0.033-0.025-0.109-0.025-0.249v-14.66h28.579
			c0.007,4.709,0.016,11.08,0.016,14.902L1.94,26.522z"/>
	</g>
</g>
<g id="METRICS_AND_KEYLINES">
</g>
<g id="Isolation_Mode">
</g>
<g id="filled">
</g>
</svg>
