<?xml version="1.0" encoding="utf-8"?>
<!-- Generator: Adobe Illustrator 22.1.0, SVG Export Plug-In . SVG Version: 6.00 Build 0)  -->
<svg version="1.2" baseProfile="tiny" id="Layer_1" xmlns="http://www.w3.org/2000/svg" xmlns:xlink="http://www.w3.org/1999/xlink"
	 x="0px" y="0px" viewBox="0 0 32 32" xml:space="preserve">
<g>
	<path fill="#6A6A6A" d="M14.438,29.353c-0.296,0.305-0.446,0.676-0.446,1.102c0,0.429,0.152,0.798,0.45,1.094
		C14.74,31.848,15.108,32,15.535,32c0.424,0,0.795-0.15,1.102-0.446c0.308-0.298,0.465-0.667,0.465-1.098
		c0-0.428-0.155-0.8-0.461-1.105C16.026,28.735,15.029,28.739,14.438,29.353z"/>
	<path fill="#6A6A6A" d="M22.009,2.292C20.58,0.771,18.64,0,16.243,0c-2.391,0-4.402,0.767-5.975,2.28
		C8.691,3.796,7.877,5.815,7.847,8.282C7.846,8.37,7.881,8.454,7.942,8.517c0.062,0.062,0.146,0.098,0.234,0.098h1.194
		c0.18,0,0.326-0.145,0.329-0.324c0.027-1.887,0.624-3.45,1.775-4.645c1.145-1.191,2.751-1.795,4.77-1.795
		c1.884,0,3.38,0.581,4.445,1.727c1.07,1.154,1.613,2.771,1.613,4.807c0,1.096-0.117,2.044-0.351,2.818
		c-0.23,0.769-0.605,1.524-1.114,2.245c-0.515,0.729-1.438,1.715-2.741,2.931c-1.353,1.263-2.289,2.455-2.782,3.541
		c-0.496,1.089-0.762,2.497-0.793,4.186c-0.001,0.088,0.033,0.173,0.095,0.236c0.061,0.063,0.146,0.099,0.234,0.099h1.194
		c0.182,0,0.329-0.147,0.329-0.329c0-2.753,0.939-4.882,2.81-6.343c1.935-1.756,3.261-3.332,3.941-4.682
		c0.683-1.357,1.03-2.927,1.03-4.668C24.153,5.868,23.431,3.807,22.009,2.292z"/>
</g>
</svg>
