<?xml version="1.0" encoding="utf-8"?>
<!-- Generator: Adobe Illustrator 26.0.2, SVG Export Plug-In . SVG Version: 6.00 Build 0)  -->
<svg version="1.2" baseProfile="tiny" xmlns="http://www.w3.org/2000/svg" xmlns:xlink="http://www.w3.org/1999/xlink" x="0px"
	 y="0px" viewBox="0 0 32 32" overflow="visible" xml:space="preserve">
<g id="Layer_1">
	<g>
		<path fill="#6A6A6A" d="M22.215,16.394l-5.455,8.063c-0.248,0.366-0.152,0.863,0.214,1.111c0.366,0.247,0.863,0.152,1.111-0.214
			l5.745-8.491c0.176-0.261,0.184-0.6,0.018-0.868l-5.745-9.32c-0.151-0.245-0.413-0.38-0.682-0.38
			c-0.143,0-0.288,0.038-0.419,0.119c-0.376,0.232-0.493,0.725-0.261,1.101L22.215,16.394z"/>
		<path fill="#6A6A6A" d="M8.152,7.514l5.474,8.88L8.17,24.457c-0.248,0.366-0.152,0.863,0.214,1.111
			c0.366,0.247,0.863,0.152,1.111-0.214l5.745-8.491c0.176-0.261,0.184-0.6,0.018-0.868l-5.745-9.32
			C9.362,6.43,9.1,6.295,8.832,6.295c-0.143,0-0.288,0.038-0.419,0.119C8.037,6.646,7.92,7.138,8.152,7.514z"/>
	</g>
</g>
<g id="METRICS_AND_KEYLINES">
</g>
<g id="Isolation_Mode">
</g>
<g id="filled">
</g>
</svg>
