<?xml version="1.0" encoding="utf-8"?>
<!-- Generator: Adobe Illustrator 26.0.2, SVG Export Plug-In . SVG Version: 6.00 Build 0)  -->
<svg version="1.2" baseProfile="tiny" xmlns="http://www.w3.org/2000/svg" xmlns:xlink="http://www.w3.org/1999/xlink" x="0px"
	 y="0px" viewBox="0 0 32 32" overflow="visible" xml:space="preserve">
<g id="Layer_1">
	<g>
		<path fill="#6A6A6A" d="M15.997,12.735c4.037,0,10.869-0.716,10.869-3.399V3.923c0-0.037,0-0.21,0-0.262
			c0-2.89-6.833-3.66-10.869-3.66C11.961,0,5.129,0.771,5.129,3.66c0,0.053,0,0.225,0,0.262v5.414
			C5.129,12.02,11.961,12.735,15.997,12.735L15.997,12.735z M7.625,3.098c0.01-0.005,0.019-0.01,0.029-0.015
			c1.324-0.625,4.224-1.308,8.343-1.308c4.127,0,7.029,0.684,8.35,1.311c0.009,0.004,0.016,0.008,0.024,0.012
			c0.42,0.202,0.679,0.399,0.754,0.563c-0.027,0.06-0.088,0.125-0.163,0.192c-0.026,0.023-0.048,0.046-0.08,0.07
			c-0.341,0.26-1.013,0.556-1.976,0.824c-1.228,0.343-2.933,0.638-5.054,0.75c-0.587,0.031-1.205,0.049-1.855,0.049
			c-0.653,0-1.272-0.018-1.863-0.049c-2.117-0.112-3.82-0.407-5.047-0.749C8.126,4.479,7.454,4.183,7.112,3.923
			C7.079,3.897,7.055,3.874,7.028,3.849C6.955,3.783,6.896,3.719,6.869,3.66C6.947,3.497,7.204,3.301,7.625,3.098L7.625,3.098z
			 M6.863,8.676V5.802c2.293,1.157,6.37,1.519,9.135,1.519c2.766,0,6.842-0.362,9.135-1.519l0.002-0.001l0.002,2.875V9.31
			c-0.022,0.059-0.081,0.124-0.158,0.191c-0.735,0.64-3.942,1.587-8.981,1.587c-5.09,0-8.312-0.968-9.001-1.587
			C6.932,9.443,6.882,9.387,6.863,9.336L6.863,8.676L6.863,8.676z"/>
		<path fill="#6A6A6A" d="M5.129,14.821v4.007c0,2.673,6.78,3.393,10.823,3.398c0.002,0,0.005,0,0.007,0
			c0.012,0,0.026,0.002,0.039,0.002c0.003,0,0.006,0,0.009,0c0.002,0,0.005,0,0.008,0c0.013,0,0.026-0.002,0.04-0.002
			c0.002,0,0.005,0,0.007,0c0.002,0,0.005,0,0.007,0c4.043-0.006,10.816-0.727,10.816-3.398l-0.039-6.372
			c-0.188,0.151-0.326,0.285-0.516,0.416c-0.065,0.045-0.129,0.093-0.194,0.136c-0.053,0.035-0.103,0.062-0.155,0.095
			c-0.108,0.068-0.217,0.135-0.324,0.197c-0.059,0.033-0.125,0.069-0.2,0.11c-0.244,0.132-0.575,0.297-0.996,0.485
			c-0.067,0.03-0.134,0.06-0.205,0.091c-0.071,0.029-0.145,0.059-0.223,0.088c-0.146,0.056-0.3,0.111-0.473,0.164
			c-0.495,0.156-1.109,0.308-1.819,0.441c-0.041,0.005-0.071,0.009-0.071,0.009l-0.002,0.005c-0.243,0.046-0.5,0.087-0.765,0.128
			c-0.068,0.01-0.132,0.021-0.201,0.031c-0.188,0.027-0.388,0.05-0.586,0.073c-0.104,0.013-0.205,0.027-0.312,0.039
			c-0.244,0.026-0.499,0.05-0.758,0.071c-0.068,0.006-0.131,0.013-0.2,0.019c-0.675,0.053-1.397,0.088-2.167,0.102
			c-0.205,0.003-0.408,0.007-0.618,0.008c-0.019,0-0.036,0.001-0.054,0.001c-0.019,0-0.037-0.001-0.055-0.001v0.001
			c-0.217-0.001-0.428-0.005-0.639-0.008c-1.489-0.026-2.801-0.136-3.926-0.293c-0.222-0.03-0.431-0.064-0.637-0.098
			c-0.136-0.023-0.275-0.045-0.404-0.069l-0.001-0.008c0,0-0.045-0.005-0.121-0.016c-0.683-0.129-1.275-0.275-1.757-0.426
			c-0.035-0.011-0.067-0.021-0.102-0.032c-0.271-0.089-0.506-0.177-0.706-0.265c-0.248-0.102-0.505-0.221-0.766-0.352
			c-0.117-0.059-0.235-0.12-0.354-0.187c-0.475-0.262-0.955-0.577-1.422-0.953v1.622H5.13L5.129,14.821L5.129,14.821L5.129,14.821z
			 M6.863,18.169v-2.766c2.293,1.073,6.37,1.41,9.135,1.41c0.003,0,0.006,0,0.008,0c0.003,0,0.005,0,0.008,0
			c2.759,0,6.824-0.335,9.121-1.403l0.002,2.76l0.001,0.632c-0.022,0.06-0.081,0.124-0.159,0.191
			c-0.733,0.637-3.918,1.577-8.917,1.585c-0.019,0-0.036,0-0.055,0.001c-0.018-0.001-0.036-0.001-0.055-0.001l0,0
			c-5.063-0.006-8.267-0.969-8.954-1.585c-0.064-0.058-0.115-0.114-0.134-0.165L6.863,18.169L6.863,18.169L6.863,18.169z"/>
		<path fill="#6A6A6A" d="M26.328,22.645c-0.065,0.045-0.129,0.094-0.194,0.136c-0.053,0.034-0.103,0.061-0.155,0.094
			c-0.108,0.069-0.217,0.135-0.324,0.197c-0.059,0.034-0.125,0.07-0.2,0.111c-0.244,0.132-0.575,0.297-0.996,0.485
			c-0.067,0.029-0.134,0.059-0.205,0.089c-0.071,0.029-0.145,0.059-0.223,0.089c-0.146,0.055-0.3,0.11-0.473,0.164
			c-0.495,0.157-1.109,0.307-1.819,0.441c-0.041,0.005-0.071,0.008-0.071,0.008l-0.002,0.007c-0.243,0.045-0.5,0.087-0.765,0.127
			c-0.068,0.009-0.132,0.02-0.201,0.031c-0.188,0.026-0.388,0.05-0.586,0.074c-0.104,0.012-0.205,0.026-0.312,0.039
			c-0.244,0.026-0.499,0.05-0.758,0.071c-0.068,0.006-0.131,0.013-0.2,0.019c-0.675,0.053-1.397,0.088-2.167,0.102
			c-0.205,0.004-0.408,0.008-0.618,0.008c-0.019,0-0.036,0-0.054,0c-0.019,0-0.037,0-0.055,0l0,0
			c-0.217-0.001-0.428-0.005-0.639-0.008c-1.489-0.026-2.801-0.137-3.926-0.293c-0.222-0.029-0.431-0.064-0.637-0.098
			c-0.136-0.022-0.275-0.043-0.404-0.068l-0.001-0.009c0,0-0.045-0.004-0.121-0.014c-0.683-0.131-1.275-0.276-1.757-0.426
			c-0.035-0.011-0.067-0.021-0.102-0.033c-0.271-0.088-0.506-0.177-0.706-0.264C7.41,23.619,7.153,23.5,6.892,23.369
			c-0.117-0.06-0.235-0.12-0.354-0.187c-0.475-0.263-0.955-0.577-1.422-0.953v1.621h0.012v4.75c0,2.673,6.78,3.394,10.822,3.399
			c0.003,0,0.005,0,0.008,0c0.013,0,0.026,0.001,0.039,0.001c0.003,0,0.006,0,0.008,0c0.003,0,0.005,0,0.008,0
			c0.012,0,0.026-0.001,0.04-0.001c0.002,0,0.005,0,0.007,0c0.002,0,0.005,0,0.007,0c4.043-0.006,10.815-0.728,10.815-3.399
			l-0.038-6.371C26.657,22.378,26.518,22.513,26.328,22.645L26.328,22.645z M24.978,28.764c-0.733,0.637-3.918,1.577-8.917,1.585
			c-0.019,0-0.036,0.001-0.055,0.001c-0.018,0-0.036-0.001-0.055-0.001v0.001c-5.063-0.008-8.267-0.969-8.954-1.586
			C6.932,28.707,6.881,28.65,6.862,28.6v-3.426c2.293,1.075,6.37,1.41,9.135,1.41c0.003,0,0.006,0,0.008,0c0.003,0,0.005,0,0.008,0
			c2.759,0,6.824-0.335,9.121-1.404l0.002,2.76l0.001,0.633C25.114,28.632,25.055,28.697,24.978,28.764L24.978,28.764z"/>
	</g>
</g>
<g id="METRICS_AND_KEYLINES">
</g>
<g id="Isolation_Mode">
</g>
<g id="filled">
</g>
</svg>
