<?xml version="1.0" encoding="utf-8"?>
<!-- Generator: Adobe Illustrator 26.0.0, SVG Export Plug-In . SVG Version: 6.00 Build 0)  -->
<svg version="1.2" baseProfile="tiny" xmlns="http://www.w3.org/2000/svg" xmlns:xlink="http://www.w3.org/1999/xlink" x="0px"
	 y="0px" viewBox="0 0 32 32" overflow="visible" xml:space="preserve">
<g id="Layer_1">
	<path fill="#6A6A6A" d="M31.2,6.549c0.001-0.216-0.085-0.423-0.239-0.574l-4.647-4.566c-0.309-0.303-0.804-0.306-1.116-0.004
		L2.226,23.593C2.11,23.705,2.03,23.851,1.998,24.01l-1.182,5.852c-0.054,0.265,0.03,0.539,0.223,0.729
		C1.19,30.739,1.392,30.82,1.6,30.82c0.058,0,0.115-0.006,0.172-0.019l5.829-1.286c0.144-0.032,0.277-0.103,0.384-0.206
		l19.547-18.882c0.038-0.027,0.074-0.056,0.108-0.09c0.02-0.02,0.035-0.043,0.053-0.065l3.263-3.152
		C31.111,6.971,31.199,6.765,31.2,6.549z M7.036,28.002l-4.409,0.973l0.89-4.403L22.41,6.321l3.506,3.444L7.036,28.002z
		 M27.067,8.653l-3.506-3.444l2.187-2.112l3.506,3.443L27.067,8.653z"/>
</g>
<g id="METRICS_AND_KEYLINES">
</g>
<g id="Isolation_Mode">
</g>
<g id="filled">
</g>
</svg>
