<?xml version="1.0" encoding="utf-8"?>
<!-- Generator: Adobe Illustrator 26.0.2, SVG Export Plug-In . SVG Version: 6.00 Build 0)  -->
<svg version="1.2" baseProfile="tiny" xmlns="http://www.w3.org/2000/svg" xmlns:xlink="http://www.w3.org/1999/xlink" x="0px"
	 y="0px" viewBox="0 0 32 32" overflow="visible" xml:space="preserve">
<g id="Layer_1">
	<g>
		<path d="M19.874,24.517V7.483c0-0.396-0.321-0.716-0.716-0.716H2.124c-0.396,0-0.716,0.321-0.716,0.716v17.034
			c0,0.396,0.321,0.716,0.716,0.716h17.034C19.553,25.233,19.874,24.912,19.874,24.517z M18.441,23.8H2.84V8.2h15.601V23.8z"/>
		<path d="M30.383,17.452l-3.708-3.708V4.157c0-0.396-0.321-0.716-0.716-0.716h-9.861V0.716C16.097,0.321,15.777,0,15.381,0
			c-0.396,0-0.716,0.321-0.716,0.716v3.44c0,0.396,0.321,0.716,0.716,0.716h9.861v8.871l-3.708,3.708c-0.28,0.28-0.28,0.733,0,1.013
			c0.14,0.14,0.323,0.21,0.507,0.21c0.183,0,0.367-0.07,0.507-0.21l2.695-2.695v11.373h-9.861c-0.396,0-0.716,0.321-0.716,0.716
			v3.424c0,0.396,0.321,0.716,0.716,0.716c0.396,0,0.716-0.321,0.716-0.716v-2.707h9.861c0.396,0,0.716-0.321,0.716-0.716v-12.09
			l2.695,2.695c0.14,0.14,0.323,0.21,0.507,0.21s0.367-0.07,0.507-0.21C30.663,18.186,30.663,17.732,30.383,17.452z"/>
		<path d="M8.188,20.345c-0.396,0-0.716,0.321-0.716,0.716c0,0.396,0.321,0.716,0.716,0.716h4.904c0.396,0,0.716-0.321,0.716-0.716
			c0-0.396-0.321-0.716-0.716-0.716h-1.736v-8.69h1.736c0.396,0,0.716-0.321,0.716-0.716s-0.321-0.716-0.716-0.716H8.188
			c-0.396,0-0.716,0.321-0.716,0.716s0.321,0.716,0.716,0.716h1.736v8.69H8.188z"/>
	</g>
</g>
<g id="METRICS_AND_KEYLINES">
</g>
<g id="Isolation_Mode">
</g>
<g id="filled">
</g>
</svg>
