<?xml version="1.0" encoding="utf-8"?>
<!-- Generator: Adobe Illustrator 26.0.2, SVG Export Plug-In . SVG Version: 6.00 Build 0)  -->
<svg version="1.2" baseProfile="tiny" xmlns="http://www.w3.org/2000/svg" xmlns:xlink="http://www.w3.org/1999/xlink" x="0px"
	 y="0px" viewBox="0 0 32 32" overflow="visible" xml:space="preserve">
<g id="Layer_1">
	<path fill="#6A6A6A" d="M28.497,15.25c-0.374-3.312-3.19-5.896-6.601-5.896c-2.563,0-4.787,1.461-5.896,3.591
		c-0.999-1.919-2.903-3.293-5.146-3.546c-0.247-0.028-0.496-0.045-0.75-0.045s-0.503,0.017-0.75,0.045v1.531
		c0.247-0.036,0.493-0.076,0.75-0.076s0.503,0.039,0.75,0.076c2.48,0.367,4.396,2.49,4.396,5.07c0,2.837-2.309,5.146-5.146,5.146
		c-2.774,0-5.026-2.21-5.127-4.958V15.25H4.583H0v2.083h3.605c0.619,3.026,3.292,5.312,6.499,5.312c2.563,0,4.787-1.461,5.896-3.591
		c0.999,1.919,2.903,3.292,5.146,3.546c0.247,0.028,0.496,0.045,0.75,0.045s0.503-0.017,0.75-0.045V21.07
		c-0.247,0.036-0.493,0.076-0.75,0.076s-0.503-0.039-0.75-0.076c-2.48-0.367-4.396-2.49-4.396-5.07c0-2.837,2.309-5.146,5.146-5.146
		c2.774,0,5.026,2.21,5.127,4.958c0.002,0.064,0.019,0.123,0.019,0.188c0,0.456-0.079,0.891-0.191,1.312h0.941h0.619H32V16.75v-1.5
		H28.497z"/>
</g>
<g id="METRICS_AND_KEYLINES">
</g>
<g id="Isolation_Mode">
</g>
<g id="filled">
</g>
</svg>
