<?xml version="1.0" encoding="utf-8"?>
<!-- Generator: Adobe Illustrator 26.0.2, SVG Export Plug-In . SVG Version: 6.00 Build 0)  -->
<svg version="1.2" baseProfile="tiny" xmlns="http://www.w3.org/2000/svg" xmlns:xlink="http://www.w3.org/1999/xlink" x="0px"
	 y="0px" viewBox="0 0 32 32" overflow="visible" xml:space="preserve">
<g id="Layer_1">
	<g>
		<path fill="#6A6A6A" d="M3.861,14.906V1.78c0-0.491-0.398-0.889-0.889-0.889c-0.491,0-0.889,0.398-0.889,0.889v13.127
			C0.876,15.285,0,16.411,0,17.743s0.876,2.459,2.083,2.837v9.64c0,0.491,0.398,0.889,0.889,0.889c0.491,0,0.889-0.398,0.889-0.889
			v-9.639c1.208-0.378,2.084-1.505,2.084-2.838C5.945,16.411,5.069,15.284,3.861,14.906z M2.973,18.938
			c-0.659,0-1.195-0.536-1.195-1.195c0-0.659,0.536-1.194,1.195-1.194c0.659,0,1.195,0.536,1.195,1.194
			C4.168,18.402,3.632,18.938,2.973,18.938z"/>
		<path fill="#6A6A6A" d="M16.889,21.177V1.78c0-0.491-0.398-0.889-0.889-0.889c-0.491,0-0.889,0.398-0.889,0.889v19.342
			c-1.252,0.35-2.172,1.497-2.172,2.86c0,1.364,0.919,2.51,2.172,2.86v3.378c0,0.491,0.398,0.889,0.889,0.889
			c0.491,0,0.889-0.398,0.889-0.889v-3.433c1.161-0.404,1.996-1.506,1.996-2.805C18.885,22.683,18.05,21.581,16.889,21.177z
			 M15.912,25.176c-0.659,0-1.195-0.536-1.195-1.194c0-0.659,0.536-1.195,1.195-1.195c0.659,0,1.195,0.536,1.195,1.195
			C17.107,24.641,16.571,25.176,15.912,25.176z"/>
		<path fill="#6A6A6A" d="M32,8.385c0-1.332-0.876-2.459-2.083-2.837V1.78c0-0.491-0.398-0.889-0.889-0.889
			c-0.491,0-0.889,0.398-0.889,0.889v3.768c-1.208,0.378-2.084,1.506-2.084,2.838s0.876,2.459,2.084,2.837V30.22
			c0,0.491,0.398,0.889,0.889,0.889c0.491,0,0.889-0.398,0.889-0.889V11.222C31.124,10.844,32,9.717,32,8.385z M29.027,9.58
			c-0.659,0-1.195-0.536-1.195-1.194c0-0.659,0.536-1.195,1.195-1.195c0.659,0,1.195,0.536,1.195,1.195
			C30.222,9.044,29.686,9.58,29.027,9.58z"/>
	</g>
</g>
<g id="METRICS_AND_KEYLINES">
</g>
<g id="Isolation_Mode">
</g>
<g id="filled">
</g>
</svg>
