<?xml version="1.0" encoding="utf-8"?>
<!-- Generator: Adobe Illustrator 26.0.2, SVG Export Plug-In . SVG Version: 6.00 Build 0)  -->
<svg version="1.2" baseProfile="tiny" xmlns="http://www.w3.org/2000/svg" xmlns:xlink="http://www.w3.org/1999/xlink" x="0px"
	 y="0px" viewBox="0 0 32 32" overflow="visible" xml:space="preserve">
<g id="Layer_1">
	<g>
		<path fill="#6A6A6A" d="M17.895,27.593c0.332,0.143,0.719-0.007,0.864-0.338l1.12-2.553h4.528l1.099,2.549
			c0.104,0.241,0.341,0.397,0.603,0.397c0.089,0,0.177-0.018,0.26-0.053c0.332-0.143,0.486-0.531,0.343-0.863l-3.94-9.144
			c-0.103-0.24-0.339-0.395-0.603-0.397c-0.262,0-0.497,0.154-0.601,0.393l-4.01,9.144c-0.071,0.161-0.075,0.339-0.012,0.502
			C17.61,27.393,17.734,27.522,17.895,27.593z M22.162,19.493l1.679,3.895h-3.388L22.162,19.493z"/>
		<path fill="#6A6A6A" d="M13.313,7.05h1.441c0.35,0,0.634-0.284,0.634-0.634c0-0.35-0.284-0.634-0.634-0.634h-4.738H8.748H4.716
			c-0.35,0-0.634,0.284-0.634,0.634S4.366,7.05,4.716,7.05h1.24c0.048,0.249,0.525,2.422,2.699,4.551
			c-1.008,0.756-2.298,1.462-3.962,1.993c-0.333,0.106-0.518,0.462-0.412,0.795c0.086,0.269,0.335,0.442,0.604,0.442
			c0.063,0,0.129-0.01,0.192-0.03c1.938-0.617,3.414-1.454,4.556-2.347c0.618,0.483,1.328,0.951,2.166,1.376
			c0.035-0.45,0.22-0.856,0.513-1.164c-0.648-0.332-1.206-0.693-1.703-1.064C12.789,9.467,13.266,7.291,13.313,7.05z M9.625,10.775
			C7.995,9.22,7.428,7.65,7.26,7.05h4.747C11.836,7.644,11.25,9.218,9.625,10.775z"/>
		<path fill="#6A6A6A" d="M2.054,1.767h15.627v10.305h1.267V1.134c0-0.35-0.284-0.634-0.634-0.634H1.42
			c-0.35,0-0.634,0.284-0.634,0.634v16.894c0,0.35,0.284,0.634,0.634,0.634h10.365v-1.267H2.054V1.767z"/>
		<path fill="#6A6A6A" d="M30.58,13.339H13.686c-0.35,0-0.634,0.284-0.634,0.634v16.894c0,0.35,0.284,0.634,0.634,0.634H30.58
			c0.35,0,0.634-0.284,0.634-0.634V13.972C31.213,13.623,30.929,13.339,30.58,13.339z M29.946,30.233H14.319V14.606h15.627V30.233z"
			/>
		<path fill="#6A6A6A" d="M8.212,3.026c-0.284,0.284-0.284,0.744,0,1.028L8.93,4.772c0.141,0.141,0.328,0.213,0.513,0.213
			c0.186,0,0.372-0.071,0.513-0.213c0.284-0.284,0.284-0.744,0-1.028L9.239,3.026C8.955,2.742,8.495,2.744,8.212,3.026z"/>
	</g>
</g>
<g id="METRICS_AND_KEYLINES">
</g>
<g id="Isolation_Mode">
</g>
<g id="filled">
</g>
</svg>
