<?xml version="1.0" encoding="utf-8"?>
<!-- Generator: Adobe Illustrator 26.0.2, SVG Export Plug-In . SVG Version: 6.00 Build 0)  -->
<svg version="1.2" baseProfile="tiny" xmlns="http://www.w3.org/2000/svg" xmlns:xlink="http://www.w3.org/1999/xlink" x="0px"
	 y="0px" viewBox="0 0 32 32" overflow="visible" xml:space="preserve">
<g id="Layer_1">
	<g>
		<path fill="#6A6A6A" d="M25.568,8.115c-3.268-3.269-7.805-4.662-12.244-3.879l3.144-2.853c0.344-0.312,0.37-0.845,0.058-1.189
			c-0.312-0.345-0.845-0.371-1.189-0.058L9.761,5.194C9.565,5.373,9.464,5.634,9.489,5.898C9.514,6.163,9.663,6.4,9.89,6.538
			l5.759,3.502c0.137,0.083,0.287,0.122,0.437,0.122c0.284,0,0.562-0.143,0.72-0.405c0.242-0.397,0.115-0.915-0.282-1.157
			l-4.04-2.457c4.25-1.163,8.741,0.011,11.892,3.161c2.315,2.315,3.59,5.393,3.591,8.668c0,3.274-1.274,6.353-3.589,8.668
			c-2.316,2.316-5.394,3.591-8.669,3.591h-0.001c-3.274-0.001-6.353-1.276-8.668-3.591c-4.51-4.51-4.838-11.604-0.763-16.5
			c0.297-0.357,0.249-0.888-0.109-1.186C5.811,8.659,5.281,8.707,4.983,9.064c-4.636,5.57-4.263,13.638,0.867,18.768
			c2.633,2.633,6.134,4.084,9.858,4.085h0.001c3.725,0,7.227-1.451,9.86-4.085C31.005,22.397,31.004,13.552,25.568,8.115z"/>
		<path fill="#6A6A6A" d="M14.643,26.55h-2.001v1h5.946v-1h-1.944v-3.055h6.973V11.483H7.555v12.012h7.087V26.55z M8.555,12.483
			h14.06v10.012H8.555V12.483z"/>
	</g>
</g>
<g id="METRICS_AND_KEYLINES">
</g>
<g id="Isolation_Mode">
</g>
<g id="filled">
</g>
</svg>
