<?xml version="1.0" encoding="utf-8"?>
<!-- Generator: Adobe Illustrator 26.0.2, SVG Export Plug-In . SVG Version: 6.00 Build 0)  -->
<svg version="1.2" baseProfile="tiny" xmlns="http://www.w3.org/2000/svg" xmlns:xlink="http://www.w3.org/1999/xlink" x="0px"
	 y="0px" viewBox="0 0 32 32" overflow="visible" xml:space="preserve">
<g id="Layer_1">
	<g>
		<path fill="#6A6A6A" d="M7.545,7.843H2.102c-0.442,0-0.8-0.358-0.8-0.8V1.6c0-0.442,0.358-0.8,0.8-0.8h5.443
			c0.442,0,0.8,0.358,0.8,0.8v5.443C8.345,7.485,7.987,7.843,7.545,7.843z M2.902,6.243h3.843V2.4H2.902V6.243z"/>
		<path fill="#6A6A6A" d="M21.931,4.931H10.562c-0.442,0-0.8-0.358-0.8-0.8s0.358-0.8,0.8-0.8h11.369c0.442,0,0.8,0.358,0.8,0.8
			S22.372,4.931,21.931,4.931z"/>
		<path fill="#6A6A6A" d="M21.931,28.438H10.562c-0.442,0-0.8-0.358-0.8-0.8c0-0.442,0.358-0.8,0.8-0.8h11.369
			c0.442,0,0.8,0.358,0.8,0.8C22.731,28.08,22.372,28.438,21.931,28.438z"/>
		<path fill="#6A6A6A" d="M29.898,12.573H18.529c-0.442,0-0.8-0.358-0.8-0.8c0-0.442,0.358-0.8,0.8-0.8h11.369
			c0.442,0,0.8,0.358,0.8,0.8C30.698,12.214,30.339,12.573,29.898,12.573z"/>
		<path fill="#6A6A6A" d="M29.898,20.629H18.529c-0.442,0-0.8-0.358-0.8-0.8c0-0.442,0.358-0.8,0.8-0.8h11.369
			c0.442,0,0.8,0.358,0.8,0.8C30.698,20.271,30.339,20.629,29.898,20.629z"/>
		<path fill="#6A6A6A" d="M7.545,31.2H2.102c-0.442,0-0.8-0.358-0.8-0.8v-5.443c0-0.442,0.358-0.8,0.8-0.8h5.443
			c0.442,0,0.8,0.358,0.8,0.8V30.4C8.345,30.842,7.987,31.2,7.545,31.2z M2.902,29.6h3.843v-3.843H2.902V29.6z"/>
		<g>
			<path fill="#6A6A6A" d="M10.473,12.631h1.325v1.325c0,0.442,0.358,0.8,0.8,0.8s0.8-0.358,0.8-0.8v-1.325h1.324
				c0.442,0,0.8-0.358,0.8-0.8c0-0.442-0.358-0.8-0.8-0.8h-1.324V9.706c0-0.442-0.358-0.8-0.8-0.8s-0.8,0.358-0.8,0.8v1.324h-1.325
				c-0.442,0-0.8,0.358-0.8,0.8C9.673,12.273,10.032,12.631,10.473,12.631z"/>
			<path fill="#6A6A6A" d="M14.722,18.99h-1.324v-1.325c0-0.442-0.358-0.8-0.8-0.8s-0.8,0.358-0.8,0.8v1.325h-1.325
				c-0.442,0-0.8,0.358-0.8,0.8c0,0.442,0.358,0.8,0.8,0.8h1.325v1.325c0,0.442,0.358,0.8,0.8,0.8s0.8-0.358,0.8-0.8V20.59h1.324
				c0.442,0,0.8-0.358,0.8-0.8C15.522,19.348,15.164,18.99,14.722,18.99z"/>
		</g>
	</g>
</g>
<g id="METRICS_AND_KEYLINES">
</g>
<g id="Isolation_Mode">
</g>
<g id="filled">
</g>
</svg>
