<?xml version="1.0" encoding="utf-8"?>
<!-- Generator: Adobe Illustrator 26.0.2, SVG Export Plug-In . SVG Version: 6.00 Build 0)  -->
<svg version="1.2" baseProfile="tiny" xmlns="http://www.w3.org/2000/svg" xmlns:xlink="http://www.w3.org/1999/xlink" x="0px"
	 y="0px" viewBox="0 0 32 32" overflow="visible" xml:space="preserve">
<g id="Layer_1">
	<g>
		<path fill="#6A6A6B" d="M12.926,19.761h6.366c0.414,0,0.75-0.336,0.75-0.75v-6.365c0-0.414-0.336-0.75-0.75-0.75h-6.366
			c-0.414,0-0.75,0.336-0.75,0.75v6.365C12.176,19.425,12.512,19.761,12.926,19.761z M13.676,13.396h4.866v4.865h-4.866V13.396z"/>
		<path fill="#6A6A6B" d="M28.079,16.6c0.414,0,0.75-0.336,0.75-0.75s-0.336-0.75-0.75-0.75h-2.718v-3.654h2.718
			c0.414,0,0.75-0.336,0.75-0.75s-0.336-0.75-0.75-0.75h-2.718v-2.62c0-0.414-0.336-0.75-0.75-0.75h-2.796V4.358
			c0-0.414-0.336-0.75-0.75-0.75s-0.75,0.336-0.75,0.75v2.217h-3.654V4.358c0-0.414-0.336-0.75-0.75-0.75s-0.75,0.336-0.75,0.75
			v2.217h-3.654V4.358c0-0.414-0.336-0.75-0.75-0.75s-0.75,0.336-0.75,0.75v2.217H7.606c-0.414,0-0.75,0.336-0.75,0.75v2.62H4.194
			c-0.414,0-0.75,0.336-0.75,0.75s0.336,0.75,0.75,0.75h2.662V15.1H4.194c-0.414,0-0.75,0.336-0.75,0.75s0.336,0.75,0.75,0.75h2.662
			v3.654H4.194c-0.414,0-0.75,0.336-0.75,0.75s0.336,0.75,0.75,0.75h2.662v2.577c0,0.414,0.336,0.75,0.75,0.75h2.401v2.43
			c0,0.414,0.336,0.75,0.75,0.75s0.75-0.336,0.75-0.75v-2.43h3.654v2.43c0,0.414,0.336,0.75,0.75,0.75s0.75-0.336,0.75-0.75v-2.43
			h3.654v2.43c0,0.414,0.336,0.75,0.75,0.75s0.75-0.336,0.75-0.75v-2.43h2.796c0.414,0,0.75-0.336,0.75-0.75v-2.577h2.718
			c0.414,0,0.75-0.336,0.75-0.75s-0.336-0.75-0.75-0.75h-2.718V16.6H28.079z M23.861,23.581H8.356V8.075h15.505V23.581z"/>
	</g>
</g>
<g id="METRICS_AND_KEYLINES">
</g>
<g id="Isolation_Mode">
</g>
<g id="filled">
</g>
</svg>
