<?xml version="1.0" encoding="utf-8"?>
<!-- Generator: Adobe Illustrator 26.0.2, SVG Export Plug-In . SVG Version: 6.00 Build 0)  -->
<svg version="1.2" baseProfile="tiny" xmlns="http://www.w3.org/2000/svg" xmlns:xlink="http://www.w3.org/1999/xlink" x="0px"
	 y="0px" viewBox="0 0 32 32" overflow="visible" xml:space="preserve">
<g id="Layer_1">
	<g>
		<path fill="#6A6A6B" d="M24.838,13.38c-1.447,0-2.62,1.173-2.62,2.62s1.173,2.62,2.62,2.62s2.62-1.173,2.62-2.62
			S26.285,13.38,24.838,13.38z"/>
		<path fill="#6A6A6B" d="M16,13.38c-1.447,0-2.62,1.173-2.62,2.62s1.173,2.62,2.62,2.62c1.447,0,2.62-1.173,2.62-2.62
			S17.447,13.38,16,13.38z"/>
		<path fill="#6A6A6B" d="M7.162,13.38c-1.447,0-2.62,1.173-2.62,2.62s1.173,2.62,2.62,2.62s2.62-1.173,2.62-2.62
			S8.608,13.38,7.162,13.38z"/>
	</g>
</g>
<g id="METRICS_AND_KEYLINES">
</g>
<g id="Isolation_Mode">
</g>
<g id="filled">
</g>
</svg>
