<?xml version="1.0" encoding="utf-8"?>
<!-- Generator: Adobe Illustrator 26.0.2, SVG Export Plug-In . SVG Version: 6.00 Build 0)  -->
<svg version="1.2" baseProfile="tiny" xmlns="http://www.w3.org/2000/svg" xmlns:xlink="http://www.w3.org/1999/xlink" x="0px"
	 y="0px" viewBox="0 0 32 32" overflow="visible" xml:space="preserve">
<g id="Layer_1">
	<g>
		<path fill="#6A6A6A" d="M29.416,22.257h-3.4v-6.403c0-0.406-0.33-0.736-0.736-0.736h-8.544V9.742h3.399
			c0.406,0,0.736-0.33,0.736-0.736v-8.27C20.871,0.33,20.541,0,20.135,0h-8.271c-0.406,0-0.736,0.33-0.736,0.736v8.27
			c0,0.406,0.33,0.736,0.736,0.736h3.4v5.376H6.719c-0.406,0-0.736,0.33-0.736,0.736v6.403H2.584c-0.406,0-0.736,0.33-0.736,0.736
			v8.271C1.848,31.67,2.178,32,2.584,32h8.27c0.406,0,0.736-0.33,0.736-0.736v-8.271c0-0.406-0.33-0.736-0.736-0.736H7.455V16.59
			h17.089v5.667h-3.399c-0.406,0-0.736,0.33-0.736,0.736v8.271c0,0.406,0.33,0.736,0.736,0.736h8.271
			c0.406,0,0.736-0.33,0.736-0.736v-8.271C30.152,22.587,29.822,22.257,29.416,22.257z M10.119,23.729v6.8H3.32v-6.8H10.119z
			 M12.6,8.27V1.471h6.799V8.27H12.6z M28.68,30.529h-6.799v-6.8h6.799V30.529z"/>
	</g>
</g>
<g id="METRICS_AND_KEYLINES">
</g>
<g id="Isolation_Mode">
</g>
<g id="filled">
</g>
</svg>
