<?xml version="1.0" encoding="utf-8"?>
<!-- Generator: Adobe Illustrator 26.0.2, SVG Export Plug-In . SVG Version: 6.00 Build 0)  -->
<svg version="1.2" baseProfile="tiny" xmlns="http://www.w3.org/2000/svg" xmlns:xlink="http://www.w3.org/1999/xlink" x="0px"
	 y="0px" viewBox="0 0 32 32" overflow="visible" xml:space="preserve">
<g id="Layer_1">
	<path d="M29.54,8.186l-5.725-5.725C22.809,1.454,21.471,0.9,20.048,0.9h-8.096c-1.423,0-2.761,0.554-3.768,1.561L2.46,8.186
		C1.454,9.191,0.9,10.529,0.9,11.952v8.096c0,1.423,0.554,2.761,1.561,3.767l5.724,5.725c1.007,1.007,2.345,1.561,3.768,1.561h8.096
		c1.423,0,2.761-0.554,3.767-1.561l5.725-5.725c1.006-1.006,1.561-2.344,1.561-3.767v-8.096C31.1,10.529,30.546,9.191,29.54,8.186z
		 M20.5,23.42c0.414,0,0.75,0.336,0.75,0.75s-0.336,0.75-0.75,0.75h-9c-0.414,0-0.75-0.336-0.75-0.75s0.336-0.75,0.75-0.75h3.75
		V8.58H11.5c-0.414,0-0.75-0.336-0.75-0.75s0.336-0.75,0.75-0.75h9c0.414,0,0.75,0.336,0.75,0.75s-0.336,0.75-0.75,0.75h-3.75v14.84
		H20.5z"/>
</g>
<g id="METRICS_AND_KEYLINES">
</g>
<g id="Isolation_Mode">
</g>
<g id="filled">
</g>
</svg>
