<?xml version="1.0" encoding="utf-8"?>
<!-- Generator: Adobe Illustrator 26.0.2, SVG Export Plug-In . SVG Version: 6.00 Build 0)  -->
<svg version="1.2" baseProfile="tiny" xmlns="http://www.w3.org/2000/svg" xmlns:xlink="http://www.w3.org/1999/xlink" x="0px"
	 y="0px" viewBox="0 0 32 32" overflow="visible" xml:space="preserve">
<g id="Layer_1">
	<g>
		<path d="M15.819,8.879h-2.386v6.376h2.386c1.515,0,2.748-1.43,2.748-3.188C18.567,10.309,17.334,8.879,15.819,8.879z"/>
		<path d="M29.31,8.377L23.623,2.69c-0.962-0.961-2.242-1.492-3.602-1.492h-8.042c-1.36,0-2.64,0.531-3.602,1.492L2.69,8.377
			c-0.961,0.962-1.492,2.242-1.492,3.602v8.042c0,1.36,0.531,2.64,1.492,3.602l5.687,5.687c0.962,0.961,2.242,1.492,3.602,1.492
			h8.042c1.36,0,2.64-0.531,3.602-1.492l5.687-5.687c0.961-0.962,1.492-2.242,1.492-3.602v-8.042
			C30.802,10.619,30.271,9.339,29.31,8.377z M15.819,16.745h-2.386v7.121c0,0.411-0.334,0.745-0.745,0.745
			c-0.411,0-0.745-0.334-0.745-0.745c0,0,0-15.661,0-15.731c0-0.411,0.334-0.745,0.745-0.745h3.131c2.337,0,4.238,2.098,4.238,4.678
			C20.057,14.647,18.156,16.745,15.819,16.745z"/>
	</g>
</g>
<g id="METRICS_AND_KEYLINES">
</g>
<g id="Isolation_Mode">
</g>
<g id="filled">
</g>
</svg>
