<?xml version="1.0" encoding="utf-8"?>
<!-- Generator: Adobe Illustrator 26.0.2, SVG Export Plug-In . SVG Version: 6.00 Build 0)  -->
<svg version="1.2" baseProfile="tiny" xmlns="http://www.w3.org/2000/svg" xmlns:xlink="http://www.w3.org/1999/xlink" x="0px"
	 y="0px" viewBox="0 0 32 32" overflow="visible" xml:space="preserve">
<g id="Layer_1">
	<g>
		<path fill="#6A6A6A" d="M31.284,6.558h-0.871V4.073c0-0.414-0.336-0.75-0.75-0.75h-6.1c-0.414,0-0.75,0.336-0.75,0.75v2.485h-2.4
			V4.073c0-0.414-0.336-0.75-0.75-0.75h-6.1c-0.414,0-0.75,0.336-0.75,0.75v2.485h-1.849V3.171c0-0.396-0.321-0.716-0.716-0.716
			H2.605c-0.396,0-0.716,0.321-0.716,0.716v3.387H0.716C0.321,6.558,0,6.879,0,7.274v21.555c0,0.396,0.321,0.716,0.716,0.716h30.567
			c0.396,0,0.716-0.321,0.716-0.716V7.274C32,6.879,31.679,6.558,31.284,6.558z M24.313,4.823h4.6v1.532h-4.6V4.823z M14.313,4.823
			h4.6v1.532h-4.6V4.823z M30.567,28.112H1.433V7.991h0.456h1.433V6.558v-2.67h6.209v2.67v1.433h1.433h19.604V28.112z"/>
		<path fill="#6A6A6A" d="M6.426,13.428c0,0.396,0.321,0.716,0.716,0.716h17.715c0.396,0,0.716-0.321,0.716-0.716
			s-0.321-0.716-0.716-0.716H7.143C6.747,12.711,6.426,13.032,6.426,13.428z"/>
		<path fill="#6A6A6A" d="M24.857,17.335H7.143c-0.396,0-0.716,0.321-0.716,0.716c0,0.396,0.321,0.716,0.716,0.716h17.715
			c0.396,0,0.716-0.321,0.716-0.716C25.574,17.656,25.253,17.335,24.857,17.335z"/>
		<path fill="#6A6A6A" d="M24.857,21.959H7.143c-0.396,0-0.716,0.321-0.716,0.716c0,0.396,0.321,0.716,0.716,0.716h17.715
			c0.396,0,0.716-0.321,0.716-0.716C25.574,22.28,25.253,21.959,24.857,21.959z"/>
	</g>
</g>
<g id="METRICS_AND_KEYLINES">
</g>
<g id="Isolation_Mode">
</g>
<g id="filled">
</g>
</svg>
