<?xml version="1.0" encoding="utf-8"?>
<!-- Generator: Adobe Illustrator 26.0.2, SVG Export Plug-In . SVG Version: 6.00 Build 0)  -->
<svg version="1.2" baseProfile="tiny" xmlns="http://www.w3.org/2000/svg" xmlns:xlink="http://www.w3.org/1999/xlink" x="0px"
	 y="0px" viewBox="0 0 32 32" overflow="visible" xml:space="preserve">
<g id="Layer_1">
	<g>
		<path fill="#6A6A6A" d="M16,0C7.178,0,0,7.177,0,16s7.178,16,16,16s16-7.177,16-16S24.822,0,16,0z M16,30.373
			C8.075,30.373,1.627,23.925,1.627,16S8.075,1.627,16,1.627S30.373,8.075,30.373,16S23.925,30.373,16,30.373z"/>
		<path fill-rule="evenodd" fill="#6A6A6A" d="M16.314,11.78h-0.757c-0.439,0-0.799,0.36-0.799,0.799v13.186
			c0,0.439,0.36,0.799,0.799,0.799h0.757c0.439,0,0.799-0.36,0.799-0.799V12.579C17.113,12.139,16.754,11.78,16.314,11.78z"/>
		<path fill-rule="evenodd" fill="#6A6A6A" d="M16,5.751c-0.91,0-1.648,0.738-1.648,1.648c0,0.91,0.738,1.648,1.648,1.648
			s1.648-0.738,1.648-1.648C17.648,6.489,16.91,5.751,16,5.751z"/>
	</g>
</g>
<g id="METRICS_AND_KEYLINES">
</g>
<g id="Isolation_Mode">
</g>
<g id="filled">
</g>
</svg>
