<?xml version="1.0" encoding="utf-8"?>
<!-- Generator: Adobe Illustrator 26.0.2, SVG Export Plug-In . SVG Version: 6.00 Build 0)  -->
<svg version="1.2" baseProfile="tiny" xmlns="http://www.w3.org/2000/svg" xmlns:xlink="http://www.w3.org/1999/xlink" x="0px"
	 y="0px" viewBox="0 0 32 32" overflow="visible" xml:space="preserve">
<g id="Layer_1">
	<g>
		<path fill="#6A6A6A" d="M27.701,5.459C24.718,2.148,20.453,0.25,16,0.25C7.315,0.25,0.25,7.315,0.25,16
			c0,4.416,1.871,8.656,5.134,11.635C8.29,30.288,12.061,31.75,16,31.75c0.414,0,0.75-0.336,0.75-0.75s-0.336-0.75-0.75-0.75
			c-3.564,0-6.976-1.322-9.604-3.723C3.443,23.832,1.75,19.995,1.75,16C1.75,8.143,8.143,1.75,16,1.75
			c4.029,0,7.888,1.718,10.588,4.713C28.949,9.083,30.25,12.47,30.25,16c0,0.414,0.336,0.75,0.75,0.75s0.75-0.336,0.75-0.75
			C31.75,12.098,30.312,8.354,27.701,5.459z"/>
		<path fill="#6A6A6A" d="M16.949,14.218c-0.004-0.005-0.006-0.011-0.01-0.016l-0.064-0.067c-0.038-0.042-0.075-0.086-0.117-0.123
			l-6.674-7.049c-0.288-0.305-0.763-0.34-1.094-0.08c-0.331,0.26-0.409,0.729-0.18,1.082l5.379,8.307
			c0.002,0.003,0.006,0.004,0.008,0.007c0.006,0.009,0.01,0.018,0.016,0.027c0.27,0.374,0.669,0.62,1.124,0.693
			c0.093,0.015,0.185,0.022,0.277,0.022c0.36,0,0.71-0.113,1.007-0.328c0.373-0.27,0.619-0.669,0.692-1.124
			c0.074-0.455-0.035-0.911-0.305-1.284C16.99,14.261,16.967,14.242,16.949,14.218z"/>
		<path fill="#6A6A6A" d="M6.598,22.378c-0.283-0.302-0.759-0.316-1.06-0.032c-0.302,0.284-0.316,0.759-0.032,1.06
			c2.698,2.866,6.347,4.608,10.275,4.906c0.02,0.001,0.038,0.002,0.058,0.002c0.389,0,0.717-0.3,0.747-0.693
			c0.031-0.413-0.278-0.773-0.691-0.805C12.341,26.547,9.039,24.971,6.598,22.378z"/>
		<path fill="#6A6A6A" d="M23.101,6.167c-0.299,0.287-0.309,0.762-0.021,1.061c2.444,2.544,3.852,5.889,3.963,9.416
			c0.014,0.406,0.347,0.727,0.75,0.727c0.008,0,0.016,0,0.023,0c0.414-0.014,0.739-0.359,0.727-0.773
			c-0.124-3.899-1.68-7.596-4.381-10.408C23.874,5.89,23.399,5.879,23.101,6.167z"/>
	</g>
</g>
<g id="METRICS_AND_KEYLINES">
</g>
<g id="Isolation_Mode">
</g>
<g id="filled">
</g>
</svg>
