<?xml version="1.0" encoding="utf-8"?>
<!-- Generator: Adobe Illustrator 26.0.0, SVG Export Plug-In . SVG Version: 6.00 Build 0)  -->
<svg version="1.2" baseProfile="tiny" xmlns="http://www.w3.org/2000/svg" xmlns:xlink="http://www.w3.org/1999/xlink" x="0px"
	 y="0px" viewBox="0 0 32 32" overflow="visible" xml:space="preserve">
<g id="Layer_1">
	<path fill="#6A6A6A" d="M26.627,14.533c0-1.519-1.236-2.755-2.754-2.755c-0.12,0-0.237,0.015-0.353,0.03
		c-0.182,0.024-0.361,0.06-0.531,0.118c-0.097,0.033-0.19,0.071-0.282,0.114c-0.096-0.335-0.258-0.641-0.465-0.911
		c-0.273-0.355-0.627-0.644-1.038-0.832c-0.349-0.16-0.735-0.251-1.142-0.251c-0.331,0-0.647,0.062-0.941,0.169
		c-0.042,0.015-0.082,0.036-0.124,0.053c-0.153,0.064-0.302,0.138-0.439,0.228c-0.062-0.103-0.133-0.274-0.207-0.367
		c-0.272-0.343-0.62-0.66-1.024-0.843c-0.345-0.156-0.727-0.245-1.13-0.245c-0.544,0-1.05,0.198-1.478,0.471l-0.025-6.726
		C14.689,1.249,13.437,0,11.9,0c-0.002,0-0.004,0-0.006,0C11.15,0.001,10.45,0.294,9.923,0.824c-0.528,0.53-0.817,1.231-0.815,1.975
		l0.019,8.751c-0.007,0.044-0.014,0.088-0.014,0.133v0.343c-0.004,0.031-0.009,0.062-0.009,0.094v0.963
		c-0.348-0.152-0.724-0.236-1.114-0.236c-1.539,0-2.796,1.259-2.792,2.799l0.011,5.16c-0.01,0.185-0.015,0.371-0.015,0.559
		C5.194,27.229,9.923,32,15.736,32c4.379,0,8.141-2.708,9.732-6.55c0.043-0.055,0.498-1.336,0.648-2.096
		c0.447-2.261,0.651-5.227,0.677-5.632C26.864,17.069,26.627,14.533,26.627,14.533z M25.121,17.615
		c-0.007,0.108-0.148,2.269-0.454,4.285c-0.059,0.387-0.123,0.769-0.194,1.129c-0.099,0.5-0.411,1.432-0.514,1.695
		c-0.014,0.028-0.026,0.057-0.038,0.086c-1.387,3.35-4.6,5.515-8.184,5.515c-4.889,0-8.867-4.019-8.867-8.96
		c0-0.153,0.004-0.312,0.012-0.473c0.002-0.03,0.002-0.06,0.002-0.09l-0.003-1.169c-0.007-0.05-0.015-0.1-0.015-0.152v-4.002
		c0-0.625,0.511-1.136,1.136-1.136c0.178,0,0.345,0.045,0.496,0.119c0.137,0.067,0.257,0.161,0.356,0.274
		c0.118,0.135,0.205,0.296,0.249,0.475v0.138h0.022c0.005,0.043,0.013,0.085,0.013,0.13v3.51c0.1,0.351,0.419,0.61,0.802,0.61
		c0.463,0,0.838-0.375,0.838-0.838v-5.523c0.004-0.05,0.009-0.1,0.009-0.15v-1.324c0.009-0.072,0.014-0.144,0.014-0.216
		l-0.019-8.751c-0.001-0.3,0.112-0.573,0.327-0.789c0.214-0.216,0.487-0.33,0.784-0.33H11.9c0.615,0,1.116,0.5,1.117,1.117
		l0.028,7.551c0.002,0.414,0.164,0.805,0.437,1.109c0.049,0.054,0.094,0.111,0.15,0.159c0.261,0.223,0.581,0.351,0.915,0.386
		c0.058,0.006,0.115,0.015,0.173,0.015c0.047,0,0.164-0.033,0.259-0.062c0.057-0.03,0.181-0.442,0.23-0.558
		c0.167-0.39,0.546-0.677,0.987-0.677c0.57,0,1.033,0.558,1.071,1.118c0.01,0,0.024,0.477,0.024,0.477
		c-0.001,0.076,0.011,0.148,0.029,0.218c0.093,0.365,0.42,0.64,0.814,0.645l0.098,0.001c0.298,0.003,0.563-0.149,0.718-0.381
		c0.015-0.023,0.027-0.048,0.041-0.073c0.063-0.117,0.246-0.62,0.344-0.711c0.191-0.178,0.445-0.289,0.727-0.289
		c0.479,0,0.881,0.316,1.021,0.748c0.032,0.012,0.081,1.207,0.081,1.207c-0.001,0.077,0.012,0.151,0.031,0.222
		c0.094,0.363,0.42,0.636,0.812,0.641l0.098,0.001c0.293,0.003,0.554-0.143,0.711-0.368c0,0,0.208-0.349,0.419-0.505
		c0.179-0.133,0.399-0.214,0.638-0.214c0.595,0,1.079,0.484,1.079,1.079C24.951,14.533,25.123,17.591,25.121,17.615z"/>
</g>
<g id="METRICS_AND_KEYLINES">
</g>
<g id="Isolation_Mode">
</g>
<g id="filled">
</g>
</svg>
