<?xml version="1.0" encoding="utf-8"?>
<!-- Generator: Adobe Illustrator 26.0.2, SVG Export Plug-In . SVG Version: 6.00 Build 0)  -->
<svg version="1.2" baseProfile="tiny" xmlns="http://www.w3.org/2000/svg" xmlns:xlink="http://www.w3.org/1999/xlink" x="0px"
	 y="0px" viewBox="0 0 32 32" overflow="visible" xml:space="preserve">
<g id="Layer_1">
	<g>
		<path fill="#6A6A6A" d="M31.063,2.833H0.937C0.419,2.833,0,3.252,0,3.77V28.23c0,0.517,0.419,0.937,0.937,0.937h30.127
			c0.517,0,0.937-0.419,0.937-0.937V3.77C32,3.252,31.581,2.833,31.063,2.833z M30.126,27.294H1.874V4.706h28.253V27.294z"/>
		<path fill="#6A6A6A" d="M6.446,22.434c0.175,0.183,0.404,0.274,0.633,0.274c0.229,0,0.458-0.091,0.633-0.274l3.267-3.418
			c0.35-0.366,0.35-0.959,0-1.325l-3.168-3.314c-0.349-0.366-0.917-0.366-1.266,0c-0.35,0.366-0.35,0.959,0,1.325l2.535,2.652
			l-2.634,2.755C6.096,21.475,6.096,22.068,6.446,22.434z"/>
		<path fill="#6A6A6A" d="M13.023,23.85h11.95c0.466,0,0.843-0.419,0.843-0.937c0-0.517-0.378-0.937-0.843-0.937h-11.95
			c-0.466,0-0.843,0.419-0.843,0.937C12.179,23.431,12.557,23.85,13.023,23.85z"/>
	</g>
</g>
<g id="METRICS_AND_KEYLINES">
</g>
<g id="Isolation_Mode">
</g>
<g id="filled">
</g>
</svg>
