<?xml version="1.0" encoding="utf-8"?>
<!-- Generator: Adobe Illustrator 26.0.2, SVG Export Plug-In . SVG Version: 6.00 Build 0)  -->
<svg version="1.2" baseProfile="tiny" xmlns="http://www.w3.org/2000/svg" xmlns:xlink="http://www.w3.org/1999/xlink" x="0px"
	 y="0px" viewBox="0 0 32 32" overflow="visible" xml:space="preserve">
<g id="Layer_1">
	<g>
		<path fill="#6A6A6B" d="M5.057,14.876c-0.652,0-1.181,0.529-1.181,1.181c0,0.652,0.529,1.181,1.181,1.181
			c0.652,0,1.181-0.529,1.181-1.181C6.237,15.405,5.709,14.876,5.057,14.876z"/>
		<path fill="#6A6A6B" d="M31.761,15.105l-2.893-3.23c-0.142-0.159-0.345-0.25-0.559-0.25H13.961
			c-1.384-1.976-3.674-3.273-6.265-3.273c-4.217,0-7.648,3.431-7.648,7.648s3.431,7.648,7.648,7.648
			c2.724,0,5.113-1.435,6.468-3.584l4.357,0.085c0.246-0.007,0.508-0.125,0.649-0.345l1.166-1.812l1.81,2.089
			c0.143,0.165,0.35,0.259,0.567,0.259c0.014,0,0.028,0,0.042-0.001c0.232-0.014,0.444-0.133,0.576-0.325l1.59-2.317l1.8,2.307
			c0.133,0.171,0.332,0.275,0.547,0.288c0.216,0.016,0.425-0.068,0.578-0.222l3.889-3.937C32.015,15.851,32.026,15.4,31.761,15.105z
			 M27.38,18.408l-1.906-2.442c-0.147-0.188-0.372-0.278-0.614-0.289c-0.239,0.008-0.46,0.129-0.596,0.326l-1.621,2.362l-1.83-2.112
			c-0.155-0.179-0.383-0.272-0.621-0.257c-0.235,0.017-0.449,0.144-0.577,0.343l-1.479,2.3l-3.248-0.062l-1.603-0.031
			c-0.232,0.508-0.528,0.98-0.883,1.402c-1.129,1.343-2.819,2.2-4.707,2.2c-3.39,0-6.148-2.758-6.148-6.148s2.758-6.148,6.148-6.148
			c1.806,0,3.428,0.787,4.554,2.031c0.34,0.376,0.638,0.791,0.878,1.242h1.652h13.195l2.199,2.455L27.38,18.408z"/>
	</g>
</g>
<g id="METRICS_AND_KEYLINES">
</g>
<g id="Isolation_Mode">
</g>
<g id="filled">
</g>
</svg>
