<?xml version="1.0" encoding="utf-8"?>
<!-- Generator: Adobe Illustrator 26.0.2, SVG Export Plug-In . SVG Version: 6.00 Build 0)  -->
<svg version="1.2" baseProfile="tiny" xmlns="http://www.w3.org/2000/svg" xmlns:xlink="http://www.w3.org/1999/xlink" x="0px"
	 y="0px" viewBox="0 0 32 32" overflow="visible" xml:space="preserve">
<g id="Layer_1">
	<g>
		<path fill="#6A6A6A" d="M1.438,4.247h29.124C31.356,4.247,32,3.603,32,2.809c0-0.794-0.644-1.438-1.438-1.438H1.438
			C0.644,1.371,0,2.014,0,2.809C0,3.603,0.644,4.247,1.438,4.247z"/>
		<path fill="#6A6A6A" d="M30.562,14.553H1.438C0.644,14.553,0,15.197,0,15.991c0,0.794,0.644,1.438,1.438,1.438h29.124
			c0.794,0,1.438-0.644,1.438-1.438C32,15.197,31.356,14.553,30.562,14.553z"/>
		<path fill="#6A6A6A" d="M30.562,27.753H1.438C0.644,27.753,0,28.397,0,29.191c0,0.794,0.644,1.438,1.438,1.438h29.124
			c0.794,0,1.438-0.644,1.438-1.438C32,28.397,31.356,27.753,30.562,27.753z"/>
	</g>
</g>
<g id="METRICS_AND_KEYLINES">
</g>
<g id="Isolation_Mode">
</g>
<g id="filled">
</g>
</svg>
