<?xml version="1.0" encoding="utf-8"?>
<!-- Generator: Adobe Illustrator 26.0.2, SVG Export Plug-In . SVG Version: 6.00 Build 0)  -->
<svg version="1.2" baseProfile="tiny" xmlns="http://www.w3.org/2000/svg" xmlns:xlink="http://www.w3.org/1999/xlink" x="0px"
	 y="0px" viewBox="0 0 32 32" overflow="visible" xml:space="preserve">
<g id="Layer_1">
	<g>
		<path fill="#6A6A6A" d="M31.691,28.461L19.292,16.916c0.636-0.931,1.114-1.979,1.377-3.111h-1.547
			c-0.915,3.254-3.902,5.65-7.446,5.65c-3.606,0-6.635-2.482-7.491-5.825H2.638c0.885,4.179,4.6,7.325,9.038,7.325
			c2.625,0,4.989-1.106,6.67-2.87l12.322,11.474c0.145,0.135,0.328,0.201,0.511,0.201c0.201,0,0.401-0.08,0.549-0.239
			C32.011,29.218,31.994,28.743,31.691,28.461z"/>
		<path fill="#6A6A6A" d="M11.676,3.974c3.426,0,6.335,2.24,7.351,5.331h1.559c-1.064-3.929-4.65-6.831-8.91-6.831
			c-4.197,0-7.744,2.816-8.866,6.656h1.578C5.456,6.131,8.316,3.974,11.676,3.974z"/>
		<path fill="#6A6A6A" d="M8.048,15.294c0.158,0.241,0.442,0.37,0.726,0.335c0.286-0.038,0.526-0.235,0.616-0.51l1.989-6.053
			l2.431,7.112c0.101,0.296,0.374,0.498,0.686,0.508c0.008,0,0.016,0,0.023,0c0.303,0,0.577-0.183,0.693-0.464l1.619-3.918h6.801
			c0.414,0,0.75-0.336,0.75-0.75s-0.336-0.75-0.75-0.75H16.33c-0.304,0-0.577,0.183-0.693,0.464l-1.051,2.543l-2.511-7.348
			c-0.104-0.304-0.389-0.508-0.709-0.508c-0.001,0-0.003,0-0.004,0c-0.322,0.002-0.607,0.21-0.708,0.516l-2.199,6.692l-1.425-2.193
			c-0.139-0.213-0.375-0.341-0.629-0.341H0.791c-0.414,0-0.75,0.336-0.75,0.75s0.336,0.75,0.75,0.75h5.201L8.048,15.294z"/>
	</g>
</g>
<g id="METRICS_AND_KEYLINES">
</g>
<g id="Isolation_Mode">
</g>
<g id="filled">
</g>
</svg>
