<?xml version="1.0" encoding="utf-8"?>
<!-- Generator: Adobe Illustrator 26.0.2, SVG Export Plug-In . SVG Version: 6.00 Build 0)  -->
<svg version="1.2" baseProfile="tiny" xmlns="http://www.w3.org/2000/svg" xmlns:xlink="http://www.w3.org/1999/xlink" x="0px"
	 y="0px" viewBox="0 0 32 32" overflow="visible" xml:space="preserve">
<g id="Layer_1">
	<g>
		<path d="M19.874,16c0-5.091-4.142-9.233-9.233-9.233S1.407,10.909,1.407,16s4.142,9.233,9.233,9.233S19.874,21.091,19.874,16z
			 M10.64,23.8c-4.301,0-7.8-3.499-7.8-7.8c0-4.301,3.499-7.8,7.8-7.8c4.301,0,7.8,3.499,7.8,7.8
			C18.441,20.301,14.942,23.8,10.64,23.8z"/>
		<path d="M30.383,17.452l-3.708-3.708V4.157c0-0.396-0.321-0.716-0.716-0.716h-9.861V0.716C16.097,0.321,15.777,0,15.381,0
			c-0.396,0-0.716,0.321-0.716,0.716v3.44c0,0.396,0.321,0.716,0.716,0.716h9.861v8.871l-3.708,3.708c-0.28,0.28-0.28,0.733,0,1.013
			c0.14,0.14,0.323,0.21,0.507,0.21c0.183,0,0.367-0.07,0.507-0.21l2.695-2.695v11.373h-9.861c-0.396,0-0.716,0.321-0.716,0.716
			v3.424c0,0.396,0.321,0.716,0.716,0.716c0.396,0,0.716-0.321,0.716-0.716v-2.707h9.861c0.396,0,0.716-0.321,0.716-0.716v-12.09
			l2.695,2.695c0.14,0.14,0.323,0.21,0.507,0.21s0.367-0.07,0.507-0.21C30.663,18.186,30.663,17.732,30.383,17.452z"/>
		<path d="M11.079,10.243H9.073c-0.396,0-0.716,0.321-0.716,0.716c0,0.045,0,0.209,0,0.254v9.826c0,0.396,0.321,0.716,0.716,0.716
			S9.79,21.436,9.79,21.04v-4.324h1.29c1.63,0,2.955-1.452,2.955-3.237C14.034,11.695,12.709,10.243,11.079,10.243z M11.079,15.284
			H9.79v-3.607h1.29c0.84,0,1.522,0.809,1.522,1.803C12.602,14.474,11.919,15.284,11.079,15.284z"/>
	</g>
</g>
<g id="METRICS_AND_KEYLINES">
</g>
<g id="Isolation_Mode">
</g>
<g id="filled">
</g>
</svg>
