<?xml version="1.0" encoding="utf-8"?>
<!-- Generator: Adobe Illustrator 22.1.0, SVG Export Plug-In . SVG Version: 6.00 Build 0)  -->
<svg version="1.2" baseProfile="tiny" id="Layer_1" xmlns="http://www.w3.org/2000/svg" xmlns:xlink="http://www.w3.org/1999/xlink"
	 x="0px" y="0px" viewBox="0 0 32 32" xml:space="preserve">
<path fill="#6A6A6A" d="M30.889,21.229h-4.76v-5.316c0-0.414-0.336-0.75-0.75-0.75H7.659v-4.741h4.974c0.414,0,0.75-0.336,0.75-0.75
	V1.056c0-0.414-0.336-0.75-0.75-0.75H1.248c-0.414,0-0.75,0.336-0.75,0.75v8.615c0,0.414,0.336,0.75,0.75,0.75h4.911v10.807H1.248
	c-0.414,0-0.75,0.336-0.75,0.75v8.615c0,0.414,0.336,0.75,0.75,0.75h11.385c0.414,0,0.75-0.336,0.75-0.75v-8.615
	c0-0.414-0.336-0.75-0.75-0.75H7.659v-4.566h16.97v4.566h-5.125c-0.414,0-0.75,0.336-0.75,0.75v8.615c0,0.414,0.336,0.75,0.75,0.75
	h11.385c0.414,0,0.75-0.336,0.75-0.75v-8.615C31.639,21.564,31.303,21.229,30.889,21.229z M1.998,1.806h9.885v7.115H1.998V1.806z
	 M11.883,29.844H1.998v-7.115h9.885V29.844z M30.139,29.844h-9.885v-7.115h9.885V29.844z"/>
</svg>
