<?xml version="1.0" encoding="utf-8"?>
<!-- Generator: Adobe Illustrator 26.0.2, SVG Export Plug-In . SVG Version: 6.00 Build 0)  -->
<svg version="1.2" baseProfile="tiny" xmlns="http://www.w3.org/2000/svg" xmlns:xlink="http://www.w3.org/1999/xlink" x="0px"
	 y="0px" viewBox="0 0 32 32" overflow="visible" xml:space="preserve">
<g id="Layer_1">
	<g>
		<path fill="#737374" d="M4.43,13.173c-1.243-3.539-0.82-6.205,1.289-7.925c1.324-1.08,2.679-1.495,4.131-1.273
			c2.473,0.381,4.603,2.547,5.697,3.869l1.013,1.273c0.227,0.286,0.664,0.278,0.881-0.016l1.003-1.36
			c1.117-1.329,3.198-3.395,5.609-3.766c1.455-0.224,2.806,0.192,4.131,1.273c2.202,1.796,2.554,4.631,1.1,8.41h1.61
			c1.445-4.149,0.852-7.441-1.761-9.572c-1.651-1.347-3.437-1.881-5.313-1.593c-3.182,0.492-5.733,3.257-6.867,4.696
			c-1.135-1.439-3.685-4.204-6.867-4.696c-1.877-0.29-3.663,0.245-5.313,1.593c-2.51,2.048-3.158,5.167-1.924,9.087H4.43z"/>
		<path fill="#737374" d="M24.311,21.026l-7.043,6.804l-0.013-0.01l-0.062,0.083l-0.242,0.234l-2.811-2.715
			c-0.539-0.218-0.98-0.639-1.219-1.177l-3.331-3.218c-0.026-0.025-0.047-0.052-0.073-0.077c-0.823-0.029-1.56-0.491-1.933-1.234
			l-1.021-2.042h-1.6c0.977,1.565,2.16,3.055,3.585,4.432l7.071,6.85c0.707,0.863,2.037,0.833,2.705-0.061l7.028-6.789
			c1.277-1.234,2.357-2.559,3.275-3.946h-1.816C26.08,19.155,25.253,20.117,24.311,21.026z"/>
		<path fill="#737374" d="M31.139,15.158H16.433c-0.358,0-0.667,0.254-0.736,0.605l-0.747,3.811l-2.526-12
			c-0.074-0.351-0.403-0.581-0.741-0.596c-0.357,0.004-0.663,0.259-0.729,0.609l-1.676,8.801l-0.65-1.301
			c-0.127-0.255-0.387-0.415-0.671-0.415H0.861c-0.414,0-0.75,0.336-0.75,0.75s0.336,0.75,0.75,0.75h6.631l1.436,2.871
			c0.144,0.288,0.454,0.454,0.774,0.408c0.318-0.044,0.574-0.287,0.634-0.603l1.391-7.306l2.516,11.95
			c0.073,0.348,0.379,0.596,0.734,0.596c0.001,0,0.003,0,0.005,0c0.356-0.003,0.662-0.256,0.73-0.605l1.338-6.826h14.089
			c0.414,0,0.75-0.336,0.75-0.75C31.889,15.494,31.553,15.158,31.139,15.158z"/>
	</g>
</g>
<g id="METRICS_AND_KEYLINES">
</g>
<g id="Isolation_Mode">
</g>
<g id="filled">
</g>
</svg>
