<?xml version="1.0" encoding="utf-8"?>
<!-- Generator: Adobe Illustrator 26.0.2, SVG Export Plug-In . SVG Version: 6.00 Build 0)  -->
<svg version="1.2" baseProfile="tiny" xmlns="http://www.w3.org/2000/svg" xmlns:xlink="http://www.w3.org/1999/xlink" x="0px"
	 y="0px" viewBox="0 0 32 32" overflow="visible" xml:space="preserve">
<g id="Layer_1">
	<g>
		<path fill="#6A6A6A" d="M29.179,25.113H0.812c-0.39,0-0.707,0.316-0.707,0.707c0,0.39,0.316,0.707,0.707,0.707h0.602v2.591
			c0,0.39,0.316,0.707,0.707,0.707s0.707-0.316,0.707-0.707v-2.591h24.237v2.591c0,0.39,0.316,0.707,0.707,0.707
			c0.39,0,0.707-0.316,0.707-0.707v-2.591h0.702c0.39,0,0.707-0.316,0.707-0.707C29.885,25.429,29.569,25.113,29.179,25.113z"/>
		<path fill="#6A6A6A" d="M31.267,2.177H20.598c-0.405,0-0.733,0.328-0.733,0.733v4.819c0,0.164,0.055,0.323,0.156,0.452
			l2.857,3.643h-0.415c-0.405,0-0.733,0.328-0.733,0.733v1.664l-5.172-6.986c-0.009-0.012-0.023-0.018-0.033-0.03
			c-0.667-0.916-1.739-1.519-2.957-1.519c-1.531,0-2.842,0.946-3.389,2.282c-0.003,0.007-0.008,0.012-0.011,0.019l-1.959,5.83
			c-0.723-1.19-2.02-1.993-3.511-1.993c-2.272,0-4.12,1.848-4.12,4.12c0,1.616,0.943,3.003,2.301,3.678H0.994H0.707
			C0.316,19.622,0,19.939,0,20.329c0,0.39,0.316,0.707,0.707,0.707h21.626c0.044,0.008,0.084,0.026,0.13,0.026h6.938
			c0.405,0,0.733-0.328,0.733-0.733v-7.772c0-0.405-0.328-0.733-0.733-0.733H28.85l2.994-3.817C31.945,7.879,32,7.719,32,7.555V2.91
			C32,2.505,31.672,2.177,31.267,2.177z M28.669,19.596h-5.473V13.29h5.473V19.596z M13.569,7.152c1.212,0,2.198,0.987,2.198,2.198
			s-0.986,2.198-2.198,2.198s-2.198-0.987-2.198-2.198c0-0.287,0.059-0.559,0.159-0.81l0.017-0.05
			C11.882,7.705,12.662,7.152,13.569,7.152z M2.044,15.944c0-1.464,1.191-2.655,2.655-2.655s2.655,1.191,2.655,2.655
			s-1.191,2.655-2.655,2.655S2.044,17.408,2.044,15.944z M14.995,19.622h-3.239H6.518c0.988-0.491,1.742-1.361,2.085-2.425
			c0.015-0.03,0.036-0.056,0.047-0.089l1.908-5.678c0.662,0.955,1.763,1.584,3.011,1.584c1.659,0,3.048-1.116,3.498-2.631l4.664,6.3
			v2.938h-2.83H14.995z M30.534,7.302L27.085,11.7h-2.441l-3.312-4.224V3.643h9.203V7.302z"/>
		<path fill="#6A6A6A" d="M5.629,15.944c0-0.514-0.417-0.931-0.931-0.931s-0.931,0.417-0.931,0.931s0.417,0.931,0.931,0.931
			S5.629,16.458,5.629,15.944z"/>
	</g>
</g>
<g id="METRICS_AND_KEYLINES">
</g>
<g id="Isolation_Mode">
</g>
<g id="filled">
</g>
</svg>
