<?xml version="1.0" encoding="utf-8"?>
<!-- Generator: Adobe Illustrator 26.0.2, SVG Export Plug-In . SVG Version: 6.00 Build 0)  -->
<svg version="1.2" baseProfile="tiny" xmlns="http://www.w3.org/2000/svg" xmlns:xlink="http://www.w3.org/1999/xlink" x="0px"
	 y="0px" viewBox="0 0 32 32" overflow="visible" xml:space="preserve">
<g id="Layer_1">
	<g>
		<path fill="none" d="M25.526,6.682c0.329-0.238,0.488-0.62,0.488-1.169c0-0.487-0.149-0.836-0.457-1.065
			c-0.325-0.243-0.858-0.366-1.584-0.366H23.11v2.98h0.646C24.582,7.062,25.177,6.934,25.526,6.682z"/>
		<path fill="none" d="M7.409,10.539c0.878,0,1.518-0.263,1.956-0.804c0.445-0.55,0.671-1.386,0.671-2.485
			c0-1.088-0.225-1.917-0.668-2.465C8.932,4.246,8.295,3.984,7.421,3.984c-0.879,0-1.524,0.265-1.972,0.809
			C4.995,5.344,4.765,6.17,4.765,7.25c0,1.095,0.23,1.93,0.684,2.48C5.897,10.274,6.539,10.539,7.409,10.539z"/>
		<path fill="none" d="M1.563,30.441h11.579V18.979H1.563V30.441z M2.86,20.427c0-0.138,0.112-0.25,0.25-0.25h1.5
			c0.104,0,0.196,0.063,0.233,0.16l2.504,6.522l2.526-6.522c0.037-0.097,0.13-0.16,0.233-0.16h1.488c0.138,0,0.25,0.112,0.25,0.25
			v8.566c0,0.138-0.112,0.25-0.25,0.25h-0.996c-0.138,0-0.25-0.112-0.25-0.25v-5.52c0-0.211,0.003-0.43,0.009-0.654l-2.42,6.264
			c-0.038,0.097-0.13,0.16-0.233,0.16H6.901c-0.104,0-0.196-0.063-0.233-0.16l-2.395-6.259c0.005,0.23,0.007,0.471,0.007,0.72v5.449
			c0,0.138-0.112,0.25-0.25,0.25H3.11c-0.138,0-0.25-0.112-0.25-0.25V20.427z"/>
		<path fill="none" d="M1.563,12.984h11.675V1.521H1.563V12.984z M4.305,3.828c0.733-0.819,1.782-1.234,3.116-1.234
			c1.299,0,2.333,0.423,3.07,1.256c0.73,0.825,1.1,1.969,1.1,3.4c0,1.428-0.371,2.571-1.103,3.399
			c-0.74,0.838-1.776,1.263-3.079,1.263c-1.331,0-2.376-0.418-3.108-1.241C3.577,9.855,3.21,8.701,3.21,7.238
			C3.21,5.787,3.579,4.64,4.305,3.828z"/>
		<path fill="none" d="M18.742,12.984h11.675V1.521H18.742V12.984z M21.614,2.97c0-0.138,0.112-0.25,0.25-0.25h2.221
			c2.86,0,3.461,1.493,3.461,2.746c0,0.943-0.331,1.683-0.983,2.197c-0.634,0.5-1.541,0.754-2.695,0.754H23.11v3.119
			c0,0.138-0.112,0.25-0.25,0.25h-0.996c-0.138,0-0.25-0.112-0.25-0.25V2.97z"/>
		<path fill="#696969" d="M13.988,0.021H0.813c-0.414,0-0.75,0.336-0.75,0.75v12.963c0,0.414,0.336,0.75,0.75,0.75h13.175
			c0.414,0,0.75-0.336,0.75-0.75V0.771C14.738,0.357,14.402,0.021,13.988,0.021z M13.238,12.984H1.563V1.521h11.675V12.984z"/>
		<path fill="#696969" d="M31.167,0.021H17.992c-0.414,0-0.75,0.336-0.75,0.75v12.963c0,0.414,0.336,0.75,0.75,0.75h13.175
			c0.414,0,0.75-0.336,0.75-0.75V0.771C31.917,0.357,31.581,0.021,31.167,0.021z M30.417,12.984H18.742V1.521h11.675V12.984z"/>
		<path fill="#696969" d="M13.892,17.479H0.813c-0.414,0-0.75,0.336-0.75,0.75v12.962c0,0.414,0.336,0.75,0.75,0.75h13.079
			c0.414,0,0.75-0.336,0.75-0.75V18.229C14.642,17.815,14.306,17.479,13.892,17.479z M13.142,30.441H1.563V18.979h11.579V30.441z"/>
		<path fill="#696969" d="M7.409,11.912c1.303,0,2.339-0.425,3.079-1.263c0.731-0.828,1.103-1.972,1.103-3.399
			c0-1.432-0.37-2.575-1.1-3.4C9.754,3.017,8.72,2.594,7.421,2.594c-1.334,0-2.382,0.415-3.116,1.234
			C3.579,4.64,3.21,5.787,3.21,7.238c0,1.463,0.367,2.617,1.091,3.433C5.033,11.494,6.079,11.912,7.409,11.912z M5.449,4.793
			c0.448-0.544,1.093-0.809,1.972-0.809c0.874,0,1.511,0.262,1.947,0.801c0.443,0.548,0.668,1.377,0.668,2.465
			c0,1.1-0.226,1.936-0.671,2.485c-0.438,0.541-1.078,0.804-1.956,0.804c-0.871,0-1.512-0.265-1.96-0.809
			C4.995,9.18,4.765,8.345,4.765,7.25C4.765,6.17,4.995,5.344,5.449,4.793z"/>
		<path fill="#696969" d="M3.11,29.244h0.92c0.138,0,0.25-0.112,0.25-0.25v-5.449c0-0.249-0.002-0.489-0.007-0.72l2.395,6.259
			c0.037,0.097,0.13,0.16,0.233,0.16h0.803c0.104,0,0.196-0.063,0.233-0.16l2.42-6.264c-0.006,0.225-0.009,0.443-0.009,0.654v5.52
			c0,0.138,0.112,0.25,0.25,0.25h0.996c0.138,0,0.25-0.112,0.25-0.25v-8.566c0-0.138-0.112-0.25-0.25-0.25h-1.488
			c-0.103,0-0.196,0.063-0.233,0.16L7.348,26.86l-2.504-6.522c-0.037-0.097-0.13-0.16-0.233-0.16h-1.5
			c-0.138,0-0.25,0.112-0.25,0.25v8.566C2.86,29.131,2.972,29.244,3.11,29.244z"/>
		<path fill="#696969" d="M21.864,11.786h0.996c0.138,0,0.25-0.112,0.25-0.25V8.417h0.758c1.154,0,2.061-0.254,2.695-0.754
			c0.652-0.515,0.983-1.254,0.983-2.197c0-1.253-0.601-2.746-3.461-2.746h-2.221c-0.138,0-0.25,0.112-0.25,0.25v8.566
			C21.614,11.674,21.726,11.786,21.864,11.786z M23.11,4.081h0.863c0.727,0,1.26,0.123,1.584,0.366
			c0.307,0.229,0.457,0.578,0.457,1.065c0,0.549-0.16,0.931-0.488,1.169c-0.349,0.252-0.944,0.38-1.77,0.38H23.11V4.081z"/>
		<path fill="#696969" d="M21.28,23.792c-0.259,0-0.463,0.082-0.606,0.244c-0.139,0.158-0.21,0.386-0.21,0.678
			c0,0.315,0.079,0.551,0.236,0.697c0.154,0.146,0.35,0.219,0.581,0.219c0.257,0,0.465-0.082,0.618-0.244
			c0.151-0.16,0.228-0.386,0.228-0.672c0-0.293-0.076-0.522-0.225-0.681C21.75,23.873,21.541,23.792,21.28,23.792z"/>
		<path fill="#696969" d="M24.678,23.792c-0.259,0-0.463,0.082-0.606,0.244c-0.139,0.158-0.21,0.386-0.21,0.678
			c0,0.315,0.079,0.551,0.236,0.697c0.154,0.146,0.35,0.219,0.581,0.219c0.257,0,0.465-0.082,0.618-0.244
			c0.151-0.16,0.228-0.386,0.228-0.672c0-0.293-0.076-0.522-0.225-0.681C25.148,23.873,24.939,23.792,24.678,23.792z"/>
		<path fill="#696969" d="M28.075,23.792c-0.259,0-0.463,0.082-0.606,0.244c-0.139,0.158-0.21,0.386-0.21,0.678
			c0,0.315,0.079,0.551,0.236,0.697c0.154,0.146,0.35,0.219,0.581,0.219c0.257,0,0.465-0.082,0.618-0.244
			c0.151-0.16,0.228-0.386,0.228-0.672c0-0.293-0.076-0.522-0.225-0.681C28.545,23.873,28.336,23.792,28.075,23.792z"/>
	</g>
</g>
<g id="METRICS_AND_KEYLINES">
</g>
<g id="Isolation_Mode">
</g>
<g id="filled">
</g>
</svg>
