<?xml version="1.0" encoding="utf-8"?>
<!-- Generator: Adobe Illustrator 26.0.2, SVG Export Plug-In . SVG Version: 6.00 Build 0)  -->
<svg version="1.2" baseProfile="tiny" xmlns="http://www.w3.org/2000/svg" xmlns:xlink="http://www.w3.org/1999/xlink" x="0px"
	 y="0px" viewBox="0 0 32 32" overflow="visible" xml:space="preserve">
<g id="Layer_1">
	<g>
		<path fill="#6A6A6A" d="M9.785,15.606l5.455-8.063c0.248-0.366,0.152-0.863-0.214-1.111c-0.366-0.247-0.863-0.152-1.111,0.214
			L8.17,15.137c-0.176,0.261-0.184,0.6-0.018,0.868l5.745,9.32c0.151,0.245,0.413,0.38,0.682,0.38c0.143,0,0.288-0.038,0.419-0.119
			c0.376-0.232,0.493-0.725,0.261-1.101L9.785,15.606z"/>
		<path fill="#6A6A6A" d="M23.848,24.486l-5.474-8.88l5.455-8.063c0.248-0.366,0.152-0.863-0.214-1.111
			c-0.366-0.247-0.863-0.152-1.111,0.214l-5.745,8.491c-0.176,0.261-0.184,0.6-0.018,0.868l5.745,9.32
			c0.151,0.245,0.413,0.38,0.682,0.38c0.143,0,0.288-0.038,0.419-0.119C23.963,25.354,24.08,24.862,23.848,24.486z"/>
	</g>
</g>
<g id="METRICS_AND_KEYLINES">
</g>
<g id="Isolation_Mode">
</g>
<g id="filled">
</g>
</svg>
