<?xml version="1.0" encoding="utf-8"?>
<!-- Generator: Adobe Illustrator 26.0.2, SVG Export Plug-In . SVG Version: 6.00 Build 0)  -->
<svg version="1.2" baseProfile="tiny" xmlns="http://www.w3.org/2000/svg" xmlns:xlink="http://www.w3.org/1999/xlink" x="0px"
	 y="0px" viewBox="0 0 32 32" overflow="visible" xml:space="preserve">
<g id="Layer_1">
	<g>
		<path fill="#6A6A6A" d="M29.836,0.031H2.344c-0.414,0-0.75,0.336-0.75,0.75v30.468c0,0.414,0.336,0.75,0.75,0.75h27.493
			c0.414,0,0.75-0.336,0.75-0.75V0.781C30.586,0.367,30.25,0.031,29.836,0.031z M29.086,30.499H3.094V1.531h25.993V30.499z"/>
		<path fill="#6A6A6A" d="M9.489,8.856h3.787c0.414,0,0.75-0.336,0.75-0.75s-0.336-0.75-0.75-0.75H9.489
			c-0.414,0-0.75,0.336-0.75,0.75S9.075,8.856,9.489,8.856z"/>
		<path fill="#6A6A6A" d="M9.489,16.267h3.787c0.414,0,0.75-0.336,0.75-0.75s-0.336-0.75-0.75-0.75H9.489
			c-0.414,0-0.75,0.336-0.75,0.75S9.075,16.267,9.489,16.267z"/>
		<path fill="#6A6A6A" d="M9.489,23.678h3.787c0.414,0,0.75-0.336,0.75-0.75s-0.336-0.75-0.75-0.75H9.489
			c-0.414,0-0.75,0.336-0.75,0.75S9.075,23.678,9.489,23.678z"/>
		<path fill="#6A6A6A" d="M18.587,8.856h3.788c0.414,0,0.75-0.336,0.75-0.75s-0.336-0.75-0.75-0.75h-3.788
			c-0.414,0-0.75,0.336-0.75,0.75S18.173,8.856,18.587,8.856z"/>
		<path fill="#6A6A6A" d="M18.587,16.267h3.788c0.414,0,0.75-0.336,0.75-0.75s-0.336-0.75-0.75-0.75h-3.788
			c-0.414,0-0.75,0.336-0.75,0.75S18.173,16.267,18.587,16.267z"/>
		<path fill="#6A6A6A" d="M18.587,23.678h3.788c0.414,0,0.75-0.336,0.75-0.75s-0.336-0.75-0.75-0.75h-3.788
			c-0.414,0-0.75,0.336-0.75,0.75S18.173,23.678,18.587,23.678z"/>
	</g>
</g>
<g id="METRICS_AND_KEYLINES">
</g>
<g id="Isolation_Mode">
</g>
<g id="filled">
</g>
</svg>
