<?xml version="1.0" encoding="utf-8"?>
<!-- Generator: Adobe Illustrator 26.0.2, SVG Export Plug-In . SVG Version: 6.00 Build 0)  -->
<svg version="1.2" baseProfile="tiny" xmlns="http://www.w3.org/2000/svg" xmlns:xlink="http://www.w3.org/1999/xlink" x="0px"
	 y="0px" viewBox="0 0 32 32" overflow="visible" xml:space="preserve">
<g id="Layer_1">
	<g>
		<path d="M19.874,24.517V7.483c0-0.396-0.321-0.716-0.716-0.716H2.124c-0.396,0-0.716,0.321-0.716,0.716v17.034
			c0,0.396,0.321,0.716,0.716,0.716h17.034C19.553,25.233,19.874,24.912,19.874,24.517z M18.441,23.8H2.841V8.2h15.601V23.8z"/>
		<path d="M30.382,17.452l-3.707-3.708V4.157c0-0.396-0.321-0.716-0.716-0.716h-9.861V0.716C16.098,0.321,15.777,0,15.382,0
			s-0.716,0.321-0.716,0.716v3.44c0,0.396,0.321,0.716,0.716,0.716h9.861v8.871l-3.708,3.708c-0.28,0.28-0.28,0.733,0,1.013
			c0.14,0.14,0.323,0.21,0.507,0.21c0.184,0,0.367-0.07,0.507-0.21l2.695-2.695v11.373h-9.861c-0.396,0-0.716,0.321-0.716,0.716
			v3.424c0,0.396,0.321,0.716,0.716,0.716s0.716-0.321,0.716-0.716v-2.707h9.861c0.396,0,0.716-0.321,0.716-0.716V15.771
			l2.694,2.695c0.14,0.14,0.323,0.21,0.507,0.21c0.183,0,0.367-0.07,0.507-0.21C30.662,18.186,30.662,17.732,30.382,17.452z"/>
		<path d="M8.518,21.757c0.396,0,0.716-0.321,0.716-0.716v-4.324h1.29c1.63,0,2.955-1.452,2.955-3.237
			c0-1.785-1.326-3.236-2.955-3.236H8.518c-0.396,0-0.716,0.321-0.716,0.716c0,0.045,0,10.08,0,10.08
			C7.801,21.436,8.122,21.757,8.518,21.757z M12.047,13.479c0,0.994-0.683,1.804-1.522,1.804h-1.29v-3.607h1.29
			C11.364,11.676,12.047,12.485,12.047,13.479z"/>
	</g>
</g>
<g id="METRICS_AND_KEYLINES">
</g>
<g id="Isolation_Mode">
</g>
<g id="filled">
</g>
</svg>
