<?xml version="1.0" encoding="utf-8"?>
<!-- Generator: Adobe Illustrator 26.0.2, SVG Export Plug-In . SVG Version: 6.00 Build 0)  -->
<svg version="1.2" baseProfile="tiny" xmlns="http://www.w3.org/2000/svg" xmlns:xlink="http://www.w3.org/1999/xlink" x="0px"
	 y="0px" viewBox="0 0 32 32" overflow="visible" xml:space="preserve">
<g id="Layer_1">
	<g>
		<path fill="#6A6A6A" d="M16,0.25C7.315,0.25,0.25,7.315,0.25,16S7.315,31.75,16,31.75S31.75,24.685,31.75,16S24.685,0.25,16,0.25z
			 M16,30.25C8.143,30.25,1.75,23.857,1.75,16S8.143,1.75,16,1.75S30.25,8.143,30.25,16S23.857,30.25,16,30.25z"/>
		<rect x="5.334" y="11.233" fill="#6A6A6A" width="3.457" height="9.533"/>
		<rect x="9.814" y="11.233" fill="#6A6A6A" width="3.457" height="9.533"/>
		<rect x="14.459" y="11.233" fill="#6A6A6A" width="3.457" height="9.533"/>
		<rect x="18.939" y="11.233" fill="#6A6A6A" width="3.457" height="9.533"/>
		<rect x="23.396" y="11.233" fill="#6A6A6A" width="3.457" height="9.533"/>
	</g>
</g>
<g id="METRICS_AND_KEYLINES">
</g>
<g id="Isolation_Mode">
</g>
<g id="filled">
</g>
</svg>
