<?xml version="1.0" encoding="utf-8"?>
<!-- Generator: Adobe Illustrator 26.0.2, SVG Export Plug-In . SVG Version: 6.00 Build 0)  -->
<svg version="1.2" baseProfile="tiny" xmlns="http://www.w3.org/2000/svg" xmlns:xlink="http://www.w3.org/1999/xlink" x="0px"
	 y="0px" viewBox="0 0 42.5 32" overflow="visible" xml:space="preserve">
<g id="Layer_1">
	<g>
		<path fill="#EBEBEB" d="M31.76,6.5H2.833v19H31.76l7.6-9.5L31.76,6.5z"/>
		<path fill="#A7A9AC" d="M32.24,5.5H1.833v21H32.24l8.4-10.5L32.24,5.5z M2.833,25.5v-19H31.76l7.6,9.5l-7.6,9.5H2.833z"/>
		<path fill="#6A6A6A" d="M20.279,14.879c0.256-0.125,0.472-0.289,0.645-0.491c0.322-0.375,0.485-0.853,0.485-1.419
			c0-0.819-0.294-1.432-0.873-1.819c-0.555-0.372-1.407-0.552-2.605-0.552h-2.67v9.066h3.238c0.985,0,1.77-0.236,2.331-0.702
			c0.574-0.478,0.866-1.146,0.866-1.985C21.696,16.235,21.431,15.329,20.279,14.879z M19.52,13.981
			c-0.264,0.188-0.726,0.284-1.372,0.284h-1.391v-2.307h1.215c0.699,0,1.207,0.095,1.509,0.282c0.268,0.166,0.397,0.437,0.397,0.828
			C19.878,13.51,19.761,13.809,19.52,13.981z M16.757,15.609h1.455c0.675,0,1.176,0.111,1.488,0.33
			c0.289,0.202,0.43,0.518,0.43,0.967c0,0.493-0.14,0.839-0.427,1.058c-0.303,0.232-0.777,0.35-1.409,0.35h-1.537V15.609z"/>
	</g>
</g>
<g id="METRICS_AND_KEYLINES">
</g>
<g id="Isolation_Mode">
</g>
<g id="filled">
</g>
</svg>
