<?xml version="1.0" encoding="utf-8"?>
<!-- Generator: Adobe Illustrator 26.0.2, SVG Export Plug-In . SVG Version: 6.00 Build 0)  -->
<svg version="1.2" baseProfile="tiny" xmlns="http://www.w3.org/2000/svg" xmlns:xlink="http://www.w3.org/1999/xlink" x="0px"
	 y="0px" viewBox="0 0 42.5 32" overflow="visible" xml:space="preserve">
<g id="Layer_1">
	<g>
		<path fill="#EBEBEB" d="M31.76,6.5H2.833v19H31.76l7.6-9.5L31.76,6.5z"/>
		<path fill="#A7A9AC" d="M32.24,5.5H1.833v21H32.24l8.4-10.5L32.24,5.5z M2.833,25.5v-19H31.76l7.6,9.5l-7.6,9.5H2.833z"/>
		<path fill="#6A6A6A" d="M17.109,17.566c-0.482-0.562-0.728-1.381-0.728-2.436c0-1.023,0.254-1.834,0.756-2.411
			c0.5-0.575,1.167-0.854,2.041-0.854c0.608,0,1.228,0.146,1.839,0.433l0.222,0.104l0.642-1.301l-0.226-0.11
			c-0.703-0.343-1.532-0.518-2.465-0.518c-0.884,0-1.666,0.192-2.325,0.572c-0.663,0.383-1.178,0.935-1.528,1.641
			c-0.346,0.696-0.521,1.514-0.521,2.432c0,1.467,0.367,2.621,1.092,3.431c0.732,0.817,1.777,1.231,3.107,1.231
			c0.897,0,1.666-0.118,2.285-0.35l0.162-0.061v-1.376l-0.317,0.089C19.234,18.619,17.894,18.479,17.109,17.566z"/>
	</g>
</g>
<g id="METRICS_AND_KEYLINES">
</g>
<g id="Isolation_Mode">
</g>
<g id="filled">
</g>
</svg>
