<?xml version="1.0" encoding="utf-8"?>
<!-- Generator: Adobe Illustrator 26.0.2, SVG Export Plug-In . SVG Version: 6.00 Build 0)  -->
<svg version="1.2" baseProfile="tiny" xmlns="http://www.w3.org/2000/svg" xmlns:xlink="http://www.w3.org/1999/xlink" x="0px"
	 y="0px" viewBox="0 0 38.5 32" overflow="visible" xml:space="preserve">
<g id="Layer_1">
	<g>
		<path fill="#A7A9AC" d="M1.83,8.84V26.5h34.32V8.84H1.83z M35.15,25.5H2.83V9.84h32.32V25.5z"/>
		<path fill="#EBEBEB" d="M2.83,25.5h32.32V9.84H2.83V25.5z M28.908,13.025l0.073,0.113c0.595,0.913,0.896,1.94,0.896,3.056
			c0,1.144-0.249,2.216-0.739,3.186c-0.486,0.964-1.261,1.907-2.301,2.803l-0.07,0.061h-1.646l0.469-0.434
			c1.875-1.735,2.826-3.625,2.826-5.615c0-1.064-0.213-2.006-0.633-2.802l-0.194-0.367H28.908z M23.99,16.646l1.764-1.834h1.853
			l-2.966,2.927l1.587,2.923h-1.555l-1.033-1.946l-1.862,1.946h-1.856l3.082-3.054l-1.511-2.796h1.568L23.99,16.646z M18.5,15.912
			c0.481-0.962,1.259-1.913,2.31-2.825l0.07-0.061h1.657l-0.475,0.435c-0.935,0.854-1.648,1.766-2.122,2.71
			c-0.471,0.936-0.709,1.914-0.709,2.904c0,1.057,0.215,2,0.639,2.802l0.194,0.367h-1.316l-0.074-0.112
			c-0.6-0.903-0.903-1.929-0.903-3.047C17.771,17.947,18.016,16.879,18.5,15.912z"/>
		<path fill="#6A6A6A" d="M18.748,22.243h1.316l-0.194-0.367c-0.424-0.803-0.639-1.745-0.639-2.802c0-0.991,0.238-1.968,0.709-2.904
			c0.474-0.944,1.188-1.856,2.122-2.71l0.475-0.435H20.88l-0.07,0.061c-1.051,0.912-1.828,1.863-2.31,2.825
			c-0.484,0.968-0.729,2.035-0.729,3.172c0,1.119,0.304,2.144,0.903,3.047L18.748,22.243z"/>
		<polygon fill="#6A6A6A" points="23.003,17.608 19.921,20.662 21.777,20.662 23.64,18.716 24.673,20.662 26.228,20.662 
			24.641,17.739 27.606,14.812 25.754,14.812 23.99,16.646 23.061,14.812 21.492,14.812 		"/>
		<path fill="#6A6A6A" d="M28.417,16.194c0,1.991-0.951,3.88-2.826,5.615l-0.469,0.434h1.646l0.07-0.061
			c1.04-0.896,1.814-1.839,2.301-2.803c0.49-0.97,0.739-2.042,0.739-3.186c0-1.115-0.302-2.143-0.896-3.056l-0.073-0.113H27.59
			l0.194,0.367C28.204,14.188,28.417,15.13,28.417,16.194z"/>
	</g>
	<g>
		<path fill="#6A6A6A" d="M16.054,12.986c-0.144-0.062-0.333-0.117-0.579-0.166c-0.245-0.049-0.449-0.072-0.623-0.072
			c-0.691,0-1.228,0.188-1.593,0.558c-0.355,0.359-0.621,0.94-0.812,1.775l-0.104,0.447l-1.212,0.389l-0.162,0.835h1.126
			L11.12,21.41h1.433l1.037-4.658h1.392l0.244-1.244h-1.384l0.076-0.328c0.128-0.568,0.276-0.815,0.379-0.922
			c0.235-0.246,0.697-0.289,1.315-0.054l0.243,0.093l0.407-1.22L16.054,12.986z"/>
	</g>
</g>
<g id="METRICS_AND_KEYLINES">
</g>
<g id="Isolation_Mode">
</g>
<g id="filled">
</g>
</svg>
