<?xml version="1.0" encoding="utf-8"?>
<!-- Generator: Adobe Illustrator 26.0.2, SVG Export Plug-In . SVG Version: 6.00 Build 0)  -->
<svg version="1.2" baseProfile="tiny" xmlns="http://www.w3.org/2000/svg" xmlns:xlink="http://www.w3.org/1999/xlink" x="0px"
	 y="0px" viewBox="0 0 32 32" overflow="visible" xml:space="preserve">
<g id="Layer_1">
	<g>
		<path fill="#EBEBEB" d="M6.5,25.771h19v-19h-19V25.771z M9.25,13.724c-0.414,0-0.75-0.336-0.75-0.75s0.336-0.75,0.75-0.75h8.891
			l2.362-3.32c0.241-0.338,0.709-0.417,1.046-0.177c0.338,0.24,0.417,0.708,0.177,1.046l-1.744,2.451h2.768
			c0.414,0,0.75,0.336,0.75,0.75s-0.336,0.75-0.75,0.75h-3.835l-3.009,4.229h6.844c0.414,0,0.75,0.336,0.75,0.75
			s-0.336,0.75-0.75,0.75h-7.912l-2.977,4.185c-0.146,0.206-0.378,0.315-0.612,0.315c-0.15,0-0.302-0.045-0.434-0.139
			c-0.338-0.24-0.417-0.708-0.177-1.046l2.359-3.315H9.25c-0.414,0-0.75-0.336-0.75-0.75s0.336-0.75,0.75-0.75h4.815l3.009-4.229
			H9.25z"/>
		<path fill="#A7A9AC" d="M5.5,5.771v21h21v-21H5.5z M25.5,25.771h-19v-19h19V25.771z"/>
		<path fill="#6A6A6A" d="M9.25,17.953c-0.414,0-0.75,0.336-0.75,0.75s0.336,0.75,0.75,0.75h3.748l-2.359,3.315
			c-0.24,0.337-0.161,0.806,0.177,1.046c0.132,0.094,0.283,0.139,0.434,0.139c0.234,0,0.466-0.109,0.612-0.315l2.977-4.185h7.912
			c0.414,0,0.75-0.336,0.75-0.75s-0.336-0.75-0.75-0.75h-6.844l3.009-4.229h3.835c0.414,0,0.75-0.336,0.75-0.75
			s-0.336-0.75-0.75-0.75h-2.768l1.744-2.451c0.24-0.337,0.161-0.806-0.177-1.046c-0.337-0.24-0.805-0.162-1.046,0.177l-2.362,3.32
			H9.25c-0.414,0-0.75,0.336-0.75,0.75s0.336,0.75,0.75,0.75h7.823l-3.009,4.229H9.25z"/>
	</g>
</g>
<g id="METRICS_AND_KEYLINES">
</g>
<g id="Isolation_Mode">
</g>
<g id="filled">
</g>
</svg>
