<?xml version="1.0" encoding="utf-8"?>
<!-- Generator: Adobe Illustrator 26.0.2, SVG Export Plug-In . SVG Version: 6.00 Build 0)  -->
<svg version="1.2" baseProfile="tiny" xmlns="http://www.w3.org/2000/svg" xmlns:xlink="http://www.w3.org/1999/xlink" x="0px"
	 y="0px" viewBox="0 0 32 32" overflow="visible" xml:space="preserve">
<g id="Layer_1">
	<g>
		<path fill="#EBEBEB" d="M15.922,20.029c0.551,0,0.938-0.238,1.186-0.727c0.272-0.538,0.41-1.412,0.41-2.597
			s-0.138-2.057-0.409-2.591c-0.247-0.486-0.635-0.722-1.187-0.722c-0.544,0-0.93,0.233-1.179,0.712
			c-0.272,0.526-0.411,1.401-0.411,2.601c0,1.2,0.139,2.077,0.412,2.607C14.992,19.795,15.378,20.029,15.922,20.029z"/>
		<path fill="#EBEBEB" d="M6.5,25.771h19v-19h-19V25.771z M13.585,13.248c0.512-0.795,1.298-1.199,2.337-1.199
			c1.017,0,1.8,0.419,2.329,1.246c0.506,0.792,0.763,1.938,0.763,3.41c0,1.522-0.249,2.683-0.739,3.451
			c-0.514,0.804-1.306,1.211-2.353,1.211c-1.008,0-1.787-0.416-2.313-1.237c-0.505-0.786-0.761-1.938-0.761-3.425
			C12.848,15.171,13.096,14.008,13.585,13.248z"/>
		<path fill="#A7A9AC" d="M5.5,5.771v21h21v-21H5.5z M25.5,25.771h-19v-19h19V25.771z"/>
		<path fill="#6A6A6A" d="M15.922,21.367c1.047,0,1.839-0.407,2.353-1.211c0.49-0.768,0.739-1.929,0.739-3.451
			c0-1.472-0.257-2.619-0.763-3.41c-0.529-0.827-1.312-1.246-2.329-1.246c-1.039,0-1.825,0.403-2.337,1.199
			c-0.489,0.76-0.737,1.923-0.737,3.458c0,1.487,0.256,2.64,0.761,3.425C14.135,20.951,14.914,21.367,15.922,21.367z M14.743,14.104
			c0.249-0.479,0.635-0.712,1.179-0.712c0.552,0,0.939,0.236,1.187,0.722c0.271,0.534,0.409,1.406,0.409,2.591
			s-0.138,2.059-0.41,2.597c-0.247,0.489-0.635,0.727-1.186,0.727c-0.544,0-0.93-0.234-1.178-0.717
			c-0.273-0.53-0.412-1.407-0.412-2.607C14.332,15.505,14.471,14.63,14.743,14.104z"/>
	</g>
</g>
<g id="METRICS_AND_KEYLINES">
</g>
<g id="Isolation_Mode">
</g>
<g id="filled">
</g>
</svg>
