<?xml version="1.0" encoding="utf-8"?>
<!-- Generator: Adobe Illustrator 26.0.2, SVG Export Plug-In . SVG Version: 6.00 Build 0)  -->
<svg version="1.2" baseProfile="tiny" xmlns="http://www.w3.org/2000/svg" xmlns:xlink="http://www.w3.org/1999/xlink" x="0px"
	 y="0px" viewBox="0 0 32 32" overflow="visible" xml:space="preserve">
<g id="Layer_1">
	<g>
		<path fill="#EBEBEB" d="M6.5,25.5h19v-19h-19V25.5z M11.373,11.031c0.177-0.375,0.621-0.538,0.997-0.361l3.203,1.498V9.5
			c0-0.414,0.336-0.75,0.75-0.75s0.75,0.336,0.75,0.75v3.369l5.244,2.452c0.264,0.123,0.433,0.387,0.433,0.678
			s-0.167,0.556-0.431,0.68l-5.246,2.469V22.5c0,0.414-0.336,0.75-0.75,0.75s-0.75-0.336-0.75-0.75v-2.646l-2.825,1.33
			c-0.104,0.048-0.212,0.071-0.318,0.071c-0.282,0-0.552-0.159-0.68-0.431c-0.177-0.375-0.016-0.821,0.359-0.998l3.464-1.63v-4.373
			l-3.838-1.795C11.359,11.853,11.198,11.407,11.373,11.031z"/>
		<polygon fill="#EBEBEB" points="17.073,14.524 17.073,17.49 20.234,16.002 		"/>
		<path fill="#A7A9AC" d="M5.5,5.5v21h21v-21H5.5z M25.5,25.5h-19v-19h19V25.5z"/>
		<path fill="#6A6A6A" d="M11.735,12.028l3.838,1.795v4.373l-3.464,1.63c-0.375,0.177-0.536,0.624-0.359,0.998
			c0.128,0.271,0.397,0.431,0.68,0.431c0.106,0,0.215-0.023,0.318-0.071l2.825-1.33V22.5c0,0.414,0.336,0.75,0.75,0.75
			s0.75-0.336,0.75-0.75v-3.352l5.246-2.469c0.264-0.124,0.431-0.389,0.431-0.68s-0.169-0.555-0.433-0.678l-5.244-2.452V9.5
			c0-0.414-0.336-0.75-0.75-0.75s-0.75,0.336-0.75,0.75v2.668L12.37,10.67c-0.376-0.176-0.82-0.013-0.997,0.361
			C11.198,11.407,11.359,11.853,11.735,12.028z M17.073,14.524l3.161,1.478l-3.161,1.488V14.524z"/>
	</g>
</g>
<g id="METRICS_AND_KEYLINES">
</g>
<g id="Isolation_Mode">
</g>
<g id="filled">
</g>
</svg>
