<?xml version="1.0" encoding="utf-8"?>
<!-- Generator: Adobe Illustrator 26.0.2, SVG Export Plug-In . SVG Version: 6.00 Build 0)  -->
<svg version="1.2" baseProfile="tiny" xmlns="http://www.w3.org/2000/svg" xmlns:xlink="http://www.w3.org/1999/xlink" x="0px"
	 y="0px" viewBox="0 0 32 32" overflow="visible" xml:space="preserve">
<g id="Layer_1">
	<g>
		<path fill="#EBEBEB" d="M3,25.771h26v-19H3V25.771z M28.188,23.953c0,0.414-0.336,0.75-0.75,0.75h-4.75
			c-0.414,0-0.75-0.336-0.75-0.75v-4.5H5.688c-0.414,0-0.75-0.336-0.75-0.75s0.336-0.75,0.75-0.75h17c0.414,0,0.75,0.336,0.75,0.75
			v4.5h4C27.852,23.203,28.188,23.539,28.188,23.953z M4.562,8.588h4.75c0.414,0,0.75,0.336,0.75,0.75v4.5h16.25
			c0.414,0,0.75,0.336,0.75,0.75s-0.336,0.75-0.75,0.75h-17c-0.414,0-0.75-0.336-0.75-0.75v-4.5h-4c-0.414,0-0.75-0.336-0.75-0.75
			S4.148,8.588,4.562,8.588z"/>
		<path fill="#A7A9AC" d="M2,5.771v21h28v-21H2z M29,25.771H3v-19h26V25.771z"/>
		<path fill="#6A6A6A" d="M4.562,10.088h4v4.5c0,0.414,0.336,0.75,0.75,0.75h17c0.414,0,0.75-0.336,0.75-0.75s-0.336-0.75-0.75-0.75
			h-16.25v-4.5c0-0.414-0.336-0.75-0.75-0.75h-4.75c-0.414,0-0.75,0.336-0.75,0.75S4.148,10.088,4.562,10.088z"/>
		<path fill="#6A6A6A" d="M23.438,18.703c0-0.414-0.336-0.75-0.75-0.75h-17c-0.414,0-0.75,0.336-0.75,0.75s0.336,0.75,0.75,0.75
			h16.25v4.5c0,0.414,0.336,0.75,0.75,0.75h4.75c0.414,0,0.75-0.336,0.75-0.75s-0.336-0.75-0.75-0.75h-4V18.703z"/>
	</g>
</g>
<g id="METRICS_AND_KEYLINES">
</g>
<g id="Isolation_Mode">
</g>
<g id="filled">
</g>
</svg>
