<?xml version="1.0" encoding="utf-8"?>
<!-- Generator: Adobe Illustrator 26.0.2, SVG Export Plug-In . SVG Version: 6.00 Build 0)  -->
<svg version="1.2" baseProfile="tiny" xmlns="http://www.w3.org/2000/svg" xmlns:xlink="http://www.w3.org/1999/xlink" x="0px"
	 y="0px" viewBox="0 0 32 32" overflow="visible" xml:space="preserve">
<g id="Layer_1">
	<g>
		<path fill="#EBEBEB" d="M6.5,25.5h19v-19h-19V25.5z M9.681,15.321l5.246-2.469V9.5c0-0.414,0.336-0.75,0.75-0.75
			s0.75,0.336,0.75,0.75v2.646l2.825-1.33c0.104-0.048,0.212-0.071,0.318-0.071c0.282,0,0.552,0.159,0.68,0.431
			c0.177,0.375,0.016,0.821-0.359,0.998l-3.464,1.63v4.373l3.838,1.795c0.376,0.175,0.537,0.622,0.362,0.997
			c-0.177,0.375-0.621,0.538-0.997,0.361l-3.203-1.498V22.5c0,0.414-0.336,0.75-0.75,0.75s-0.75-0.336-0.75-0.75v-3.369
			l-5.244-2.452c-0.264-0.123-0.433-0.387-0.433-0.678C9.25,15.71,9.417,15.445,9.681,15.321z"/>
		<polygon fill="#EBEBEB" points="14.927,14.51 11.766,15.998 14.927,17.476 		"/>
		<path fill="#A7A9AC" d="M5.5,5.5v21h21v-21H5.5z M25.5,25.5h-19v-19h19V25.5z"/>
		<path fill="#6A6A6A" d="M9.683,16.679l5.244,2.452V22.5c0,0.414,0.336,0.75,0.75,0.75s0.75-0.336,0.75-0.75v-2.668l3.203,1.498
			c0.376,0.176,0.82,0.013,0.997-0.361c0.175-0.375,0.014-0.822-0.362-0.997l-3.838-1.795v-4.373l3.464-1.63
			c0.375-0.177,0.536-0.624,0.359-0.998c-0.128-0.271-0.397-0.431-0.68-0.431c-0.106,0-0.215,0.023-0.318,0.071l-2.825,1.33V9.5
			c0-0.414-0.336-0.75-0.75-0.75s-0.75,0.336-0.75,0.75v3.352l-5.246,2.469c-0.264,0.124-0.431,0.389-0.431,0.68
			C9.25,16.292,9.419,16.556,9.683,16.679z M14.927,14.51v2.966l-3.161-1.478L14.927,14.51z"/>
	</g>
</g>
<g id="METRICS_AND_KEYLINES">
</g>
<g id="Isolation_Mode">
</g>
<g id="filled">
</g>
</svg>
