<?xml version="1.0" encoding="utf-8"?>
<!-- Generator: Adobe Illustrator 26.0.2, SVG Export Plug-In . SVG Version: 6.00 Build 0)  -->
<svg version="1.2" baseProfile="tiny" xmlns="http://www.w3.org/2000/svg" xmlns:xlink="http://www.w3.org/1999/xlink" x="0px"
	 y="0px" viewBox="0 0 32 32" overflow="visible" xml:space="preserve">
<g id="Layer_1">
	<g>
		<polygon fill="#EBEBEB" points="16,12.737 11.799,20.013 20.201,20.013 		"/>
		<path fill="#EBEBEB" d="M6.5,25.771h19v-19h-19V25.771z M9.851,20.388l5.5-9.526c0.268-0.464,1.031-0.464,1.299,0l5.5,9.526
			c0.134,0.232,0.134,0.518,0,0.75s-0.382,0.375-0.649,0.375h-11c-0.268,0-0.516-0.143-0.649-0.375S9.717,20.62,9.851,20.388z"/>
		<path fill="#A7A9AC" d="M5.5,5.771v21h21v-21H5.5z M25.5,25.771h-19v-19h19V25.771z"/>
		<path fill="#6A6A6A" d="M10.5,21.513h11c0.268,0,0.516-0.143,0.649-0.375s0.134-0.518,0-0.75l-5.5-9.526
			c-0.268-0.464-1.031-0.464-1.299,0l-5.5,9.526c-0.134,0.232-0.134,0.518,0,0.75S10.232,21.513,10.5,21.513z M16,12.737
			l4.201,7.276h-8.402L16,12.737z"/>
	</g>
</g>
<g id="METRICS_AND_KEYLINES">
</g>
<g id="Isolation_Mode">
</g>
<g id="filled">
</g>
</svg>
