<?xml version="1.0" encoding="utf-8"?>
<!-- Generator: Adobe Illustrator 26.0.2, SVG Export Plug-In . SVG Version: 6.00 Build 0)  -->
<svg version="1.2" baseProfile="tiny" xmlns="http://www.w3.org/2000/svg" xmlns:xlink="http://www.w3.org/1999/xlink" x="0px"
	 y="0px" viewBox="0 0 42.5 32" overflow="visible" xml:space="preserve">
<g id="Layer_1">
	<g>
		<path fill="#EBEBEB" d="M31.76,6.5H2.833v19H31.76l7.6-9.5L31.76,6.5z"/>
		<path fill="#A7A9AC" d="M32.24,5.5H1.833v21H32.24l8.4-10.5L32.24,5.5z M2.833,25.5v-19H31.76l7.6,9.5l-7.6,9.5H2.833z"/>
		<path fill="#6A6A6A" d="M19.179,10.721l-0.062-0.159h-1.179l-3.584,9.102H15.9l1.055-2.725h3.092l1.066,2.725h1.568L19.179,10.721
			z M17.498,15.543l0.881-2.32c0.052-0.146,0.101-0.288,0.145-0.426c0.052,0.155,0.104,0.299,0.153,0.43l0.869,2.316H17.498z"/>
	</g>
</g>
<g id="METRICS_AND_KEYLINES">
</g>
<g id="Isolation_Mode">
</g>
<g id="filled">
</g>
</svg>
