<?xml version="1.0" encoding="utf-8"?>
<!-- Generator: Adobe Illustrator 26.0.2, SVG Export Plug-In . SVG Version: 6.00 Build 0)  -->
<svg version="1.2" baseProfile="tiny" xmlns="http://www.w3.org/2000/svg" xmlns:xlink="http://www.w3.org/1999/xlink" x="0px"
	 y="0px" viewBox="0 0 32 32" overflow="visible" xml:space="preserve">
<g id="Layer_1">
	<g>
		<path fill="#EBEBEB" d="M6.5,25.771h19v-19h-19V25.771z M10.568,9.945c0.125-0.259,0.387-0.424,0.675-0.424h9.514
			c0.414,0,0.75,0.336,0.75,0.75v2.182c0,0.414-0.336,0.75-0.75,0.75s-0.75-0.336-0.75-0.75v-1.432h-7.212l3.793,4.784
			c0.204,0.257,0.217,0.618,0.031,0.889l-3.3,4.827h6.688v-1.214c0-0.414,0.336-0.75,0.75-0.75s0.75,0.336,0.75,0.75v1.964
			c0,0.414-0.336,0.75-0.75,0.75h-8.858c-0.278,0-0.533-0.154-0.663-0.4s-0.113-0.544,0.044-0.773l3.79-5.544l-4.414-5.567
			C10.477,10.512,10.442,10.204,10.568,9.945z"/>
		<path fill="#A7A9AC" d="M5.5,5.771v21h21v-21H5.5z M25.5,25.771h-19v-19h19V25.771z"/>
		<path fill="#6A6A6A" d="M15.069,16.304l-3.79,5.544c-0.157,0.229-0.174,0.527-0.044,0.773s0.385,0.4,0.663,0.4h8.858
			c0.414,0,0.75-0.336,0.75-0.75v-1.964c0-0.414-0.336-0.75-0.75-0.75s-0.75,0.336-0.75,0.75v1.214h-6.688l3.3-4.827
			c0.186-0.271,0.173-0.632-0.031-0.889l-3.793-4.784h7.212v1.432c0,0.414,0.336,0.75,0.75,0.75s0.75-0.336,0.75-0.75v-2.182
			c0-0.414-0.336-0.75-0.75-0.75h-9.514c-0.288,0-0.55,0.165-0.675,0.424c-0.126,0.259-0.092,0.567,0.087,0.792L15.069,16.304z"/>
	</g>
</g>
<g id="METRICS_AND_KEYLINES">
</g>
<g id="Isolation_Mode">
</g>
<g id="filled">
</g>
</svg>
