<?xml version="1.0" encoding="utf-8"?>
<!-- Generator: Adobe Illustrator 26.0.2, SVG Export Plug-In . SVG Version: 6.00 Build 0)  -->
<svg version="1.2" baseProfile="tiny" xmlns="http://www.w3.org/2000/svg" xmlns:xlink="http://www.w3.org/1999/xlink" x="0px"
	 y="0px" viewBox="0 0 25 68.914" overflow="visible" xml:space="preserve">
<g id="Layer_1">
	<g>
		<path fill="#EBEBEB" d="M2.125,22.875h20.75V2.125H2.125V22.875z M9.636,8.655h1.496v3.223l3.538-3.223h1.926l-3.745,3.37
			l3.778,4.267H14.79l-3.045-3.375l-0.613,0.454v2.921H9.636V8.655z"/>
		<path fill="#EBEBEB" d="M2.125,44.625h20.75v-20.75H2.125V44.625z"/>
		<path fill="#EBEBEB" d="M2.125,66.375h20.75v-20.75H2.125V66.375z M15.069,64.375l0.083-0.664
			c-0.247,0.208-0.486,0.369-0.715,0.482c-0.378,0.185-0.773,0.279-1.177,0.279c-0.611,0-1.101-0.187-1.452-0.556
			c-0.35-0.364-0.526-0.869-0.526-1.5c0-0.732,0.15-1.413,0.447-2.023c0.3-0.617,0.712-1.102,1.227-1.441
			c0.517-0.342,1.104-0.515,1.746-0.515c0.645,0,1.16,0.203,1.54,0.605c0.054-0.302,0.117-0.581,0.188-0.833l0.504-1.93h1.487
			l-2.061,8.096H15.069z M22.486,58.525l-0.275,1.12h-1.602l-0.708,2.76c-0.081,0.324-0.098,0.495-0.098,0.582
			c0,0.143,0.048,0.2,0.083,0.23c0.159,0.137,0.537,0.102,1.096-0.034l0.31-0.076v1.126l-0.168,0.058
			c-0.146,0.05-0.325,0.093-0.533,0.127c-0.213,0.035-0.38,0.052-0.51,0.052c-0.541,0-0.969-0.114-1.271-0.339
			c-0.325-0.244-0.49-0.603-0.49-1.068c0-0.235,0.038-0.502,0.113-0.794l0.665-2.626h-1.001l0.184-0.797l1.135-0.398l0.76-1.155
			h1.033l-0.322,1.23H22.486z M19.988,48.845c0.293,0.293,0.293,0.768,0,1.061l-13.5,13.5c-0.146,0.146-0.338,0.22-0.53,0.22
			s-0.384-0.073-0.53-0.22c-0.293-0.293-0.293-0.768,0-1.061l13.5-13.5C19.221,48.552,19.695,48.552,19.988,48.845z M4.479,51.894
			c0.3-0.617,0.712-1.102,1.227-1.441c0.517-0.342,1.104-0.515,1.746-0.515c0.645,0,1.16,0.203,1.54,0.605
			c0.054-0.302,0.117-0.581,0.188-0.833l0.504-1.93h1.487l-2.061,8.096H7.819l0.083-0.664c-0.247,0.208-0.486,0.369-0.715,0.482
			c-0.378,0.185-0.773,0.279-1.177,0.279c-0.611,0-1.101-0.187-1.452-0.556c-0.35-0.364-0.526-0.869-0.526-1.5
			C4.032,53.185,4.183,52.504,4.479,51.894z"/>
		<path fill="#EBEBEB" d="M14.761,59.616c-0.34,0-0.648,0.114-0.943,0.348c-0.303,0.241-0.552,0.589-0.739,1.034
			c-0.191,0.453-0.288,0.937-0.288,1.438c0,0.601,0.239,0.857,0.799,0.857c0.309,0,0.639-0.136,0.983-0.403
			c0.358-0.279,0.646-0.643,0.856-1.078c0.211-0.438,0.318-0.888,0.318-1.339c0-0.289-0.076-0.498-0.233-0.639
			C15.352,59.69,15.099,59.616,14.761,59.616z"/>
		<path fill="#EBEBEB" d="M6.339,54.794c0.309,0,0.639-0.136,0.983-0.403c0.358-0.279,0.646-0.643,0.856-1.078
			c0.211-0.438,0.318-0.888,0.318-1.339c0-0.289-0.076-0.498-0.233-0.639c-0.162-0.145-0.415-0.218-0.753-0.218
			c-0.34,0-0.648,0.114-0.943,0.348c-0.303,0.241-0.552,0.589-0.739,1.034c-0.191,0.453-0.288,0.937-0.288,1.438
			C5.54,54.538,5.779,54.794,6.339,54.794z"/>
		<path fill="#A7A9AC" d="M1.125,1.125v21.75v1v20.75v1v21.75h22.75v-21.75v-1v-20.75v-1V1.125H1.125z M22.875,66.375H2.125v-20.75
			h20.75V66.375z M22.875,44.625H2.125v-20.75h20.75V44.625z M22.875,22.875H2.125V2.125h20.75V22.875z"/>
		<polygon fill="#6A6A6A" points="11.132,13.371 11.745,12.917 14.79,16.292 16.629,16.292 12.851,12.025 16.596,8.655 14.67,8.655 
			11.132,11.878 11.132,8.655 9.636,8.655 9.636,16.292 11.132,16.292 		"/>
		<path fill="#6A6A6A" d="M6.011,55.973c0.403,0,0.799-0.094,1.177-0.279c0.229-0.113,0.468-0.274,0.715-0.482l-0.083,0.664h1.292
			l2.061-8.096H9.685l-0.504,1.93c-0.071,0.252-0.135,0.531-0.188,0.833c-0.38-0.402-0.896-0.605-1.54-0.605
			c-0.642,0-1.229,0.173-1.746,0.515c-0.515,0.339-0.927,0.824-1.227,1.441c-0.297,0.611-0.447,1.292-0.447,2.023
			c0,0.63,0.177,1.135,0.526,1.5C4.91,55.786,5.399,55.973,6.011,55.973z M5.828,52.499c0.188-0.445,0.437-0.793,0.739-1.034
			c0.295-0.234,0.604-0.348,0.943-0.348c0.338,0,0.591,0.074,0.753,0.218c0.157,0.141,0.233,0.35,0.233,0.639
			c0,0.451-0.107,0.901-0.318,1.339c-0.21,0.436-0.498,0.799-0.856,1.078c-0.345,0.268-0.675,0.403-0.983,0.403
			c-0.56,0-0.799-0.256-0.799-0.857C5.54,53.436,5.637,52.952,5.828,52.499z"/>
		<path fill="#6A6A6A" d="M5.428,63.405c0.146,0.146,0.338,0.22,0.53,0.22s0.384-0.073,0.53-0.22l13.5-13.5
			c0.293-0.293,0.293-0.768,0-1.061s-0.768-0.293-1.061,0l-13.5,13.5C5.135,62.638,5.135,63.112,5.428,63.405z"/>
		<path fill="#6A6A6A" d="M16.935,56.279l-0.504,1.93c-0.071,0.252-0.135,0.531-0.188,0.833c-0.38-0.402-0.896-0.605-1.54-0.605
			c-0.642,0-1.229,0.173-1.746,0.515c-0.515,0.339-0.927,0.824-1.227,1.441c-0.297,0.611-0.447,1.292-0.447,2.023
			c0,0.63,0.177,1.135,0.526,1.5c0.352,0.369,0.841,0.556,1.452,0.556c0.403,0,0.799-0.094,1.177-0.279
			c0.229-0.113,0.468-0.274,0.715-0.482l-0.083,0.664h1.292l2.061-8.096H16.935z M15.429,61.812
			c-0.21,0.436-0.498,0.799-0.856,1.078c-0.345,0.268-0.675,0.403-0.983,0.403c-0.56,0-0.799-0.256-0.799-0.857
			c0-0.501,0.097-0.985,0.288-1.438c0.188-0.445,0.437-0.793,0.739-1.034c0.295-0.234,0.604-0.348,0.943-0.348
			c0.338,0,0.591,0.074,0.753,0.218c0.157,0.141,0.233,0.35,0.233,0.639C15.747,60.925,15.64,61.375,15.429,61.812z"/>
		<path fill="#6A6A6A" d="M20.175,57.295l-0.76,1.155l-1.135,0.398l-0.184,0.797h1.001l-0.665,2.626
			c-0.075,0.292-0.113,0.559-0.113,0.794c0,0.465,0.165,0.824,0.49,1.068c0.303,0.225,0.73,0.339,1.271,0.339
			c0.13,0,0.297-0.017,0.51-0.052c0.208-0.034,0.388-0.077,0.533-0.127l0.168-0.058v-1.126l-0.31,0.076
			c-0.559,0.136-0.937,0.171-1.096,0.034c-0.035-0.031-0.083-0.088-0.083-0.23c0-0.086,0.017-0.258,0.098-0.582l0.708-2.76h1.602
			l0.275-1.12h-1.601l0.322-1.23H20.175z"/>
	</g>
	<path fill="#6A6A6A" d="M10.623,39.755c0.232,0.066,0.447,0.092,0.614,0.092c0.781,0,1.672-0.314,1.902-1.58
		c0.016-0.079,0.076-2.423,0.076-2.423l-0.005,0.008l0.006-5.4c0-0.298,0.244-0.541,0.541-0.541h0.086
		c0.297,0,0.541,0.244,0.541,0.541v0.745l1.24-0.287c0,0-0.031-0.782-0.138-1.087c-0.001-0.003-0.002-0.005-0.003-0.008
		c-0.205-0.58-0.728-1.011-1.332-1.123c-0.144-0.027-0.276-0.038-0.387-0.038c-0.839,0-1.816,0.348-1.951,1.867
		c-0.01,0.115-0.027,2.136-0.027,2.136v4.97c0,0.136,0.001,0.292-0.004,0.44c-0.01,0.289-0.246,0.523-0.538,0.523h-0.086
		c-0.297,0-0.541-0.244-0.541-0.541v-0.745l-1.24,0.434c0,0,0.031,0.635,0.138,0.941C9.698,39.187,10.101,39.607,10.623,39.755z"/>
</g>
<g id="METRICS_AND_KEYLINES">
</g>
<g id="Isolation_Mode">
</g>
<g id="filled">
</g>
</svg>
