<?xml version="1.0" encoding="utf-8"?>
<!-- Generator: Adobe Illustrator 26.0.2, SVG Export Plug-In . SVG Version: 6.00 Build 0)  -->
<svg version="1.2" baseProfile="tiny" xmlns="http://www.w3.org/2000/svg" xmlns:xlink="http://www.w3.org/1999/xlink" x="0px"
	 y="0px" viewBox="0 0 32 32" overflow="visible" xml:space="preserve">
<g id="Layer_1">
	<g>
		<path fill="#EBEBEB" d="M3,25.771h26v-19H3V25.771z M28.188,18.703c0,0.414-0.336,0.75-0.75,0.75h-4v4.5
			c0,0.414-0.336,0.75-0.75,0.75h-17c-0.414,0-0.75-0.336-0.75-0.75s0.336-0.75,0.75-0.75h16.25v-4.5c0-0.414,0.336-0.75,0.75-0.75
			h4.75C27.852,17.953,28.188,18.289,28.188,18.703z M4.562,13.838h4v-4.5c0-0.414,0.336-0.75,0.75-0.75h17
			c0.414,0,0.75,0.336,0.75,0.75s-0.336,0.75-0.75,0.75h-16.25v4.5c0,0.414-0.336,0.75-0.75,0.75h-4.75
			c-0.414,0-0.75-0.336-0.75-0.75S4.148,13.838,4.562,13.838z"/>
		<path fill="#A7A9AC" d="M2,5.771v21h28v-21H2z M29,25.771H3v-19h26V25.771z"/>
		<path fill="#6A6A6A" d="M4.562,15.338h4.75c0.414,0,0.75-0.336,0.75-0.75v-4.5h16.25c0.414,0,0.75-0.336,0.75-0.75
			s-0.336-0.75-0.75-0.75h-17c-0.414,0-0.75,0.336-0.75,0.75v4.5h-4c-0.414,0-0.75,0.336-0.75,0.75S4.148,15.338,4.562,15.338z"/>
		<path fill="#6A6A6A" d="M21.938,18.703v4.5H5.688c-0.414,0-0.75,0.336-0.75,0.75s0.336,0.75,0.75,0.75h17
			c0.414,0,0.75-0.336,0.75-0.75v-4.5h4c0.414,0,0.75-0.336,0.75-0.75s-0.336-0.75-0.75-0.75h-4.75
			C22.273,17.953,21.938,18.289,21.938,18.703z"/>
	</g>
</g>
<g id="METRICS_AND_KEYLINES">
</g>
<g id="Isolation_Mode">
</g>
<g id="filled">
</g>
</svg>
