<?xml version="1.0" encoding="utf-8"?>
<!-- Generator: Adobe Illustrator 26.0.2, SVG Export Plug-In . SVG Version: 6.00 Build 0)  -->
<svg version="1.2" baseProfile="tiny" xmlns="http://www.w3.org/2000/svg" xmlns:xlink="http://www.w3.org/1999/xlink" x="0px"
	 y="0px" viewBox="0 0 32 32" overflow="visible" xml:space="preserve">
<g id="Layer_1">
	<g>
		<path fill="#EBEBEB" d="M6.5,25.771h19v-19h-19V25.771z M9.821,10.091c0.248-0.25,0.691-0.251,0.943,0.001L16,15.328l5.215-5.215
			c0.261-0.259,0.683-0.26,0.943,0c0.26,0.262,0.259,0.684,0.001,0.943l-5.216,5.216l5.236,5.236
			c0.125,0.125,0.195,0.293,0.195,0.471c0,0.179-0.07,0.346-0.196,0.472c-0.124,0.125-0.292,0.195-0.471,0.195
			s-0.347-0.07-0.473-0.197L16,17.214l-5.191,5.192c-0.25,0.25-0.69,0.252-0.942,0.001c-0.127-0.126-0.197-0.293-0.197-0.472
			c0-0.179,0.069-0.346,0.195-0.473l5.192-5.191L9.82,11.035c-0.126-0.126-0.195-0.294-0.195-0.473
			C9.625,10.384,9.695,10.216,9.821,10.091z"/>
		<path fill="#A7A9AC" d="M5.5,5.771v21h21v-21H5.5z M25.5,25.771h-19v-19h19V25.771z"/>
		<path fill="#6A6A6A" d="M15.057,16.271l-5.192,5.191c-0.126,0.126-0.195,0.294-0.195,0.473c0,0.178,0.07,0.346,0.197,0.472
			c0.252,0.251,0.692,0.249,0.942-0.001L16,17.214l5.235,5.235c0.126,0.127,0.294,0.197,0.473,0.197s0.347-0.07,0.471-0.195
			c0.126-0.126,0.196-0.293,0.196-0.472c0-0.178-0.07-0.346-0.195-0.471l-5.236-5.236l5.216-5.216
			c0.258-0.259,0.259-0.682-0.001-0.943c-0.261-0.259-0.683-0.259-0.943,0L16,15.328l-5.235-5.235
			c-0.252-0.253-0.695-0.251-0.943-0.001c-0.126,0.125-0.196,0.293-0.196,0.471c0,0.179,0.069,0.346,0.195,0.473L15.057,16.271z"/>
	</g>
</g>
<g id="METRICS_AND_KEYLINES">
</g>
<g id="Isolation_Mode">
</g>
<g id="filled">
</g>
</svg>
