<?xml version="1.0" encoding="utf-8"?>
<!-- Generator: Adobe Illustrator 26.0.2, SVG Export Plug-In . SVG Version: 6.00 Build 0)  -->
<svg version="1.2" baseProfile="tiny" xmlns="http://www.w3.org/2000/svg" xmlns:xlink="http://www.w3.org/1999/xlink" x="0px"
	 y="0px" viewBox="0 0 38.5 32" overflow="visible" xml:space="preserve">
<g id="Layer_1">
	<g>
		<path fill="#EBEBEB" d="M2.833,25.5H35.15V9.838H2.833V25.5z M27.062,13.025l0.073,0.113c0.595,0.913,0.896,1.94,0.896,3.056
			c0,1.144-0.249,2.216-0.739,3.186c-0.486,0.964-1.261,1.907-2.301,2.803l-0.07,0.061h-1.646l0.469-0.434
			c1.875-1.735,2.826-3.625,2.826-5.615c0-1.064-0.213-2.006-0.633-2.802l-0.194-0.367H27.062z M24.286,13.582l-0.322,1.23h1.601
			l-0.275,1.12h-1.602l-0.708,2.76c-0.081,0.325-0.098,0.496-0.098,0.583c0,0.142,0.047,0.199,0.083,0.229
			c0.159,0.138,0.537,0.103,1.096-0.033l0.31-0.076v1.127l-0.169,0.058c-0.146,0.05-0.324,0.093-0.532,0.127
			c-0.21,0.035-0.377,0.052-0.51,0.052c-0.541,0-0.969-0.114-1.271-0.34c-0.325-0.242-0.49-0.601-0.49-1.066
			c0-0.235,0.038-0.502,0.113-0.795l0.665-2.626h-1.001l0.184-0.797l1.135-0.398l0.76-1.155H24.286z M18.5,15.912
			c0.481-0.962,1.259-1.913,2.31-2.825l0.07-0.061h1.657l-0.475,0.435c-0.935,0.854-1.648,1.766-2.122,2.71
			c-0.471,0.936-0.709,1.914-0.709,2.904c0,1.057,0.215,2,0.639,2.802l0.194,0.367h-1.316l-0.074-0.112
			c-0.6-0.903-0.903-1.929-0.903-3.047C17.771,17.947,18.016,16.879,18.5,15.912z"/>
		<path fill="#A7A9AC" d="M1.833,8.838V26.5H36.15V8.838H1.833z M35.15,25.5H2.833V9.838H35.15V25.5z"/>
		<path fill="#6A6A6A" d="M18.748,22.243h1.316l-0.194-0.367c-0.424-0.803-0.639-1.745-0.639-2.802c0-0.991,0.238-1.968,0.709-2.904
			c0.474-0.944,1.188-1.856,2.122-2.71l0.475-0.435H20.88l-0.07,0.061c-1.051,0.912-1.828,1.863-2.31,2.825
			c-0.484,0.968-0.729,2.035-0.729,3.172c0,1.119,0.304,2.144,0.903,3.047L18.748,22.243z"/>
		<path fill="#6A6A6A" d="M21.358,15.135l-0.184,0.797h1.001l-0.665,2.626c-0.075,0.292-0.113,0.56-0.113,0.795
			c0,0.466,0.165,0.825,0.49,1.066c0.303,0.226,0.73,0.34,1.271,0.34c0.133,0,0.3-0.017,0.51-0.052
			c0.208-0.035,0.387-0.078,0.532-0.127l0.169-0.058v-1.127l-0.31,0.076c-0.559,0.136-0.937,0.171-1.096,0.033
			c-0.036-0.03-0.083-0.087-0.083-0.229c0-0.086,0.017-0.258,0.098-0.583l0.708-2.76h1.602l0.275-1.12h-1.601l0.322-1.23h-1.033
			l-0.76,1.155L21.358,15.135z"/>
		<path fill="#6A6A6A" d="M26.571,16.194c0,1.991-0.951,3.88-2.826,5.615l-0.469,0.434h1.646l0.07-0.061
			c1.04-0.896,1.814-1.839,2.301-2.803c0.49-0.97,0.739-2.042,0.739-3.186c0-1.115-0.302-2.143-0.896-3.056l-0.073-0.113h-1.318
			l0.194,0.367C26.358,14.188,26.571,15.13,26.571,16.194z"/>
		<g>
			<path fill="#6A6A6A" d="M16.054,12.75c-0.144-0.062-0.333-0.117-0.579-0.166c-0.245-0.049-0.449-0.072-0.623-0.072
				c-0.691,0-1.228,0.188-1.593,0.558c-0.355,0.359-0.621,0.94-0.812,1.775l-0.104,0.447l-1.212,0.389l-0.162,0.835h1.126
				l-0.975,4.658h1.433l1.037-4.658h1.392l0.244-1.244h-1.384l0.076-0.328c0.128-0.568,0.276-0.815,0.379-0.922
				c0.235-0.246,0.697-0.289,1.315-0.054l0.243,0.093l0.407-1.22L16.054,12.75z"/>
		</g>
	</g>
</g>
<g id="METRICS_AND_KEYLINES">
</g>
<g id="Isolation_Mode">
</g>
<g id="filled">
</g>
</svg>
