<?xml version="1.0" encoding="utf-8"?>
<!-- Generator: Adobe Illustrator 26.0.2, SVG Export Plug-In . SVG Version: 6.00 Build 0)  -->
<svg version="1.2" baseProfile="tiny" xmlns="http://www.w3.org/2000/svg" xmlns:xlink="http://www.w3.org/1999/xlink" x="0px"
	 y="0px" viewBox="0 0 32 32" overflow="visible" xml:space="preserve">
<g id="Layer_1">
	<g>
		<path fill="#EBEBEB" d="M1.122,25.771h29.756v-19H1.122V25.771z M18.4,12.016c0.176-0.374,0.62-0.539,0.997-0.361l2.548,1.191
			v-2.078c0-0.414,0.336-0.75,0.75-0.75s0.75,0.336,0.75,0.75v2.779l4.372,2.044c0.264,0.123,0.433,0.387,0.433,0.678
			s-0.167,0.556-0.431,0.68l-4.374,2.059v2.764c0,0.414-0.336,0.75-0.75,0.75s-0.75-0.336-0.75-0.75v-2.058l-2.228,1.049
			c-0.104,0.048-0.212,0.071-0.318,0.071c-0.282,0-0.552-0.159-0.68-0.431c-0.177-0.375-0.016-0.821,0.359-0.998l2.866-1.349v-3.555
			l-3.183-1.488C18.387,12.838,18.226,12.392,18.4,12.016z M4.181,15.592l4.374-2.059v-2.765c0-0.414,0.336-0.75,0.75-0.75
			s0.75,0.336,0.75,0.75v2.058l2.228-1.049c0.378-0.178,0.821-0.015,0.998,0.359s0.016,0.821-0.359,0.998l-2.866,1.349v3.555
			l3.183,1.488c0.375,0.175,0.537,0.622,0.362,0.997c-0.128,0.272-0.398,0.432-0.681,0.432c-0.105,0-0.214-0.022-0.316-0.071
			l-2.548-1.191v2.077c0,0.414-0.336,0.75-0.75,0.75s-0.75-0.336-0.75-0.75v-2.779L4.183,16.95
			c-0.264-0.123-0.433-0.387-0.433-0.678S3.917,15.716,4.181,15.592z"/>
		<polygon fill="#EBEBEB" points="23.445,15.203 23.445,17.351 25.734,16.273 		"/>
		<polygon fill="#EBEBEB" points="8.555,15.191 6.266,16.269 8.555,17.339 		"/>
		<path fill="#A7A9AC" d="M0.122,5.771v21h31.756v-21H0.122z M30.878,25.771H1.122v-19h29.756V25.771z"/>
		<path fill="#6A6A6A" d="M4.183,16.95l4.372,2.044v2.779c0,0.414,0.336,0.75,0.75,0.75s0.75-0.336,0.75-0.75v-2.077l2.548,1.191
			c0.103,0.048,0.211,0.071,0.316,0.071c0.282,0,0.553-0.16,0.681-0.432c0.175-0.375,0.013-0.822-0.362-0.997l-3.183-1.488v-3.555
			l2.866-1.349c0.375-0.177,0.536-0.624,0.359-0.998s-0.62-0.538-0.998-0.359l-2.228,1.049v-2.058c0-0.414-0.336-0.75-0.75-0.75
			s-0.75,0.336-0.75,0.75v2.765l-4.374,2.059c-0.264,0.124-0.431,0.389-0.431,0.68S3.919,16.827,4.183,16.95z M8.555,15.191v2.148
			l-2.289-1.07L8.555,15.191z"/>
		<path fill="#6A6A6A" d="M18.763,13.013l3.183,1.488v3.555l-2.866,1.349c-0.375,0.177-0.536,0.624-0.359,0.998
			c0.128,0.271,0.397,0.431,0.68,0.431c0.106,0,0.215-0.023,0.318-0.071l2.228-1.049v2.058c0,0.414,0.336,0.75,0.75,0.75
			s0.75-0.336,0.75-0.75v-2.764l4.374-2.059c0.264-0.124,0.431-0.389,0.431-0.68s-0.169-0.555-0.433-0.678l-4.372-2.044v-2.779
			c0-0.414-0.336-0.75-0.75-0.75s-0.75,0.336-0.75,0.75v2.078l-2.548-1.191c-0.377-0.178-0.821-0.013-0.997,0.361
			C18.226,12.392,18.387,12.838,18.763,13.013z M23.445,15.203l2.289,1.07l-2.289,1.077V15.203z"/>
	</g>
</g>
<g id="METRICS_AND_KEYLINES">
</g>
<g id="Isolation_Mode">
</g>
<g id="filled">
</g>
</svg>
