<?xml version="1.0" encoding="utf-8"?>
<!-- Generator: Adobe Illustrator 26.0.2, SVG Export Plug-In . SVG Version: 6.00 Build 0)  -->
<svg version="1.2" baseProfile="tiny" xmlns="http://www.w3.org/2000/svg" xmlns:xlink="http://www.w3.org/1999/xlink" x="0px"
	 y="0px" viewBox="0 0 47.833 32" overflow="visible" xml:space="preserve">
<g id="Layer_1">
	<g>
		<path fill="#EBEBEB" d="M44.918,6.5H2.833v19h42.085V6.5z M18.734,21.44l-0.071-0.129c-0.593-1.072-0.893-2.288-0.893-3.613
			c0-1.351,0.243-2.62,0.723-3.77c0.479-1.148,1.252-2.284,2.3-3.376l0.074-0.077h1.593l-0.382,0.418
			c-0.937,1.028-1.654,2.128-2.131,3.268c-0.475,1.135-0.716,2.321-0.716,3.524c0,1.283,0.218,2.428,0.646,3.403l0.154,0.351H18.734
			z M23.636,17.228l-1.846,2.314h-1.8l3.028-3.601l-1.495-3.321h1.549l0.921,2.18l1.746-2.18h1.795l-2.911,3.449l1.571,3.473H24.66
			L23.636,17.228z M28.675,18.141c-0.444,0.923-0.981,1.876-1.598,2.833l-0.073,0.115h-1.276l0.155-0.351
			c0.487-1.107,0.888-2.091,1.188-2.926l0.06-0.165h1.449l0.14,0.4L28.675,18.141z M30.489,19.247
			c-0.313-0.281-0.473-0.694-0.473-1.227c0-0.274,0.037-0.587,0.111-0.931l0.68-3.225h-1.002l0.164-0.856l1.127-0.476l0.762-1.389
			h1.033l-0.322,1.477h1.602l-0.255,1.244h-1.602L31.6,17.206c-0.065,0.32-0.1,0.563-0.1,0.721c0,0.151,0.033,0.262,0.1,0.33
			c0.156,0.163,0.519,0.118,1.068-0.042l0.32-0.094v1.257l-0.155,0.063c-0.146,0.061-0.328,0.113-0.538,0.155
			c-0.213,0.042-0.383,0.063-0.518,0.063C31.228,19.659,30.794,19.521,30.489,19.247z M35.919,18.015
			c-0.484,1.15-1.256,2.277-2.292,3.349l-0.073,0.076h-1.582l0.376-0.417c1.886-2.095,2.842-4.38,2.842-6.793
			c0-1.291-0.216-2.436-0.641-3.403l-0.154-0.351h1.299l0.071,0.131c0.588,1.083,0.886,2.302,0.886,3.623
			C36.651,15.589,36.405,16.862,35.919,18.015z"/>
		<path fill="#A7A9AC" d="M1.833,5.5v21h44.085v-21H1.833z M44.918,25.5H2.833v-19h42.085V25.5z"/>
		<path fill="#6A6A6A" d="M19.231,17.687c0-1.203,0.241-2.389,0.716-3.524c0.477-1.14,1.194-2.24,2.131-3.268l0.382-0.418h-1.593
			l-0.074,0.077c-1.048,1.092-1.821,2.228-2.3,3.376c-0.479,1.15-0.723,2.419-0.723,3.77c0,1.326,0.3,2.542,0.893,3.613l0.071,0.129
			h1.298l-0.154-0.351C19.449,20.115,19.231,18.97,19.231,17.687z"/>
		<polygon fill="#6A6A6A" points="24.623,16.069 27.535,12.62 25.74,12.62 23.993,14.8 23.073,12.62 21.524,12.62 23.019,15.941 
			19.991,19.542 21.79,19.542 23.636,17.228 24.66,19.542 26.195,19.542 		"/>
		<path fill="#6A6A6A" d="M27.131,17.647l-0.06,0.165c-0.301,0.834-0.701,1.819-1.188,2.926l-0.155,0.351h1.276l0.073-0.115
			c0.616-0.958,1.153-1.911,1.598-2.833l0.045-0.093l-0.14-0.4H27.131z"/>
		<path fill="#6A6A6A" d="M32.833,19.441l0.155-0.063v-1.257l-0.32,0.094c-0.55,0.16-0.912,0.205-1.068,0.042
			c-0.066-0.068-0.1-0.179-0.1-0.33c0-0.158,0.034-0.401,0.1-0.721l0.714-3.341h1.602l0.255-1.244h-1.602l0.322-1.477h-1.033
			l-0.762,1.389l-1.127,0.476l-0.164,0.856h1.002l-0.68,3.225c-0.074,0.344-0.111,0.657-0.111,0.931
			c0,0.533,0.159,0.946,0.473,1.227c0.306,0.273,0.739,0.412,1.289,0.412c0.135,0,0.305-0.021,0.518-0.063
			C32.505,19.554,32.687,19.501,32.833,19.441z"/>
		<path fill="#6A6A6A" d="M35.694,10.476h-1.299l0.154,0.351c0.425,0.967,0.641,2.112,0.641,3.403c0,2.413-0.956,4.699-2.842,6.793
			l-0.376,0.417h1.582l0.073-0.076c1.036-1.072,1.808-2.199,2.292-3.349c0.485-1.153,0.731-2.426,0.731-3.786
			c0-1.321-0.298-2.54-0.886-3.623L35.694,10.476z"/>
		<g>
			<path fill="#6A6A6A" d="M16.035,10.713c-0.144-0.062-0.333-0.117-0.579-0.166c-0.245-0.049-0.449-0.072-0.623-0.072
				c-0.691,0-1.228,0.188-1.593,0.558c-0.355,0.359-0.621,0.94-0.812,1.775l-0.104,0.447l-1.212,0.389l-0.162,0.835h1.126
				l-1.256,5.678h1.433l1.318-5.678h1.392l0.244-1.244h-1.384l0.076-0.328c0.128-0.568,0.276-0.815,0.379-0.922
				c0.235-0.246,0.697-0.289,1.315-0.054l0.243,0.093l0.407-1.22L16.035,10.713z"/>
		</g>
	</g>
</g>
<g id="METRICS_AND_KEYLINES">
</g>
<g id="Isolation_Mode">
</g>
<g id="filled">
</g>
</svg>
