<?xml version="1.0" encoding="utf-8"?>
<!-- Generator: Adobe Illustrator 26.0.2, SVG Export Plug-In . SVG Version: 6.00 Build 0)  -->
<svg version="1.2" baseProfile="tiny" xmlns="http://www.w3.org/2000/svg" xmlns:xlink="http://www.w3.org/1999/xlink" x="0px"
	 y="0px" viewBox="0 0 32 32" overflow="visible" xml:space="preserve">
<g id="Layer_1">
	<g>
		<path fill="#EBEBEB" d="M1.122,25.771h29.756v-19H1.122V25.771z M18.4,12.016c0.177-0.374,0.62-0.539,0.997-0.361l2.548,1.191
			v-2.078c0-0.414,0.336-0.75,0.75-0.75s0.75,0.336,0.75,0.75v2.779l4.372,2.044c0.264,0.123,0.433,0.387,0.433,0.678
			s-0.167,0.556-0.431,0.68l-4.374,2.059v2.764c0,0.414-0.336,0.75-0.75,0.75s-0.75-0.336-0.75-0.75v-2.058l-2.228,1.049
			c-0.104,0.048-0.212,0.071-0.318,0.071c-0.282,0-0.552-0.159-0.68-0.431c-0.177-0.375-0.016-0.821,0.359-0.998l2.866-1.349v-3.555
			l-3.183-1.488C18.387,12.838,18.226,12.392,18.4,12.016z M6.166,13.62l1.726,3.958c0.196,0.467,0.35,0.847,0.463,1.145
			c0.075-0.194,0.17-0.425,0.283-0.693c0.274-0.651,0.891-2.071,1.847-4.26l0.065-0.15h1.805l-3.153,6.922H7.515L4.361,13.62H6.166z
			"/>
		<polygon fill="#EBEBEB" points="23.445,15.203 23.445,17.351 25.734,16.273 		"/>
		<path fill="#A7A9AC" d="M0.122,5.771v21h31.756v-21H0.122z M30.878,25.771H1.122v-19h29.756V25.771z"/>
		<path fill="#6A6A6A" d="M18.763,13.013l3.183,1.488v3.555l-2.866,1.349c-0.375,0.177-0.536,0.624-0.359,0.998
			c0.128,0.271,0.397,0.431,0.68,0.431c0.106,0,0.215-0.023,0.318-0.071l2.228-1.049v2.058c0,0.414,0.336,0.75,0.75,0.75
			s0.75-0.336,0.75-0.75v-2.764l4.374-2.059c0.264-0.124,0.431-0.389,0.431-0.68s-0.169-0.555-0.433-0.678l-4.372-2.044v-2.779
			c0-0.414-0.336-0.75-0.75-0.75s-0.75,0.336-0.75,0.75v2.078l-2.548-1.191c-0.377-0.178-0.82-0.013-0.997,0.361
			C18.226,12.392,18.387,12.838,18.763,13.013z M23.445,15.203l2.289,1.07l-2.289,1.077V15.203z"/>
		<path fill="#6A6A6A" d="M9.201,20.542l3.153-6.922H10.55l-0.065,0.15c-0.956,2.189-1.572,3.609-1.847,4.26
			c-0.113,0.269-0.208,0.5-0.283,0.693c-0.113-0.297-0.267-0.677-0.463-1.145L6.166,13.62H4.361l3.153,6.922H9.201z"/>
	</g>
</g>
<g id="METRICS_AND_KEYLINES">
</g>
<g id="Isolation_Mode">
</g>
<g id="filled">
</g>
</svg>
