<?xml version="1.0" encoding="utf-8"?>
<!-- Generator: Adobe Illustrator 26.0.2, SVG Export Plug-In . SVG Version: 6.00 Build 0)  -->
<svg version="1.2" baseProfile="tiny" xmlns="http://www.w3.org/2000/svg" xmlns:xlink="http://www.w3.org/1999/xlink" x="0px"
	 y="0px" viewBox="0 0 32 32" overflow="visible" xml:space="preserve">
<g id="Layer_1">
	<g>
		<rect x="6.5" y="6.5" fill="none" width="0.011" height="19"/>
		<path fill="#EBEBEB" d="M6.511,6.5v19H25.5v-19H6.511z M18.515,11.878v-0.986c0-0.393-0.322-0.715-0.715-0.715h-0.114
			c-0.394,0-0.716,0.322-0.716,0.715l-0.008,7.139l0.007-0.01c0,0-0.08,3.099-0.1,3.204c-0.304,1.673-1.482,2.088-2.515,2.088
			c-0.221,0-0.506-0.034-0.812-0.121c-0.69-0.196-1.223-0.75-1.465-1.426c-0.141-0.404-0.183-1.244-0.183-1.244l1.639-0.573v0.986
			c0,0.393,0.322,0.715,0.715,0.715h0.114c0.385,0,0.697-0.31,0.711-0.691c0.007-0.196,0.006-0.402,0.006-0.582v-6.572
			c0,0,0.022-2.672,0.036-2.824c0.178-2.008,1.47-2.468,2.58-2.468c0.146,0,0.321,0.015,0.512,0.051
			c0.799,0.149,1.49,0.719,1.762,1.485c0.001,0.004,0.003,0.007,0.004,0.011c0.141,0.404,0.183,1.438,0.183,1.438L18.515,11.878z"/>
		<path fill="#A7A9AC" d="M5.5,5.5v21h21v-21H5.5z M6.511,25.5H6.5v-19h0.011H25.5v19H6.511z"/>
		<path fill="#6A6A6A" d="M19.968,10.05c-0.271-0.766-0.962-1.336-1.762-1.485c-0.19-0.036-0.365-0.051-0.512-0.051
			c-1.11,0-2.401,0.46-2.58,2.468c-0.013,0.152-0.036,2.824-0.036,2.824v6.572c0,0.18,0.001,0.386-0.006,0.582
			c-0.014,0.382-0.326,0.691-0.711,0.691h-0.114c-0.393,0-0.715-0.322-0.715-0.715v-0.986l-1.639,0.573c0,0,0.042,0.84,0.183,1.244
			c0.243,0.675,0.775,1.229,1.465,1.426c0.306,0.087,0.591,0.121,0.812,0.121c1.032,0,2.211-0.416,2.515-2.088
			c0.021-0.105,0.1-3.204,0.1-3.204l-0.007,0.01l0.008-7.139c0-0.393,0.322-0.715,0.716-0.715H17.8c0.393,0,0.715,0.322,0.715,0.715
			v0.986l1.639-0.38c0,0-0.042-1.034-0.183-1.438C19.97,10.057,19.969,10.053,19.968,10.05z"/>
	</g>
</g>
<g id="METRICS_AND_KEYLINES">
</g>
<g id="Isolation_Mode">
</g>
<g id="filled">
</g>
</svg>
