<?xml version="1.0" encoding="utf-8"?>
<!-- Generator: Adobe Illustrator 26.0.2, SVG Export Plug-In . SVG Version: 6.00 Build 0)  -->
<svg version="1.2" baseProfile="tiny" xmlns="http://www.w3.org/2000/svg" xmlns:xlink="http://www.w3.org/1999/xlink" x="0px"
	 y="0px" viewBox="0 0 16 16" overflow="visible" xml:space="preserve">
<g id="Layer_1">
	<g>
		<path fill="#6A6A6A" d="M14.812,0.812H1.188c-0.207,0-0.375,0.168-0.375,0.375v13.625c0,0.207,0.168,0.375,0.375,0.375h13.625
			c0.207,0,0.375-0.168,0.375-0.375V1.187C15.188,0.98,15.02,0.812,14.812,0.812z M14.438,14.437H1.562V1.562h12.875V14.437z"/>
		<path fill="#6A6A6A" d="M5.456,10.506c0.071,0,0.14-0.019,0.2-0.055l3.088-1.843c0.118-0.07,0.19-0.199,0.19-0.336V3.885
			c0-0.215-0.175-0.391-0.391-0.391s-0.39,0.175-0.39,0.391V8.05L5.256,9.779c-0.09,0.053-0.153,0.138-0.179,0.24
			c-0.026,0.101-0.01,0.206,0.043,0.296C5.19,10.432,5.319,10.506,5.456,10.506z"/>
	</g>
</g>
<g id="METRICS_AND_KEYLINES">
</g>
<g id="Isolation_Mode">
</g>
<g id="filled">
</g>
</svg>
