<?xml version="1.0" encoding="utf-8"?>
<!-- Generator: Adobe Illustrator 26.0.2, SVG Export Plug-In . SVG Version: 6.00 Build 0)  -->
<svg version="1.2" baseProfile="tiny" xmlns="http://www.w3.org/2000/svg" xmlns:xlink="http://www.w3.org/1999/xlink" x="0px"
	 y="0px" viewBox="0 0 16 16" overflow="visible" xml:space="preserve">
<g id="Layer_1">
	<path fill="#6A6A6A" d="M14.838,0.055C14.775,0.018,14.706,0,14.636,0c-0.066,0-0.131,0.016-0.191,0.049L4.384,7.115V0.358
		C4.384,0.16,4.216,0,4.009,0H1.343C1.136,0,0.968,0.16,0.968,0.358v15.284C0.968,15.84,1.136,16,1.343,16h2.667
		c0.207,0,0.375-0.16,0.375-0.358V8.885l10.06,7.066c0.123,0.067,0.272,0.065,0.393-0.006c0.121-0.071,0.195-0.201,0.195-0.341
		V0.397C15.032,0.256,14.958,0.127,14.838,0.055z"/>
</g>
<g id="METRICS_AND_KEYLINES">
</g>
<g id="Isolation_Mode">
</g>
<g id="filled">
</g>
</svg>
