<?xml version="1.0" encoding="utf-8"?>
<!-- Generator: Adobe Illustrator 26.0.2, SVG Export Plug-In . SVG Version: 6.00 Build 0)  -->
<svg version="1.2" baseProfile="tiny" xmlns="http://www.w3.org/2000/svg" xmlns:xlink="http://www.w3.org/1999/xlink" x="0px"
	 y="0px" viewBox="0 0 16 16" overflow="visible" xml:space="preserve">
<g id="Layer_1">
	<g>
		<path d="M0.833,11.377c0.197-2.229,1.985-3.96,4.117-3.96c0.425,0,0.83,0.082,1.215,0.212c0.127-0.129,0.27-0.244,0.444-0.322
			l0.056-0.032l0.107-0.033l0.151-0.074l0.029-0.001l0.001-0.089C6.34,6.784,5.669,6.602,4.95,6.602C2.22,6.602,0,8.927,0,11.784
			c0,0.224,0.183,0.407,0.408,0.407h5.346v-0.814H0.833z"/>
		<g>
			<path d="M7.511,8.382C7.419,8.305,7.317,8.243,7.22,8.174H7.197c-0.022,0-0.035,0.013-0.053,0.018
				C7.116,8.201,7.087,8.206,7.061,8.221C6.879,8.288,6.77,8.43,6.77,8.602v2.141v0.634h0.123v0.814H6.77v3.259
				c0,0.236,0.191,0.427,0.427,0.427h8.376c0.236,0,0.427-0.191,0.427-0.427V8.602c0-0.236-0.191-0.428-0.427-0.428h-0.798
				l0.001-2.156c0.001-0.419-0.169-0.803-0.467-1.054c-0.256-0.217-0.577-0.331-0.929-0.331c-0.009,0-0.018,0-0.028,0
				c-0.223,0.006-1.38,0.001-2.399-0.003L9.805,4.624c-0.505-0.002-0.514,0-0.557,0.008c-0.613,0.12-1.016,0.44-1.196,0.952
				c-0.05,0.144-0.075,0.305-0.076,0.492L7.964,7.764l-0.003,0.41H7.906C7.834,8.199,7.767,8.226,7.722,8.25
				C7.644,8.285,7.579,8.336,7.511,8.382z M8.828,6.081C8.829,5.99,8.84,5.92,8.859,5.867c0.052-0.149,0.156-0.313,0.506-0.389
				c0.051,0,0.181-0.001,0.352,0l1.235,0.006c1.025,0.005,2.185,0.009,2.423,0.003c0.169-0.014,0.309,0.066,0.383,0.128
				c0.104,0.089,0.165,0.235,0.165,0.402l-0.001,2.157H8.817L8.828,6.081z M8.631,9.028h6.515v5.996H7.624v-3.352v-0.929V9.028
				h0.003H8.631z"/>
			<rect x="10.888" y="10.923" width="0.995" height="2.365"/>
			<path d="M7.511,8.382C7.579,8.336,7.644,8.285,7.722,8.25c0.045-0.024,0.113-0.051,0.185-0.076H7.22
				C7.317,8.243,7.419,8.305,7.511,8.382z"/>
			<polygon points="6.893,11.377 6.77,11.377 6.77,11.672 6.77,12.191 6.893,12.191 			"/>
		</g>
		<path d="M4.85,5.809c1.568,0,2.843-1.275,2.843-2.843c0-1.568-1.275-2.845-2.843-2.845c-1.567,0-2.842,1.276-2.842,2.845
			C2.009,4.534,3.283,5.809,4.85,5.809z M4.85,0.938c1.118,0,2.028,0.91,2.028,2.029c0,1.118-0.91,2.027-2.028,2.027
			c-1.117,0-2.026-0.909-2.026-2.027C2.824,1.848,3.733,0.938,4.85,0.938z"/>
	</g>
</g>
<g id="METRICS_AND_KEYLINES">
</g>
<g id="Isolation_Mode">
</g>
<g id="filled">
</g>
</svg>
