<?xml version="1.0" encoding="utf-8"?>
<!-- Generator: Adobe Illustrator 26.0.2, SVG Export Plug-In . SVG Version: 6.00 Build 0)  -->
<svg version="1.2" baseProfile="tiny" xmlns="http://www.w3.org/2000/svg" xmlns:xlink="http://www.w3.org/1999/xlink" x="0px"
	 y="0px" viewBox="0 0 16 16" overflow="visible" xml:space="preserve">
<g id="Layer_1">
	<g>
		<path d="M11.408,0H4.592C4.361,0,4.174,0.187,4.174,0.418v15.101c0,0.231,0.187,0.418,0.418,0.418h6.816
			c0.231,0,0.418-0.187,0.418-0.418V0.418C11.826,0.187,11.639,0,11.408,0z M10.99,15.101H5.01V0.837h5.98V15.101z"/>
		<path d="M6.353,4.064h3.294c0.231,0,0.418-0.187,0.418-0.418V2.072c0-0.231-0.187-0.418-0.418-0.418H6.353
			c-0.231,0-0.418,0.187-0.418,0.418v1.573C5.935,3.876,6.122,4.064,6.353,4.064z M6.771,2.491h2.457v0.736H6.771V2.491z"/>
		<path d="M6.314,5.981h3.373c0.231,0,0.418-0.187,0.418-0.418S9.918,5.145,9.686,5.145H6.314c-0.231,0-0.418,0.187-0.418,0.418
			S6.083,5.981,6.314,5.981z"/>
		<path d="M6.314,8.073h3.373c0.231,0,0.418-0.187,0.418-0.418c0-0.231-0.187-0.418-0.418-0.418H6.314
			c-0.231,0-0.418,0.187-0.418,0.418C5.895,7.886,6.083,8.073,6.314,8.073z"/>
		<path d="M8,9.642c-0.261,0-0.472,0.211-0.472,0.472S7.739,10.585,8,10.585c0.261,0,0.472-0.211,0.472-0.472S8.261,9.642,8,9.642z"
			/>
	</g>
</g>
<g id="METRICS_AND_KEYLINES">
</g>
<g id="Isolation_Mode">
</g>
<g id="filled">
</g>
</svg>
