<?xml version="1.0" encoding="utf-8"?>
<!-- Generator: Adobe Illustrator 26.0.2, SVG Export Plug-In . SVG Version: 6.00 Build 0)  -->
<svg version="1.2" baseProfile="tiny" xmlns="http://www.w3.org/2000/svg" xmlns:xlink="http://www.w3.org/1999/xlink" x="0px"
	 y="0px" viewBox="0 0 16 16" overflow="visible" xml:space="preserve">
<g id="Layer_1">
	<g>
		<polygon fill="#EFEFEF" points="5.704,11.708 12.795,7.808 5.704,3.908 		"/>
		<path fill="#EFEFEF" d="M8.001,0.76c-3.998,0-7.25,3.252-7.25,7.25s3.252,7.25,7.25,7.25s7.25-3.252,7.25-7.25
			S11.999,0.76,8.001,0.76z M13.365,8.004l-7.777,4.277c-0.034,0.018-0.07,0.028-0.107,0.028c-0.039,0-0.079-0.01-0.114-0.031
			c-0.068-0.04-0.109-0.113-0.109-0.192V3.531c0-0.079,0.042-0.152,0.109-0.192c0.068-0.04,0.152-0.041,0.221-0.003l7.777,4.277
			c0.071,0.039,0.116,0.114,0.116,0.195C13.481,7.89,13.437,7.964,13.365,8.004z"/>
		<path fill="#5E5E5E" d="M8.001,0.26c-4.273,0-7.75,3.477-7.75,7.75s3.477,7.75,7.75,7.75s7.75-3.477,7.75-7.75
			S12.274,0.26,8.001,0.26z M8.001,15.26c-3.998,0-7.25-3.252-7.25-7.25s3.252-7.25,7.25-7.25s7.25,3.252,7.25,7.25
			S11.999,15.26,8.001,15.26z"/>
		<path fill="#5E5E5E" d="M13.462,7.438L5.685,3.16c-0.13-0.07-0.291-0.069-0.419,0.007C5.137,3.242,5.058,3.382,5.058,3.531v8.554
			c0,0.149,0.08,0.289,0.209,0.365c0.064,0.037,0.139,0.058,0.214,0.058c0.071,0,0.142-0.019,0.204-0.053l7.777-4.276
			c0.135-0.074,0.22-0.217,0.22-0.371S13.597,7.512,13.462,7.438z M12.38,7.808L5.904,11.37V4.246L12.38,7.808z"/>
	</g>
</g>
<g id="METRICS_AND_KEYLINES">
</g>
<g id="Isolation_Mode">
</g>
<g id="filled">
</g>
</svg>
