<?xml version="1.0" encoding="utf-8"?>
<!-- Generator: Adobe Illustrator 26.0.2, SVG Export Plug-In . SVG Version: 6.00 Build 0)  -->
<svg version="1.2" baseProfile="tiny" xmlns="http://www.w3.org/2000/svg" xmlns:xlink="http://www.w3.org/1999/xlink" x="0px"
	 y="0px" viewBox="0 0 16 16" overflow="visible" xml:space="preserve">
<g id="Layer_1">
	<path d="M12.638,4.943l3.21-3.47c0.14-0.14,0.18-0.35,0.1-0.54c-0.08-0.18-0.26-0.3-0.46-0.3h-6.5v-0.11c0-0.28-0.22-0.5-0.5-0.5
		h-5.74c-0.28,0-0.5,0.22-0.5,0.5v4.95c0,0.01-0.01,0.02-0.01,0.03v10.01c0,0.28,0.23,0.5,0.5,0.5c0.28,0,0.5-0.22,0.5-0.5v-8.52
		h3.7v1.53c0,0.27,0.23,0.5,0.5,0.5h7.96c0.2,0,0.38-0.12,0.46-0.31c0.08-0.18,0.04-0.39-0.1-0.54L12.638,4.943z M3.248,5.993v-4.97
		h4.74v4.97H3.248z M7.938,8.023v-1.03h0.55c0.28,0,0.5-0.22,0.5-0.5v-4.86h5.35l-2.76,2.98c-0.18,0.19-0.18,0.49,0.01,0.68
		l2.63,2.73H7.938z"/>
	<path fill="#FFFFFF" d="M11.588,5.293l2.63,2.73h-6.28v-1.03h0.55c0.28,0,0.5-0.22,0.5-0.5v-4.86h5.35l-2.76,2.98
		C11.398,4.803,11.398,5.103,11.588,5.293z"/>
	<rect x="3.248" y="1.023" fill="#FFFFFF" width="4.74" height="4.97"/>
</g>
<g id="METRICS_AND_KEYLINES">
</g>
<g id="Isolation_Mode">
</g>
<g id="filled">
</g>
</svg>
