<?xml version="1.0" encoding="utf-8"?>
<!-- Generator: Adobe Illustrator 26.0.2, SVG Export Plug-In . SVG Version: 6.00 Build 0)  -->
<svg version="1.2" baseProfile="tiny" xmlns="http://www.w3.org/2000/svg" xmlns:xlink="http://www.w3.org/1999/xlink" x="0px"
	 y="0px" viewBox="0 0 16 16" overflow="visible" xml:space="preserve">
<g id="Layer_1">
	<g>
		<path fill="#FFFFFF" d="M1.105,14.07h13.79L8,2.127L1.105,14.07z M8.474,12.609c-0.131,0.127-0.295,0.194-0.477,0.194
			c-0.184,0-0.349-0.069-0.479-0.199c-0.13-0.128-0.198-0.293-0.198-0.479c0-0.182,0.067-0.347,0.193-0.476
			c0.125-0.131,0.294-0.204,0.476-0.206h0.002c0.184,0.003,0.361,0.075,0.487,0.199c0.131,0.131,0.2,0.298,0.2,0.483
			C8.679,12.312,8.608,12.479,8.474,12.609z M9.422,5.9l0.02,0.021c0.328,0.354,0.495,0.824,0.495,1.395
			c0,0.392-0.081,0.747-0.241,1.058C9.554,8.654,9.295,8.883,8.937,9.2L8.838,9.287C8.5,9.548,8.382,9.752,8.379,10.147
			c0,0.001-0.002,0.11-0.037,0.19c-0.074,0.18-0.251,0.307-0.458,0.307c-0.21,0-0.394-0.129-0.458-0.316
			c-0.031-0.089-0.027-0.214-0.025-0.232c0.015-0.315,0.072-0.5,0.182-0.74C7.7,9.104,7.911,8.838,8.212,8.562
			C8.373,8.415,8.488,8.325,8.573,8.26c0.074-0.058,0.122-0.096,0.149-0.131c0.083-0.116,0.142-0.234,0.177-0.351
			c0.039-0.124,0.058-0.28,0.058-0.467c0-0.321-0.081-0.568-0.241-0.736c-0.154-0.163-0.379-0.245-0.67-0.245
			c-0.321,0-0.57,0.088-0.74,0.263C7.132,6.767,7.042,7.005,7.037,7.296c-0.001,0.051-0.013,0.1-0.033,0.144
			c-0.07,0.187-0.247,0.321-0.458,0.321c-0.213,0-0.39-0.138-0.459-0.327c-0.02-0.047-0.026-0.194-0.025-0.208
			c0.02-0.543,0.21-0.994,0.575-1.339c0.375-0.352,0.848-0.531,1.409-0.531C8.613,5.356,9.076,5.539,9.422,5.9z"/>
		<path d="M15.904,13.935L8.621,1.321C8.366,0.878,7.633,0.879,7.38,1.32L0.095,13.936c-0.127,0.221-0.127,0.495,0.001,0.716
			c0.128,0.221,0.366,0.358,0.621,0.358h14.565c0.256,0,0.494-0.137,0.621-0.358C16.032,14.432,16.032,14.157,15.904,13.935z
			 M1.105,14.07L8,2.127l6.895,11.942H1.105z"/>
		<path d="M7.992,11.443H7.99c-0.182,0.002-0.351,0.075-0.476,0.206c-0.126,0.13-0.193,0.294-0.193,0.476
			c0,0.186,0.068,0.351,0.198,0.479c0.13,0.13,0.295,0.199,0.479,0.199c0.182,0,0.346-0.067,0.477-0.194
			c0.134-0.13,0.205-0.297,0.205-0.483c0-0.185-0.069-0.351-0.2-0.483C8.353,11.518,8.176,11.446,7.992,11.443z"/>
		<path d="M6.062,7.226C6.061,7.241,6.067,7.387,6.087,7.434c0.069,0.189,0.247,0.327,0.459,0.327c0.21,0,0.388-0.135,0.458-0.321
			c0.02-0.044,0.032-0.093,0.033-0.144c0.005-0.291,0.095-0.529,0.269-0.705c0.17-0.175,0.419-0.263,0.74-0.263
			c0.291,0,0.517,0.083,0.67,0.245c0.16,0.168,0.241,0.415,0.241,0.736c0,0.187-0.019,0.343-0.058,0.467
			C8.864,7.895,8.805,8.012,8.722,8.128C8.695,8.164,8.647,8.202,8.573,8.26c-0.085,0.065-0.2,0.155-0.361,0.302
			C7.911,8.838,7.7,9.104,7.583,9.356c-0.11,0.239-0.167,0.424-0.182,0.74c-0.002,0.018-0.005,0.143,0.025,0.232
			c0.064,0.187,0.249,0.316,0.458,0.316c0.207,0,0.383-0.127,0.458-0.307c0.036-0.08,0.037-0.189,0.037-0.19
			c0.003-0.395,0.12-0.599,0.458-0.86L8.937,9.2c0.358-0.317,0.617-0.546,0.76-0.825c0.16-0.311,0.241-0.666,0.241-1.058
			c0-0.572-0.167-1.041-0.495-1.395L9.422,5.9C9.076,5.539,8.613,5.356,8.046,5.356c-0.561,0-1.034,0.179-1.409,0.531
			C6.272,6.232,6.082,6.683,6.062,7.226z"/>
	</g>
</g>
<g id="METRICS_AND_KEYLINES">
</g>
<g id="Isolation_Mode">
</g>
<g id="filled">
</g>
</svg>
