<?xml version="1.0" encoding="utf-8"?>
<!-- Generator: Adobe Illustrator 26.0.2, SVG Export Plug-In . SVG Version: 6.00 Build 0)  -->
<svg version="1.2" baseProfile="tiny" xmlns="http://www.w3.org/2000/svg" xmlns:xlink="http://www.w3.org/1999/xlink" x="0px"
	 y="0px" viewBox="0 0 16 16" overflow="visible" xml:space="preserve">
<g id="Layer_1">
	<rect width="16" height="16"/>
	<path fill="#FFFFFF" d="M13.06,3.189c-0.198-0.198-0.518-0.198-0.716,0L8.07,7.464L3.856,3.25c-0.198-0.198-0.519-0.198-0.716,0
		c-0.198,0.198-0.198,0.519,0,0.716L7.354,8.18L3.15,12.383c-0.198,0.198-0.198,0.518,0,0.716c0.099,0.099,0.229,0.148,0.358,0.148
		c0.13,0,0.259-0.049,0.358-0.148L8.07,8.896l4.213,4.212c0.099,0.099,0.229,0.148,0.358,0.148c0.13,0,0.259-0.049,0.358-0.148
		c0.198-0.198,0.198-0.519,0-0.716L8.786,8.18l4.274-4.274C13.258,3.708,13.258,3.387,13.06,3.189z"/>
</g>
<g id="METRICS_AND_KEYLINES">
</g>
<g id="Isolation_Mode">
</g>
<g id="filled">
</g>
</svg>
