<?xml version="1.0" encoding="utf-8"?>
<!-- Generator: Adobe Illustrator 26.0.2, SVG Export Plug-In . SVG Version: 6.00 Build 0)  -->
<svg version="1.2" baseProfile="tiny" xmlns="http://www.w3.org/2000/svg" xmlns:xlink="http://www.w3.org/1999/xlink" x="0px"
	 y="0px" viewBox="0 0 16 16" overflow="visible" xml:space="preserve">
<g id="Layer_1">
	<g>
		<path fill="#7F7F7F" d="M1.25,14.75h13.5V1.25H1.25V14.75z M3.667,3.564c0.086-0.086,0.224-0.086,0.31,0L8.103,7.69l4.11-4.11
			c0.086-0.086,0.224-0.086,0.31,0c0.086,0.086,0.086,0.224,0,0.31L8.413,8l4.126,4.126c0.086,0.086,0.086,0.224,0,0.31
			c-0.043,0.043-0.099,0.064-0.155,0.064c-0.056,0-0.112-0.021-0.155-0.064L8.103,8.31L4.01,12.402
			c-0.043,0.043-0.099,0.064-0.155,0.064s-0.112-0.021-0.155-0.064c-0.086-0.086-0.086-0.224,0-0.31L7.793,8L3.667,3.874
			C3.582,3.788,3.582,3.65,3.667,3.564z"/>
		<path fill="#444444" d="M0.75,0.75v14.5h14.5V0.75H0.75z M14.75,14.75H1.25V1.25h13.5V14.75z"/>
		<path fill="#444444" d="M12.681,11.985L8.695,8l3.969-3.97c0.079-0.079,0.123-0.185,0.123-0.296c0-0.112-0.044-0.217-0.123-0.295
			c-0.158-0.16-0.435-0.159-0.593-0.001L8.103,7.407L4.118,3.421C3.954,3.261,3.69,3.26,3.526,3.422
			c-0.164,0.164-0.164,0.43,0,0.594L7.511,8L3.56,11.951c-0.079,0.079-0.123,0.184-0.123,0.296s0.043,0.217,0.123,0.297
			c0.16,0.157,0.438,0.156,0.593,0l3.951-3.951l3.984,3.984c0.08,0.079,0.185,0.123,0.297,0.123s0.217-0.044,0.296-0.123
			s0.123-0.184,0.123-0.296C12.803,12.17,12.76,12.065,12.681,11.985z"/>
	</g>
</g>
<g id="METRICS_AND_KEYLINES">
</g>
<g id="Isolation_Mode">
</g>
<g id="filled">
</g>
</svg>
