<?xml version="1.0" encoding="utf-8"?>
<!-- Generator: Adobe Illustrator 26.0.2, SVG Export Plug-In . SVG Version: 6.00 Build 0)  -->
<svg version="1.2" baseProfile="tiny" xmlns="http://www.w3.org/2000/svg" xmlns:xlink="http://www.w3.org/1999/xlink" x="0px"
	 y="0px" viewBox="0 0 16 16" overflow="visible" xml:space="preserve">
<g id="Layer_1">
	<g>
		<path d="M0.737,1.311h10.067v2.001l0.1,0l0.1,0l0.337,0.001l0.1,0l0.1,0V0.941c0-0.203-0.165-0.369-0.369-0.369H0.369
			C0.165,0.572,0,0.738,0,0.941v7.684c0,0.203,0.165,0.369,0.369,0.369h5.034v1.724H3.735c-0.204,0-0.369,0.165-0.369,0.369
			s0.165,0.369,0.369,0.369h2.144v-0.1v-0.1V8.457V8.356v-0.1H0.737V1.311z"/>
		<path d="M15.578,7.819H14.79l0.001-2.13c0.001-0.413-0.167-0.793-0.461-1.041c-0.253-0.214-0.57-0.327-0.917-0.327
			c-0.009,0-0.018,0-0.028,0c-0.182,0.005-0.997,0.003-1.844-0.001c-0.033,0-0.066,0-0.1,0c-0.034,0-0.067,0-0.1,0
			c-0.109,0-0.219-0.001-0.326-0.001l-0.011,0l-0.1,0l-0.1,0L9.881,4.312c-0.499-0.002-0.508,0-0.55,0.008
			c-0.605,0.118-1.004,0.434-1.182,0.94C8.1,5.403,8.075,5.562,8.074,5.747L8.063,7.414L8.06,7.819H8.006H7.328H7.305
			c-0.021,0-0.035,0.013-0.053,0.018C7.225,7.846,7.196,7.851,7.171,7.865c-0.18,0.066-0.288,0.206-0.288,0.376v0.014v0.1v0.101
			v0.336v0.1v0.101v1.362v0.362v0.1v0.1v0.065v0.273v0.018v0.082v0.1v0.331v3.219c0,0.233,0.189,0.422,0.422,0.422h8.273
			c0.233,0,0.422-0.189,0.422-0.422V8.241C16,8.009,15.811,7.819,15.578,7.819z M8.916,5.751c0.001-0.089,0.011-0.158,0.03-0.211
			c0.051-0.148,0.154-0.309,0.5-0.384c0.05,0,0.179-0.001,0.348,0l1.22,0.006c1.013,0.004,2.158,0.009,2.393,0.003
			c0.167-0.013,0.305,0.065,0.378,0.126c0.103,0.088,0.163,0.232,0.163,0.397l-0.001,2.13H8.905L8.916,5.751z M15.156,14.584H7.727
			v-3.129v-0.1v-0.082v-0.018v-0.337v-0.1v-0.1v-0.362V8.662H7.73h0.992h6.435V14.584z"/>
		<rect x="10.951" y="10.534" width="0.982" height="2.336"/>
	</g>
</g>
<g id="METRICS_AND_KEYLINES">
</g>
<g id="Isolation_Mode">
</g>
<g id="filled">
</g>
</svg>
