<?xml version="1.0" encoding="utf-8"?>
<!-- Generator: Adobe Illustrator 26.0.2, SVG Export Plug-In . SVG Version: 6.00 Build 0)  -->
<svg version="1.2" baseProfile="tiny" xmlns="http://www.w3.org/2000/svg" xmlns:xlink="http://www.w3.org/1999/xlink" x="0px"
	 y="0px" viewBox="0 0 16 16" overflow="visible" xml:space="preserve">
<g id="Layer_1">
	<g>
		<path fill="#6A6A6A" d="M14.232,0.408C14.231,0.182,14.048,0,13.823,0l-3.661,0.005c-0.225,0-0.408,0.183-0.407,0.409
			l0.021,15.179c0,0.225,0.183,0.408,0.409,0.408l3.661-0.005c0.225,0,0.408-0.183,0.408-0.409L14.232,0.408z M10.591,15.183
			l-0.02-14.363l2.844-0.004l0.02,14.363L10.591,15.183z"/>
		<path fill="#6A6A6A" d="M5.568,0H2.155C1.93,0,1.747,0.183,1.747,0.408v4.896c0,0.225,0.183,0.408,0.408,0.408h3.412
			c0.225,0,0.408-0.183,0.408-0.408V0.408C5.976,0.183,5.793,0,5.568,0z M5.16,4.896H2.563v-4.08H5.16V4.896z"/>
		<path fill="#6A6A6A" d="M5.568,10.271H2.155c-0.225,0-0.408,0.183-0.408,0.408v4.896c0,0.225,0.183,0.408,0.408,0.408h3.412
			c0.225,0,0.408-0.183,0.408-0.408v-4.896C5.976,10.454,5.793,10.271,5.568,10.271z M5.16,15.167H2.563v-4.08H5.16V15.167z"/>
	</g>
</g>
<g id="METRICS_AND_KEYLINES">
</g>
<g id="Isolation_Mode">
</g>
<g id="filled">
</g>
</svg>
