<?xml version="1.0" encoding="utf-8"?>
<!-- Generator: Adobe Illustrator 26.0.2, SVG Export Plug-In . SVG Version: 6.00 Build 0)  -->
<svg version="1.2" baseProfile="tiny" xmlns="http://www.w3.org/2000/svg" xmlns:xlink="http://www.w3.org/1999/xlink" x="0px"
	 y="0px" viewBox="0 0 16 16" overflow="visible" xml:space="preserve">
<g id="Layer_1">
	<g>
		<path d="M8,0.022C3.601,0.022,0.022,3.601,0.022,8S3.601,15.978,8,15.978S15.978,12.399,15.978,8S12.399,0.022,8,0.022z M8,15.228
			c-3.985,0-7.228-3.242-7.228-7.228S4.014,0.772,8,0.772S15.228,4.015,15.228,8S11.985,15.228,8,15.228z"/>
		<path d="M12.75,7.625H3.242C3.035,7.625,2.867,7.793,2.867,8s0.168,0.375,0.375,0.375h9.508c0.207,0,0.375-0.168,0.375-0.375
			S12.957,7.625,12.75,7.625z"/>
	</g>
</g>
<g id="METRICS_AND_KEYLINES">
</g>
<g id="Isolation_Mode">
</g>
<g id="filled">
</g>
</svg>
