<?xml version="1.0" encoding="utf-8"?>
<!-- Generator: Adobe Illustrator 26.0.2, SVG Export Plug-In . SVG Version: 6.00 Build 0)  -->
<svg version="1.2" baseProfile="tiny" xmlns="http://www.w3.org/2000/svg" xmlns:xlink="http://www.w3.org/1999/xlink" x="0px"
	 y="0px" viewBox="0 0 16 16" overflow="visible" xml:space="preserve">
<g id="Layer_1">
	<g>
		<rect x="11" y="6.5" width="5" height="3"/>
		<rect y="6.5" width="5" height="3"/>
		<path d="M8.707,8l3.479-3.48c0.195-0.195,0.195-0.512,0-0.707s-0.512-0.195-0.707,0L8,7.293l-3.479-3.48
			c-0.195-0.195-0.512-0.195-0.707,0s-0.195,0.512,0,0.707L7.293,8l-3.479,3.48c-0.195,0.195-0.195,0.512,0,0.707
			c0.098,0.098,0.226,0.146,0.354,0.146s0.256-0.049,0.354-0.146L8,8.707l3.479,3.48c0.098,0.098,0.226,0.146,0.354,0.146
			s0.256-0.049,0.354-0.146c0.195-0.195,0.195-0.512,0-0.707L8.707,8z"/>
	</g>
</g>
<g id="METRICS_AND_KEYLINES">
</g>
<g id="Isolation_Mode">
</g>
<g id="filled">
</g>
</svg>
