<?xml version="1.0" encoding="utf-8"?>
<!-- Generator: Adobe Illustrator 26.0.2, SVG Export Plug-In . SVG Version: 6.00 Build 0)  -->
<svg version="1.2" baseProfile="tiny" xmlns="http://www.w3.org/2000/svg" xmlns:xlink="http://www.w3.org/1999/xlink" x="0px"
	 y="0px" viewBox="0 0 16 16" overflow="visible" xml:space="preserve">
<g id="Layer_1">
	<path d="M13.313,7.266c0-0.759-0.618-1.377-1.377-1.377c-0.06,0-0.119,0.007-0.177,0.015c-0.091,0.012-0.181,0.03-0.265,0.059
		c-0.048,0.016-0.095,0.036-0.141,0.057c-0.048-0.167-0.129-0.321-0.232-0.455c-0.136-0.177-0.313-0.322-0.519-0.416
		c-0.174-0.08-0.367-0.126-0.571-0.126c-0.166,0-0.324,0.031-0.471,0.085C9.539,5.116,9.519,5.126,9.498,5.135
		c-0.077,0.032-0.151,0.069-0.22,0.114C9.248,5.197,9.212,5.112,9.175,5.065c-0.136-0.172-0.31-0.33-0.512-0.421
		C8.49,4.565,8.299,4.521,8.098,4.521c-0.272,0-0.525,0.099-0.739,0.236L7.346,1.393C7.345,0.624,6.718,0,5.95,0
		C5.949,0,5.948,0,5.947,0C5.575,0.001,5.225,0.147,4.961,0.412C4.697,0.677,4.553,1.028,4.554,1.399l0.01,4.375
		C4.56,5.797,4.556,5.819,4.556,5.841v0.171C4.555,6.029,4.552,6.044,4.552,6.06v0.482C4.378,6.465,4.19,6.423,3.995,6.423
		c-0.77,0-1.398,0.63-1.396,1.399l0.006,2.58c-0.005,0.093-0.007,0.186-0.007,0.279C2.597,13.614,4.961,16,7.868,16
		c2.189,0,4.071-1.354,4.866-3.275c0.021-0.027,0.249-0.668,0.324-1.048c0.224-1.131,0.326-2.613,0.339-2.816
		C13.432,8.535,13.313,7.266,13.313,7.266z M12.561,8.808c-0.003,0.054-0.074,1.135-0.227,2.143
		c-0.029,0.193-0.062,0.384-0.097,0.564c-0.049,0.25-0.206,0.716-0.257,0.847c-0.007,0.014-0.013,0.028-0.019,0.043
		c-0.694,1.675-2.3,2.758-4.092,2.758c-2.445,0-4.433-2.01-4.433-4.48c0-0.077,0.002-0.156,0.006-0.236
		c0.001-0.015,0.001-0.03,0.001-0.045L3.441,9.816C3.437,9.791,3.433,9.766,3.433,9.74V7.739c0-0.313,0.256-0.568,0.568-0.568
		c0.089,0,0.173,0.023,0.248,0.06c0.068,0.034,0.128,0.08,0.178,0.137C4.486,7.435,4.53,7.516,4.552,7.605v0.069h0.011
		c0.003,0.022,0.007,0.043,0.007,0.065v1.755c0.05,0.176,0.21,0.305,0.401,0.305c0.231,0,0.419-0.188,0.419-0.419V6.618
		c0.002-0.025,0.005-0.05,0.005-0.075V5.881c0.005-0.036,0.007-0.072,0.007-0.108l-0.01-4.376c0-0.15,0.056-0.286,0.164-0.394
		c0.107-0.108,0.243-0.165,0.392-0.165H5.95c0.307,0,0.558,0.25,0.559,0.559l0.014,3.776c0.001,0.207,0.082,0.402,0.219,0.554
		c0.024,0.027,0.047,0.056,0.075,0.08c0.13,0.111,0.291,0.176,0.458,0.193C7.303,6.002,7.331,6.007,7.36,6.007
		c0.024,0,0.082-0.016,0.129-0.031c0.028-0.015,0.09-0.221,0.115-0.279c0.084-0.195,0.273-0.339,0.493-0.339
		c0.285,0,0.517,0.279,0.536,0.559c0.005,0,0.012,0.238,0.012,0.238c0,0.038,0.006,0.074,0.015,0.109
		c0.047,0.183,0.21,0.32,0.407,0.323l0.049,0.001c0.149,0.002,0.281-0.075,0.359-0.19c0.008-0.011,0.014-0.024,0.02-0.036
		c0.031-0.059,0.123-0.31,0.172-0.356c0.096-0.089,0.223-0.145,0.363-0.145c0.239,0,0.44,0.158,0.511,0.374
		c0.016,0.006,0.041,0.603,0.041,0.603c0,0.039,0.006,0.075,0.015,0.111c0.047,0.181,0.21,0.318,0.406,0.32l0.049,0.001
		c0.146,0.002,0.277-0.072,0.355-0.184c0,0,0.104-0.174,0.209-0.253c0.09-0.066,0.199-0.107,0.319-0.107
		c0.297,0,0.539,0.242,0.539,0.539C12.475,7.266,12.561,8.795,12.561,8.808z"/>
</g>
<g id="METRICS_AND_KEYLINES">
</g>
<g id="Isolation_Mode">
</g>
<g id="filled">
</g>
</svg>
