<?xml version="1.0" encoding="utf-8"?>
<!-- Generator: Adobe Illustrator 26.0.2, SVG Export Plug-In . SVG Version: 6.00 Build 0)  -->
<svg version="1.2" baseProfile="tiny" xmlns="http://www.w3.org/2000/svg" xmlns:xlink="http://www.w3.org/1999/xlink" x="0px"
	 y="0px" viewBox="0 0 16 16" overflow="visible" xml:space="preserve">
<g id="Layer_1">
	<g>
		<path d="M12.903,13.687c0.249,0,0.452-0.202,0.452-0.452V8.467c0-0.249-0.202-0.452-0.452-0.452c-0.249,0-0.452,0.202-0.452,0.452
			v4.769C12.451,13.485,12.653,13.687,12.903,13.687z"/>
		<path d="M13.451,15.103c-0.146-0.316-0.523-0.455-0.84-0.309c-0.316,0.147-0.454,0.523-0.307,0.84
			c0.146,0.316,0.523,0.454,0.839,0.307C13.46,15.795,13.598,15.418,13.451,15.103z"/>
		<path d="M9.724,0H2.908C2.677,0,2.49,0.187,2.49,0.418v15.101c0,0.231,0.187,0.418,0.418,0.418h6.816
			c0.231,0,0.418-0.187,0.418-0.418V0.418C10.143,0.187,9.956,0,9.724,0z M9.306,15.101h-5.98V0.837h5.98V15.101z"/>
		<path d="M4.69,4.064h3.294c0.231,0,0.418-0.187,0.418-0.418V2.072c0-0.231-0.187-0.418-0.418-0.418H4.69
			c-0.231,0-0.418,0.187-0.418,0.418v1.573C4.272,3.876,4.459,4.064,4.69,4.064z M5.109,2.491h2.457v0.736H5.109V2.491z"/>
		<path d="M4.651,5.981h3.373c0.231,0,0.418-0.187,0.418-0.418c0-0.231-0.187-0.418-0.418-0.418H4.651
			c-0.231,0-0.418,0.187-0.418,0.418C4.233,5.794,4.42,5.981,4.651,5.981z"/>
		<path d="M4.651,8.073h3.373c0.231,0,0.418-0.187,0.418-0.418c0-0.231-0.187-0.418-0.418-0.418H4.651
			c-0.231,0-0.418,0.187-0.418,0.418C4.233,7.886,4.42,8.073,4.651,8.073z"/>
		<path d="M8.099,9.642c-0.261,0-0.472,0.211-0.472,0.472s0.211,0.472,0.472,0.472c0.261,0,0.472-0.211,0.472-0.472
			S8.36,9.642,8.099,9.642z"/>
	</g>
</g>
<g id="METRICS_AND_KEYLINES">
</g>
<g id="Isolation_Mode">
</g>
<g id="filled">
</g>
</svg>
