<?xml version="1.0" encoding="utf-8"?>
<!-- Generator: Adobe Illustrator 26.0.2, SVG Export Plug-In . SVG Version: 6.00 Build 0)  -->
<svg version="1.2" baseProfile="tiny" xmlns="http://www.w3.org/2000/svg" xmlns:xlink="http://www.w3.org/1999/xlink" x="0px"
	 y="0px" viewBox="0 0 16 16" overflow="visible" xml:space="preserve">
<g id="Layer_1">
	<g>
		<path fill="#EFEFEF" d="M8,0.76c-3.998,0-7.25,3.252-7.25,7.25S4.003,15.26,8,15.26s7.25-3.252,7.25-7.25S11.998,0.76,8,0.76z
			 M10.778,10.851C10.037,11.592,9.052,12,8.005,12h0c-1.047,0-2.032-0.408-2.773-1.149C3.789,9.408,3.684,7.139,4.988,5.573
			c0.084-0.1,0.233-0.114,0.334-0.031c0.1,0.084,0.114,0.233,0.031,0.334c-1.146,1.377-1.054,3.372,0.215,4.641
			c0.651,0.651,1.517,1.01,2.438,1.01h0c0.921,0,1.787-0.359,2.438-1.01c0.651-0.651,1.01-1.517,1.009-2.438
			c0-0.921-0.359-1.787-1.01-2.438C9.556,4.754,8.293,4.424,7.098,4.751l1.136,0.691C8.346,5.51,8.381,5.656,8.313,5.768
			C8.269,5.841,8.191,5.881,8.111,5.881c-0.042,0-0.084-0.011-0.123-0.034l-1.62-0.985c-0.064-0.039-0.106-0.105-0.113-0.18
			C6.248,4.608,6.277,4.535,6.332,4.484L7.9,3.062c0.097-0.088,0.247-0.081,0.335,0.016c0.088,0.097,0.081,0.247-0.016,0.335
			L7.334,4.215c1.249-0.22,2.524,0.172,3.444,1.091C12.307,6.835,12.307,9.322,10.778,10.851z"/>
		<path fill="#5E5E5E" d="M8,0.26c-4.273,0-7.75,3.477-7.75,7.75S3.727,15.76,8,15.76s7.75-3.477,7.75-7.75S12.274,0.26,8,0.26z
			 M8,15.26c-3.998,0-7.25-3.252-7.25-7.25S4.003,0.76,8,0.76s7.25,3.252,7.25,7.25S11.998,15.26,8,15.26z"/>
		<path fill="#5E5E5E" d="M10.919,5.164c-0.802-0.803-1.899-1.24-3.003-1.207l0.437-0.396C8.53,3.399,8.544,3.122,8.382,2.943
			c-0.161-0.179-0.438-0.19-0.617-0.029L6.199,4.335C6.096,4.427,6.043,4.565,6.056,4.7c0.012,0.136,0.09,0.261,0.208,0.333
			l1.62,0.984c0.198,0.12,0.48,0.053,0.6-0.146c0.061-0.1,0.079-0.218,0.051-0.331S8.437,5.331,8.338,5.272L7.642,4.848
			c0.979-0.115,1.943,0.219,2.659,0.935c0.613,0.612,0.951,1.428,0.951,2.296c0,0.867-0.337,1.683-0.951,2.296
			c-0.614,0.614-1.43,0.952-2.297,0.952s-1.683-0.338-2.296-0.952C4.513,9.18,4.427,7.3,5.505,6.004
			c0.075-0.09,0.11-0.202,0.1-0.318S5.54,5.464,5.45,5.389c-0.185-0.155-0.461-0.13-0.616,0.056
			c-1.371,1.646-1.26,4.032,0.256,5.548C5.869,11.771,6.903,12.2,8.004,12.2s2.136-0.43,2.915-1.208
			c0.777-0.777,1.205-1.812,1.205-2.914S11.696,5.942,10.919,5.164z M6.368,4.862L6.368,4.862L6.368,4.862L6.368,4.862L6.368,4.862z
			"/>
	</g>
</g>
<g id="METRICS_AND_KEYLINES">
</g>
<g id="Isolation_Mode">
</g>
<g id="filled">
</g>
</svg>
