<?xml version="1.0" encoding="utf-8"?>
<!-- Generator: Adobe Illustrator 26.0.2, SVG Export Plug-In . SVG Version: 6.00 Build 0)  -->
<svg version="1.2" baseProfile="tiny" xmlns="http://www.w3.org/2000/svg" xmlns:xlink="http://www.w3.org/1999/xlink" x="0px"
	 y="0px" viewBox="0 0 16 16" overflow="visible" xml:space="preserve">
<g id="Layer_1">
	<g>
		<rect x="4.942" y="9.737" fill="#7F7F7F" width="1.46" height="2.295"/>
		<rect x="9.452" y="3.96" transform="matrix(1 -0.0014 0.0014 1 -0.0111 0.0142)" fill="#7F7F7F" width="1.6" height="8.079"/>
		<rect x="4.942" y="4.009" fill="#7F7F7F" width="1.46" height="2.295"/>
		<path fill="#7F7F7F" d="M1.25,14.75h13.5V1.25H1.25V14.75z M9.216,3.503L11.276,3.5c0.127,0,0.23,0.102,0.23,0.229l0.012,8.538
			c0,0.127-0.102,0.23-0.229,0.23L9.229,12.5c-0.127,0-0.23-0.102-0.23-0.229L8.987,3.733C8.987,3.606,9.09,3.503,9.216,3.503z
			 M4.483,3.779c0-0.127,0.103-0.229,0.23-0.229h1.919c0.127,0,0.23,0.103,0.23,0.229v2.754c0,0.127-0.103,0.229-0.23,0.229H4.712
			c-0.127,0-0.23-0.103-0.23-0.229V3.779z M4.483,9.507c0-0.127,0.103-0.229,0.23-0.229h1.919c0.127,0,0.23,0.103,0.23,0.229v2.754
			c0,0.127-0.103,0.23-0.23,0.23H4.712c-0.127,0-0.23-0.103-0.23-0.23V9.507z"/>
		<path fill="#444444" d="M0.75,0.75v14.5h14.5V0.75H0.75z M14.75,14.75H1.25V1.25h13.5V14.75z"/>
		<g>
			<path fill="#444444" d="M11.706,3.729c0-0.236-0.193-0.429-0.431-0.429L9.216,3.303c-0.115,0-0.223,0.045-0.304,0.126
				C8.831,3.511,8.787,3.618,8.787,3.733l0.012,8.538c0,0.237,0.193,0.43,0.43,0.43h0l2.058-0.003c0.237,0,0.43-0.193,0.43-0.431
				L11.706,3.729z M10.858,11.838l-1.2,0.002l-0.01-7.679l1.2-0.002L10.858,11.838z M9.229,12.5L9.229,12.5L9.229,12.5L9.229,12.5z"
				/>
			<path fill="#444444" d="M6.632,3.35H4.712c-0.237,0-0.43,0.192-0.43,0.43v2.754c0,0.237,0.193,0.43,0.43,0.43h1.919
				c0.237,0,0.43-0.192,0.43-0.43V3.78C7.062,3.542,6.869,3.35,6.632,3.35z M6.202,4.209v1.895h-1.06V4.209H6.202z"/>
			<path fill="#444444" d="M6.632,9.077H4.712c-0.237,0-0.43,0.192-0.43,0.43v2.754c0,0.237,0.193,0.43,0.43,0.43h1.919
				c0.237,0,0.43-0.192,0.43-0.43V9.507C7.062,9.27,6.869,9.077,6.632,9.077z M6.202,9.937v1.895h-1.06V9.937H6.202z"/>
		</g>
	</g>
</g>
<g id="METRICS_AND_KEYLINES">
</g>
<g id="Isolation_Mode">
</g>
<g id="filled">
</g>
</svg>
