<?xml version="1.0" encoding="utf-8"?>
<!-- Generator: Adobe Illustrator 26.0.2, SVG Export Plug-In . SVG Version: 6.00 Build 0)  -->
<svg version="1.2" baseProfile="tiny" xmlns="http://www.w3.org/2000/svg" xmlns:xlink="http://www.w3.org/1999/xlink" x="0px"
	 y="0px" viewBox="0 0 16 16" overflow="visible" xml:space="preserve">
<g id="Layer_1">
	<g>
		<path fill="#7F7F7F" d="M1.25,14.75h13.5V1.25H1.25V14.75z M3.699,9.265C3.801,9.183,3.95,9.199,4.032,9.301L6.1,11.87L11.959,3.6
			c0.076-0.107,0.224-0.132,0.33-0.056c0.107,0.076,0.132,0.223,0.056,0.33L6.305,12.4c-0.043,0.061-0.112,0.098-0.186,0.1
			c-0.002,0-0.005,0-0.007,0c-0.072,0-0.139-0.032-0.185-0.088L3.663,9.598C3.581,9.496,3.597,9.347,3.699,9.265z"/>
		<path fill="#444444" d="M0.75,0.75v14.5h14.5V0.75H0.75z M14.75,14.75H1.25V1.25h13.5V14.75z"/>
		<path fill="#444444" d="M12.405,3.38c-0.195-0.141-0.469-0.092-0.608,0.104L6.09,11.538L4.188,9.176
			C4.115,9.085,4.011,9.028,3.895,9.015c-0.114-0.014-0.23,0.021-0.322,0.094C3.483,9.182,3.425,9.286,3.413,9.403
			C3.4,9.519,3.434,9.633,3.507,9.723l2.265,2.813C5.855,12.641,5.979,12.7,6.127,12.7h0c0.135-0.006,0.263-0.075,0.341-0.186
			l6.041-8.525C12.648,3.793,12.601,3.52,12.405,3.38z"/>
	</g>
</g>
<g id="METRICS_AND_KEYLINES">
</g>
<g id="Isolation_Mode">
</g>
<g id="filled">
</g>
</svg>
