<?xml version="1.0" encoding="utf-8"?>
<!-- Generator: Adobe Illustrator 26.0.2, SVG Export Plug-In . SVG Version: 6.00 Build 0)  -->
<svg version="1.2" baseProfile="tiny" xmlns="http://www.w3.org/2000/svg" xmlns:xlink="http://www.w3.org/1999/xlink" x="0px"
	 y="0px" viewBox="0 0 16 16" overflow="visible" xml:space="preserve">
<g id="Layer_1">
	<path fill="#6A6A6A" d="M14.109,8c0-3.114-2.344-5.687-5.359-6.058V1c0-0.414-0.336-0.75-0.75-0.75S7.25,0.586,7.25,1v0.942
		C4.234,2.313,1.891,4.886,1.891,8s2.344,5.687,5.359,6.058V15c0,0.414,0.336,0.75,0.75,0.75S8.75,15.414,8.75,15v-0.942
		C11.766,13.687,14.109,11.114,14.109,8z M3.391,8c0-2.285,1.675-4.173,3.859-4.534v9.067C5.066,12.173,3.391,10.285,3.391,8z
		 M8.75,12.534V3.466C10.934,3.827,12.609,5.715,12.609,8S10.934,12.173,8.75,12.534z"/>
</g>
<g id="METRICS_AND_KEYLINES">
</g>
<g id="Isolation_Mode">
</g>
<g id="filled">
</g>
</svg>
