<?xml version="1.0" encoding="utf-8"?>
<!-- Generator: Adobe Illustrator 26.0.2, SVG Export Plug-In . SVG Version: 6.00 Build 0)  -->
<svg version="1.2" baseProfile="tiny" xmlns="http://www.w3.org/2000/svg" xmlns:xlink="http://www.w3.org/1999/xlink" x="0px"
	 y="0px" viewBox="0 0 16 16" overflow="visible" xml:space="preserve">
<g id="Layer_1">
	<path fill="#6A6A6A" d="M15.693,8.282c0.074-0.181,0.074-0.383,0-0.565c-0.017-0.041-0.046-0.073-0.069-0.109
		c-0.026-0.041-4.205-4.497-4.205-4.497c-0.284-0.301-0.761-0.315-1.061-0.031c-0.302,0.284-0.315,0.759-0.031,1.06l2.934,3.11
		H2.739l2.934-3.11c0.284-0.301,0.271-0.776-0.031-1.06c-0.3-0.285-0.776-0.27-1.061,0.031c0,0-4.179,4.456-4.205,4.497
		C0.353,7.645,0.324,7.677,0.307,7.718c-0.074,0.181-0.074,0.383,0,0.565c0.017,0.041,0.046,0.073,0.069,0.109
		c0.026,0.041,4.205,4.497,4.205,4.497c0.147,0.156,0.347,0.235,0.546,0.235c0.185,0,0.37-0.068,0.515-0.205
		c0.302-0.284,0.315-0.759,0.031-1.06L2.739,8.75h10.522l-2.934,3.11c-0.284,0.301-0.271,0.776,0.031,1.06
		c0.145,0.137,0.33,0.205,0.515,0.205c0.199,0,0.398-0.079,0.546-0.235c0,0,4.179-4.456,4.205-4.497
		C15.647,8.355,15.676,8.323,15.693,8.282z"/>
</g>
<g id="METRICS_AND_KEYLINES">
</g>
<g id="Isolation_Mode">
</g>
<g id="filled">
</g>
</svg>
