<?xml version="1.0" encoding="utf-8"?>
<!-- Generator: Adobe Illustrator 26.0.2, SVG Export Plug-In . SVG Version: 6.00 Build 0)  -->
<svg version="1.2" baseProfile="tiny" xmlns="http://www.w3.org/2000/svg" xmlns:xlink="http://www.w3.org/1999/xlink" x="0px"
	 y="0px" viewBox="0 0 16 16" overflow="visible" xml:space="preserve">
<g id="Layer_1">
	<g>
		<path fill="#FFFFFF" d="M0,0v16h16V0H0z M10.902,5.222c0.037,0.034,0.058,0.084,0.057,0.135l-0.025,1.014
			c-0.001,0.072-0.045,0.135-0.11,0.163c-0.066,0.027-0.142,0.014-0.194-0.035L8.337,4.272l0.016,7.693l2.353-2.093
			c0.053-0.049,0.129-0.062,0.195-0.035c0.066,0.028,0.109,0.093,0.109,0.164l0.009,0.959c0,0.051-0.02,0.099-0.057,0.133
			l-2.729,2.47H14c0.207,0,0.375,0.168,0.375,0.375S14.207,14.312,14,14.312H1.5c-0.207,0-0.375-0.168-0.375-0.375
			s0.168-0.375,0.375-0.375h5.781L4.659,11.09c-0.037-0.034-0.058-0.084-0.057-0.135l0.025-1.014
			c0.001-0.072,0.045-0.135,0.11-0.163c0.066-0.027,0.142-0.014,0.194,0.035l2.292,2.227L7.208,4.348L4.855,6.441
			C4.802,6.49,4.726,6.503,4.66,6.476C4.594,6.448,4.551,6.383,4.55,6.312L4.541,5.353c0-0.051,0.02-0.099,0.057-0.133l2.729-2.47
			H1.5c-0.207,0-0.375-0.168-0.375-0.375S1.293,2,1.5,2H14c0.207,0,0.375,0.168,0.375,0.375S14.207,2.75,14,2.75H8.28L10.902,5.222z
			"/>
		<path fill="#6A6A6A" d="M14.375,2.375C14.375,2.168,14.207,2,14,2H1.5C1.293,2,1.125,2.168,1.125,2.375S1.293,2.75,1.5,2.75h5.827
			L4.598,5.22C4.561,5.254,4.541,5.302,4.541,5.353L4.55,6.312c0.001,0.071,0.044,0.136,0.11,0.164
			C4.726,6.503,4.802,6.49,4.855,6.441l2.353-2.093l0.016,7.693L4.932,9.813C4.879,9.764,4.804,9.751,4.738,9.778
			c-0.066,0.028-0.109,0.091-0.11,0.163l-0.025,1.014c-0.001,0.051,0.02,0.101,0.057,0.135l2.622,2.472H1.5
			c-0.207,0-0.375,0.168-0.375,0.375s0.168,0.375,0.375,0.375H14c0.207,0,0.375-0.168,0.375-0.375S14.207,13.562,14,13.562H8.234
			l2.729-2.47C11,11.058,11.02,11.01,11.02,10.96l-0.009-0.959c-0.001-0.071-0.044-0.136-0.109-0.164
			c-0.066-0.027-0.142-0.015-0.195,0.035l-2.353,2.093L8.337,4.272l2.292,2.227c0.052,0.049,0.128,0.062,0.194,0.035
			c0.065-0.028,0.109-0.091,0.11-0.163l0.025-1.014c0.001-0.052-0.02-0.101-0.057-0.135L8.28,2.75H14
			C14.207,2.75,14.375,2.582,14.375,2.375z"/>
	</g>
</g>
<g id="METRICS_AND_KEYLINES">
</g>
<g id="Isolation_Mode">
</g>
<g id="filled">
</g>
</svg>
