<?xml version="1.0" encoding="utf-8"?>
<!-- Generator: Adobe Illustrator 26.0.2, SVG Export Plug-In . SVG Version: 6.00 Build 0)  -->
<svg version="1.2" baseProfile="tiny" xmlns="http://www.w3.org/2000/svg" xmlns:xlink="http://www.w3.org/1999/xlink" x="0px"
	 y="0px" viewBox="0 0 16 16" overflow="visible" xml:space="preserve">
<g id="Layer_1">
	<path d="M13.308,8.558c0.005-0.051,0.006-0.062,0.013-0.133c0.01-0.106,0.024-0.278,0.04-0.474
		c0.021-0.261,0.045-0.565,0.068-0.805l0.1-0.997c0.117-1.165,0.228-2.266,0.242-2.688c0.021-0.653-0.26-1.755-1.103-1.933
		c-0.465-0.1-0.889-0.029-1.227,0.203c-0.262,0.179-0.458,0.438-0.594,0.786c0.005-0.212,0.01-0.389,0.015-0.521
		c0.05-1.253-0.624-1.749-1.198-1.943c-0.142-0.048-0.604-0.105-0.91,0.041C7.698,0.597,7.681,1.625,7.675,1.963
		c-0.002,0.149,0,0.617,0.003,1.235C7.654,3.051,7.635,2.944,7.622,2.888C7.45,2.167,6.81,1.722,6.035,1.757
		c-0.72,0.044-1.256,0.498-1.434,1.215c-0.066,0.264-0.04,0.568-0.018,0.82c0.021,0.141,0.379,2.486,0.622,4.051
		C5.179,7.801,5.162,7.774,5.156,7.765C4.667,7.038,3.85,6.796,3.124,7.16C2.338,7.553,2.016,8.465,2.376,9.281
		c0.143,0.324,1.775,3.447,2.263,4.369l0.084,0.16l0.019-0.01C5.657,15.177,7.148,16,8.77,16c2.708,0,4.911-2.412,4.911-5.376
		c0-0.699-0.121-1.379-0.359-2.022L13.308,8.558z M12.588,8.841c0.013,0.082,0.137,0.261,0.186,0.408
		c0.17,0.514,0.19,0.822,0.19,1.376c0,2.569-1.882,4.659-4.195,4.659c-1.421,0-2.73-0.741-3.505-1.983
		c-0.568-1.074-2.111-4.032-2.233-4.309C2.828,8.532,3.006,8.02,3.445,7.8C3.848,7.599,4.275,7.738,4.56,8.162
		c0.047,0.072,0.617,1.028,0.989,1.652c0.089,0.149,0.271,0.213,0.432,0.153C6.144,9.906,6.24,9.739,6.21,9.569L6.125,9.081
		c-0.072-0.414-0.826-5.347-0.831-5.38C5.279,3.529,5.259,3.293,5.296,3.144c0.103-0.415,0.374-0.647,0.781-0.672
		c0.44-0.032,0.756,0.193,0.848,0.581c0.08,0.339,0.457,3.177,0.617,4.389C7.588,7.79,7.62,8.032,7.634,8.124
		c0.011,0.047,0.038,0.117,0.08,0.213c0.058,0.135,0.194,0.219,0.34,0.216C8.202,8.548,8.331,8.454,8.38,8.315
		C8.397,8.267,8.41,8.225,8.417,8.2c0.005-0.023,0.008-0.047,0.009-0.07C8.428,8.036,8.422,7.17,8.412,5.765
		c-0.011-1.547-0.025-3.472-0.02-3.791C8.399,1.518,8.485,1.016,9.062,0.74C9.131,0.708,9.36,0.712,9.434,0.731
		c0.323,0.11,0.748,0.357,0.713,1.236c-0.034,0.821-0.058,3.367-0.075,5.052c-0.007,0.714-0.012,1.256-0.016,1.405
		c-0.004,0.182,0.129,0.338,0.309,0.363c0.178,0.024,0.351-0.088,0.396-0.265c0.031-0.121,0.128-0.943,0.387-3.196
		c0.11-0.959,0.224-1.951,0.245-2.079c0.076-0.467,0.224-0.77,0.452-0.925c0.177-0.122,0.398-0.152,0.674-0.094
		c0.38,0.081,0.548,0.819,0.535,1.209c-0.013,0.398-0.127,1.538-0.238,2.64l-0.099,0.999c-0.024,0.243-0.049,0.552-0.07,0.818
		c-0.015,0.191-0.028,0.359-0.038,0.462c-0.013,0.132-0.023,0.237-0.027,0.322c-0.004,0.021-0.007,0.044-0.007,0.066
		C12.575,8.778,12.579,8.81,12.588,8.841z"/>
</g>
<g id="METRICS_AND_KEYLINES">
</g>
<g id="Isolation_Mode">
</g>
<g id="filled">
</g>
</svg>
