<?xml version="1.0" encoding="utf-8"?>
<!-- Generator: Adobe Illustrator 26.0.2, SVG Export Plug-In . SVG Version: 6.00 Build 0)  -->
<svg version="1.2" baseProfile="tiny" xmlns="http://www.w3.org/2000/svg" xmlns:xlink="http://www.w3.org/1999/xlink" x="0px"
	 y="0px" viewBox="0 0 16 16" overflow="visible" xml:space="preserve">
<g id="Layer_1">
	<g>
		<circle fill="#EFEFEF" cx="8" cy="8" r="7.5"/>
		<path fill="#5E5E5E" d="M8,15.75c-4.273,0-7.75-3.477-7.75-7.75S3.727,0.25,8,0.25S15.75,3.727,15.75,8S12.274,15.75,8,15.75z
			 M8,0.75C4.003,0.75,0.75,4.002,0.75,8S4.003,15.25,8,15.25s7.25-3.252,7.25-7.25S11.998,0.75,8,0.75z"/>
	</g>
	<path fill="#5E5E5E" d="M12.577,11.985L8.592,8l3.969-3.97c0.079-0.079,0.123-0.185,0.123-0.296c0-0.112-0.044-0.217-0.123-0.295
		c-0.079-0.08-0.184-0.124-0.296-0.124h0c-0.112,0-0.217,0.044-0.297,0.123L8,7.407L4.015,3.422C3.851,3.26,3.586,3.259,3.422,3.423
		c-0.163,0.163-0.163,0.429,0,0.593L7.408,8l-3.951,3.951c-0.079,0.079-0.123,0.184-0.123,0.296s0.043,0.217,0.122,0.296
		c0.157,0.159,0.434,0.16,0.593,0.001L8,8.593l3.984,3.984c0.08,0.079,0.185,0.123,0.296,0.123c0.113,0,0.218-0.044,0.295-0.122
		c0.08-0.079,0.124-0.185,0.124-0.298C12.7,12.168,12.656,12.063,12.577,11.985z"/>
</g>
<g id="METRICS_AND_KEYLINES">
</g>
<g id="Isolation_Mode">
</g>
<g id="filled">
</g>
</svg>
