<?xml version="1.0" encoding="utf-8"?>
<!-- Generator: Adobe Illustrator 26.0.2, SVG Export Plug-In . SVG Version: 6.00 Build 0)  -->
<svg version="1.2" baseProfile="tiny" xmlns="http://www.w3.org/2000/svg" xmlns:xlink="http://www.w3.org/1999/xlink" x="0px"
	 y="0px" viewBox="0 0 16 16" overflow="visible" xml:space="preserve">
<g id="Layer_1">
	<g>
		<path d="M0,0v16h16V0H0z M1.977,5.565L4.27,1.593c0.036-0.062,0.126-0.062,0.162,0l2.293,3.972c0.036,0.062-0.009,0.14-0.081,0.14
			H2.058C1.986,5.706,1.941,5.628,1.977,5.565z M13.009,13.799c0,0.096-0.054,0.183-0.14,0.225
			c-0.092,0.045-0.212,0.079-0.378,0.106c-0.152,0.023-0.287,0.035-0.407,0.035c-0.957,0-1.483-0.55-1.483-1.549v-2.279h-0.359
			c-0.138,0-0.25-0.112-0.25-0.25V9.777c0-0.1,0.059-0.189,0.149-0.229l0.503-0.222l0.238-0.796c0.032-0.106,0.129-0.179,0.24-0.179
			h0.372c0.138,0,0.25,0.112,0.25,0.25v0.735h0.983c0.138,0,0.25,0.112,0.25,0.25v0.5c0,0.138-0.112,0.25-0.25,0.25h-0.983v2.252
			c0,0.191,0.041,0.334,0.12,0.425c0.045,0.051,0.128,0.12,0.312,0.12c0.1,0,0.196-0.007,0.29-0.022
			c0.095-0.015,0.169-0.029,0.224-0.045c0.074-0.023,0.156-0.006,0.219,0.041c0.062,0.047,0.099,0.121,0.099,0.199V13.799z
			 M13.768,2.666L3.392,13.042c-0.098,0.098-0.226,0.146-0.354,0.146s-0.256-0.049-0.354-0.146c-0.195-0.195-0.195-0.512,0-0.707
			L13.061,1.959c0.195-0.195,0.512-0.195,0.707,0S13.964,2.471,13.768,2.666z"/>
		<path fill="#FFFFFF" d="M13.061,1.959L2.685,12.335c-0.195,0.195-0.195,0.512,0,0.707c0.098,0.098,0.226,0.146,0.354,0.146
			s0.256-0.049,0.354-0.146L13.768,2.666c0.195-0.195,0.195-0.512,0-0.707S13.257,1.764,13.061,1.959z"/>
		<path fill="#FFFFFF" d="M12.691,13.067c-0.055,0.016-0.129,0.03-0.224,0.045c-0.094,0.016-0.19,0.022-0.29,0.022
			c-0.185,0-0.267-0.069-0.312-0.12c-0.08-0.091-0.12-0.233-0.12-0.425v-2.252h0.983c0.138,0,0.25-0.112,0.25-0.25v-0.5
			c0-0.138-0.112-0.25-0.25-0.25h-0.983V8.602c0-0.138-0.112-0.25-0.25-0.25h-0.372c-0.11,0-0.208,0.072-0.24,0.179l-0.238,0.796
			l-0.503,0.222C10.05,9.587,9.991,9.677,9.991,9.777v0.311c0,0.138,0.112,0.25,0.25,0.25h0.359v2.279
			c0,0.999,0.527,1.549,1.483,1.549c0.12,0,0.255-0.012,0.407-0.035c0.166-0.027,0.286-0.062,0.378-0.106
			c0.086-0.042,0.14-0.129,0.14-0.225v-0.492c0-0.078-0.037-0.152-0.099-0.199C12.847,13.061,12.765,13.043,12.691,13.067z"/>
		<path fill="#FFFFFF" d="M6.726,5.565L4.432,1.593c-0.036-0.062-0.126-0.062-0.162,0L1.977,5.565
			c-0.036,0.062,0.009,0.14,0.081,0.14h4.587C6.717,5.706,6.762,5.628,6.726,5.565z"/>
	</g>
</g>
<g id="METRICS_AND_KEYLINES">
</g>
<g id="Isolation_Mode">
</g>
<g id="filled">
</g>
</svg>
