<?xml version="1.0" encoding="utf-8"?>
<!-- Generator: Adobe Illustrator 26.0.2, SVG Export Plug-In . SVG Version: 6.00 Build 0)  -->
<svg version="1.2" baseProfile="tiny" xmlns="http://www.w3.org/2000/svg" xmlns:xlink="http://www.w3.org/1999/xlink" x="0px"
	 y="0px" viewBox="0 0 16 16" overflow="visible" xml:space="preserve">
<g id="Layer_1">
	<g>
		<path d="M15.621,0.465H0.379C0.17,0.465,0,0.635,0,0.844v10.839c0,0.209,0.17,0.379,0.379,0.379h7.242v2.715H5.129
			c-0.209,0-0.379,0.17-0.379,0.379c0,0.209,0.17,0.379,0.379,0.379h5.743c0.209,0,0.379-0.17,0.379-0.379
			c0-0.209-0.17-0.379-0.379-0.379H8.379v-2.715h7.242c0.209,0,0.379-0.17,0.379-0.379V0.844C16,0.635,15.83,0.465,15.621,0.465z
			 M15.242,11.304H0.758V1.223h14.484V11.304z"/>
	</g>
</g>
<g id="METRICS_AND_KEYLINES">
</g>
<g id="Isolation_Mode">
</g>
<g id="filled">
</g>
</svg>
