<?xml version="1.0" encoding="utf-8"?>
<!-- Generator: Adobe Illustrator 22.1.0, SVG Export Plug-In . SVG Version: 6.00 Build 0)  -->
<svg version="1.2" baseProfile="tiny" id="Layer_1" xmlns="http://www.w3.org/2000/svg" xmlns:xlink="http://www.w3.org/1999/xlink"
	 x="0px" y="0px" viewBox="0 0 16 16" xml:space="preserve">
<path fill="#212121" d="M15.738,1.037H0.262c-0.202,0-0.328,0.218-0.227,0.393l7.738,13.402c0.101,0.175,0.353,0.175,0.454,0
	L15.965,1.43C16.065,1.255,15.939,1.037,15.738,1.037z M8.846,7.42C8.77,7.45,8.721,7.522,8.72,7.603l-0.043,3.106
	c-0.003,0.2-0.098,0.382-0.26,0.501c-0.11,0.08-0.239,0.121-0.381,0.121l-0.122-0.002c-0.168-0.003-0.326-0.072-0.443-0.193
	c-0.117-0.122-0.181-0.281-0.178-0.449l0.042-3.059c0.001-0.084-0.051-0.161-0.131-0.191C6.304,7.105,5.7,6.242,5.7,5.291
	c0-0.927,0.56-1.757,1.427-2.116l0.194-0.071C7.337,3.099,7.354,3.101,7.367,3.11C7.38,3.119,7.388,3.135,7.388,3.151v2.474h1.229
	V3.151c0-0.017,0.008-0.032,0.021-0.041c0.013-0.009,0.03-0.011,0.046-0.006l0.188,0.07c0,0,0.001,0,0.001,0
	C9.74,3.529,10.3,4.36,10.3,5.291C10.3,6.219,9.716,7.075,8.846,7.42z"/>
</svg>
