<?xml version="1.0" encoding="utf-8"?>
<!-- Generator: Adobe Illustrator 26.0.2, SVG Export Plug-In . SVG Version: 6.00 Build 0)  -->
<svg version="1.2" baseProfile="tiny" xmlns="http://www.w3.org/2000/svg" xmlns:xlink="http://www.w3.org/1999/xlink" x="0px"
	 y="0px" viewBox="0 0 16 16" overflow="visible" xml:space="preserve">
<g id="Layer_1">
	<g>
		<rect x="3.963" y="3.963" fill="#EFEFEF" width="8.073" height="8.073"/>
		<path fill="#EFEFEF" d="M8.039,0.76c-3.998,0-7.25,3.252-7.25,7.25s3.252,7.25,7.25,7.25s7.25-3.252,7.25-7.25
			S12.036,0.76,8.039,0.76z M12.5,12.084c0,0.23-0.186,0.416-0.416,0.416H3.916c-0.23,0-0.416-0.186-0.416-0.416V3.916
			C3.5,3.686,3.686,3.5,3.916,3.5h8.167c0.23,0,0.416,0.186,0.416,0.416V12.084z"/>
		<path fill="#5E5E5E" d="M8.039,0.26c-4.273,0-7.75,3.477-7.75,7.75s3.477,7.75,7.75,7.75s7.75-3.477,7.75-7.75
			S12.312,0.26,8.039,0.26z M8.039,15.26c-3.998,0-7.25-3.252-7.25-7.25s3.252-7.25,7.25-7.25s7.25,3.252,7.25,7.25
			S12.036,15.26,8.039,15.26z"/>
		<path fill="#5E5E5E" d="M12.084,3.3H3.916C3.576,3.3,3.3,3.576,3.3,3.916v8.168c0,0.34,0.276,0.616,0.616,0.616h8.167
			c0.34,0,0.617-0.276,0.617-0.616V3.916C12.7,3.576,12.423,3.3,12.084,3.3z M11.837,4.163v7.673H4.164V4.163H11.837z"/>
	</g>
</g>
<g id="METRICS_AND_KEYLINES">
</g>
<g id="Isolation_Mode">
</g>
<g id="filled">
</g>
</svg>
