<?xml version="1.0" encoding="utf-8"?>
<!-- Generator: Adobe Illustrator 26.0.2, SVG Export Plug-In . SVG Version: 6.00 Build 0)  -->
<svg version="1.2" baseProfile="tiny" xmlns="http://www.w3.org/2000/svg" xmlns:xlink="http://www.w3.org/1999/xlink" x="0px"
	 y="0px" viewBox="0 0 16 16" overflow="visible" xml:space="preserve">
<g id="Layer_1">
	<path fill="#6A6A6A" d="M8,0.791c-1.889,0-3.606,0.736-4.893,1.93C3.051,2.739,2.998,2.766,2.954,2.81
		C2.915,2.849,2.887,2.896,2.869,2.944C1.586,4.247,0.791,6.032,0.791,8c0,3.975,3.234,7.209,7.209,7.209c2,0,3.811-0.82,5.119-2.14
		c0.019-0.013,0.04-0.021,0.057-0.038c0.027-0.027,0.044-0.06,0.061-0.092c1.219-1.292,1.972-3.027,1.972-4.94
		C15.209,4.025,11.975,0.791,8,0.791z M8,14.45c-3.557,0-6.45-2.893-6.45-6.45c0-1.679,0.65-3.204,1.704-4.353L5.688,6.08H4.393
		v0.94h1.721L5.656,9.37H3.883v0.94h1.584L4.93,13.064h1.016l0.537-2.754h1.711l-0.537,2.754h1.021l0.537-2.754h0.703l2.435,2.435
		C11.204,13.8,9.679,14.45,8,14.45z M8.654,7.974L7.701,7.02H8.84L8.654,7.974z M8.48,8.872L8.383,9.37H6.67l0.376-1.932L8.48,8.872
		z M12.883,12.202l-2.01-2.01V9.37h-0.822L9.508,8.827L9.859,7.02h1.518V6.08h-1.336l0.551-2.794H9.578L9.027,6.08H7.314
		l0.551-2.794H6.852l-0.475,2.41L3.798,3.117C4.928,2.143,6.395,1.55,8,1.55c3.556,0,6.45,2.893,6.45,6.45
		C14.45,9.605,13.857,11.072,12.883,12.202z"/>
</g>
<g id="METRICS_AND_KEYLINES">
</g>
<g id="Isolation_Mode">
</g>
<g id="filled">
</g>
</svg>
