<?xml version="1.0" encoding="utf-8"?>
<!-- Generator: Adobe Illustrator 26.0.2, SVG Export Plug-In . SVG Version: 6.00 Build 0)  -->
<svg version="1.2" baseProfile="tiny" xmlns="http://www.w3.org/2000/svg" xmlns:xlink="http://www.w3.org/1999/xlink" x="0px"
	 y="0px" viewBox="0 0 16 16" overflow="visible" xml:space="preserve">
<g id="Layer_1">
	<g>
		<path fill="#6A6A6A" d="M12.117,6.667c-0.596,0-1.119,0.401-1.28,0.977H5.163c-0.161-0.576-0.684-0.977-1.28-0.977
			C3.147,6.667,2.549,7.265,2.549,8s0.598,1.334,1.333,1.334c0.596,0,1.119-0.401,1.28-0.977h5.675
			c0.161,0.576,0.684,0.977,1.28,0.977c0.735,0,1.334-0.598,1.334-1.334S12.852,6.667,12.117,6.667z M12.737,8
			c0,0.342-0.278,0.62-0.62,0.62s-0.62-0.278-0.62-0.62c0-0.342,0.278-0.62,0.62-0.62S12.737,7.658,12.737,8z M4.503,8
			c0,0.342-0.278,0.62-0.62,0.62c-0.342,0-0.62-0.278-0.62-0.62c0-0.342,0.278-0.62,0.62-0.62C4.225,7.38,4.503,7.658,4.503,8z"/>
		<path fill="#6A6A6A" d="M8,0C3.589,0,0,3.589,0,8s3.589,8,8,8s8-3.589,8-8S12.411,0,8,0z M8,15.186
			c-3.963,0-7.186-3.224-7.186-7.186S4.037,0.814,8,0.814S15.186,4.037,15.186,8S11.963,15.186,8,15.186z"/>
	</g>
</g>
<g id="METRICS_AND_KEYLINES">
</g>
<g id="Isolation_Mode">
</g>
<g id="filled">
</g>
</svg>
