<?xml version="1.0" encoding="utf-8"?>
<!-- Generator: Adobe Illustrator 26.0.2, SVG Export Plug-In . SVG Version: 6.00 Build 0)  -->
<svg version="1.2" baseProfile="tiny" xmlns="http://www.w3.org/2000/svg" xmlns:xlink="http://www.w3.org/1999/xlink" x="0px"
	 y="0px" viewBox="0 0 16 16" overflow="visible" xml:space="preserve">
<g id="Layer_1">
	<path d="M3.031,16c-0.352,0-0.706-0.11-1.008-0.337l-0.228-0.172c-0.356-0.269-0.587-0.662-0.649-1.106
		C1.085,13.94,1.199,13.5,1.468,13.143l3.866-5.124c-1.181-1.81-1.111-4.221,0.202-5.961C7,0.119,9.659-0.546,11.859,0.477
		c0.106,0.049,0.184,0.144,0.212,0.257c0.028,0.113,0.004,0.233-0.066,0.327L9.446,4.453l1.069,0.807l2.546-3.375
		c0.071-0.094,0.181-0.151,0.3-0.154c0.119-0.002,0.231,0.049,0.307,0.14c1.545,1.859,1.606,4.505,0.149,6.436
		c-1.298,1.72-3.5,2.449-5.551,1.867l-3.894,5.161C4.042,15.77,3.54,16,3.031,16z M9.691,0.773c-1.355,0-2.684,0.621-3.537,1.752
		c-1.167,1.547-1.18,3.716-0.031,5.275c0.101,0.138,0.1,0.326-0.003,0.462l-4.035,5.347c-0.144,0.191-0.205,0.429-0.172,0.668
		c0.034,0.24,0.157,0.451,0.349,0.596l0.228,0.172c0.397,0.3,0.964,0.22,1.264-0.177L7.812,9.49
		c0.101-0.134,0.277-0.187,0.434-0.133c1.81,0.62,3.8,0.011,4.953-1.517c1.139-1.509,1.187-3.533,0.169-5.078l-2.469,3.271
		c-0.128,0.17-0.371,0.205-0.542,0.076L8.671,4.837c-0.082-0.062-0.136-0.154-0.15-0.255C8.507,4.48,8.534,4.377,8.595,4.295
		l2.487-3.296C10.628,0.847,10.158,0.773,9.691,0.773z"/>
</g>
<g id="METRICS_AND_KEYLINES">
</g>
<g id="Isolation_Mode">
</g>
<g id="filled">
</g>
</svg>
