<?xml version="1.0" encoding="utf-8"?>
<!-- Generator: Adobe Illustrator 26.0.2, SVG Export Plug-In . SVG Version: 6.00 Build 0)  -->
<svg version="1.2" baseProfile="tiny" xmlns="http://www.w3.org/2000/svg" xmlns:xlink="http://www.w3.org/1999/xlink" x="0px"
	 y="0px" viewBox="0 0 16 16" overflow="visible" xml:space="preserve">
<g id="Layer_1">
	<g>
		<path fill="#6A6A6A" d="M11.315,4.147l-4.921,6.818L4.666,8.924c-0.143-0.17-0.397-0.191-0.567-0.047
			C3.929,9.02,3.908,9.274,4.052,9.443l2.06,2.434c0.077,0.091,0.189,0.142,0.307,0.142c0.005,0,0.01,0,0.016,0
			c0.124-0.005,0.238-0.066,0.311-0.167l5.222-7.235c0.13-0.18,0.089-0.432-0.091-0.562C11.696,3.926,11.445,3.967,11.315,4.147z"/>
		<path fill="#6A6A6A" d="M8,0C3.589,0,0,3.589,0,8c0,4.411,3.589,8,8,8c4.411,0,8-3.589,8-8C16,3.589,12.411,0,8,0z M8,15.196
			c-3.968,0-7.195-3.228-7.195-7.195c0-3.968,3.228-7.196,7.195-7.196c3.968,0,7.196,3.228,7.196,7.196
			C15.196,11.968,11.968,15.196,8,15.196z"/>
	</g>
</g>
<g id="METRICS_AND_KEYLINES">
</g>
<g id="Isolation_Mode">
</g>
<g id="filled">
</g>
</svg>
