<?xml version="1.0" encoding="utf-8"?>
<!-- Generator: Adobe Illustrator 26.0.2, SVG Export Plug-In . SVG Version: 6.00 Build 0)  -->
<svg version="1.2" baseProfile="tiny" xmlns="http://www.w3.org/2000/svg" xmlns:xlink="http://www.w3.org/1999/xlink" x="0px"
	 y="0px" viewBox="0 0 16 16" overflow="visible" xml:space="preserve">
<g id="Layer_1">
	<g>
		<rect x="4.942" y="4.009" fill="#EFEFEF" width="1.46" height="2.295"/>
		<rect x="9.452" y="3.96" transform="matrix(1 -0.0014 0.0014 1 -0.011 0.0141)" fill="#EFEFEF" width="1.6" height="8.079"/>
		<rect x="4.942" y="9.737" fill="#EFEFEF" width="1.46" height="2.295"/>
		<path fill="#EFEFEF" d="M8.039,0.75c-3.998,0-7.25,3.252-7.25,7.25s3.252,7.25,7.25,7.25s7.25-3.252,7.25-7.25
			S12.036,0.75,8.039,0.75z M6.861,12.261c0,0.127-0.103,0.23-0.23,0.23H4.712c-0.127,0-0.23-0.103-0.23-0.23V9.507
			c0-0.127,0.103-0.229,0.23-0.229h1.919c0.127,0,0.23,0.103,0.23,0.229V12.261z M6.861,6.533c0,0.127-0.103,0.229-0.23,0.229H4.712
			c-0.127,0-0.23-0.103-0.23-0.229V3.779c0-0.127,0.103-0.229,0.23-0.229h1.919c0.127,0,0.23,0.103,0.23,0.229V6.533z
			 M11.288,12.497L9.229,12.5c-0.127,0-0.23-0.102-0.23-0.229L8.987,3.733c0-0.127,0.102-0.23,0.229-0.23L11.276,3.5
			c0.127,0,0.23,0.102,0.23,0.229l0.012,8.538C11.517,12.394,11.415,12.497,11.288,12.497z"/>
		<path fill="#5E5E5E" d="M8.039,0.25c-4.273,0-7.75,3.477-7.75,7.75s3.477,7.75,7.75,7.75s7.75-3.477,7.75-7.75
			S12.312,0.25,8.039,0.25z M8.039,15.25c-3.998,0-7.25-3.252-7.25-7.25s3.252-7.25,7.25-7.25s7.25,3.252,7.25,7.25
			S12.036,15.25,8.039,15.25z"/>
		<g>
			<path fill="#5E5E5E" d="M11.706,3.729c0-0.236-0.193-0.429-0.43-0.429L9.216,3.303c-0.115,0-0.223,0.045-0.304,0.126
				C8.831,3.511,8.787,3.618,8.787,3.733l0.012,8.538c0,0.237,0.193,0.43,0.431,0.43l2.058-0.003c0.237,0,0.43-0.193,0.43-0.431
				L11.706,3.729z M10.858,11.838l-1.2,0.002l-0.01-7.679l1.2-0.002L10.858,11.838z"/>
			<path fill="#5E5E5E" d="M6.632,3.35H4.712c-0.237,0-0.43,0.192-0.43,0.43v2.754c0,0.237,0.193,0.43,0.43,0.43h1.919
				c0.237,0,0.43-0.192,0.43-0.43V3.78C7.062,3.542,6.869,3.35,6.632,3.35z M6.202,4.209v1.895h-1.06V4.209H6.202z"/>
			<path fill="#5E5E5E" d="M6.632,9.077H4.712c-0.237,0-0.43,0.192-0.43,0.43v2.754c0,0.237,0.193,0.43,0.43,0.43h1.919
				c0.237,0,0.43-0.192,0.43-0.43V9.507C7.062,9.27,6.869,9.077,6.632,9.077z M6.202,9.937v1.895h-1.06V9.937H6.202z"/>
		</g>
	</g>
</g>
<g id="METRICS_AND_KEYLINES">
</g>
<g id="Isolation_Mode">
</g>
<g id="filled">
</g>
</svg>
