<?xml version="1.0" encoding="utf-8"?>
<!-- Generator: Adobe Illustrator 26.0.2, SVG Export Plug-In . SVG Version: 6.00 Build 0)  -->
<svg version="1.2" baseProfile="tiny" xmlns="http://www.w3.org/2000/svg" xmlns:xlink="http://www.w3.org/1999/xlink" x="0px"
	 y="0px" viewBox="0 0 16 16" overflow="visible" xml:space="preserve">
<g id="Layer_1">
	<path fill="#6A6A6A" d="M15.799,5.817l-5.705-5.705c-0.149-0.149-0.392-0.149-0.541,0L9.31,0.355
		c-0.603,0.603-0.93,1.499-0.973,2.664c-0.755,0.984-1.533,1.997-2.304,3.01C6.007,6.024,5.982,6.02,5.956,6.015
		c-0.395-0.07-0.843-0.15-1.225-0.102C3.72,6.038,2.839,6.487,2.039,7.283L1.569,7.749C1.497,7.82,1.456,7.918,1.456,8.02
		c0,0.102,0.04,0.2,0.112,0.272l0.27,0.269l0.009-0.009c0.111,0.129,0.325,0.342,0.736,0.752l1.114,1.112l-3.163,3.186
		c-0.091,0.091-0.15,0.21-0.168,0.337l-0.269,1.363c-0.002,0.011-0.004,0.021-0.005,0.032c-0.019,0.176,0.039,0.351,0.161,0.479
		C0.368,15.933,0.525,16,0.689,16c0.012,0,0.023,0,0.035-0.001c0.012-0.001,0.024-0.002,0.035-0.004l1.344-0.203
		c0.14-0.013,0.27-0.075,0.37-0.175l3.204-3.227l1.903,1.899c0.074,0.074,0.172,0.112,0.271,0.112c0.087,0,0.174-0.029,0.245-0.089
		l0.465-0.388c0.626-0.521,1.176-1.452,1.369-2.315l0-0.001c0.125-0.566,0.04-1.233-0.048-1.774c0.807-0.593,1.611-1.19,2.414-1.786
		l0.64-0.475c1.15-0.055,2.031-0.381,2.62-0.971l0.243-0.243C15.948,6.209,15.948,5.967,15.799,5.817z"/>
</g>
<g id="METRICS_AND_KEYLINES">
</g>
<g id="Isolation_Mode">
</g>
<g id="filled">
</g>
</svg>
