<?xml version="1.0" encoding="utf-8"?>
<!-- Generator: Adobe Illustrator 26.0.2, SVG Export Plug-In . SVG Version: 6.00 Build 0)  -->
<svg version="1.2" baseProfile="tiny" xmlns="http://www.w3.org/2000/svg" xmlns:xlink="http://www.w3.org/1999/xlink" x="0px"
	 y="0px" viewBox="0 0 16 16" overflow="visible" xml:space="preserve">
<g id="Layer_1">
	<path d="M15.5,7.74H8.115c-0.207,0-0.375,0.168-0.375,0.375v2.492H3.742V6.61h2.492c0.207,0,0.375-0.168,0.375-0.375V0.5
		c0-0.207-0.168-0.375-0.375-0.375H0.5c-0.207,0-0.375,0.168-0.375,0.375v5.735c0,0.207,0.168,0.375,0.375,0.375h2.492v4.373
		c0,0.207,0.168,0.375,0.375,0.375H7.74V15.5c0,0.207,0.168,0.375,0.375,0.375H15.5c0.207,0,0.375-0.168,0.375-0.375V8.115
		C15.875,7.908,15.707,7.74,15.5,7.74z M0.875,0.875H5.86V5.86H0.875V0.875z M15.125,15.125H8.49V8.49h6.635V15.125z"/>
</g>
<g id="METRICS_AND_KEYLINES">
</g>
<g id="Isolation_Mode">
</g>
<g id="filled">
</g>
</svg>
