<?xml version="1.0" encoding="utf-8"?>
<!-- Generator: Adobe Illustrator 26.0.2, SVG Export Plug-In . SVG Version: 6.00 Build 0)  -->
<svg version="1.2" baseProfile="tiny" xmlns="http://www.w3.org/2000/svg" xmlns:xlink="http://www.w3.org/1999/xlink" x="0px"
	 y="0px" viewBox="0 0 16 16" overflow="visible" xml:space="preserve">
<g id="Layer_1">
	<g>
		<path fill="#6A6A6A" d="M8,0C3.589,0,0,3.589,0,8c0,4.411,3.589,8,8,8c4.411,0,8-3.589,8-8C16,3.589,12.411,0,8,0z M8,15.196
			c-3.968,0-7.196-3.228-7.196-7.196c0-3.968,3.228-7.196,7.196-7.196S15.196,4.032,15.196,8C15.196,11.968,11.968,15.196,8,15.196z
			"/>
		<path fill="#6A6A6A" d="M12.406,8.375H3.594C3.387,8.375,3.219,8.207,3.219,8s0.168-0.375,0.375-0.375h8.811
			c0.207,0,0.375,0.168,0.375,0.375S12.613,8.375,12.406,8.375z"/>
	</g>
</g>
<g id="METRICS_AND_KEYLINES">
</g>
<g id="Isolation_Mode">
</g>
<g id="filled">
</g>
</svg>
