<?xml version="1.0" encoding="utf-8"?>
<!-- Generator: Adobe Illustrator 26.0.2, SVG Export Plug-In . SVG Version: 6.00 Build 0)  -->
<svg version="1.2" baseProfile="tiny" xmlns="http://www.w3.org/2000/svg" xmlns:xlink="http://www.w3.org/1999/xlink" x="0px"
	 y="0px" viewBox="0 0 16 16" overflow="visible" xml:space="preserve">
<g id="Layer_1">
	<path fill="#6A6A6A" d="M15.862,15.197l-3.828-3.828h1.663c0.339,0,0.615-0.276,0.615-0.616V2.651c0-0.339-0.276-0.616-0.615-0.616
		H2.701L0.803,0.138c-0.184-0.184-0.481-0.184-0.665,0s-0.184,0.482,0,0.665L1.74,2.406C1.708,2.481,1.688,2.564,1.688,2.651v8.102
		c0,0.339,0.276,0.616,0.615,0.616h5.082v1.365H5.854c-0.339,0-0.615,0.276-0.615,0.616s0.276,0.616,0.615,0.616h4.293
		c0.339,0,0.615-0.276,0.615-0.616s-0.276-0.616-0.615-0.616H8.615v-1.365h2.088l4.493,4.493C15.289,15.954,15.409,16,15.529,16
		s0.241-0.046,0.333-0.138C16.046,15.678,16.046,15.38,15.862,15.197z M13.08,3.267v6.871h-2.278L3.932,3.267H13.08z M2.92,10.137
		V3.585l6.552,6.552H2.92z"/>
</g>
<g id="METRICS_AND_KEYLINES">
</g>
<g id="Isolation_Mode">
</g>
<g id="filled">
</g>
</svg>
