<?xml version="1.0" encoding="utf-8"?>
<!-- Generator: Adobe Illustrator 26.0.2, SVG Export Plug-In . SVG Version: 6.00 Build 0)  -->
<svg version="1.2" baseProfile="tiny" xmlns="http://www.w3.org/2000/svg" xmlns:xlink="http://www.w3.org/1999/xlink" x="0px"
	 y="0px" viewBox="0 0 16 16" overflow="visible" xml:space="preserve">
<g id="Layer_1">
	<g>
		<polygon fill="#6A6A6A" points="1.586,2.205 2.476,2.192 2.476,5.965 3.063,5.965 3.063,1.62 1.586,1.781 		"/>
		<path fill="#6A6A6A" d="M6.247,3.98L4.824,5.56v0.405h2.816V5.502H5.552L5.546,5.487l1.143-1.241
			c0.253-0.272,0.449-0.528,0.59-0.766c0.141-0.238,0.21-0.475,0.21-0.712c0-0.352-0.115-0.642-0.348-0.87
			C6.909,1.671,6.599,1.557,6.208,1.557c-0.457,0-0.815,0.128-1.074,0.383C4.876,2.193,4.751,2.508,4.761,2.882L4.768,2.9h0.563
			c0-0.279,0.071-0.495,0.214-0.649C5.687,2.097,5.908,2.02,6.208,2.02c0.209,0,0.377,0.074,0.503,0.223
			C6.838,2.391,6.9,2.572,6.9,2.789c0,0.176-0.045,0.347-0.136,0.514C6.675,3.47,6.502,3.695,6.247,3.98z"/>
		<path fill="#6A6A6A" d="M9.972,10.736H9.521l-0.244,1.241H8.515l0.245-1.241H8.31l-0.245,1.241H7.217v0.418H7.98l-0.202,1.044
			H6.99v0.418h0.704l-0.238,1.224h0.45l0.238-1.224h0.762l-0.239,1.224h0.454l0.238-1.224h0.737v-0.418H9.443l0.202-1.044h0.675
			v-0.418H9.727L9.972,10.736z M8.989,13.439H8.229l0.203-1.044h0.761L8.989,13.439z"/>
		<path fill="#6A6A6A" d="M14.128,12.396v-0.418h-0.594l0.245-1.241h-0.451l-0.244,1.241h-0.762l0.245-1.241h-0.45l-0.245,1.241
			h-0.848v0.418h0.764l-0.202,1.044h-0.788v0.418h0.704l-0.238,1.224h0.45l0.238-1.224h0.762l-0.239,1.224h0.454l0.238-1.224h0.737
			v-0.418h-0.653l0.202-1.044H14.128z M12.797,13.439h-0.761l0.203-1.044H13L12.797,13.439z"/>
		<path fill="#6A6A6A" d="M9.237,9.761C9.201,9.8,9.191,9.856,9.211,9.905c0.02,0.049,0.068,0.081,0.121,0.082l0.754,0.02
			c0.038,0,0.075-0.015,0.101-0.042l2.078-2.198c0.028-0.027,0.042-0.062,0.042-0.098c0-0.033-0.012-0.066-0.036-0.092l-2.076-2.3
			c-0.026-0.027-0.061-0.042-0.099-0.042L9.383,5.241C9.33,5.241,9.282,5.273,9.261,5.322C9.24,5.371,9.25,5.428,9.287,5.467
			l1.554,1.752H5.686c-0.074,0-0.134,0.06-0.134,0.134v0.571c0,0.074,0.06,0.134,0.134,0.134h5.21L9.237,9.761z"/>
	</g>
</g>
<g id="METRICS_AND_KEYLINES">
</g>
<g id="Isolation_Mode">
</g>
<g id="filled">
</g>
</svg>
