<?xml version="1.0" encoding="utf-8"?>
<!-- Generator: Adobe Illustrator 26.0.2, SVG Export Plug-In . SVG Version: 6.00 Build 0)  -->
<svg version="1.2" baseProfile="tiny" xmlns="http://www.w3.org/2000/svg" xmlns:xlink="http://www.w3.org/1999/xlink" x="0px"
	 y="0px" viewBox="0 0 16 16" overflow="visible" xml:space="preserve">
<g id="Layer_1">
	<g>
		<path d="M14.125,16H1.875c-0.228,0-0.413-0.185-0.413-0.413c0-3.777,2.933-6.851,6.538-6.851c3.605,0,6.538,3.073,6.538,6.851
			C14.538,15.815,14.353,16,14.125,16z M2.301,15.175h11.399C13.498,12.044,11.018,9.562,8,9.562S2.502,12.044,2.301,15.175z"/>
		<g>
			<path d="M7.865,0.825c1.583,0,2.872,1.289,2.872,2.873c0,1.583-1.288,2.871-2.872,2.871c-1.582,0-2.87-1.288-2.87-2.871
				C4.996,2.114,6.283,0.825,7.865,0.825 M7.865,0C5.825,0,4.17,1.658,4.17,3.698c0,2.041,1.655,3.696,3.695,3.696
				c2.041,0,3.697-1.656,3.697-3.696C11.562,1.658,9.906,0,7.865,0L7.865,0z"/>
		</g>
	</g>
</g>
<g id="METRICS_AND_KEYLINES">
</g>
<g id="Isolation_Mode">
</g>
<g id="filled">
</g>
</svg>
