<?xml version="1.0" encoding="utf-8"?>
<!-- Generator: Adobe Illustrator 26.0.2, SVG Export Plug-In . SVG Version: 6.00 Build 0)  -->
<svg version="1.2" baseProfile="tiny" xmlns="http://www.w3.org/2000/svg" xmlns:xlink="http://www.w3.org/1999/xlink" x="0px"
	 y="0px" viewBox="0 0 16 16" overflow="visible" xml:space="preserve">
<g id="Layer_1">
	<g>
		<path fill="#EFEFEF" d="M15.269,8c0-3.998-3.252-7.25-7.25-7.25S0.769,4.002,0.769,8s3.252,7.25,7.25,7.25S15.269,11.998,15.269,8
			z M4.469,8.969C3.934,8.969,3.5,8.535,3.5,8s0.434-0.969,0.969-0.969c0.535,0,0.969,0.434,0.969,0.969S5.005,8.969,4.469,8.969z
			 M8.193,8.969C7.657,8.969,7.223,8.535,7.223,8s0.434-0.969,0.969-0.969c0.535,0,0.969,0.434,0.969,0.969S8.728,8.969,8.193,8.969
			z M11.531,8.969c-0.535,0-0.969-0.434-0.969-0.969s0.434-0.969,0.969-0.969C12.066,7.031,12.5,7.465,12.5,8
			S12.066,8.969,11.531,8.969z"/>
		<path fill="#5E5E5E" d="M8.019,0.25c-4.273,0-7.75,3.477-7.75,7.75s3.477,7.75,7.75,7.75s7.75-3.477,7.75-7.75
			S12.293,0.25,8.019,0.25z M0.769,8c0-3.998,3.252-7.25,7.25-7.25s7.25,3.252,7.25,7.25s-3.252,7.25-7.25,7.25
			S0.769,11.998,0.769,8z"/>
		<circle fill="#5E5E5E" cx="4.469" cy="8" r="0.969"/>
		<path fill="#5E5E5E" d="M8.193,7.031C7.657,7.031,7.223,7.465,7.223,8s0.434,0.969,0.969,0.969c0.535,0,0.969-0.434,0.969-0.969
			S8.728,7.031,8.193,7.031z"/>
		<path fill="#5E5E5E" d="M11.531,7.031c-0.535,0-0.969,0.434-0.969,0.969s0.434,0.969,0.969,0.969C12.066,8.969,12.5,8.535,12.5,8
			S12.066,7.031,11.531,7.031z"/>
	</g>
</g>
<g id="METRICS_AND_KEYLINES">
</g>
<g id="Isolation_Mode">
</g>
<g id="filled">
</g>
</svg>
