<?xml version="1.0" encoding="utf-8"?>
<!-- Generator: Adobe Illustrator 26.0.2, SVG Export Plug-In . SVG Version: 6.00 Build 0)  -->
<svg version="1.2" baseProfile="tiny" xmlns="http://www.w3.org/2000/svg" xmlns:xlink="http://www.w3.org/1999/xlink" x="0px"
	 y="0px" viewBox="0 0 16 16" overflow="visible" xml:space="preserve">
<g id="Layer_1">
	<path fill="#6A6A6A" d="M15.371,7.688L8.312,0.629c-0.172-0.172-0.452-0.172-0.624,0L0.629,7.688c-0.172,0.172-0.172,0.452,0,0.624
		l7.059,7.059C7.774,15.457,7.887,15.5,8,15.5c0.113,0,0.226-0.043,0.312-0.129l7.059-7.059C15.543,8.14,15.543,7.86,15.371,7.688z
		 M11.011,8.12c-0.355,0.434-0.797,0.974-1.171,1.321C9.58,9.683,9.23,9.816,8.855,9.816H5.539c-0.079,0-0.266-0.038-0.359-0.131
		C5.023,9.567,4.986,9.314,4.983,8.918C4.691,8.95,4.367,8.974,4.108,8.748c-0.224-0.196-0.36-0.455-0.384-0.731
		C3.7,7.747,3.786,7.485,3.964,7.281c0.181-0.207,0.434-0.348,0.695-0.387c0.286-0.043,0.563,0.04,0.782,0.232
		c0.114,0.099,0.206,0.221,0.282,0.372h0.908v-1.33H5.807c-0.076,0-0.146-0.032-0.199-0.09c-0.05-0.05-0.078-0.118-0.078-0.19
		c0-0.149,0.121-0.271,0.271-0.271h2.172c0.076,0,0.146,0.032,0.199,0.09c0.05,0.05,0.078,0.118,0.078,0.19
		c0,0.15-0.121,0.271-0.271,0.271H7.26v1.315h0.027c0.259,0,0.796,0.091,1.134,0.335l0.045,0.033c0.268,0.198,0.5,0.369,1.441-0.157
		c0.035-0.02,0.096-0.061,0.172-0.112c0.291-0.197,0.778-0.527,1.127-0.553c0.237-0.014,0.479,0.175,0.501,0.397
		c0.021,0.205-0.114,0.292-0.221,0.362l-0.05,0.03C11.288,7.891,11.137,7.966,11.011,8.12z M11.805,10.485l-0.013,0
		c-0.248-0.007-0.432-0.197-0.427-0.441c0-0.022,0.007-0.084,0.007-0.084c0.073-0.482,0.376-1.311,0.389-1.346l0.045-0.123
		l0.043,0.124c0.012,0.036,0.305,0.886,0.375,1.342c0,0.002,0.007,0.065,0.007,0.086C12.236,10.275,12.044,10.473,11.805,10.485z"/>
</g>
<g id="METRICS_AND_KEYLINES">
</g>
<g id="Isolation_Mode">
</g>
<g id="filled">
</g>
</svg>
